<svg width="65" height="160" version="1.1" viewBox="0 0 156 262" xmlns="http://www.w3.org/2000/svg" xmlns:cc="http://creativecommons.org/ns#" xmlns:dc="http://purl.org/dc/elements/1.1/" xmlns:rdf="http://www.w3.org/1999/02/22-rdf-syntax-ns#">
 <defs>
  <filter id="filter2005" x="-.0032845" y="-.0018908" width="1.0066" height="1.0038" color-interpolation-filters="sRGB">
   <feGaussianBlur stdDeviation="0.10090486"/>
  </filter>
  <filter id="filter2055" x="-.032845" y="-.018908" width="1.0657" height="1.0378" color-interpolation-filters="sRGB">
   <feGaussianBlur stdDeviation="1.0090487"/>
  </filter>
  <filter id="filter2251" x="-.070616" y="-.040653" width="1.1412" height="1.0813" color-interpolation-filters="sRGB">
   <feGaussianBlur stdDeviation="8.1994997"/>
  </filter>
  <filter id="filter2251-6" x="-.070616" y="-.040653" width="1.1412" height="1.0813" color-interpolation-filters="sRGB">
   <feGaussianBlur stdDeviation="8.1994997"/>
  </filter>
  <filter id="filter2055-1" x="-.032845" y="-.018908" width="1.0657" height="1.0378" color-interpolation-filters="sRGB">
   <feGaussianBlur stdDeviation="1.0090487"/>
  </filter>
  <filter id="filter2005-3" x="-.0032845" y="-.0018908" width="1.0066" height="1.0038" color-interpolation-filters="sRGB">
   <feGaussianBlur stdDeviation="0.10090486"/>
  </filter>
  <filter id="filter2251-6-0" x="-.070616" y="-.040653" width="1.1412" height="1.0813" color-interpolation-filters="sRGB">
   <feGaussianBlur stdDeviation="8.1994997"/>
  </filter>
  <filter id="filter2055-1-0" x="-.032845" y="-.018908" width="1.0657" height="1.0378" color-interpolation-filters="sRGB">
   <feGaussianBlur stdDeviation="1.0090487"/>
  </filter>
  <filter id="filter2005-3-6" x="-.0032845" y="-.0018908" width="1.0066" height="1.0038" color-interpolation-filters="sRGB">
   <feGaussianBlur stdDeviation="0.10090486"/>
  </filter>
  <filter id="filter2251-6-0-5" x="-.070616" y="-.040653" width="1.1412" height="1.0813" color-interpolation-filters="sRGB">
   <feGaussianBlur stdDeviation="8.1994997"/>
  </filter>
  <filter id="filter2055-1-0-3" x="-.032845" y="-.018908" width="1.0657" height="1.0378" color-interpolation-filters="sRGB">
   <feGaussianBlur stdDeviation="1.0090487"/>
  </filter>
  <filter id="filter2005-3-6-2" x="-.0032845" y="-.0018908" width="1.0066" height="1.0038" color-interpolation-filters="sRGB">
   <feGaussianBlur stdDeviation="0.10090486"/>
  </filter>
 </defs>
 <g transform="translate(0,-35)">
  <g transform="rotate(-90 32.698 217.38)">
   <path transform="matrix(.26458 0 0 .26458 122.65 103.19)" d="m79.971 351.25c-0.94436-6e-3 -1.8897 0.0166-2.832 0.0703-23.868 1.4461-39.774 33.181-24.789 52.559 11.305 15.817 20.755 21.306 33.982 35.411l4.5444-3.9617c-13.192-13.33-21.097-19.85-34.064-33.401-10.974-17.467 2.7083-44.366 23.865-44.004 15.728 0.223 25.538 14.61 35.676 24.516 70.972 69.931 135.05 133.92 199.55 200.8 7.0562 11.566 0.39411 25.656-9.1367 33.645-64.501 63.607-127.31 129.55-192.42 192.55-6.8905 5.8452-15.519 12.651-23.299 17.266-17.828 8.121-39.192-6.6945-36.443-26.859 1.002-16.435 16.206-26.3 26.494-37.172 54.054-54.849 110.37-108.09 163.19-164.09 2.8917-2.5449 3.1336-5.971 1.0801-8.25-1.7863-2.2247-4.5469-4.1145-6.0391-6.2676-35.067-34.979-70.588-69.517-105.78-104.38l-3.9805 3.8418c35.627 35.897 71.409 71.672 106.49 108.01 2.3334 2.3119 1.428 4.3512-0.65625 6.7148-62.371 64.921-179.25 174.9-184.46 186.17-11.366 18.992 1.2107 48.005 23.898 50.35 16.043 2.7696 26.727-5.0686 41.771-18.061 67.633-67.915 135.89-134.62 202.43-203.61 8.1173-10.224 8.3908-26.559-0.375-36.467-12.965-17.503-30.403-30.956-45.045-46.967-58.16-57.873-115.28-116.91-174.74-173.41-5.7086-3.4199-12.306-4.9617-18.916-5.0059z" filter="url(#filter2251)" opacity=".99" stroke="#d90051" stroke-width="17.008"/>
   <path transform="matrix(.26458 0 0 .26458 123.46 99.713)" d="m76.92 364.39c-0.94436-6e-3 -1.8897 0.0166-2.832 0.0703-23.868 1.4461-39.772 33.179-24.787 52.557 8.3436 11.674 19.061 21.179 29.426 31.023l3.627-3.5059c-9.5887-9.7653-19.129-19.578-28.592-29.467-10.974-17.467 2.7083-44.366 23.865-44.004 15.728 0.22299 25.538 14.61 35.676 24.516 70.972 69.931 135.05 133.92 199.55 200.8 7.0562 11.566 0.39411 25.656-9.1367 33.645-64.501 63.607-127.31 129.55-192.42 192.55-6.8905 5.8452-15.519 12.651-23.299 17.266-17.828 8.121-39.192-6.6945-36.443-26.859 1.002-16.435 16.208-26.3 26.496-37.172 54.054-54.849 110.37-108.09 163.18-164.09 2.8917-2.5449 3.1336-5.971 1.0801-8.25-1.7863-2.2247-4.5469-4.1126-6.0391-6.2656-33.04-32.957-66.48-65.524-99.668-98.34l-4.0332 3.8984c33.623 33.853 67.341 67.63 100.44 101.91 2.3334 2.3119 1.428 4.3512-0.65625 6.7148-62.371 64.921-179.25 174.9-184.46 186.17-11.366 18.992 1.2107 48.005 23.898 50.35 16.043 2.7696 26.727-5.0686 41.771-18.061 67.633-67.915 135.89-134.62 202.43-203.61 8.1173-10.224 8.3908-26.559-0.375-36.467-12.965-17.503-30.403-30.956-45.045-46.967-58.16-57.873-115.28-116.91-174.74-173.41-5.7086-3.42-12.307-4.9617-18.918-5.0059z" filter="url(#filter2055)" stroke="#000" stroke-width="9.4488"/>
   <path d="m143.28 196.26c-0.24986-2e-3 -0.49999 4e-3 -0.74931 0.0186-6.3151 0.38261-10.523 8.7785-6.5582 13.906 2.2843 3.1959 8.3525 8.9335 8.2357 8.3861 0 0 0.83293-0.49451 0.95033-0.91932 0.0884-0.31973-5.4114-5.2715-8.0057-7.9825-2.9034-4.6215 0.71657-11.739 6.3143-11.643 4.1613 0.059 6.7568 3.8657 9.4392 6.4864 18.778 18.503 35.733 35.434 52.798 53.128 1.8669 3.0601 0.10427 6.7882-2.4174 8.9018-17.066 16.829-33.685 34.276-50.91 50.945-1.8231 1.5466-4.1062 3.3472-6.1645 4.5682-4.7169 2.1487-10.37-1.7713-9.6423-7.1066 0.26511-4.3485 4.2883-6.9584 7.0104-9.835 14.302-14.512 29.202-28.598 43.176-43.415 0.7651-0.67334 0.82911-1.5798 0.28577-2.1828-0.47262-0.58861-1.203-1.0881-1.5978-1.6578-8.6489-8.627-26.067-26.604-26.091-25.742l-1.0692 1.0335c-0.28927-0.13071 16.376 16.468 26.296 26.684 0.61739 0.6117 0.37782 1.1513-0.17364 1.7766-16.502 17.177-47.426 46.275-48.806 49.258-3.0072 5.025 0.32033 12.701 6.3231 13.322 4.2447 0.73279 7.0716-1.3411 11.052-4.7785 17.895-17.969 35.954-35.618 53.56-53.872 2.1477-2.705 2.2201-7.0271-0.0992-9.6485-3.4304-4.631-8.044-8.1905-11.918-12.427-15.388-15.312-30.501-30.932-46.232-45.88-1.5104-0.90486-3.2564-1.3128-5.0054-1.3245z" stroke="#d90051" stroke-width="2.5"/>
   <path d="m143.28 196.12c-0.24986-2e-3 -0.49999 4e-3 -0.74931 0.0186-6.3151 0.38262-10.523 8.7785-6.5583 13.906 2.2856 3.1977 5.2432 5.7815 8.0744 8.4858l0.95136-0.91933c-2.6317-2.6779-5.2496-5.3694-7.8455-8.0822-2.9034-4.6215 0.71658-11.739 6.3144-11.643 4.1613 0.059 6.7568 3.8657 9.4392 6.4864 18.778 18.503 35.733 35.434 52.798 53.128 1.8669 3.0601 0.10429 6.7882-2.4174 8.9018-17.066 16.829-33.685 34.276-50.91 50.945-1.8231 1.5466-4.1062 3.3472-6.1645 4.5682-4.7169 2.1487-10.37-1.7713-9.6423-7.1065 0.26511-4.3486 4.2883-6.9585 7.0104-9.8351 14.302-14.512 29.202-28.598 43.176-43.415 0.7651-0.67333 0.82911-1.5798 0.28577-2.1828-0.47262-0.58861-1.203-1.0881-1.5978-1.6578-8.6333-8.6116-17.37-17.122-26.044-25.696l-1.0697 1.0346c8.7887 8.8476 17.6 17.677 26.25 26.637 0.61739 0.61169 0.37783 1.1513-0.17363 1.7766-16.502 17.177-47.426 46.275-48.806 49.258-3.0072 5.025 0.32033 12.701 6.3231 13.322 4.2447 0.73279 7.0716-1.3411 11.052-4.7785 17.895-17.969 35.954-35.618 53.56-53.872 2.1477-2.705 2.2201-7.0271-0.0992-9.6485-3.4304-4.631-8.044-8.1904-11.918-12.427-15.388-15.312-30.501-30.932-46.232-45.88-1.5104-0.90487-3.2564-1.3128-5.0054-1.3245z" fill="#ea5c94" stroke="#ea5c94" stroke-width="1.265"/>
   <path transform="matrix(.26458 0 0 .26458 123.46 99.713)" d="m74.92 364.39c-0.94436-6e-3 -1.8897 0.0166-2.832 0.0703-23.868 1.4461-39.772 33.179-24.787 52.557 8.6084 12.044 19.741 21.783 30.408 31.965l3.5977-3.4766c-9.9102-10.085-19.769-20.221-29.545-30.438-10.974-17.467 2.7083-44.366 23.865-44.004 15.728 0.22299 25.538 14.61 35.676 24.516 70.972 69.931 135.05 133.92 199.55 200.8 7.0562 11.566 0.39415 25.656-9.1367 33.645-64.501 63.607-127.31 129.55-192.42 192.55-6.8905 5.8452-15.519 12.651-23.299 17.266-17.828 8.1209-39.192-6.6945-36.443-26.859 1.002-16.435 16.208-26.3 26.496-37.172 54.054-54.849 110.37-108.09 163.18-164.09 2.8917-2.5449 3.1336-5.971 1.0801-8.25-1.7863-2.2247-4.5469-4.1126-6.0391-6.2656-32.584-32.502-65.558-64.624-98.295-96.98l-4.0449 3.9121c33.172 33.394 66.427 66.72 99.074 100.54 2.3334 2.3119 1.428 4.3513-0.65625 6.7148-62.371 64.921-179.25 174.9-184.46 186.17-11.366 18.992 1.2107 48.005 23.898 50.35 16.043 2.7696 26.727-5.0686 41.771-18.061 67.633-67.915 135.89-134.62 202.43-203.61 8.1173-10.224 8.3908-26.559-0.375-36.467-12.965-17.503-30.403-30.956-45.045-46.967-58.16-57.873-115.28-116.91-174.74-173.41-5.7086-3.42-12.307-4.9617-18.918-5.0059z" fill="#fff6e6" filter="url(#filter2005)" stroke="#ea5c94" stroke-width="1.0016"/>
  </g>
  <g transform="rotate(-90 62.177 246.86)">
   <path transform="matrix(.26458 0 0 .26458 122.65 103.19)" d="m79.971 351.25c-0.94436-6e-3 -1.8897 0.0166-2.832 0.0703-23.868 1.4461-39.774 33.181-24.789 52.559 11.305 15.817 20.755 21.306 33.982 35.411l4.5444-3.9617c-13.192-13.33-21.097-19.85-34.064-33.401-10.974-17.467 2.7083-44.366 23.865-44.004 15.728 0.223 25.538 14.61 35.676 24.516 70.972 69.931 135.05 133.92 199.55 200.8 7.0562 11.566 0.39411 25.656-9.1367 33.645-64.501 63.607-127.31 129.55-192.42 192.55-6.8905 5.8452-15.519 12.651-23.299 17.266-17.828 8.121-39.192-6.6945-36.443-26.859 1.002-16.435 16.206-26.3 26.494-37.172 54.054-54.849 110.37-108.09 163.19-164.09 2.8917-2.5449 3.1336-5.971 1.0801-8.25-1.7863-2.2247-4.5469-4.1145-6.0391-6.2676-35.067-34.979-70.588-69.517-105.78-104.38l-3.9805 3.8418c35.627 35.897 71.409 71.672 106.49 108.01 2.3334 2.3119 1.428 4.3512-0.65625 6.7148-62.371 64.921-179.25 174.9-184.46 186.17-11.366 18.992 1.2107 48.005 23.898 50.35 16.043 2.7696 26.727-5.0686 41.771-18.061 67.633-67.915 135.89-134.62 202.43-203.61 8.1173-10.224 8.3908-26.559-0.375-36.467-12.965-17.503-30.403-30.956-45.045-46.967-58.16-57.873-115.28-116.91-174.74-173.41-5.7086-3.4199-12.306-4.9617-18.916-5.0059z" filter="url(#filter2251-6)" opacity=".99" stroke="#d90051" stroke-width="17.008"/>
   <path transform="matrix(.26458 0 0 .26458 123.46 99.713)" d="m76.92 364.39c-0.94436-6e-3 -1.8897 0.0166-2.832 0.0703-23.868 1.4461-39.772 33.179-24.787 52.557 8.3436 11.674 19.061 21.179 29.426 31.023l3.627-3.5059c-9.5887-9.7653-19.129-19.578-28.592-29.467-10.974-17.467 2.7083-44.366 23.865-44.004 15.728 0.22299 25.538 14.61 35.676 24.516 70.972 69.931 135.05 133.92 199.55 200.8 7.0562 11.566 0.39411 25.656-9.1367 33.645-64.501 63.607-127.31 129.55-192.42 192.55-6.8905 5.8452-15.519 12.651-23.299 17.266-17.828 8.121-39.192-6.6945-36.443-26.859 1.002-16.435 16.208-26.3 26.496-37.172 54.054-54.849 110.37-108.09 163.18-164.09 2.8917-2.5449 3.1336-5.971 1.0801-8.25-1.7863-2.2247-4.5469-4.1126-6.0391-6.2656-33.04-32.957-66.48-65.524-99.668-98.34l-4.0332 3.8984c33.623 33.853 67.341 67.63 100.44 101.91 2.3334 2.3119 1.428 4.3512-0.65625 6.7148-62.371 64.921-179.25 174.9-184.46 186.17-11.366 18.992 1.2107 48.005 23.898 50.35 16.043 2.7696 26.727-5.0686 41.771-18.061 67.633-67.915 135.89-134.62 202.43-203.61 8.1173-10.224 8.3908-26.559-0.375-36.467-12.965-17.503-30.403-30.956-45.045-46.967-58.16-57.873-115.28-116.91-174.74-173.41-5.7086-3.42-12.307-4.9617-18.918-5.0059z" filter="url(#filter2055-1)" stroke="#000" stroke-width="9.4488"/>
   <path d="m143.28 196.26c-0.24986-2e-3 -0.49999 4e-3 -0.74931 0.0186-6.3151 0.38261-10.523 8.7785-6.5582 13.906 2.2843 3.1959 8.3525 8.9335 8.2357 8.3861 0 0 0.83293-0.49451 0.95033-0.91932 0.0884-0.31973-5.4114-5.2715-8.0057-7.9825-2.9034-4.6215 0.71657-11.739 6.3143-11.643 4.1613 0.059 6.7568 3.8657 9.4392 6.4864 18.778 18.503 35.733 35.434 52.798 53.128 1.8669 3.0601 0.10427 6.7882-2.4174 8.9018-17.066 16.829-33.685 34.276-50.91 50.945-1.8231 1.5466-4.1062 3.3472-6.1645 4.5682-4.7169 2.1487-10.37-1.7713-9.6423-7.1066 0.26511-4.3485 4.2883-6.9584 7.0104-9.835 14.302-14.512 29.202-28.598 43.176-43.415 0.7651-0.67334 0.82911-1.5798 0.28577-2.1828-0.47262-0.58861-1.203-1.0881-1.5978-1.6578-8.6489-8.627-26.067-26.604-26.091-25.742l-1.0692 1.0335c-0.28927-0.13071 16.376 16.468 26.296 26.684 0.61739 0.6117 0.37782 1.1513-0.17364 1.7766-16.502 17.177-47.426 46.275-48.806 49.258-3.0072 5.025 0.32033 12.701 6.3231 13.322 4.2447 0.73279 7.0716-1.3411 11.052-4.7785 17.895-17.969 35.954-35.618 53.56-53.872 2.1477-2.705 2.2201-7.0271-0.0992-9.6485-3.4304-4.631-8.044-8.1905-11.918-12.427-15.388-15.312-30.501-30.932-46.232-45.88-1.5104-0.90486-3.2564-1.3128-5.0054-1.3245z" stroke="#d90051" stroke-width="2.5"/>
   <path d="m143.28 196.12c-0.24986-2e-3 -0.49999 4e-3 -0.74931 0.0186-6.3151 0.38262-10.523 8.7785-6.5583 13.906 2.2856 3.1977 5.2432 5.7815 8.0744 8.4858l0.95136-0.91933c-2.6317-2.6779-5.2496-5.3694-7.8455-8.0822-2.9034-4.6215 0.71658-11.739 6.3144-11.643 4.1613 0.059 6.7568 3.8657 9.4392 6.4864 18.778 18.503 35.733 35.434 52.798 53.128 1.8669 3.0601 0.10429 6.7882-2.4174 8.9018-17.066 16.829-33.685 34.276-50.91 50.945-1.8231 1.5466-4.1062 3.3472-6.1645 4.5682-4.7169 2.1487-10.37-1.7713-9.6423-7.1065 0.26511-4.3486 4.2883-6.9585 7.0104-9.8351 14.302-14.512 29.202-28.598 43.176-43.415 0.7651-0.67333 0.82911-1.5798 0.28577-2.1828-0.47262-0.58861-1.203-1.0881-1.5978-1.6578-8.6333-8.6116-17.37-17.122-26.044-25.696l-1.0697 1.0346c8.7887 8.8476 17.6 17.677 26.25 26.637 0.61739 0.61169 0.37783 1.1513-0.17363 1.7766-16.502 17.177-47.426 46.275-48.806 49.258-3.0072 5.025 0.32033 12.701 6.3231 13.322 4.2447 0.73279 7.0716-1.3411 11.052-4.7785 17.895-17.969 35.954-35.618 53.56-53.872 2.1477-2.705 2.2201-7.0271-0.0992-9.6485-3.4304-4.631-8.044-8.1904-11.918-12.427-15.388-15.312-30.501-30.932-46.232-45.88-1.5104-0.90487-3.2564-1.3128-5.0054-1.3245z" fill="#ea5c94" stroke="#ea5c94" stroke-width="1.265"/>
   <path transform="matrix(.26458 0 0 .26458 123.46 99.713)" d="m74.92 364.39c-0.94436-6e-3 -1.8897 0.0166-2.832 0.0703-23.868 1.4461-39.772 33.179-24.787 52.557 8.6084 12.044 19.741 21.783 30.408 31.965l3.5977-3.4766c-9.9102-10.085-19.769-20.221-29.545-30.438-10.974-17.467 2.7083-44.366 23.865-44.004 15.728 0.22299 25.538 14.61 35.676 24.516 70.972 69.931 135.05 133.92 199.55 200.8 7.0562 11.566 0.39415 25.656-9.1367 33.645-64.501 63.607-127.31 129.55-192.42 192.55-6.8905 5.8452-15.519 12.651-23.299 17.266-17.828 8.1209-39.192-6.6945-36.443-26.859 1.002-16.435 16.208-26.3 26.496-37.172 54.054-54.849 110.37-108.09 163.18-164.09 2.8917-2.5449 3.1336-5.971 1.0801-8.25-1.7863-2.2247-4.5469-4.1126-6.0391-6.2656-32.584-32.502-65.558-64.624-98.295-96.98l-4.0449 3.9121c33.172 33.394 66.427 66.72 99.074 100.54 2.3334 2.3119 1.428 4.3513-0.65625 6.7148-62.371 64.921-179.25 174.9-184.46 186.17-11.366 18.992 1.2107 48.005 23.898 50.35 16.043 2.7696 26.727-5.0686 41.771-18.061 67.633-67.915 135.89-134.62 202.43-203.61 8.1173-10.224 8.3908-26.559-0.375-36.467-12.965-17.503-30.403-30.956-45.045-46.967-58.16-57.873-115.28-116.91-174.74-173.41-5.7086-3.42-12.307-4.9617-18.918-5.0059z" fill="#fff6e6" filter="url(#filter2005-3)" stroke="#ea5c94" stroke-width="1.0016"/>
  </g>
  <g transform="rotate(-90 93.019 276.19)">
   <g>
    <path transform="matrix(.26458 0 0 .26458 122.65 103.19)" d="m79.971 351.25c-0.94436-6e-3 -1.8897 0.0166-2.832 0.0703-23.868 1.4461-39.774 33.181-24.789 52.559 11.305 15.817 20.755 21.306 33.982 35.411l4.5444-3.9617c-13.192-13.33-21.097-19.85-34.064-33.401-10.974-17.467 2.7083-44.366 23.865-44.004 15.728 0.223 25.538 14.61 35.676 24.516 70.972 69.931 135.05 133.92 199.55 200.8 7.0562 11.566 0.39411 25.656-9.1367 33.645-64.501 63.607-127.31 129.55-192.42 192.55-6.8905 5.8452-15.519 12.651-23.299 17.266-17.828 8.121-39.192-6.6945-36.443-26.859 1.002-16.435 16.206-26.3 26.494-37.172 54.054-54.849 110.37-108.09 163.19-164.09 2.8917-2.5449 3.1336-5.971 1.0801-8.25-1.7863-2.2247-4.5469-4.1145-6.0391-6.2676-35.067-34.979-70.588-69.517-105.78-104.38l-3.9805 3.8418c35.627 35.897 71.409 71.672 106.49 108.01 2.3334 2.3119 1.428 4.3512-0.65625 6.7148-62.371 64.921-179.25 174.9-184.46 186.17-11.366 18.992 1.2107 48.005 23.898 50.35 16.043 2.7696 26.727-5.0686 41.771-18.061 67.633-67.915 135.89-134.62 202.43-203.61 8.1173-10.224 8.3908-26.559-0.375-36.467-12.965-17.503-30.403-30.956-45.045-46.967-58.16-57.873-115.28-116.91-174.74-173.41-5.7086-3.4199-12.306-4.9617-18.916-5.0059z" filter="url(#filter2251-6-0)" opacity=".99" stroke="#d90051" stroke-width="17.008"/>
    <path transform="matrix(.26458 0 0 .26458 123.46 99.713)" d="m76.92 364.39c-0.94436-6e-3 -1.8897 0.0166-2.832 0.0703-23.868 1.4461-39.772 33.179-24.787 52.557 8.3436 11.674 19.061 21.179 29.426 31.023l3.627-3.5059c-9.5887-9.7653-19.129-19.578-28.592-29.467-10.974-17.467 2.7083-44.366 23.865-44.004 15.728 0.22299 25.538 14.61 35.676 24.516 70.972 69.931 135.05 133.92 199.55 200.8 7.0562 11.566 0.39411 25.656-9.1367 33.645-64.501 63.607-127.31 129.55-192.42 192.55-6.8905 5.8452-15.519 12.651-23.299 17.266-17.828 8.121-39.192-6.6945-36.443-26.859 1.002-16.435 16.208-26.3 26.496-37.172 54.054-54.849 110.37-108.09 163.18-164.09 2.8917-2.5449 3.1336-5.971 1.0801-8.25-1.7863-2.2247-4.5469-4.1126-6.0391-6.2656-33.04-32.957-66.48-65.524-99.668-98.34l-4.0332 3.8984c33.623 33.853 67.341 67.63 100.44 101.91 2.3334 2.3119 1.428 4.3512-0.65625 6.7148-62.371 64.921-179.25 174.9-184.46 186.17-11.366 18.992 1.2107 48.005 23.898 50.35 16.043 2.7696 26.727-5.0686 41.771-18.061 67.633-67.915 135.89-134.62 202.43-203.61 8.1173-10.224 8.3908-26.559-0.375-36.467-12.965-17.503-30.403-30.956-45.045-46.967-58.16-57.873-115.28-116.91-174.74-173.41-5.7086-3.42-12.307-4.9617-18.918-5.0059z" filter="url(#filter2055-1-0)" stroke="#000" stroke-width="9.4488"/>
    <path d="m143.28 196.26c-0.24986-2e-3 -0.49999 4e-3 -0.74931 0.0186-6.3151 0.38261-10.523 8.7785-6.5582 13.906 2.2843 3.1959 8.3525 8.9335 8.2357 8.3861 0 0 0.83293-0.49451 0.95033-0.91932 0.0884-0.31973-5.4114-5.2715-8.0057-7.9825-2.9034-4.6215 0.71657-11.739 6.3143-11.643 4.1613 0.059 6.7568 3.8657 9.4392 6.4864 18.778 18.503 35.733 35.434 52.798 53.128 1.8669 3.0601 0.10427 6.7882-2.4174 8.9018-17.066 16.829-33.685 34.276-50.91 50.945-1.8231 1.5466-4.1062 3.3472-6.1645 4.5682-4.7169 2.1487-10.37-1.7713-9.6423-7.1066 0.26511-4.3485 4.2883-6.9584 7.0104-9.835 14.302-14.512 29.202-28.598 43.176-43.415 0.7651-0.67334 0.82911-1.5798 0.28577-2.1828-0.47262-0.58861-1.203-1.0881-1.5978-1.6578-8.6489-8.627-26.067-26.604-26.091-25.742l-1.0692 1.0335c-0.28927-0.13071 16.376 16.468 26.296 26.684 0.61739 0.6117 0.37782 1.1513-0.17364 1.7766-16.502 17.177-47.426 46.275-48.806 49.258-3.0072 5.025 0.32033 12.701 6.3231 13.322 4.2447 0.73279 7.0716-1.3411 11.052-4.7785 17.895-17.969 35.954-35.618 53.56-53.872 2.1477-2.705 2.2201-7.0271-0.0992-9.6485-3.4304-4.631-8.044-8.1905-11.918-12.427-15.388-15.312-30.501-30.932-46.232-45.88-1.5104-0.90486-3.2564-1.3128-5.0054-1.3245z" stroke="#d90051" stroke-width="2.5"/>
    <path d="m143.28 196.12c-0.24986-2e-3 -0.49999 4e-3 -0.74931 0.0186-6.3151 0.38262-10.523 8.7785-6.5583 13.906 2.2856 3.1977 5.2432 5.7815 8.0744 8.4858l0.95136-0.91933c-2.6317-2.6779-5.2496-5.3694-7.8455-8.0822-2.9034-4.6215 0.71658-11.739 6.3144-11.643 4.1613 0.059 6.7568 3.8657 9.4392 6.4864 18.778 18.503 35.733 35.434 52.798 53.128 1.8669 3.0601 0.10429 6.7882-2.4174 8.9018-17.066 16.829-33.685 34.276-50.91 50.945-1.8231 1.5466-4.1062 3.3472-6.1645 4.5682-4.7169 2.1487-10.37-1.7713-9.6423-7.1065 0.26511-4.3486 4.2883-6.9585 7.0104-9.8351 14.302-14.512 29.202-28.598 43.176-43.415 0.7651-0.67333 0.82911-1.5798 0.28577-2.1828-0.47262-0.58861-1.203-1.0881-1.5978-1.6578-8.6333-8.6116-17.37-17.122-26.044-25.696l-1.0697 1.0346c8.7887 8.8476 17.6 17.677 26.25 26.637 0.61739 0.61169 0.37783 1.1513-0.17363 1.7766-16.502 17.177-47.426 46.275-48.806 49.258-3.0072 5.025 0.32033 12.701 6.3231 13.322 4.2447 0.73279 7.0716-1.3411 11.052-4.7785 17.895-17.969 35.954-35.618 53.56-53.872 2.1477-2.705 2.2201-7.0271-0.0992-9.6485-3.4304-4.631-8.044-8.1904-11.918-12.427-15.388-15.312-30.501-30.932-46.232-45.88-1.5104-0.90487-3.2564-1.3128-5.0054-1.3245z" fill="#ea5c94" stroke="#ea5c94" stroke-width="1.265"/>
    <path transform="matrix(.26458 0 0 .26458 123.46 99.713)" d="m74.92 364.39c-0.94436-6e-3 -1.8897 0.0166-2.832 0.0703-23.868 1.4461-39.772 33.179-24.787 52.557 8.6084 12.044 19.741 21.783 30.408 31.965l3.5977-3.4766c-9.9102-10.085-19.769-20.221-29.545-30.438-10.974-17.467 2.7083-44.366 23.865-44.004 15.728 0.22299 25.538 14.61 35.676 24.516 70.972 69.931 135.05 133.92 199.55 200.8 7.0562 11.566 0.39415 25.656-9.1367 33.645-64.501 63.607-127.31 129.55-192.42 192.55-6.8905 5.8452-15.519 12.651-23.299 17.266-17.828 8.1209-39.192-6.6945-36.443-26.859 1.002-16.435 16.208-26.3 26.496-37.172 54.054-54.849 110.37-108.09 163.18-164.09 2.8917-2.5449 3.1336-5.971 1.0801-8.25-1.7863-2.2247-4.5469-4.1126-6.0391-6.2656-32.584-32.502-65.558-64.624-98.295-96.98l-4.0449 3.9121c33.172 33.394 66.427 66.72 99.074 100.54 2.3334 2.3119 1.428 4.3513-0.65625 6.7148-62.371 64.921-179.25 174.9-184.46 186.17-11.366 18.992 1.2107 48.005 23.898 50.35 16.043 2.7696 26.727-5.0686 41.771-18.061 67.633-67.915 135.89-134.62 202.43-203.61 8.1173-10.224 8.3908-26.559-0.375-36.467-12.965-17.503-30.403-30.956-45.045-46.967-58.16-57.873-115.28-116.91-174.74-173.41-5.7086-3.42-12.307-4.9617-18.918-5.0059z" fill="#fff6e6" filter="url(#filter2005-3-6)" stroke="#ea5c94" stroke-width="1.0016"/>
   </g>
  </g>
  <g transform="rotate(-90 120.36 302.02)">
   <path transform="matrix(.26458 0 0 .26458 122.65 103.19)" d="m79.971 351.25c-0.94436-6e-3 -1.8897 0.0166-2.832 0.0703-23.868 1.4461-39.774 33.181-24.789 52.559 11.305 15.817 20.755 21.306 33.982 35.411l4.5444-3.9617c-13.192-13.33-21.097-19.85-34.064-33.401-10.974-17.467 2.7083-44.366 23.865-44.004 15.728 0.223 25.538 14.61 35.676 24.516 70.972 69.931 135.05 133.92 199.55 200.8 7.0562 11.566 0.39411 25.656-9.1367 33.645-64.501 63.607-127.31 129.55-192.42 192.55-6.8905 5.8452-15.519 12.651-23.299 17.266-17.828 8.121-39.192-6.6945-36.443-26.859 1.002-16.435 16.206-26.3 26.494-37.172 54.054-54.849 110.37-108.09 163.19-164.09 2.8917-2.5449 3.1336-5.971 1.0801-8.25-1.7863-2.2247-4.5469-4.1145-6.0391-6.2676-35.067-34.979-70.588-69.517-105.78-104.38l-3.9805 3.8418c35.627 35.897 71.409 71.672 106.49 108.01 2.3334 2.3119 1.428 4.3512-0.65625 6.7148-62.371 64.921-179.25 174.9-184.46 186.17-11.366 18.992 1.2107 48.005 23.898 50.35 16.043 2.7696 26.727-5.0686 41.771-18.061 67.633-67.915 135.89-134.62 202.43-203.61 8.1173-10.224 8.3908-26.559-0.375-36.467-12.965-17.503-30.403-30.956-45.045-46.967-58.16-57.873-115.28-116.91-174.74-173.41-5.7086-3.4199-12.306-4.9617-18.916-5.0059z" filter="url(#filter2251-6-0-5)" opacity=".99" stroke="#d90051" stroke-width="17.008"/>
   <path transform="matrix(.26458 0 0 .26458 123.46 99.713)" d="m76.92 364.39c-0.94436-6e-3 -1.8897 0.0166-2.832 0.0703-23.868 1.4461-39.772 33.179-24.787 52.557 8.3436 11.674 19.061 21.179 29.426 31.023l3.627-3.5059c-9.5887-9.7653-19.129-19.578-28.592-29.467-10.974-17.467 2.7083-44.366 23.865-44.004 15.728 0.22299 25.538 14.61 35.676 24.516 70.972 69.931 135.05 133.92 199.55 200.8 7.0562 11.566 0.39411 25.656-9.1367 33.645-64.501 63.607-127.31 129.55-192.42 192.55-6.8905 5.8452-15.519 12.651-23.299 17.266-17.828 8.121-39.192-6.6945-36.443-26.859 1.002-16.435 16.208-26.3 26.496-37.172 54.054-54.849 110.37-108.09 163.18-164.09 2.8917-2.5449 3.1336-5.971 1.0801-8.25-1.7863-2.2247-4.5469-4.1126-6.0391-6.2656-33.04-32.957-66.48-65.524-99.668-98.34l-4.0332 3.8984c33.623 33.853 67.341 67.63 100.44 101.91 2.3334 2.3119 1.428 4.3512-0.65625 6.7148-62.371 64.921-179.25 174.9-184.46 186.17-11.366 18.992 1.2107 48.005 23.898 50.35 16.043 2.7696 26.727-5.0686 41.771-18.061 67.633-67.915 135.89-134.62 202.43-203.61 8.1173-10.224 8.3908-26.559-0.375-36.467-12.965-17.503-30.403-30.956-45.045-46.967-58.16-57.873-115.28-116.91-174.74-173.41-5.7086-3.42-12.307-4.9617-18.918-5.0059z" filter="url(#filter2055-1-0-3)" stroke="#000" stroke-width="9.4488"/>
   <path d="m143.28 196.26c-0.24986-2e-3 -0.49999 4e-3 -0.74931 0.0186-6.3151 0.38261-10.523 8.7785-6.5582 13.906 2.2843 3.1959 8.3525 8.9335 8.2357 8.3861 0 0 0.83293-0.49451 0.95033-0.91932 0.0884-0.31973-5.4114-5.2715-8.0057-7.9825-2.9034-4.6215 0.71657-11.739 6.3143-11.643 4.1613 0.059 6.7568 3.8657 9.4392 6.4864 18.778 18.503 35.733 35.434 52.798 53.128 1.8669 3.0601 0.10427 6.7882-2.4174 8.9018-17.066 16.829-33.685 34.276-50.91 50.945-1.8231 1.5466-4.1062 3.3472-6.1645 4.5682-4.7169 2.1487-10.37-1.7713-9.6423-7.1066 0.26511-4.3485 4.2883-6.9584 7.0104-9.835 14.302-14.512 29.202-28.598 43.176-43.415 0.7651-0.67334 0.82911-1.5798 0.28577-2.1828-0.47262-0.58861-1.203-1.0881-1.5978-1.6578-8.6489-8.627-26.067-26.604-26.091-25.742l-1.0692 1.0335c-0.28927-0.13071 16.376 16.468 26.296 26.684 0.61739 0.6117 0.37782 1.1513-0.17364 1.7766-16.502 17.177-47.426 46.275-48.806 49.258-3.0072 5.025 0.32033 12.701 6.3231 13.322 4.2447 0.73279 7.0716-1.3411 11.052-4.7785 17.895-17.969 35.954-35.618 53.56-53.872 2.1477-2.705 2.2201-7.0271-0.0992-9.6485-3.4304-4.631-8.044-8.1905-11.918-12.427-15.388-15.312-30.501-30.932-46.232-45.88-1.5104-0.90486-3.2564-1.3128-5.0054-1.3245z" stroke="#d90051" stroke-width="2.5"/>
   <path d="m143.28 196.12c-0.24986-2e-3 -0.49999 4e-3 -0.74931 0.0186-6.3151 0.38262-10.523 8.7785-6.5583 13.906 2.2856 3.1977 5.2432 5.7815 8.0744 8.4858l0.95136-0.91933c-2.6317-2.6779-5.2496-5.3694-7.8455-8.0822-2.9034-4.6215 0.71658-11.739 6.3144-11.643 4.1613 0.059 6.7568 3.8657 9.4392 6.4864 18.778 18.503 35.733 35.434 52.798 53.128 1.8669 3.0601 0.10429 6.7882-2.4174 8.9018-17.066 16.829-33.685 34.276-50.91 50.945-1.8231 1.5466-4.1062 3.3472-6.1645 4.5682-4.7169 2.1487-10.37-1.7713-9.6423-7.1065 0.26511-4.3486 4.2883-6.9585 7.0104-9.8351 14.302-14.512 29.202-28.598 43.176-43.415 0.7651-0.67333 0.82911-1.5798 0.28577-2.1828-0.47262-0.58861-1.203-1.0881-1.5978-1.6578-8.6333-8.6116-17.37-17.122-26.044-25.696l-1.0697 1.0346c8.7887 8.8476 17.6 17.677 26.25 26.637 0.61739 0.61169 0.37783 1.1513-0.17363 1.7766-16.502 17.177-47.426 46.275-48.806 49.258-3.0072 5.025 0.32033 12.701 6.3231 13.322 4.2447 0.73279 7.0716-1.3411 11.052-4.7785 17.895-17.969 35.954-35.618 53.56-53.872 2.1477-2.705 2.2201-7.0271-0.0992-9.6485-3.4304-4.631-8.044-8.1904-11.918-12.427-15.388-15.312-30.501-30.932-46.232-45.88-1.5104-0.90487-3.2564-1.3128-5.0054-1.3245z" fill="#ea5c94" stroke="#ea5c94" stroke-width="1.265"/>
   <path transform="matrix(.26458 0 0 .26458 123.46 99.713)" d="m74.92 364.39c-0.94436-6e-3 -1.8897 0.0166-2.832 0.0703-23.868 1.4461-39.772 33.179-24.787 52.557 8.6084 12.044 19.741 21.783 30.408 31.965l3.5977-3.4766c-9.9102-10.085-19.769-20.221-29.545-30.438-10.974-17.467 2.7083-44.366 23.865-44.004 15.728 0.22299 25.538 14.61 35.676 24.516 70.972 69.931 135.05 133.92 199.55 200.8 7.0562 11.566 0.39415 25.656-9.1367 33.645-64.501 63.607-127.31 129.55-192.42 192.55-6.8905 5.8452-15.519 12.651-23.299 17.266-17.828 8.1209-39.192-6.6945-36.443-26.859 1.002-16.435 16.208-26.3 26.496-37.172 54.054-54.849 110.37-108.09 163.18-164.09 2.8917-2.5449 3.1336-5.971 1.0801-8.25-1.7863-2.2247-4.5469-4.1126-6.0391-6.2656-32.584-32.502-65.558-64.624-98.295-96.98l-4.0449 3.9121c33.172 33.394 66.427 66.72 99.074 100.54 2.3334 2.3119 1.428 4.3513-0.65625 6.7148-62.371 64.921-179.25 174.9-184.46 186.17-11.366 18.992 1.2107 48.005 23.898 50.35 16.043 2.7696 26.727-5.0686 41.771-18.061 67.633-67.915 135.89-134.62 202.43-203.61 8.1173-10.224 8.3908-26.559-0.375-36.467-12.965-17.503-30.403-30.956-45.045-46.967-58.16-57.873-115.28-116.91-174.74-173.41-5.7086-3.42-12.307-4.9617-18.918-5.0059z" fill="#fff6e6" filter="url(#filter2005-3-6-2)" stroke="#ea5c94" stroke-width="1.0016"/>
  </g>
 </g>
</svg>
