<?xml version="1.0" encoding="UTF-8" standalone="no"?>
<!-- Created with Inkscape (http://www.inkscape.org/) -->

<svg
   xmlns:dc="http://purl.org/dc/elements/1.1/"
   xmlns:cc="http://creativecommons.org/ns#"
   xmlns:rdf="http://www.w3.org/1999/02/22-rdf-syntax-ns#"
   xmlns:svg="http://www.w3.org/2000/svg"
   xmlns="http://www.w3.org/2000/svg"
   xmlns:sodipodi="http://sodipodi.sourceforge.net/DTD/sodipodi-0.dtd"
   xmlns:inkscape="http://www.inkscape.org/namespaces/inkscape"
   viewBox="0 0 158.57184 79.51973"
   version="1.1"
   id="svg8"
   inkscape:version="0.92.4 (5da689c313, 2019-01-14)"
   sodipodi:docname="elctro.svg">
  <defs
     id="defs2" />
  <sodipodi:namedview
     id="base"
     pagecolor="#ffffff"
     bordercolor="#666666"
     borderopacity="1.0"
     inkscape:pageopacity="0.0"
     inkscape:pageshadow="2"
     inkscape:zoom="5.6"
     inkscape:cx="345.60347"
     inkscape:cy="77.975679"
     inkscape:document-units="mm"
     inkscape:current-layer="layer1"
     showgrid="false"
     inkscape:window-width="1360"
     inkscape:window-height="715"
     inkscape:window-x="-8"
     inkscape:window-y="-8"
     inkscape:window-maximized="1" />
  <g
     inkscape:label="Capa 1"
     inkscape:groupmode="layer"
     id="layer1"
     transform="translate(0,-217.48027)">
    <path
       d="m 8.2746894,285.72264 q -0.2162011,-0.28007 -0.2538005,-0.36011 -0.2632002,-0.56015 -0.4418226,-1.06695 -0.1691995,-0.49348 -0.2913998,-1.1203 -0.1222003,-0.62685 -0.093999,-1.32037 0.028236,-0.70686 0.2068001,-1.44042 0.7332328,-2.9608 3.3465564,-5.9483 0.479423,-0.54681 1.071649,-1.13365 0.601629,-0.60016 0.996449,-0.97359 0.394815,-0.37344 1.146853,-1.05363 0.761435,-0.68021 1.052848,-0.94693 0.780239,-0.70688 1.175056,-1.147 -0.338417,0.21334 -0.836639,0.58684 -0.488823,0.36009 -0.517023,0.38678 -0.178601,0.11999 -0.658033,0.46679 -0.479423,0.34678 -0.770835,0.56016 -0.291401,0.20018 -0.695633,0.41343 -0.404219,0.20019 -0.695633,0.23997 -0.2162,0.0257 -0.385416,-0.0401 -0.1692,-0.0667 -0.3008,-0.2666 -0.122199,-0.20019 -0.188001,-0.34677 -0.0658,-0.16009 -0.169199,-0.44014 -0.094,-0.2666 -0.103403,-0.60015 0,-0.34677 0.0376,-0.62685 0.047,-0.28008 0.1786,-0.72021 0.141,-0.45345 0.2256,-0.69352 0.094,-0.25344 0.282,-0.74687 1.024645,-2.70742 2.80133,-5.28145 1.776684,-2.57406 3.78838,-4.25451 1.992888,-1.66715 3.158546,-1.41372 0.507623,0.10679 0.808436,0.56014 0.310233,0.4401 0.535827,1.16031 l 0.094,0.33344 q 0.1692,0.68019 -0.159801,1.70713 -0.319599,1.01363 -0.874238,1.98723 l -0.02824,-0.0533 q -0.03761,-0.0533 -0.02824,-0.0667 0.629827,-1.09365 0.921244,-2.16062 0.272599,-0.94693 0.150398,-1.45373 -0.460619,-0.70687 -1.118651,-0.65351 -0.573427,0.0401 -1.222056,0.37344 -1.203259,0.6135 -2.688527,2.10727 -1.579271,1.60043 -2.942337,3.64097 -1.353665,2.04057 -2.256106,4.2012 -0.451221,1.06695 -0.742633,2.12058 0.357216,-0.13346 0.470019,-0.20019 0.188,-0.10679 1.156255,-0.74686 0.141,-0.0934 0.41362,-0.30671 0.282,-0.21335 0.545227,-0.41344 0.272599,-0.20019 0.601625,-0.42678 0.329017,-0.23998 0.620433,-0.40013 0.291399,-0.17324 0.564026,-0.28008 0.2726,-0.10645 0.488822,-0.0934 0.216201,0.0127 0.338414,0.1601 0.357219,0.45344 0.479422,0.93358 0,0.0401 0.02824,0.0933 0.08461,0.20019 0.094,0.26693 0.0846,0.40009 -0.1504,0.92023 -0.235001,0.5068 -0.63923,0.98694 -0.394819,0.48015 -0.958845,1.01364 -0.554627,0.53346 -1.043448,0.93358 -0.479424,0.40011 -0.977646,0.81357 -0.488823,0.40008 -0.667433,0.57348 -2.321908,2.21395 -3.5439665,4.21448 -0.6956322,1.13365 -1.1750519,2.38735 -0.4700233,1.25366 -0.62043,2.50737 -0.1503998,1.25366 0.2726001,2.10723 0,0.0127 0.028236,0.0667 0.028236,0.0667 0.075201,0.16009 0.046999,0.0934 0.093998,0.16008 0.0093,0.0127 0.037595,0.0401 0.0093,0 0.0093,0.0127 l 0.018924,0.0127 v 0.0128 q 0.7426361,0.80022 2.0398953,0.62686 1.297261,-0.17325 2.744929,-1.13366 1.447668,-0.96027 2.80133,-2.40069 1.49467,-1.58709 2.650924,-3.56096 1.165652,-1.97388 1.795485,-4.04115 0,0.0128 0.02824,0.0533 0.03759,0.0401 0.02824,0.0667 -0.733235,2.42732 -2.218504,4.73466 -1.165656,1.82716 -2.632124,3.29424 -1.466468,1.46707 -2.989341,2.32064 -0.836638,0.46679 -1.598073,0.66686 -0.761436,0.21335 -1.475869,0.0798 -0.7144319,-0.13345 -1.1844552,-0.66685 -0.0093,-0.0127 -0.037595,-0.0401 -0.018924,-0.0127 -0.028236,-0.0257 z M 22.873573,256.98135 q 1.043449,1.28034 0.46062,3.40094 -0.338416,1.21365 -1.052849,2.42734 -0.70503,1.21367 -1.616871,2.25395 -0.0093,0.0127 -0.0752,-0.0933 -0.0564,-0.10679 -0.112796,-0.22682 -0.047,-0.13346 -0.03761,-0.14661 1.551068,-1.7605 2.340705,-3.72103 0.404218,-0.98694 0.507626,-1.82719 0.0564,-0.49345 0.01892,-0.89357 -0.03761,-0.49345 -0.2256,-0.72021 -0.047,-0.0533 -0.112796,-0.22682 -0.0658,-0.18672 -0.094,-0.22683 z m -1.598076,14.93746 q 0.338418,-0.0933 0.564028,0.36009 0.432419,0.85358 -0.103403,2.57406 -0.44182,1.44039 -1.654477,3.73437 -0.930644,1.74715 -1.964693,3.18753 -1.955291,2.74744 -4.107991,4.30786 -1.128053,0.82692 -2.237305,1.25371 -1.109252,0.42678 -2.1621012,0.30671 -1.0434484,-0.10679 -1.6544774,-0.92024 -0.084606,-0.1069 -0.1598008,-0.32018 0,0 -0.018924,-0.0401 l -0.018924,-0.0934 0.018924,0.0257 q 0.874242,1.14696 2.6979274,0.85357 1.776681,-0.29354 3.675571,-1.82719 1.908289,-1.52041 3.543964,-3.73438 2.152701,-2.93415 3.487562,-6.26839 0.676833,-1.69379 0.639233,-2.89414 v -0.0129 q -0.02824,0 -0.0846,-0.0257 -0.0564,-0.0257 -0.08461,-0.0257 -0.169199,0 -0.366619,0.10679 -0.460617,0.25345 -1.259655,1.16034 -0.01892,0.0127 -0.1316,-0.21335 -0.112796,-0.22681 -0.094,-0.25344 0.940043,-1.09365 1.47587,-1.24037 z m 0.564028,0.4935 z"
       style="font-style:italic;font-variant:normal;font-weight:normal;font-stretch:normal;font-size:74.66666412px;line-height:1.25;font-family:'Achilleas Demo';-inkscape-font-specification:'Achilleas Demo, Italic';font-variant-ligatures:normal;font-variant-caps:normal;font-variant-numeric:normal;font-feature-settings:normal;text-align:start;letter-spacing:0px;word-spacing:0px;writing-mode:lr-tb;text-anchor:start;fill:#000000;fill-opacity:1;stroke:#000000;stroke-width:0.36581564;stroke-opacity:1"
       id="path2611"
       inkscape:connector-curvature="0" />
    <path
       d="m 26.060323,262.42285 q 0.535829,0.0798 0.742635,1.00028 0.2162,0.92024 0.08461,1.80051 -0.103403,0.68017 -0.253833,1.38703 -0.141,0.70686 -0.404216,1.62712 -0.253801,0.92025 -0.38542,1.36038 -0.122201,0.44013 -0.498226,1.64048 -0.366619,1.18697 -0.432422,1.40038 -0.517021,1.69379 -1.532269,4.88132 -1.005848,3.18757 -1.447669,4.61463 -0.094,0.32018 -0.451223,1.41373 -0.357213,1.09364 -0.517022,1.64044 -0.1692,0.56016 -0.357217,1.41372 -0.187999,0.85358 -0.234999,1.49377 0.01892,-0.23997 -0.329017,-0.66685 -0.357216,-0.41347 -0.338412,-0.73356 0.02824,-0.41343 0.112795,-0.86691 0.0752,-0.45345 0.2162,-1.00025 0.140999,-0.54684 0.2538,-0.90692 0.103402,-0.36009 0.310232,-1.01364 0.197401,-0.6535 0.272601,-0.89357 0.3008,-1.00029 2.40651,-7.66877 1.579275,-5.01473 2.246711,-7.5221 0.451216,-1.68047 0.639226,-2.72076 0.02824,-0.14663 0.0564,-0.46679 0.02824,-0.32019 0.0658,-0.49346 0.0093,-0.0257 -0.0093,-0.16008 -0.0093,-0.14663 0.0093,-0.17325 -0.103403,-0.37343 -0.2256,-0.38677 z"
       style="font-style:italic;font-variant:normal;font-weight:normal;font-stretch:normal;font-size:74.66666412px;line-height:1.25;font-family:'Achilleas Demo';-inkscape-font-specification:'Achilleas Demo, Italic';font-variant-ligatures:normal;font-variant-caps:normal;font-variant-numeric:normal;font-feature-settings:normal;text-align:start;letter-spacing:0px;word-spacing:0px;writing-mode:lr-tb;text-anchor:start;fill:#000000;fill-opacity:1;stroke:#000000;stroke-width:0.36581564;stroke-opacity:1"
       id="path2613"
       inkscape:connector-curvature="0" />
    <path
       d="m 30.544334,270.55844 q 0.282,0.85358 -0.188,2.04058 -0.780235,1.94718 -2.932937,3.97444 -0.940042,0.88023 -1.645075,1.28032 -0.564029,0.32018 -0.883642,0.30671 -0.0093,0.0257 -0.02824,0.0798 -0.0093,0.0533 -0.01892,0.0799 -0.2632,0.92028 -0.3102,1.26705 -0.0093,0.17325 -0.02824,0.4801 -0.01892,0.30671 0.08461,0.65355 0.112796,0.33342 0.338416,0.40009 0.60163,0.0667 1.532276,-0.60016 1.438264,-1.02693 2.274906,-2.72076 l 0.02824,0.0533 q 0.03759,0.0533 0.02824,0.0667 -0.85544,1.73379 -2.368912,2.78744 -0.987049,0.68016 -1.588682,0.49345 h -0.0093 q -0.150401,-0.0401 -0.291401,-0.17324 -0.498223,-0.38678 -0.639228,-1.16032 -0.141001,-0.7869 0.047,-1.76049 0.187999,-0.98694 0.488822,-1.90721 0.291401,-0.92023 0.705035,-1.86716 0.347818,-0.78688 0.620427,-1.36037 0.282,-0.5735 0.723836,-1.38706 0.441822,-0.81357 0.921241,-1.40039 0.488823,-0.60018 0.958847,-0.90691 0.2726,-0.17326 0.507622,-0.2002 0.244433,-0.0401 0.41362,0.0799 0.178601,0.1068 0.319601,0.28008 0.141,0.16008 0.244399,0.42678 0.112796,0.26692 0.178601,0.49349 0.0752,0.22682 0.140999,0.50681 -0.0093,-0.0127 -0.01892,-0.0401 -0.0093,-0.0401 -0.01892,-0.0533 0.08461,0.34677 0,0.72021 -0.1598,0.78687 -0.883642,1.92052 -0.648629,0.98693 -1.616874,2.02723 -0.949446,1.00028 -1.673278,1.50711 -0.507627,0.36009 -0.808439,0.45344 -0.0093,0.0401 -0.03761,0.11999 -0.02824,0.0667 -0.03759,0.10679 0.329016,-0.12 0.714439,-0.38678 1.739078,-1.13365 3.23375,-3.18753 0.752035,-1.02698 1.156252,-2.05392 0.413622,-1.04029 0.1504,-1.81382 -0.0093,-0.0401 0,-0.0401 0.03759,0.0129 0.0658,0.0933 0.103403,0.17324 0.1504,0.32018 z m -0.498225,0.0257 q -0.178601,-0.14661 -0.38542,-0.16008 -0.2068,-0.0129 -0.423016,0.10679 -0.216201,0.10679 -0.441824,0.29355 -0.216199,0.18672 -0.451215,0.48014 -0.235001,0.28007 -0.451224,0.5735 -0.2068,0.29355 -0.432421,0.66685 -0.2162,0.36009 -0.39482,0.66682 -0.1786,0.30671 -0.366617,0.66687 -0.1786,0.36011 -0.3008,0.60018 -0.112796,0.22682 -0.235001,0.4801 -0.517026,1.08033 -0.958845,2.29398 0.2162,-0.0798 0.695632,-0.42677 1.532275,-1.10699 2.961141,-3.06752 0.59223,-0.81357 0.987048,-1.68048 0.404217,-0.8669 0.235001,-1.42704 0,-0.0127 -0.01892,-0.0257 -0.01892,-0.0257 -0.01892,-0.0401 z m -0.93064,7.04195 0.02824,0.0533 q 0.02824,0.0401 0.0564,0.0934 0.03761,0.0533 0.03761,0.0667 l 0.03759,0.0667 q 0.03761,0.0667 0.0564,0.11999 0.01892,0.0401 0.0093,0.0667 -0.526426,1.30705 -1.861288,2.57407 -1.400665,1.32035 -2.368913,1.21366 -0.02824,0 -0.0564,-0.0401 -0.01892,-0.0401 -0.03761,-0.0934 -0.01892,-0.0667 -0.02824,-0.0799 -0.0093,-0.0127 -0.03761,-0.0667 -0.01892,-0.0667 -0.03759,-0.11998 -0.01892,-0.0667 -0.02824,-0.0667 0.987046,0.10679 2.37831,-1.20035 1.306663,-1.25366 1.851888,-2.58738 z"
       style="font-style:italic;font-variant:normal;font-weight:normal;font-stretch:normal;font-size:74.66666412px;line-height:1.25;font-family:'Achilleas Demo';-inkscape-font-specification:'Achilleas Demo, Italic';font-variant-ligatures:normal;font-variant-caps:normal;font-variant-numeric:normal;font-feature-settings:normal;text-align:start;letter-spacing:0px;word-spacing:0px;writing-mode:lr-tb;text-anchor:start;fill:#000000;fill-opacity:1;stroke:#000000;stroke-width:0.36581564;stroke-opacity:1"
       id="path2615"
       inkscape:connector-curvature="0" />
    <path
       d="m 35.883782,270.86518 q -0.02824,-0.10656 -0.1222,-0.2666 -0.178601,-0.14661 -0.385417,-0.16009 -0.2068,-0.0127 -0.423021,0.10679 -0.216202,0.10679 -0.441817,0.29355 -0.2162,0.17324 -0.451223,0.46679 -0.235001,0.28007 -0.451223,0.5735 -0.2068,0.29354 -0.43242,0.66685 -0.2162,0.36009 -0.39482,0.68017 -0.178599,0.30671 -0.366615,0.66686 -0.178601,0.34677 -0.300801,0.58684 -0.112796,0.22682 -0.235,0.48014 -0.883645,1.86716 -1.316061,3.36093 -0.244401,0.85354 -0.310233,1.26702 -0.01892,0.0934 -0.02824,0.33342 0,0.23998 -0.0093,0.32018 0.02824,0.0798 0.103403,0.4001 0.0846,0.32016 0.1504,0.44012 0.620428,0.21334 1.710877,-0.56015 1.43827,-1.02693 2.274909,-2.72078 l 0.02824,0.0533 q 0.03761,0.0533 0.02824,0.0667 -0.855442,1.7338 -2.368914,2.78744 -0.949441,0.66686 -1.569868,0.49349 0.01892,0.0257 0.03759,0.0257 -0.0093,0 -0.02824,-0.0127 -0.01892,-0.0129 -0.02824,-0.0129 -0.2068,-0.0798 -0.310199,-0.18672 -0.498224,-0.38675 -0.62983,-1.16031 -0.141,-0.78688 0.047,-1.76049 0.187999,-0.98694 0.488823,-1.90718 0.2914,-0.92026 0.705032,-1.85385 0.347816,-0.78687 0.62043,-1.36037 0.282,-0.5735 0.723832,-1.38706 0.441824,-0.81357 0.921246,-1.40038 0.488819,-0.60018 0.958845,-0.90692 0.272601,-0.17324 0.507624,-0.20019 0.244399,-0.0401 0.413616,0.0798 0.1786,0.10679 0.319631,0.28008 0.141001,0.16008 0.244401,0.42678 0.112796,0.26661 0.1786,0.49349 0.0752,0.22682 0.141,0.5068 z m -1.052849,6.76188 0.02824,0.0533 q 0.02824,0.0401 0.0564,0.0934 0.03761,0.0533 0.03761,0.0667 l 0.0376,0.0667 q 0.03761,0.0667 0.0564,0.11998 0.01892,0.0401 0.0093,0.0667 -0.526424,1.30706 -1.861288,2.57406 -1.400666,1.32038 -2.368912,1.21366 -0.02824,0 -0.0564,-0.0401 -0.01892,-0.0401 -0.03759,-0.0934 -0.01892,-0.0667 -0.02824,-0.0799 -0.0093,-0.0127 -0.03759,-0.0667 -0.01892,-0.0667 -0.03761,-0.11998 -0.01892,-0.0667 -0.02824,-0.0667 0.987048,0.10679 2.378314,-1.2003 1.306658,-1.25371 1.851881,-2.58742 z"
       style="font-style:italic;font-variant:normal;font-weight:normal;font-stretch:normal;font-size:74.66666412px;line-height:1.25;font-family:'Achilleas Demo';-inkscape-font-specification:'Achilleas Demo, Italic';font-variant-ligatures:normal;font-variant-caps:normal;font-variant-numeric:normal;font-feature-settings:normal;text-align:start;letter-spacing:0px;word-spacing:0px;writing-mode:lr-tb;text-anchor:start;fill:#000000;fill-opacity:1;stroke:#000000;stroke-width:0.36581564;stroke-opacity:1"
       id="path2617"
       inkscape:connector-curvature="0" />
    <path
       d="m 47.126706,265.03692 q -1.052849,0 -3.901182,0.32018 -1.579275,0.18672 -2.368911,0.25345 -0.112796,0.65354 -0.263199,1.32038 -0.141001,0.65353 -0.394823,1.5471 -0.253801,0.89358 -0.366617,1.28036 -0.112796,0.38675 -0.479424,1.56042 -0.357216,1.17366 -0.404215,1.32038 -0.517023,1.69378 -1.532271,4.88133 -1.005847,3.18756 -1.447666,4.61462 -0.08461,0.28008 -0.451226,1.40038 -0.366617,1.13366 -0.517022,1.66715 -0.159801,0.53346 -0.347818,1.38705 -0.187999,0.86689 -0.234999,1.50708 0.01892,-0.23997 -0.338416,-0.66685 -0.357216,-0.41347 -0.338413,-0.73355 0.03759,-0.50681 0.188,-1.187 0.140999,-0.68018 0.253799,-1.0803 0.103403,-0.38678 0.39482,-1.32036 0.2914,-0.93359 0.338417,-1.09364 0.488823,-1.6271 2.397111,-7.66877 1.635677,-5.20144 2.256106,-7.5221 0.1316,-0.46678 0.291401,-1.13364 -0.0846,0.0128 -0.2632,0.0128 -0.1692,0 -0.253801,0.0127 -2.1339,0.10679 -3.158543,-0.17324 -1.175059,-0.32017 -1.504075,-1.41373 -0.281999,-0.96026 0.893046,-2.6274 l 0.1316,0.21334 q 0.122199,0.21334 0.094,0.25345 -0.667431,0.94689 -0.86484,1.6271 -0.103403,0.32017 -0.08461,0.62684 0,0.0401 0.0093,0.0798 0,0.0257 0.0093,0.0799 0.0093,0.0401 0.0093,0.0667 l 0.047,0.0667 q 0.225601,0.2666 0.61103,0.42675 0.385416,0.16008 0.676829,0.21335 0.2914,0.0533 0.770836,0.0933 1.137452,0.0934 2.99874,-0.0533 0.112796,-0.49344 0.2256,-1.09363 0,-0.0257 0.0564,-0.5068 -0.06583,0.11999 -0.159833,0.21335 -0.460622,0.49344 -1.447665,0.70685 -0.977652,0.21335 -1.786085,0.0533 -0.178599,-0.0401 -0.357216,-0.0934 -0.169199,-0.0533 -0.376019,-0.1601 -0.2068,-0.10679 -0.357212,-0.25345 -0.141002,-0.14661 -0.235001,-0.34673 -0.103403,-0.20019 -0.08461,-0.46682 0.01892,-0.28008 0.1598,-0.60017 l 0.01892,0.0401 q 0.047,0.0533 0.03759,0.0803 -0.41362,0.90691 0.282,1.37373 1.090449,0.70686 2.90473,0.18672 0.79904,-0.22682 1.175055,-0.62685 0.244401,-0.26693 0.291401,-0.57351 0,-0.0257 -0.01892,-0.16008 -0.0093,-0.14661 0.0093,-0.16008 h 0.0093 v -0.0129 q -0.103403,-0.36012 -0.235032,-0.37343 l 0.112796,0.0401 h 0.0093 0.0093 q 0.45122,0.17324 0.629829,1.00028 0.1786,0.82688 0.08461,1.65379 0.573426,-0.0533 1.870689,-0.21334 1.297258,-0.16009 2.256104,-0.23997 0.968246,-0.0934 1.833085,-0.0934 0.0658,0 0.122199,0.23998 0.0564,0.22681 0.103403,0.22681 z"
       style="font-style:italic;font-variant:normal;font-weight:normal;font-stretch:normal;font-size:74.66666412px;line-height:1.25;font-family:'Achilleas Demo';-inkscape-font-specification:'Achilleas Demo, Italic';font-variant-ligatures:normal;font-variant-caps:normal;font-variant-numeric:normal;font-feature-settings:normal;text-align:start;letter-spacing:0px;word-spacing:0px;writing-mode:lr-tb;text-anchor:start;fill:#000000;fill-opacity:1;stroke:#000000;stroke-width:0.36581564;stroke-opacity:1"
       id="path2619"
       inkscape:connector-curvature="0" />
    <path
       d="m 46.196061,270.5851 q 0.1316,0.30671 0.188,0.54685 0.0564,0.22681 0.0093,0.5468 -0.03761,0.29355 -0.413619,1.72049 -0.01892,0.0533 -0.0658,0.23997 -0.047,0.17325 -0.0752,0.29355 -0.02824,0.10679 -0.0658,0.26692 -0.03761,0.16009 -0.047,0.29355 -0.0093,0.13345 0,0.22682 0.112796,0.33342 0.08461,0.3067 -0.404221,-0.37343 -0.611031,-1.00029 -0.2068,-0.64015 -0.0564,-1.34701 0.0658,-0.3067 0.2162,-0.88023 0.159801,-0.5735 0.1974,-0.73356 0.1316,-0.49347 0.159801,-0.77353 0,-0.0129 0,-0.0533 0.0093,-0.0401 0.0093,-0.0667 -0.1316,-0.40009 -0.178601,-0.52014 -0.2632,-0.0799 -0.667429,0.21335 -0.911846,0.64016 -2.256104,2.62737 -0.968249,1.41373 -1.682682,2.8141 -0.545226,1.82719 -0.883643,3.0542 -0.0564,0.18673 -0.178599,0.58681 -0.112796,0.40013 -0.178601,0.6402 -0.0658,0.22682 -0.178599,0.6535 -0.103403,0.41345 -0.131601,0.64017 -0.02824,0.22682 -0.0752,0.6002 -0.03759,0.37343 0.01892,0.53345 -0.01892,-0.14661 -0.329016,-0.58682 -0.310201,-0.45348 -0.347816,-0.73355 -0.0752,-0.49344 0.0564,-1.28036 0.131599,-0.78686 0.300799,-1.36037 0.1598,-0.5868 0.47942,-1.58709 0.3196,-1.00028 0.40422,-1.2937 0.893042,-3.06751 1.052848,-3.68102 0.047,-0.17324 0.094,-0.36009 0.047,-0.20019 0.112796,-0.50683 0.0752,-0.30671 0.122201,-0.57345 0.047,-0.26661 0.0752,-0.52015 0.02824,-0.25346 0,-0.41347 -0.01892,-0.1601 -0.094,-0.18673 0.253801,0.0667 0.488823,0.5735 0.2444,0.49349 0.300801,0.92027 0.094,0.70686 -0.39482,2.38732 1.513472,-2.64073 2.932937,-3.64102 0.752032,-0.53345 1.137455,-0.25344 0.225599,0.16009 0.366615,0.52015 0.141002,0.34673 0.159801,0.74686 0,-0.0533 -0.112796,-0.20019 -0.103402,-0.14661 -0.112795,-0.23998 0,-0.0667 -0.0564,-0.22682 -0.047,-0.16008 -0.112796,-0.18671 -0.244401,-0.10679 -0.554626,0.0257 -1.231456,0.46679 -2.914134,3.09421 -0.620429,0.94692 -1.269062,2.25394 0,0.0128 -0.0093,0.0533 -0.0093,0.0257 -0.01892,0.0401 0.253801,-0.48015 0.629829,-1.10697 1.381866,-2.29398 2.538121,-3.45429 0.620429,-0.64019 1.034047,-0.70686 0.150398,-0.0127 0.253799,0.0401 0.1222,0.0401 0.2256,0.17323 0.112795,0.13346 0.1598,0.22682 0.047,0.0933 0.1504,0.34678 0.103403,0.23997 0.112796,0.2666 z"
       style="font-style:italic;font-variant:normal;font-weight:normal;font-stretch:normal;font-size:74.66666412px;line-height:1.25;font-family:'Achilleas Demo';-inkscape-font-specification:'Achilleas Demo, Italic';font-variant-ligatures:normal;font-variant-caps:normal;font-variant-numeric:normal;font-feature-settings:normal;text-align:start;letter-spacing:0px;word-spacing:0px;writing-mode:lr-tb;text-anchor:start;fill:#000000;fill-opacity:1;stroke:#000000;stroke-width:0.36581564;stroke-opacity:1"
       id="path2621"
       inkscape:connector-curvature="0" />
    <path
       d="m 52.155944,271.49203 q 0.047,1.48042 -0.441822,3.25423 -0.488823,1.77385 -1.344263,3.46763 -0.329015,0.65352 -0.705032,1.25368 -0.376016,0.60018 -0.855442,1.20034 -0.470023,0.58681 -0.987043,0.90693 -0.517026,0.32017 -0.987049,0.25344 -0.0752,-0.0127 -0.122199,-0.23997 -0.047,-0.22682 -0.103403,-0.22682 0.789636,0.10679 1.786081,-0.96024 1.729682,-1.85386 2.857738,-5.36151 0.526424,-1.68048 0.648628,-3.08085 0.1504,-1.89386 -0.394819,-2.58738 -0.047,-0.0533 -0.112795,-0.22682 -0.0658,-0.18672 -0.094,-0.22682 0.799042,1.00025 0.855441,2.57403 z m -5.546261,9.50931 q -0.0752,-0.0257 -0.103403,-0.0401 l -0.0093,-0.0128 q -0.686233,-0.37343 -0.958844,-1.38703 -0.272601,-1.02697 -0.122201,-2.34734 0.140999,-1.33368 0.629833,-2.72074 0.1974,-0.56015 0.498222,-1.22701 0.3102,-0.66685 0.723833,-1.42706 0.423019,-0.77353 0.864842,-1.38704 0.451223,-0.61353 0.940043,-1.06698 0.498222,-0.46679 0.949445,-0.52014 0.45122,-0.0533 0.86484,0.3067 0.150399,0.14662 0.329015,0.66683 0.178602,0.52017 0.216201,0.58684 l 0.0093,0.0401 0.0093,0.0401 q 0.282,0.60018 0.1316,1.76049 -0.366619,2.89414 -2.058697,6.08169 -0.404221,0.76021 -0.83664,1.37371 -0.423015,0.61349 -0.996445,1.05363 -0.573426,0.42678 -1.034049,0.25345 -0.0093,-0.0129 -0.02824,-0.0129 -0.0093,0 -0.01892,-0.0127 z m -0.573425,-2.32065 q -0.0658,0.72021 0.094,1.30703 0.159801,0.57348 0.39482,0.89357 0.667429,0.32017 1.522868,-0.56016 1.419465,-1.46707 2.641528,-4.89467 0.535822,-1.52043 0.761435,-2.81413 0.272601,-1.5871 -0.01892,-2.13393 l -0.01892,-0.0257 q -0.3008,-0.20019 -0.601629,-0.20019 -0.300801,0 -0.658029,0.23998 -0.347817,0.22682 -0.667433,0.54684 -0.3102,0.32017 -0.63923,0.77351 -0.329015,0.44014 -0.592226,0.85358 -0.253799,0.41344 -0.488825,0.85358 -0.968243,1.81385 -1.447665,3.65435 -0.216201,0.84022 -0.282001,1.50709 z"
       style="font-style:italic;font-variant:normal;font-weight:normal;font-stretch:normal;font-size:74.66666412px;line-height:1.25;font-family:'Achilleas Demo';-inkscape-font-specification:'Achilleas Demo, Italic';font-variant-ligatures:normal;font-variant-caps:normal;font-variant-numeric:normal;font-feature-settings:normal;text-align:start;letter-spacing:0px;word-spacing:0px;writing-mode:lr-tb;text-anchor:start;fill:#000000;fill-opacity:1;stroke:#000000;stroke-width:0.36581564;stroke-opacity:1"
       id="path2623"
       inkscape:connector-curvature="0" />
    <path
       d="m 59.027667,270.97189 q 0.0564,0.22682 0.0564,0.5068 0.0093,0.28007 -0.01892,0.52013 -0.02824,0.22682 -0.103403,0.5735 -0.0658,0.34677 -0.122199,0.56016 -0.0564,0.20019 -0.159801,0.58684 -0.197399,0.70686 -0.441819,1.46707 -0.235,0.74687 -0.582828,1.77382 -0.338414,1.02697 -0.47942,1.45375 -0.0564,0.18672 -0.225601,0.66683 -0.169201,0.48013 -0.272632,0.80022 -0.103403,0.32017 -0.2162,0.7469 -0.112796,0.42678 -0.150401,0.77352 -0.03761,0.34678 0,0.61351 -0.02824,-0.14661 -0.338413,-0.58682 -0.300832,-0.45347 -0.338416,-0.73355 -0.0658,-0.44011 0.0752,-1.1603 0.141,-0.73356 0.329014,-1.2937 0.187999,-0.56017 0.507621,-1.45374 0.329013,-0.89357 0.423018,-1.17365 0.855442,-2.62738 1.081051,-3.44095 0.291401,-1.10698 0.3196,-1.38706 0.094,-0.81357 -0.140999,-1.13366 -0.291433,-0.0257 -0.827242,0.56016 -0.554627,0.6135 -1.372466,1.98722 -0.733232,1.22701 -1.569871,2.92079 -1.720282,3.52101 -2.632124,6.53517 0,0.18671 0.02824,0.36009 -0.01892,-0.14661 -0.329015,-0.58682 -0.310232,-0.45347 -0.347818,-0.73355 -0.0752,-0.49345 0.0564,-1.28036 0.1316,-0.78686 0.3008,-1.36036 0.1598,-0.58682 0.479423,-1.5871 0.3196,-1.00028 0.404216,-1.2937 0.893042,-3.06752 1.052849,-3.68102 0.047,-0.17324 0.094,-0.36008 0.047,-0.2002 0.112796,-0.50684 0.0752,-0.30671 0.1222,-0.57346 0.047,-0.2666 0.0752,-0.52018 0.02824,-0.25345 0,-0.41344 -0.01892,-0.16009 -0.094,-0.18672 0.2538,0.0667 0.488823,0.5735 0.244399,0.49349 0.300799,0.92027 0.047,0.11998 0.0093,0.4401 -0.02824,0.30671 -0.047,0.48014 -0.01892,0.16009 -0.103403,0.5068 -0.0846,0.34677 -0.1316,0.52017 -0.047,0.17324 -0.1504,0.50681 -0.094,0.33341 -0.1316,0.48009 -0.1222,0.45348 -0.780236,2.72078 0.66743,-1.54708 1.654475,-3.36093 1.00585,-1.84052 1.786085,-2.82745 0.817839,-1.0803 1.334862,-1.10698 0.0658,0 0.122199,0.23996 0.0564,0.22683 0.103403,0.22683 -0.488825,0.0257 -1.334865,1.10695 -0.799035,1.02695 -1.786085,2.81413 -1.889485,3.46761 -3.07394,7.05527 -0.1222,0.49348 -0.188,1.06698 0.545223,-1.74715 1.325462,-3.60101 1.569875,-3.74771 3.18675,-6.26842 1.137452,-1.80047 1.701478,-1.89386 h -0.0093 0.0093 0.0658 0.01892 q 0.0564,0 0.112796,0.0401 0.244399,0.12 0.451223,0.5468 0.2068,0.41346 0.3102,0.85359 z"
       style="font-style:italic;font-variant:normal;font-weight:normal;font-stretch:normal;font-size:74.66666412px;line-height:1.25;font-family:'Achilleas Demo';-inkscape-font-specification:'Achilleas Demo, Italic';font-variant-ligatures:normal;font-variant-caps:normal;font-variant-numeric:normal;font-feature-settings:normal;text-align:start;letter-spacing:0px;word-spacing:0px;writing-mode:lr-tb;text-anchor:start;fill:#000000;fill-opacity:1;stroke:#000000;stroke-width:0.36581564;stroke-opacity:1"
       id="path2625"
       inkscape:connector-curvature="0" />
    <path
       d="m 60.935952,268.93131 q 0.2632,0.0803 0.470022,0.58684 0.2068,0.49345 0.2444,0.90693 0.01892,0.22682 -0.0093,0.50679 -0.02824,0.26661 -0.1316,0.65353 -0.103403,0.37343 -0.159798,0.56014 -0.047,0.17324 -0.216201,0.66685 -0.1598,0.49349 -0.178601,0.5468 -0.282,0.89362 -0.864839,2.57407 -0.573429,1.66713 -0.817839,2.42735 -0.0564,0.18672 -0.235,0.69352 -0.1786,0.50679 -0.282001,0.81356 -0.094,0.3067 -0.2162,0.74687 -0.1222,0.42679 -0.159799,0.77356 -0.047,0.34674 -0.01892,0.62682 -0.01892,-0.14661 -0.300801,-0.58682 -0.281999,-0.45347 -0.310199,-0.73355 -0.047,-0.49345 0.1222,-1.26701 0.159801,-0.78687 0.366619,-1.38707 0.2068,-0.60015 0.564027,-1.5604 0.357216,-0.97362 0.470022,-1.30704 1.099853,-3.26758 1.231459,-3.68102 0.0658,-0.22682 0.112796,-0.37343 0.047,-0.14662 0.140998,-0.48015 0.094,-0.34673 0.141002,-0.5868 0.0564,-0.25345 0.103403,-0.52018 0.047,-0.26661 0.02824,-0.41344 -0.01892,-0.16009 -0.094,-0.18672 z m 2.011694,-2.80074 q 0.1222,0.0533 0.1786,0.23997 0.0564,0.18671 0.01892,0.40012 -0.0658,0.42679 -0.338416,0.89358 -0.2632,0.45344 -0.58283,0.68021 -0.658028,0.46679 -0.940042,-0.6002 -0.02824,-0.0667 -0.1222,-0.32018 -0.047,-0.16009 -0.03761,-0.29354 0.01892,-0.28008 0.1974,-0.5735 0.178601,-0.29324 0.42302,-0.50681 0.526425,-0.46679 0.752032,-0.23997 0.0093,-0.0129 0.03761,0.0401 l 0.0093,0.0257 q 0.178601,0.28009 0.253801,0.56017 0.02824,0.11997 0.0093,0.30669 -0.02824,0.32018 -0.2162,0.68021 -0.39482,0.72021 -0.817839,0.76021 -0.235001,0.0127 -0.376017,-0.22682 l -0.0564,-0.11998 q 0.112796,0.45347 0.39482,0.52013 0.244401,0.0533 0.535822,-0.21333 0.300801,-0.26693 0.517026,-0.66687 0.225601,-0.41346 0.2914,-0.76021 0.02824,-0.20019 0.01892,-0.32018 0,-0.0127 -0.0093,-0.0401 0,-0.0257 0,-0.0401 h -0.0093 q -0.0658,-0.0533 -0.08461,-0.0667 -0.01892,-0.0127 -0.02824,-0.0667 -0.0093,-0.0533 -0.01892,-0.0533 z m -1.588678,1.37368 q -0.0093,0.0533 -0.0093,0.17356 0.1222,0.0799 0.291399,0.0129 0.38542,-0.13345 0.723837,-0.73354 0.141,-0.26661 0.197399,-0.53346 0.02824,-0.10679 0.02824,-0.21335 h -0.0093 l -0.0093,-0.0128 q -0.094,0 -0.1974,0.0401 -0.188001,0.0667 -0.441819,0.30669 -0.479424,0.45345 -0.57343,0.96025 z"
       style="font-style:italic;font-variant:normal;font-weight:normal;font-stretch:normal;font-size:74.66666412px;line-height:1.25;font-family:'Achilleas Demo';-inkscape-font-specification:'Achilleas Demo, Italic';font-variant-ligatures:normal;font-variant-caps:normal;font-variant-numeric:normal;font-feature-settings:normal;text-align:start;letter-spacing:0px;word-spacing:0px;writing-mode:lr-tb;text-anchor:start;fill:#000000;fill-opacity:1;stroke:#000000;stroke-width:0.36581564;stroke-opacity:1"
       id="path2628"
       inkscape:connector-curvature="0" />
    <path
       d="m 66.491609,270.86518 q -0.02824,-0.10656 -0.122201,-0.2666 -0.1786,-0.14661 -0.385419,-0.16009 -0.2068,-0.0127 -0.423019,0.10679 -0.2162,0.10679 -0.441817,0.29355 -0.2162,0.17324 -0.451223,0.46679 -0.235,0.28007 -0.451223,0.5735 -0.2068,0.29354 -0.432422,0.66685 -0.2162,0.36009 -0.394816,0.68017 -0.178601,0.30671 -0.366617,0.66686 -0.1786,0.34677 -0.300832,0.58684 -0.112796,0.22682 -0.235,0.48014 -0.883643,1.86716 -1.31606,3.36093 -0.244399,0.85354 -0.310231,1.26702 -0.01892,0.0934 -0.02824,0.33342 0,0.23998 -0.0093,0.32018 0.02824,0.0798 0.103403,0.4001 0.08461,0.32016 0.150401,0.44012 0.620426,0.21334 1.710878,-0.56015 1.438268,-1.02693 2.274907,-2.72078 l 0.02824,0.0533 q 0.03759,0.0533 0.02824,0.0667 -0.85544,1.7338 -2.368912,2.78744 -0.949442,0.66686 -1.56987,0.49349 0.01892,0.0257 0.03759,0.0257 -0.0093,0 -0.02824,-0.0127 -0.01892,-0.0129 -0.02824,-0.0129 -0.2068,-0.0798 -0.310201,-0.18672 -0.49823,-0.38675 -0.629832,-1.16031 -0.141,-0.78688 0.047,-1.76049 0.187999,-0.98694 0.488822,-1.90718 0.291401,-0.92026 0.705032,-1.85385 0.347817,-0.78687 0.62043,-1.36037 0.282,-0.5735 0.723833,-1.38706 0.441821,-0.81357 0.921242,-1.40038 0.488826,-0.60018 0.958845,-0.90692 0.272601,-0.17324 0.507623,-0.20019 0.2444,-0.0401 0.41362,0.0798 0.1786,0.10679 0.3196,0.28008 0.141,0.16008 0.2444,0.42678 0.112796,0.26661 0.1786,0.49349 0.0752,0.22682 0.141,0.5068 z m -1.052849,6.76188 0.02824,0.0533 q 0.02824,0.0401 0.0564,0.0934 0.0376,0.0533 0.0376,0.0667 l 0.03761,0.0667 q 0.03761,0.0667 0.0564,0.11998 0.01892,0.0401 0.0093,0.0667 -0.526426,1.30706 -1.861288,2.57406 -1.400665,1.32038 -2.36891,1.21366 -0.02824,0 -0.0564,-0.0401 -0.01892,-0.0401 -0.03761,-0.0934 -0.01892,-0.0667 -0.02824,-0.0799 -0.0093,-0.0127 -0.03761,-0.0667 -0.01892,-0.0667 -0.03761,-0.11998 -0.01892,-0.0667 -0.02824,-0.0667 0.987049,0.10679 2.378314,-1.2003 1.306659,-1.25371 1.851884,-2.58742 z"
       style="font-style:italic;font-variant:normal;font-weight:normal;font-stretch:normal;font-size:74.66666412px;line-height:1.25;font-family:'Achilleas Demo';-inkscape-font-specification:'Achilleas Demo, Italic';font-variant-ligatures:normal;font-variant-caps:normal;font-variant-numeric:normal;font-feature-settings:normal;text-align:start;letter-spacing:0px;word-spacing:0px;writing-mode:lr-tb;text-anchor:start;fill:#000000;fill-opacity:1;stroke:#000000;stroke-width:0.36581564;stroke-opacity:1"
       id="path2630"
       inkscape:connector-curvature="0" />
    <path
       d="m 75.093011,281.48147 q 0.517023,-1.05363 1.880091,-3.85441 1.363067,-2.80075 2.115103,-4.32118 2.73552,-5.52157 4.606208,-8.84246 1.212658,-2.17393 2.152708,-3.601 1.062249,-1.62713 1.880082,-2.5207 0.874244,-0.94695 1.428864,-0.9736 0.347826,-0.0257 0.564032,0.2666 0.216197,0.29355 0.394816,0.80023 0.0093,0.0127 0.0093,0.0401 v 0.0128 q -0.0093,-0.0128 -0.02825,-0.0257 -0.06579,-0.0667 -0.159796,-0.3334 -0.0564,-0.0799 -0.08456,-0.10679 -0.789633,-0.81356 -2.773125,1.85386 -1.052855,1.41372 -2.002299,3.01416 -0.949444,1.60045 -2.143296,3.81439 -1.692078,3.12087 -4.446413,8.7224 -0.385413,0.7869 -1.663876,3.42763 -1.278455,2.64073 -1.992896,4.0678 -0.817833,1.64045 -1.203255,2.33396 -0.376018,0.66686 -0.488823,0.77356 0,0.0799 -0.0564,0.0799 -0.0093,0 -0.01895,0 l -0.01895,-0.0127 -0.0093,0.0127 h -0.0093 q -0.02825,0 -0.0564,-0.0401 -0.112808,-0.0798 -0.32902,-0.65351 -0.178593,-0.46679 -0.197399,-1.05363 -0.01895,-0.58681 0.122199,-1.34702 0.150401,-0.74686 0.282003,-1.2537 0.131603,-0.5068 0.385421,-1.36038 0.404219,-1.36037 0.987049,-3.0275 0.592215,-1.66714 0.987041,-2.7074 0.394815,-1.04028 1.156255,-3.01419 0.253802,-0.64016 0.83664,-2.14724 0.592232,-1.52043 0.91184,-2.36065 0.329018,-0.84026 0.789641,-2.08059 0.460621,-1.25368 0.817833,-2.30732 0.01895,-0.0533 0.1504,-0.4268 0.131603,-0.38674 0.159805,-0.49344 0.03763,-0.10679 0.140996,-0.42679 0.112807,-0.33342 0.150401,-0.49348 0.04702,-0.16009 0.122199,-0.42679 0.07518,-0.2666 0.112808,-0.4801 0.04701,-0.22682 0.08456,-0.44013 0.08456,-0.5335 0.03763,-1.06695 -0.03763,-0.54684 -0.188005,-0.78691 -0.376018,-0.0799 -0.977644,0.6402 -0.648628,0.80022 -1.475873,2.414 -0.817833,1.5871 -1.645078,3.62767 -1.786076,4.38788 -2.791922,8.52236 0,-0.0127 -0.03763,-0.0533 -0.02825,-0.0401 -0.01895,-0.0667 0.582829,-2.414 1.44767,-4.93469 1.607475,-4.69464 3.299553,-7.80216 1.334865,-2.46736 2.039894,-2.48071 h -0.0093 0.01895 q 0.04701,0 0.140998,0.0257 0.0093,0 0.01895,0.0129 0.0093,0.0127 0.01895,0.0127 h 0.01895 q 0.535822,0.22682 0.761441,1.187 0.225599,0.96025 0.07518,1.86717 -0.122201,0.74687 -0.32902,1.53377 -0.197399,0.77352 -0.545225,1.76046 -0.347817,0.98697 -0.545225,1.52043 -0.188005,0.53349 -0.676836,1.77384 -0.47942,1.24032 -0.592225,1.5204 -0.319598,0.82691 -1.240859,3.18757 -0.91184,2.3473 -1.532273,3.98778 -0.611022,1.62709 -1.156256,3.20088 -0.06578,0.17323 -0.366616,1.02695 -0.300801,0.84022 -0.470024,1.33369 -0.159795,0.4935 -0.394817,1.25367 -0.225592,0.77357 -0.347808,1.40042 -0.112807,0.64016 -0.122208,1.14696 0.282003,-0.41344 0.582829,-0.9736 0.310231,-0.56015 0.470017,-0.88022 0.159804,-0.30671 0.535831,-1.0803 0.376018,-0.76021 0.451218,-0.92027 z m 23.642116,-23.0464 q 0.0186,0.0533 0.0186,0.0667 0,0 -0.04697,-0.0401 -0.0658,-0.0667 -0.159807,-0.33341 0,-0.0401 -0.02825,-0.0799 l -0.112761,-0.1601 q -0.10346,-0.10679 -0.263232,-0.20019 -0.244401,-0.13345 -0.611025,-0.0401 -0.611024,0.16009 -1.532269,1.05364 -0.864841,0.86687 -1.663885,1.96052 -0.799027,1.09364 -1.795472,2.62741 -1.52287,2.36066 -3.656772,6.12168 -0.423025,0.74687 -1.438275,2.56072 -1.015242,1.81385 -1.569869,2.78744 -0.639232,1.1203 -0.987041,1.6538 -0.404229,0.62684 -0.535831,0.64015 -0.0093,0 -0.0093,0 0,-0.0127 -0.0093,-0.0127 l -0.0093,0.0127 q -0.855446,0 -0.244399,-2.20059 0.244399,-0.89358 0.714432,-2.05392 0.206803,-0.5068 0.799036,-1.98721 0.592232,-1.4804 0.883639,-2.21395 0.300834,-0.73352 0.742642,-1.90718 0.451218,-1.18699 0.799035,-2.16061 0.742633,-2.13394 1.01525,-3.3209 0.187996,-0.81357 0.216197,-1.2537 0.02825,-0.48014 -0.04702,-0.73352 -0.06579,-0.25345 -0.2726,-0.17324 -0.639231,0.37343 -1.513467,1.42706 -0.864849,1.05364 -1.974097,2.86746 -1.59808,2.61406 -3.910583,7.29536 -0.58283,1.17365 -1.203255,2.45401 -0.61103,1.28036 -1.428872,3.00085 -0.817834,1.70711 -1.184448,2.46732 -2.171506,4.4946 -3.224352,6.3351 -0.667434,1.14699 -0.911849,1.48042 -0.695625,0.97359 -1.081047,0.80022 -0.01895,-0.0127 -0.03763,-0.0667 -0.0093,-0.0533 -0.01895,-0.0533 0.329019,0.13347 0.940049,-0.64015 0.592225,-0.76021 1.381866,-2.21395 1.01525,-1.84051 3.327752,-6.65517 2.857737,-5.98832 3.85418,-7.96222 2.303109,-4.58794 3.882381,-7.06861 0.573427,-0.89359 0.977646,-1.48043 0.40422,-0.58681 1.06225,-1.26701 0.658029,-0.69352 1.231455,-0.94692 h 0.0093 q 0.1504,0 0.2726,0.17324 0.338413,0.49348 0.470025,1.16034 0.131594,0.66684 -0.01895,1.61378 -0.140996,0.94692 -0.272599,1.6271 -0.131603,0.66685 -0.582829,1.92056 -0.451219,1.2403 -0.639232,1.72045 -0.178594,0.48014 -0.714432,1.78715 -0.103392,0.2666 -0.159795,0.40012 -0.04701,0.10691 -0.150401,0.37344 -0.094,0.26661 -0.159803,0.40014 -1.109249,2.37396 -2.284303,5.61487 0.423026,-0.6802 1.212658,-2.06726 0.253802,-0.45345 1.626272,-2.90746 1.381865,-2.45401 1.92709,-3.40094 0.545226,-0.94693 1.607483,-2.69408 1.071643,-1.7605 2.00229,-3.10753 0.648625,-0.94692 1.052844,-1.50707 0.413623,-0.56016 1.071658,-1.28036 0.667428,-0.73355 1.250262,-1.13364 0.761427,-0.5068 1.250262,-0.30671 0.50761,0.20019 0.86483,1.22701 z m -1.005861,0.40012 q 0.272602,0.0127 0.470027,0.32018 0.197412,0.3067 0.291411,0.85357 0.09404,0.5335 0.07521,1.24036 -0.0092,0.6935 -0.178592,1.57374 -0.1692,0.88026 -0.47942,1.78719 -0.592238,1.72045 -1.955296,5.2681 -1.36307,3.54766 -1.983499,5.37482 -0.0658,0.18672 -0.253805,0.73356 -0.187996,0.5468 -0.319598,0.92027 -0.122199,0.37343 -0.319633,0.9869 -0.1974,0.61354 -0.32901,1.06698 -0.122199,0.44013 -0.253802,1.00029 -0.1222,0.54681 -0.178602,0.96024 -0.04701,0.40013 -0.04701,0.77356 0.0093,0.37343 0.103403,0.60015 0.159803,0.40014 0.07518,0.29356 -0.159805,-0.18672 -0.47942,-0.84023 -0.0186,-0.0401 -0.02825,-0.0667 -0.197399,-0.48011 -0.244398,-1.06695 -0.03763,-0.60016 0.08465,-1.33371 0.131603,-0.73352 0.263205,-1.28035 0.140998,-0.54681 0.385414,-1.41373 0.404219,-1.38702 0.996443,-3.10752 0.592232,-1.7338 0.968248,-2.74742 0.376017,-1.02695 1.165657,-3.10753 0.940042,-2.53402 1.193847,-3.29423 0.780235,-2.32066 1.00585,-3.46765 0.05638,-0.32017 0.09404,-0.70686 0.04696,-0.38677 0.0186,-0.76021 -0.0186,-0.37343 -0.140998,-0.44013 -1.391271,0.65354 -3.346556,3.29426 -0.827243,1.1203 -1.757881,2.58738 -0.930646,1.46707 -1.466477,2.374 -0.526419,0.90692 -1.635666,2.86746 -1.099854,1.96055 -1.428865,2.53401 -1.635674,2.86749 -2.556927,4.1345 -0.319598,0.42678 -0.545216,0.69351 -0.216206,0.26661 -0.573434,0.52015 -0.347818,0.25345 -0.592225,0.14661 -0.0093,0 -0.02825,-0.0401 -0.01895,-0.0533 -0.02825,-0.0667 0.216198,0.0933 0.47942,-0.0401 0.2726,-0.13345 0.58282,-0.50679 0.319608,-0.37343 0.479429,-0.58685 0.169199,-0.22681 0.451218,-0.62684 0.1974,-0.29324 0.394817,-0.58682 0.197399,-0.29355 0.404218,-0.64019 0.216207,-0.34675 0.366616,-0.58681 0.1504,-0.25345 0.385421,-0.66686 0.244399,-0.41343 0.347818,-0.60015 0.112795,-0.20019 0.385421,-0.66686 0.2726,-0.48014 0.357211,-0.62684 2.538122,-4.45458 3.102145,-5.4015 1.842485,-3.10753 3.214951,-4.86803 1.682671,-2.16058 2.951731,-2.7474 0,-0.0257 -0.0092,-0.0257 h 0.04708 0.0092 z m -24.741955,21.84607 q 0,0 0.01895,0.0401 l 0.01895,0.0934 -0.01895,-0.0257 q -1.09045,-1.6938 -0.705029,-5.16141 0.319599,-2.97419 1.541669,-6.93528 1.146852,-3.73436 2.632119,-6.90855 0.723835,-1.53377 1.37247,-2.66743 0.658029,-1.14699 1.447661,-1.96052 0.648636,-0.68019 1.184458,-0.72021 0.50762,-0.0257 0.883638,0.68017 0.141006,0.23997 0.150401,0.32018 0.0093,0.0533 -0.01895,0.0257 l -0.04701,-0.0799 q -0.235003,-0.4401 -0.639231,-0.45346 -0.40422,-0.0129 -0.827245,0.30671 -0.423009,0.3067 -0.85543,0.84022 -1.250262,1.56044 -2.650933,4.65461 -1.372463,3.01419 -2.434712,6.50849 -1.11865,3.68102 -1.475871,6.54848 -0.1974,1.60043 -0.131602,2.70742 0.08464,1.38702 0.394824,1.88052 0.094,0.14661 0.159795,0.3067 z"
       style="font-style:italic;font-variant:normal;font-weight:normal;font-stretch:normal;font-size:74.66666412px;line-height:1.25;font-family:'Achilleas Demo';-inkscape-font-specification:'Achilleas Demo, Italic';font-variant-ligatures:normal;font-variant-caps:normal;font-variant-numeric:normal;font-feature-settings:normal;text-align:start;letter-spacing:0px;word-spacing:0px;writing-mode:lr-tb;text-anchor:start;fill:#000000;fill-opacity:1;stroke:#000000;stroke-width:0.36581564;stroke-opacity:1"
       id="path2632"
       inkscape:connector-curvature="0" />
    <path
       d="m 102.5517,270.42508 q 0.047,0.11998 0.009,0.4401 -0.0282,0.30671 -0.047,0.48014 -0.0186,0.16009 -0.10346,0.5068 -0.0846,0.34677 -0.1316,0.52017 -0.047,0.17324 -0.1504,0.50681 -0.094,0.33341 -0.1316,0.48009 -0.23501,0.88028 -0.73324,2.56072 -0.49821,1.66714 -0.71443,2.4407 -0.0564,0.18672 -0.1786,0.58681 -0.11276,0.40013 -0.1786,0.6402 -0.0658,0.22682 -0.17861,0.6535 -0.103341,0.41345 -0.1316,0.64017 -0.02825,0.22682 -0.07521,0.60018 -0.03766,0.37344 0.0186,0.53347 -0.0186,-0.14661 -0.329006,-0.58682 -0.310244,-0.45347 -0.347827,-0.73355 -0.07521,-0.49345 0.05638,-1.28036 0.131605,-0.78686 0.300804,-1.37372 0.1692,-0.5868 0.47942,-1.57374 0.319599,-0.98694 0.413619,-1.2937 0.0564,-0.17325 0.1598,-0.5335 0.10335,-0.36009 0.1504,-0.53345 -1.616873,3.38759 -3.214951,5.77491 -0.291399,0.44012 -0.479419,0.70686 -0.188009,0.26659 -0.498229,0.62684 -0.310197,0.34679 -0.582823,0.52015 -0.216233,0.0934 -0.33841,0.13347 -0.1222,0.0257 -0.244412,-0.10679 -0.112762,-0.13347 -0.1692,-0.23998 -0.0565,-0.11999 -0.131593,-0.32018 -0.02825,-0.0799 -0.0092,-0.0799 0.0092,0 0.02825,0.0533 0.1222,0.23998 0.272602,0.23998 0.131605,0 0.2914,-0.0933 0.234996,-0.13347 0.69563,-0.64016 0.629833,-0.72021 1.598065,-2.30734 0.836651,-1.37368 1.748491,-3.12083 0.827239,-1.60047 1.485269,-3.06754 l 0.25381,-0.56016 q 0,-0.0257 0.009,-0.0667 0.0186,-0.0533 0.0282,-0.0667 0.1786,-0.70686 0.23503,-0.98693 -0.1692,0.42679 -0.57343,1.34706 -1.569874,3.52096 -3.365364,6.50846 -0.987042,1.65379 -1.51346,2.25395 -0.639227,0.7202 -0.893043,0.42678 v -0.0127 q -0.02825,-0.0257 -0.07521,-0.10679 -0.04697,-0.0799 -0.103345,-0.17325 -0.05638,-0.1069 -0.07521,-0.13346 -0.0186,-0.0257 -0.08463,-0.18672 -0.07521,-0.18671 -0.112762,-0.38678 -0.04696,-0.21334 -0.0658,-0.38679 -0.02825,-0.18671 -0.0092,-0.44012 0.0092,-0.2666 0.02825,-0.42678 0.0092,-0.17325 0.0658,-0.46679 0.05649,-0.30671 0.09404,-0.45345 0.02825,-0.16009 0.122201,-0.50684 0.09404,-0.34674 0.131593,-0.4801 0.03766,-0.13346 0.15039,-0.52015 0.112762,-0.40013 0.150403,-0.52013 0.112761,-0.40013 0.545239,-1.81386 0.441825,-1.41373 0.639226,-2.18728 0.601643,-2.2806 0.517015,-2.74739 -0.0186,-0.13347 -0.09404,-0.1601 0.26321,0.0798 0.498229,0.57349 0.2444,0.48014 0.300804,0.92025 0.04697,0.0933 0.0092,0.40013 -0.03766,0.30669 -0.04696,0.44009 -0.0092,0.11999 -0.09405,0.45348 -0.08463,0.32018 -0.122189,0.46679 -0.03766,0.13346 -0.131604,0.45344 -0.09404,0.32019 -0.122201,0.4268 -0.234996,0.84025 -0.69563,2.38735 -0.460622,1.53373 -0.629833,2.12058 -0.376017,1.32035 -0.554621,2.14726 -0.0092,0.0257 -0.03766,0.14663 -0.0186,0.10679 -0.03766,0.20019 -0.0186,0.0933 -0.04708,0.22682 -0.0186,0.13345 -0.02825,0.25344 -0.0092,0.10679 -0.0092,0.21335 0.0092,0.0933 0.03766,0.16008 0.02825,0.0533 0.08463,0.0667 0.310198,-0.0933 0.874246,-0.81355 0.705023,-0.90693 1.626279,-2.50737 0.752033,-1.30702 1.720277,-3.21423 0.87424,-1.76049 1.47586,-3.13422 0.37602,-0.86688 0.55464,-1.36036 0.15979,-0.97359 -0.0377,-1.02695 0.2632,0.0799 0.49822,0.58682 0.2444,0.49347 0.30084,0.90692 z"
       style="font-style:italic;font-variant:normal;font-weight:normal;font-stretch:normal;font-size:74.66666412px;line-height:1.25;font-family:'Achilleas Demo';-inkscape-font-specification:'Achilleas Demo, Italic';font-variant-ligatures:normal;font-variant-caps:normal;font-variant-numeric:normal;font-feature-settings:normal;text-align:start;letter-spacing:0px;word-spacing:0px;writing-mode:lr-tb;text-anchor:start;fill:#000000;fill-opacity:1;stroke:#000000;stroke-width:0.36581564;stroke-opacity:1"
       id="path2634"
       inkscape:connector-curvature="0" />
    <path
       d="m 108.21076,269.54482 q 0.1504,0.21334 0.2444,0.37343 0.10335,0.16009 0.23501,0.45348 0.141,0.28007 0.188,0.53346 0.0564,0.23998 0.0377,0.56018 -0.009,0.32017 -0.14101,0.62681 0.047,-0.10679 -0.1598,-0.36008 -0.2068,-0.26661 -0.4042,-0.56016 -0.1974,-0.29354 -0.11276,-0.48013 0.0752,-0.16009 0.10346,-0.23998 -0.0282,0 -0.0658,0 -0.0282,0 -0.0752,0 -0.0377,0 -0.0565,0 -0.22559,0 -0.4982,0.10679 -0.80844,0.29355 -2.02111,1.48043 -1.00584,0.9869 -1.58866,1.94718 -0.31021,0.53349 -0.46063,0.97361 -0.0564,0.17326 -0.0752,0.37344 -0.009,0.18672 0.0186,0.37343 0.0282,0.17325 0.0471,0.29355 0.0282,0.10656 0.0752,0.25346 l 0.047,0.14661 q 0.39482,0.23997 1.41007,0.0257 0.15039,-0.0257 0.43242,-0.0933 0.29139,-0.0798 0.44182,-0.10656 0.40421,-0.0667 0.48882,0 0.0186,0.0127 0.0282,0.0667 0.009,0.0401 0.0186,0.0401 -0.1222,-0.0934 -0.68623,0.0533 -0.95885,0.21334 -1.06225,0.22681 -0.68624,0.0933 -1.06224,-0.17325 0,0.0127 -0.0377,-0.0257 -0.009,-0.0129 -0.0377,-0.0401 -0.047,-0.0401 -0.1222,-0.14662 -0.87423,-1.09363 -0.70503,-2.21394 0.2444,-1.64044 2.50991,-3.69436 2.19971,-1.96054 3.04576,-0.77355 z m -0.89304,6.73522 q 0.094,0.17324 0.10334,0.33342 0.0752,0.73353 -0.2726,1.53374 -0.34781,0.78691 -0.94004,1.44042 -0.59223,0.6535 -1.22206,1.16031 -0.62043,0.50679 -1.19386,0.80021 -1.18445,0.61351 -1.97408,0.0667 -0.78964,-0.54684 -0.82725,-2.00057 0.009,0.25345 0.2256,0.5735 0.2162,0.32018 0.39482,0.34677 0.3008,0.0667 0.76144,-0.0667 0.87424,-0.25345 1.90828,-1.0803 0.90245,-0.72021 1.63569,-1.68047 0.73322,-0.9736 0.82723,-1.92053 -0.0186,0 -0.0658,-0.0129 -0.0377,-0.0127 -0.0565,-0.0257 -0.39483,-0.0799 -1.28787,0.0533 -0.92123,0.16009 -1.18444,0.14661 -0.41363,-0.0127 -0.63924,-0.62682 -0.0186,-0.0401 -0.0186,-0.0667 0,-0.0257 0.047,0.0401 0.10346,0.14661 0.1598,0.33341 l -0.11276,-0.2666 q 0.047,0.0533 0.11276,0.0798 0.11276,0.0257 0.1692,0.0257 0.1504,0.0127 0.47942,-0.0127 0.1692,-0.0127 0.72384,-0.10679 0.55462,-0.0934 0.72383,-0.0934 0.1692,0 0.67683,0.0533 0.63923,0.17356 0.84604,0.97362 z"
       style="font-style:italic;font-variant:normal;font-weight:normal;font-stretch:normal;font-size:74.66666412px;line-height:1.25;font-family:'Achilleas Demo';-inkscape-font-specification:'Achilleas Demo, Italic';font-variant-ligatures:normal;font-variant-caps:normal;font-variant-numeric:normal;font-feature-settings:normal;text-align:start;letter-spacing:0px;word-spacing:0px;writing-mode:lr-tb;text-anchor:start;fill:#000000;fill-opacity:1;stroke:#000000;stroke-width:0.36581564;stroke-opacity:1"
       id="path2636"
       inkscape:connector-curvature="0" />
    <path
       d="m 110.45747,268.93131 q 0.26323,0.0803 0.47002,0.58684 0.20681,0.49345 0.24441,0.90693 0.0186,0.22682 -0.009,0.50679 -0.0282,0.26661 -0.13161,0.65353 -0.10334,0.37343 -0.15979,0.56014 -0.0471,0.17324 -0.21621,0.66685 -0.1598,0.49349 -0.17861,0.5468 -0.28201,0.89362 -0.86484,2.57407 -0.57341,1.66713 -0.81783,2.42735 -0.0565,0.18672 -0.235,0.69352 -0.1786,0.50679 -0.28202,0.81356 -0.094,0.3067 -0.2162,0.74687 -0.1222,0.42679 -0.15981,0.77356 -0.047,0.34674 -0.0186,0.62682 -0.0186,-0.14661 -0.30079,-0.58682 -0.28201,-0.45347 -0.31021,-0.73355 -0.047,-0.49345 0.1222,-1.26701 0.15981,-0.78687 0.36662,-1.38707 0.2068,-0.60015 0.56403,-1.5604 0.35722,-0.97362 0.47002,-1.30704 1.09985,-3.26758 1.23146,-3.68102 0.0658,-0.22682 0.11276,-0.37343 0.047,-0.14662 0.14101,-0.48015 0.094,-0.34673 0.141,-0.5868 0.0564,-0.25345 0.10346,-0.52018 0.047,-0.26661 0.0282,-0.41344 -0.0186,-0.16009 -0.094,-0.18672 z m 2.01169,-2.80074 q 0.1222,0.0533 0.1786,0.23997 0.0565,0.18671 0.0186,0.40012 -0.0658,0.42679 -0.33841,0.89358 -0.26321,0.45344 -0.58283,0.68021 -0.65803,0.46679 -0.94004,-0.6002 -0.0282,-0.0667 -0.1222,-0.32018 -0.0471,-0.16009 -0.0377,-0.29354 0.0186,-0.28008 0.19739,-0.5735 0.17861,-0.29324 0.42302,-0.50681 0.52643,-0.46679 0.75203,-0.23997 0.009,-0.0129 0.0377,0.0401 l 0.009,0.0257 q 0.17861,0.28009 0.25383,0.56017 0.0282,0.11997 0.009,0.30669 -0.0282,0.32018 -0.21621,0.68021 -0.39482,0.72021 -0.81785,0.76021 -0.23499,0.0127 -0.376,-0.22682 l -0.0564,-0.11998 q 0.11276,0.45347 0.39481,0.52013 0.2444,0.0533 0.53581,-0.21333 0.30084,-0.26693 0.51704,-0.66687 0.2256,-0.41346 0.2914,-0.76021 0.0282,-0.20019 0.019,-0.32018 0,-0.0127 -0.009,-0.0401 0,-0.0257 0,-0.0401 h -0.009 q -0.0658,-0.0533 -0.0846,-0.0667 -0.0186,-0.0127 -0.0282,-0.0667 -0.009,-0.0533 -0.0186,-0.0533 z m -1.58868,1.37368 q -0.009,0.0533 -0.009,0.17356 0.12221,0.0799 0.29141,0.0129 0.38541,-0.13345 0.72382,-0.73354 0.141,-0.26661 0.19744,-0.53346 0.0282,-0.10679 0.0282,-0.21335 h -0.009 l -0.009,-0.0128 q -0.094,0 -0.1974,0.0401 -0.18801,0.0667 -0.44183,0.30669 -0.47942,0.45345 -0.57343,0.96025 z"
       style="font-style:italic;font-variant:normal;font-weight:normal;font-stretch:normal;font-size:74.66666412px;line-height:1.25;font-family:'Achilleas Demo';-inkscape-font-specification:'Achilleas Demo, Italic';font-variant-ligatures:normal;font-variant-caps:normal;font-variant-numeric:normal;font-feature-settings:normal;text-align:start;letter-spacing:0px;word-spacing:0px;writing-mode:lr-tb;text-anchor:start;fill:#000000;fill-opacity:1;stroke:#000000;stroke-width:0.36581564;stroke-opacity:1"
       id="path2638"
       inkscape:connector-curvature="0" />
    <path
       d="m 116.01313,270.86518 q -0.0282,-0.10656 -0.1222,-0.2666 -0.1786,-0.14661 -0.38542,-0.16009 -0.2068,-0.0127 -0.42303,0.10679 -0.21619,0.10679 -0.44182,0.29355 -0.21623,0.17324 -0.45121,0.46679 -0.23504,0.28007 -0.45123,0.5735 -0.2068,0.29354 -0.43242,0.66685 -0.21619,0.36009 -0.39482,0.68017 -0.1786,0.30671 -0.36661,0.66686 -0.1786,0.34677 -0.30084,0.58684 -0.11276,0.22682 -0.235,0.48014 -0.88363,1.86716 -1.31605,3.36093 -0.24441,0.85354 -0.31024,1.26702 -0.0186,0.0934 -0.0282,0.33342 0,0.23998 -0.009,0.32018 0.0282,0.0798 0.10335,0.4001 0.0846,0.32016 0.1504,0.44012 0.62044,0.21334 1.71088,-0.56015 1.43827,-1.02693 2.27492,-2.72078 l 0.0282,0.0533 q 0.0377,0.0533 0.0282,0.0667 -0.85545,1.7338 -2.36892,2.78744 -0.94944,0.66686 -1.56985,0.49349 0.0186,0.0257 0.0377,0.0257 -0.009,0 -0.0282,-0.0127 -0.0186,-0.0129 -0.0282,-0.0129 -0.20679,-0.0798 -0.31022,-0.18672 -0.49821,-0.38675 -0.62982,-1.16031 -0.14101,-0.78688 0.047,-1.76049 0.18801,-0.98694 0.48881,-1.90718 0.29143,-0.92026 0.70505,-1.85385 0.34782,-0.78687 0.62041,-1.36037 0.28204,-0.5735 0.72385,-1.38706 0.44181,-0.81357 0.92124,-1.40038 0.48881,-0.60018 0.95884,-0.90692 0.27264,-0.17324 0.50763,-0.20019 0.24441,-0.0401 0.41363,0.0798 0.1786,0.10679 0.3196,0.28008 0.141,0.16008 0.24439,0.42678 0.11276,0.26661 0.1786,0.49349 0.0752,0.22682 0.14101,0.5068 z m -1.05284,6.76188 0.0282,0.0533 q 0.0282,0.0401 0.0564,0.0934 0.0377,0.0533 0.0377,0.0667 l 0.0377,0.0667 q 0.0377,0.0667 0.0565,0.11998 0.019,0.0401 0.009,0.0667 -0.52643,1.30706 -1.86129,2.57406 -1.40067,1.32038 -2.36892,1.21366 -0.0282,0 -0.0564,-0.0401 -0.0186,-0.0401 -0.0377,-0.0934 -0.0186,-0.0667 -0.0282,-0.0799 -0.009,-0.0127 -0.0377,-0.0667 -0.0189,-0.0667 -0.0377,-0.11998 -0.0186,-0.0667 -0.0282,-0.0667 0.98705,0.10679 2.37831,-1.2003 1.30667,-1.25371 1.85189,-2.58742 z"
       style="font-style:italic;font-variant:normal;font-weight:normal;font-stretch:normal;font-size:74.66666412px;line-height:1.25;font-family:'Achilleas Demo';-inkscape-font-specification:'Achilleas Demo, Italic';font-variant-ligatures:normal;font-variant-caps:normal;font-variant-numeric:normal;font-feature-settings:normal;text-align:start;letter-spacing:0px;word-spacing:0px;writing-mode:lr-tb;text-anchor:start;fill:#000000;fill-opacity:1;stroke:#000000;stroke-width:0.36581564;stroke-opacity:1"
       id="path2640"
       inkscape:connector-curvature="0" />
    <path
       inkscape:connector-curvature="0"
       id="path2643"
       style="font-style:italic;font-variant:normal;font-weight:normal;font-stretch:normal;font-size:74.66666412px;line-height:1.25;font-family:'Achilleas Demo';-inkscape-font-specification:'Achilleas Demo, Italic';font-variant-ligatures:normal;font-variant-caps:normal;font-variant-numeric:normal;font-feature-settings:normal;text-align:start;letter-spacing:0px;word-spacing:0px;writing-mode:lr-tb;text-anchor:start;fill:#ffffff;fill-opacity:1;stroke:#ffffff;stroke-width:0.36581564;stroke-opacity:1"
       d="m 6.2347953,286.46951 q -0.2161999,-0.28007 -0.2538004,-0.36011 -0.2632014,-0.56016 -0.4418192,-1.06695 -0.1692006,-0.49349 -0.2914009,-1.1203 -0.1222003,-0.62686 -0.093999,-1.32038 0.028236,-0.70685 0.2068001,-1.4404 0.7332362,-2.96082 3.3465575,-5.94832 0.4794232,-0.5468 1.0716525,-1.13364 0.6016251,-0.60016 0.9964441,-0.9736 0.39482,-0.37343 1.146856,-1.05363 0.761433,-0.6802 1.052849,-0.94694 0.780236,-0.70685 1.175055,-1.14698 -0.338416,0.21335 -0.836639,0.58684 -0.488825,0.36009 -0.517026,0.38677 -0.178599,0.12 -0.658028,0.4668 -0.479423,0.34675 -0.770837,0.56016 -0.2914,0.20018 -0.695632,0.41343 -0.40422,0.2002 -0.6956327,0.23998 -0.216201,0.0257 -0.3854201,-0.0401 -0.1691995,-0.0667 -0.3007996,-0.26661 -0.1222003,-0.20019 -0.1880004,-0.34677 -0.065797,-0.16009 -0.1692007,-0.44013 -0.093998,-0.2666 -0.1034029,-0.60015 0,-0.34679 0.037595,-0.62685 0.046999,-0.28008 0.1786005,-0.72022 0.141,-0.45344 0.2255998,-0.6935 0.093998,-0.25346 0.2820011,-0.74688 1.024649,-2.70742 2.80133,-5.28146 1.776685,-2.57406 3.788379,-4.2545 1.992891,-1.66714 3.158547,-1.41374 0.507623,0.1068 0.808436,0.56016 0.310232,0.4401 0.535826,1.16031 l 0.094,0.33342 q 0.169201,0.6802 -0.159799,1.70716 -0.319601,1.01362 -0.87424,1.9872 l -0.02824,-0.0533 q -0.03761,-0.0533 -0.02824,-0.0667 0.629829,-1.09364 0.921243,-2.16062 0.2726,-0.94694 0.1504,-1.45373 -0.460623,-0.70687 -1.118653,-0.65351 -0.573429,0.0401 -1.222058,0.37343 -1.203255,0.61351 -2.688527,2.10727 -1.579272,1.60045 -2.942337,3.64098 -1.353663,2.04057 -2.256104,4.20119 -0.451223,1.06695 -0.7426367,2.12059 0.3572167,-0.13346 0.4700227,-0.20019 0.188001,-0.10679 1.156252,-0.74687 0.141001,-0.0933 0.413621,-0.3067 0.281999,-0.21335 0.545225,-0.41344 0.2726,-0.20019 0.601629,-0.42679 0.329017,-0.23996 0.620431,-0.40013 0.291399,-0.17324 0.564025,-0.28007 0.272601,-0.10656 0.488823,-0.0934 0.2162,0.0127 0.338416,0.16009 0.357216,0.45345 0.479423,0.93358 0,0.0401 0.02824,0.0934 0.08461,0.20019 0.094,0.26693 0.0846,0.40008 -0.1504,0.92023 -0.235,0.50681 -0.639232,0.98694 -0.394816,0.48013 -0.958846,1.01362 -0.554622,0.53347 -1.043445,0.93359 -0.479423,0.40012 -0.977646,0.81357 -0.488823,0.40009 -0.667433,0.57349 -2.3219068,2.21395 -3.543966,4.21449 -0.6956322,1.13364 -1.1750554,2.38733 -0.4700233,1.25366 -0.6204288,2.50737 -0.1503999,1.25366 0.2726001,2.10724 0,0.0127 0.028236,0.0667 0.028236,0.0667 0.075201,0.16009 0.046999,0.0934 0.093998,0.16008 0.0093,0.0127 0.037595,0.0401 0.0093,0 0.0093,0.0128 l 0.018924,0.0129 v 0.0127 q 0.742636,0.80021 2.0398952,0.62684 1.2972614,-0.17324 2.7449259,-1.13365 1.447669,-0.96027 2.801334,-2.40069 1.494669,-1.58709 2.650923,-3.56097 1.165654,-1.97387 1.795482,-4.04113 0,0.0127 0.02824,0.0533 0.03759,0.0401 0.02824,0.0667 -0.733233,2.42731 -2.218502,4.73463 -1.165654,1.82718 -2.632123,3.29426 -1.466468,1.46707 -2.98934,2.32064 -0.8366393,0.46679 -1.598075,0.66684 -0.7614358,0.21336 -1.4758677,0.0799 -0.7144331,-0.13347 -1.1844564,-0.66686 -0.0093,-0.0127 -0.037595,-0.0401 -0.018924,-0.0127 -0.028236,-0.0257 z M 20.833678,257.7282 q 1.04345,1.28036 0.460624,3.40095 -0.338417,1.21366 -1.052853,2.42735 -0.705036,1.21366 -1.616875,2.25394 -0.0093,0.0127 -0.0752,-0.0934 -0.0564,-0.10679 -0.112796,-0.22681 -0.047,-0.13346 -0.03761,-0.14662 1.551071,-1.76049 2.340708,-3.72102 0.404223,-0.98693 0.507626,-1.82719 0.0564,-0.49346 0.01892,-0.89358 -0.03759,-0.49345 -0.225601,-0.72021 -0.047,-0.0533 -0.112795,-0.22682 -0.0658,-0.18671 -0.094,-0.22682 z m -1.598074,14.93748 q 0.338413,-0.0934 0.564026,0.3601 0.432419,0.85356 -0.103403,2.57406 -0.441819,1.44038 -1.654479,3.73437 -0.930642,1.74714 -1.96469,3.18753 -1.955296,2.74742 -4.107993,4.30786 -1.128056,0.82691 -2.2373077,1.2537 -1.109253,0.42678 -2.1621012,0.3067 -1.043446,-0.10679 -1.654475,-0.92023 -0.084605,-0.10679 -0.1597997,-0.32019 0,0 -0.018924,-0.0401 l -0.018924,-0.0934 0.018924,0.0257 q 0.8742419,1.14697 2.6979268,0.85358 1.7766858,-0.29355 3.6755728,-1.8272 1.908289,-1.52039 3.543966,-3.73436 2.152702,-2.93415 3.487564,-6.2684 0.676829,-1.6938 0.639228,-2.89414 v -0.0129 q -0.02824,0 -0.0846,-0.0257 -0.0564,-0.0257 -0.08461,-0.0257 -0.169201,0 -0.366616,0.10645 -0.460623,0.25345 -1.259658,1.16034 -0.01892,0.0127 -0.1316,-0.21334 -0.112796,-0.22682 -0.094,-0.25345 0.940042,-1.09364 1.475868,-1.24035 z m 0.564026,0.49348 z" />
    <path
       inkscape:connector-curvature="0"
       id="path2645"
       style="font-style:italic;font-variant:normal;font-weight:normal;font-stretch:normal;font-size:74.66666412px;line-height:1.25;font-family:'Achilleas Demo';-inkscape-font-specification:'Achilleas Demo, Italic';font-variant-ligatures:normal;font-variant-caps:normal;font-variant-numeric:normal;font-feature-settings:normal;text-align:start;letter-spacing:0px;word-spacing:0px;writing-mode:lr-tb;text-anchor:start;fill:#ffffff;fill-opacity:1;stroke:#ffffff;stroke-width:0.36581564;stroke-opacity:1"
       d="m 24.020426,263.16972 q 0.535825,0.0798 0.742636,1.00028 0.2162,0.92025 0.0846,1.8005 -0.103403,0.68017 -0.2538,1.38703 -0.141001,0.70686 -0.40422,1.62713 -0.2538,0.92025 -0.385417,1.36037 -0.1222,0.44014 -0.498219,1.64045 -0.366619,1.187 -0.432423,1.40041 -0.517026,1.6938 -1.532271,4.88133 -1.005849,3.18757 -1.447672,4.61463 -0.094,0.32018 -0.45122,1.41373 -0.357216,1.09364 -0.517022,1.64044 -0.1692,0.56015 -0.357216,1.41372 -0.188001,0.85358 -0.235,1.49378 0.01892,-0.23998 -0.329018,-0.66687 -0.357215,-0.41346 -0.338416,-0.73356 0.02824,-0.41342 0.112796,-0.8669 0.0752,-0.45345 0.2162,-1.00025 0.141,-0.54685 0.2538,-0.90693 0.103403,-0.36009 0.3102,-1.01363 0.197401,-0.6535 0.272601,-0.89358 0.3008,-1.00028 2.406517,-7.66877 1.579272,-5.01472 2.246704,-7.52208 0.451219,-1.6805 0.639227,-2.72074 0.02824,-0.14662 0.0564,-0.46683 0.02824,-0.32018 0.0658,-0.49346 0.0093,-0.0257 -0.0093,-0.16008 -0.0093,-0.14661 0.0093,-0.17324 -0.103403,-0.37343 -0.2256,-0.38679 z" />
    <path
       inkscape:connector-curvature="0"
       id="path2647"
       style="font-style:italic;font-variant:normal;font-weight:normal;font-stretch:normal;font-size:74.66666412px;line-height:1.25;font-family:'Achilleas Demo';-inkscape-font-specification:'Achilleas Demo, Italic';font-variant-ligatures:normal;font-variant-caps:normal;font-variant-numeric:normal;font-feature-settings:normal;text-align:start;letter-spacing:0px;word-spacing:0px;writing-mode:lr-tb;text-anchor:start;fill:#ffffff;fill-opacity:1;stroke:#ffffff;stroke-width:0.36581564;stroke-opacity:1"
       d="m 28.504437,271.30532 q 0.282,0.85356 -0.188,2.04057 -0.780236,1.94717 -2.932937,3.97443 -0.940042,0.88023 -1.645078,1.28033 -0.564026,0.32017 -0.883639,0.30669 -0.0093,0.0257 -0.02824,0.0799 -0.0093,0.0533 -0.01892,0.0799 -0.2632,0.92027 -0.310201,1.26705 -0.0093,0.17325 -0.02824,0.4801 -0.01892,0.30671 0.0846,0.65355 0.112796,0.33342 0.338417,0.40009 0.601625,0.0667 1.532271,-0.60016 1.438269,-1.02693 2.274909,-2.72078 l 0.02824,0.0533 q 0.03759,0.0533 0.02824,0.0667 -0.855442,1.7338 -2.36891,2.78745 -0.98705,0.68016 -1.588675,0.49348 h -0.0093 q -0.150401,-0.0401 -0.291401,-0.17324 -0.498222,-0.38678 -0.639232,-1.16032 -0.141,-0.78689 0.047,-1.76049 0.188,-0.98693 0.488826,-1.9072 0.2914,-0.92024 0.705032,-1.86717 0.347816,-0.78687 0.620429,-1.36037 0.282001,-0.5735 0.723837,-1.38706 0.441819,-0.81357 0.921238,-1.40039 0.488829,-0.60018 0.958849,-0.90692 0.272601,-0.17324 0.50762,-0.20018 0.2444,-0.0401 0.413622,0.0798 0.178601,0.10679 0.319601,0.28008 0.141,0.16008 0.2444,0.42678 0.112796,0.26661 0.1786,0.49349 0.0752,0.22682 0.141,0.5068 -0.0093,-0.0127 -0.01892,-0.0401 -0.0093,-0.0401 -0.01892,-0.0533 0.08461,0.34677 0,0.7202 -0.159799,0.78688 -0.883641,1.92053 -0.64863,0.98693 -1.616878,2.02722 -0.949447,1.00029 -1.67328,1.50708 -0.507622,0.36012 -0.808438,0.45348 -0.0093,0.0401 -0.03761,0.11998 -0.02824,0.0667 -0.0376,0.10679 0.329016,-0.11999 0.714436,-0.38677 1.739081,-1.13366 3.233749,-3.18754 0.752036,-1.02697 1.156255,-2.05393 0.413621,-1.04027 0.150401,-1.8138 -0.0093,-0.0401 0,-0.0401 0.03761,0.0129 0.0658,0.0934 0.103403,0.17324 0.1504,0.32017 z m -0.498223,0.0257 q -0.178599,-0.14661 -0.385417,-0.16009 -0.2068,-0.0127 -0.423022,0.10679 -0.2162,0.10679 -0.44182,0.29354 -0.2162,0.18671 -0.451222,0.48015 -0.235,0.28007 -0.451217,0.57349 -0.2068,0.29355 -0.432426,0.66686 -0.2162,0.36008 -0.394816,0.66682 -0.1786,0.3067 -0.366616,0.66685 -0.178601,0.36013 -0.300801,0.60019 -0.112796,0.22682 -0.235,0.48011 -0.517026,1.08032 -0.958845,2.29399 0.2162,-0.0799 0.695632,-0.42679 1.532275,-1.10698 2.96114,-3.06752 0.592226,-0.81355 0.987046,-1.68047 0.40422,-0.86689 0.235001,-1.42704 0,-0.0127 -0.01892,-0.0257 -0.01892,-0.0257 -0.01892,-0.0401 z m -0.930645,7.04195 0.02824,0.0533 q 0.02824,0.0401 0.0564,0.0934 0.03761,0.0533 0.03761,0.0667 l 0.0376,0.0667 q 0.03759,0.0667 0.0564,0.11997 0.01892,0.0401 0.0093,0.0667 -0.526423,1.30706 -1.861284,2.57406 -1.400669,1.32037 -2.368914,1.21367 -0.02824,0 -0.0564,-0.0401 -0.01892,-0.0401 -0.03759,-0.0934 -0.01892,-0.0667 -0.02824,-0.0799 -0.0093,-0.0128 -0.03761,-0.0667 -0.01892,-0.0667 -0.03759,-0.11998 -0.01892,-0.0667 -0.02824,-0.0667 0.987046,0.10679 2.378315,-1.20034 1.306661,-1.25367 1.851887,-2.58737 z" />
    <path
       inkscape:connector-curvature="0"
       id="path2649"
       style="font-style:italic;font-variant:normal;font-weight:normal;font-stretch:normal;font-size:74.66666412px;line-height:1.25;font-family:'Achilleas Demo';-inkscape-font-specification:'Achilleas Demo, Italic';font-variant-ligatures:normal;font-variant-caps:normal;font-variant-numeric:normal;font-feature-settings:normal;text-align:start;letter-spacing:0px;word-spacing:0px;writing-mode:lr-tb;text-anchor:start;fill:#ffffff;fill-opacity:1;stroke:#ffffff;stroke-width:0.36581564;stroke-opacity:1"
       d="m 33.843884,271.61205 q -0.02824,-0.10679 -0.1222,-0.2666 -0.1786,-0.14661 -0.385416,-0.16009 -0.2068,-0.0127 -0.423023,0.10679 -0.2162,0.10679 -0.441819,0.29354 -0.2162,0.17325 -0.451217,0.46679 -0.235,0.28008 -0.451225,0.5735 -0.206801,0.29356 -0.432418,0.66687 -0.2162,0.36008 -0.394819,0.68016 -0.1786,0.30671 -0.366619,0.66685 -0.1786,0.34677 -0.3008,0.58684 -0.112795,0.22683 -0.235,0.48015 -0.883646,1.86716 -1.316065,3.36093 -0.244401,0.85353 -0.310201,1.26702 -0.01892,0.0934 -0.02824,0.33341 0,0.23998 -0.0093,0.32019 0.02824,0.0798 0.103403,0.4001 0.0846,0.32017 0.150401,0.44012 0.620428,0.21334 1.710878,-0.56015 1.438268,-1.02694 2.274907,-2.72077 l 0.02824,0.0533 q 0.03761,0.0533 0.02824,0.0667 -0.855439,1.7338 -2.368911,2.78744 -0.949445,0.66686 -1.569874,0.49348 0.01892,0.0257 0.03761,0.0257 -0.0093,0 -0.02824,-0.0127 -0.01892,-0.0127 -0.02824,-0.0127 -0.2068,-0.0799 -0.3102,-0.18673 -0.498223,-0.38674 -0.62983,-1.1603 -0.141,-0.78687 0.047,-1.76049 0.188,-0.98694 0.488823,-1.90717 0.291432,-0.92028 0.705037,-1.85386 0.347816,-0.78687 0.620429,-1.36037 0.282,-0.5735 0.723831,-1.38706 0.441824,-0.81357 0.921243,-1.40039 0.488823,-0.60018 0.958848,-0.90692 0.272602,-0.17325 0.507621,-0.2002 0.2444,-0.0401 0.413619,0.0799 0.178601,0.10679 0.319601,0.28007 0.141,0.1601 0.244399,0.42679 0.112796,0.2666 0.178601,0.49348 0.0752,0.22682 0.141,0.5068 z m -1.052849,6.76187 0.02824,0.0533 q 0.02824,0.0401 0.0564,0.0934 0.03759,0.0533 0.03759,0.0667 l 0.0376,0.0667 q 0.03761,0.0667 0.0564,0.11998 0.01892,0.0401 0.0093,0.0667 -0.526424,1.30704 -1.861289,2.57406 -1.400666,1.32037 -2.368911,1.21366 -0.02824,0 -0.0564,-0.0401 -0.01892,-0.0401 -0.03759,-0.0934 -0.01892,-0.0667 -0.02824,-0.0798 -0.0093,-0.0128 -0.03759,-0.0667 -0.01892,-0.0667 -0.03761,-0.12 -0.01892,-0.0667 -0.02824,-0.0667 0.987046,0.10679 2.378312,-1.20031 1.306661,-1.2537 1.851884,-2.58742 z" />
    <path
       inkscape:connector-curvature="0"
       id="path2651"
       style="font-style:italic;font-variant:normal;font-weight:normal;font-stretch:normal;font-size:74.66666412px;line-height:1.25;font-family:'Achilleas Demo';-inkscape-font-specification:'Achilleas Demo, Italic';font-variant-ligatures:normal;font-variant-caps:normal;font-variant-numeric:normal;font-feature-settings:normal;text-align:start;letter-spacing:0px;word-spacing:0px;writing-mode:lr-tb;text-anchor:start;fill:#ffffff;fill-opacity:1;stroke:#ffffff;stroke-width:0.36581564;stroke-opacity:1"
       d="m 45.086808,265.78379 q -1.052848,0 -3.901179,0.32017 -1.579275,0.18673 -2.36891,0.25345 -0.112796,0.65351 -0.2632,1.32037 -0.141,0.65351 -0.394817,1.54709 -0.2538,0.89357 -0.366616,1.28035 -0.112795,0.38675 -0.479423,1.56043 -0.357216,1.17366 -0.404216,1.32037 -0.517026,1.6938 -1.532273,4.88133 -1.005847,3.18756 -1.44767,4.61463 -0.0846,0.28007 -0.45122,1.40038 -0.366616,1.13365 -0.517023,1.66714 -0.1598,0.53346 -0.347816,1.38702 -0.188,0.86692 -0.235001,1.50712 0.01892,-0.23998 -0.338418,-0.66686 -0.357217,-0.41346 -0.338416,-0.73355 0.03759,-0.50679 0.187999,-1.18699 0.141001,-0.68017 0.2538,-1.0803 0.103403,-0.38679 0.394819,-1.32037 0.291401,-0.93358 0.338418,-1.09364 0.488821,-1.6271 2.397113,-7.66877 1.635678,-5.20145 2.256104,-7.52208 0.1316,-0.4668 0.2914,-1.13366 -0.0846,0.0128 -0.263199,0.0128 -0.169201,0 -0.253801,0.0127 -2.133901,0.10679 -3.158543,-0.17325 -1.175062,-0.32017 -1.504074,-1.41372 -0.282001,-0.96027 0.893038,-2.62741 l 0.1316,0.21334 q 0.122201,0.21334 0.094,0.25345 -0.667428,0.9469 -0.864842,1.6271 -0.103403,0.32018 -0.08461,0.62685 0,0.0401 0.0093,0.0799 0,0.0257 0.0093,0.0798 0.0093,0.0401 0.0093,0.0667 l 0.047,0.0667 q 0.225601,0.2666 0.61103,0.42675 0.385416,0.16009 0.676829,0.21335 0.2914,0.0533 0.770835,0.0934 1.137456,0.0934 2.998741,-0.0533 0.112796,-0.49346 0.2256,-1.09364 0,-0.0257 0.0564,-0.50681 -0.0658,0.12 -0.159801,0.21335 -0.460623,0.49346 -1.447664,0.70686 -0.977646,0.21334 -1.786088,0.0533 -0.178601,-0.0401 -0.357214,-0.0933 -0.169199,-0.0533 -0.376019,-0.16008 -0.2068,-0.10691 -0.357217,-0.25346 -0.141032,-0.14662 -0.235032,-0.34674 -0.103403,-0.20019 -0.08461,-0.46682 0.01892,-0.28008 0.159799,-0.60016 l 0.01892,0.0401 q 0.047,0.0533 0.03759,0.0803 -0.41362,0.90689 0.282,1.37368 1.090452,0.7069 2.904737,0.18672 0.799032,-0.22682 1.175052,-0.62681 0.244401,-0.26692 0.2914,-0.5735 0,-0.0257 -0.01892,-0.16009 -0.0093,-0.14662 0.0093,-0.16009 h 0.0093 v -0.0128 q -0.103426,-0.36012 -0.235031,-0.37346 l 0.112795,0.0401 h 0.0093 0.0093 q 0.451223,0.17324 0.62983,1.00025 0.178599,0.82691 0.0846,1.65379 0.57343,-0.0533 1.870688,-0.21334 1.297262,-0.16009 2.256107,-0.23998 0.968246,-0.0933 1.833085,-0.0933 0.0658,0 0.1222,0.23998 0.0564,0.2268 0.103403,0.2268 z" />
    <path
       inkscape:connector-curvature="0"
       id="path2653"
       style="font-style:italic;font-variant:normal;font-weight:normal;font-stretch:normal;font-size:74.66666412px;line-height:1.25;font-family:'Achilleas Demo';-inkscape-font-specification:'Achilleas Demo, Italic';font-variant-ligatures:normal;font-variant-caps:normal;font-variant-numeric:normal;font-feature-settings:normal;text-align:start;letter-spacing:0px;word-spacing:0px;writing-mode:lr-tb;text-anchor:start;fill:#ffffff;fill-opacity:1;stroke:#ffffff;stroke-width:0.36581564;stroke-opacity:1"
       d="m 44.156166,271.33197 q 0.131601,0.30671 0.188001,0.54685 0.0564,0.22682 0.0093,0.5468 -0.03761,0.29354 -0.413618,1.72048 -0.01892,0.0533 -0.0658,0.23998 -0.047,0.17324 -0.0752,0.29323 -0.02824,0.10679 -0.0658,0.26692 -0.03761,0.16009 -0.047,0.29323 -0.0093,0.13346 0,0.22682 0.112796,0.33342 0.08461,0.3067 -0.404219,-0.37344 -0.61103,-1.00028 -0.2068,-0.64017 -0.0564,-1.34703 0.0658,-0.3067 0.2162,-0.88023 0.159799,-0.5735 0.1974,-0.73356 0.1316,-0.49347 0.1598,-0.77353 0,-0.0127 0,-0.0533 0.0093,-0.0401 0.0093,-0.0667 -0.1316,-0.4001 -0.1786,-0.52014 -0.2632,-0.0799 -0.667429,0.21334 -0.911843,0.64017 -2.256108,2.62737 -0.968242,1.41374 -1.682675,2.8141 -0.545228,1.8272 -0.883644,3.05422 -0.0564,0.18671 -0.178602,0.58679 -0.112796,0.40015 -0.178599,0.64021 -0.0658,0.22682 -0.178601,0.65351 -0.103403,0.41344 -0.131599,0.64015 -0.02824,0.22682 -0.0752,0.6002 -0.03761,0.37343 0.01892,0.53346 -0.01892,-0.14662 -0.329013,-0.58682 -0.310233,-0.45348 -0.347816,-0.73355 -0.0752,-0.49345 0.0564,-1.28036 0.1316,-0.78687 0.300832,-1.36037 0.159801,-0.5868 0.47942,-1.58709 0.319632,-1.00029 0.40422,-1.29371 0.893041,-3.06751 1.052849,-3.681 0.047,-0.17325 0.094,-0.36011 0.047,-0.20019 0.112796,-0.50683 0.0752,-0.3067 0.122201,-0.57345 0.047,-0.26693 0.0752,-0.52015 0.02824,-0.25345 0,-0.41347 -0.01892,-0.16009 -0.094,-0.18672 0.253801,0.0667 0.488823,0.5735 0.2444,0.49348 0.3008,0.92028 0.094,0.70684 -0.39482,2.3873 1.513472,-2.64073 2.932937,-3.64101 0.752037,-0.53346 1.137456,-0.25344 0.225599,0.16008 0.366615,0.52014 0.141,0.34673 0.159801,0.74686 0,-0.0533 -0.112796,-0.20019 -0.103402,-0.14661 -0.112795,-0.23997 0,-0.0667 -0.0564,-0.22682 -0.047,-0.16009 -0.112796,-0.18672 -0.244399,-0.10679 -0.554625,0.0257 -1.231458,0.46679 -2.914137,3.09421 -0.620429,0.94692 -1.269059,2.25395 0,0.0127 -0.0093,0.0533 -0.0093,0.0257 -0.01892,0.0401 0.253801,-0.48014 0.62983,-1.10696 1.381863,-2.29399 2.538117,-3.45428 0.62043,-0.64021 1.034045,-0.70688 0.150401,-0.0127 0.253801,0.0401 0.1222,0.0401 0.2256,0.17323 0.112796,0.13346 0.1598,0.22682 0.047,0.0934 0.1504,0.34678 0.103403,0.23997 0.112796,0.2666 z" />
    <path
       inkscape:connector-curvature="0"
       id="path2655"
       style="font-style:italic;font-variant:normal;font-weight:normal;font-stretch:normal;font-size:74.66666412px;line-height:1.25;font-family:'Achilleas Demo';-inkscape-font-specification:'Achilleas Demo, Italic';font-variant-ligatures:normal;font-variant-caps:normal;font-variant-numeric:normal;font-feature-settings:normal;text-align:start;letter-spacing:0px;word-spacing:0px;writing-mode:lr-tb;text-anchor:start;fill:#ffffff;fill-opacity:1;stroke:#ffffff;stroke-width:0.36581564;stroke-opacity:1"
       d="m 50.116046,272.2389 q 0.047,1.48042 -0.441819,3.25423 -0.488823,1.77384 -1.344264,3.46763 -0.329018,0.65352 -0.705034,1.25367 -0.376019,0.6002 -0.855436,1.20035 -0.470026,0.58681 -0.987052,0.90693 -0.517019,0.32017 -0.987046,0.25344 -0.0752,-0.0127 -0.122199,-0.23998 -0.047,-0.22682 -0.103403,-0.22682 0.789636,0.10679 1.786082,-0.96024 1.729681,-1.85384 2.857733,-5.3615 0.526423,-1.68048 0.64863,-3.08086 0.150399,-1.89386 -0.394819,-2.58738 -0.047,-0.0533 -0.112796,-0.22682 -0.0658,-0.18671 -0.094,-0.22682 0.799032,1.00026 0.855436,2.57404 z m -5.546256,9.50931 q -0.0752,-0.0257 -0.103403,-0.0401 l -0.0093,-0.0127 q -0.686232,-0.37344 -0.958846,-1.38704 -0.272599,-1.02697 -0.122201,-2.34734 0.141001,-1.33366 0.62983,-2.72073 0.1974,-0.56016 0.498226,-1.22701 0.3102,-0.66686 0.723833,-1.42708 0.42302,-0.77351 0.864842,-1.38702 0.451219,-0.61353 0.940042,-1.06697 0.498223,-0.4668 0.949442,-0.52015 0.451224,-0.0533 0.864844,0.3067 0.150399,0.14662 0.329013,0.66682 0.178599,0.52019 0.216199,0.58685 l 0.0093,0.0401 0.0093,0.0401 q 0.282001,0.60018 0.1316,1.76049 -0.366619,2.89414 -2.058701,6.08167 -0.404216,0.76022 -0.836635,1.37373 -0.42302,0.6135 -0.99645,1.05363 -0.573426,0.42678 -1.034048,0.25345 -0.0093,-0.0127 -0.02824,-0.0127 -0.0093,0 -0.01892,-0.0127 z m -0.57343,-2.32065 q -0.0658,0.7202 0.094,1.30702 0.159799,0.57349 0.394818,0.89357 0.667431,0.32019 1.52287,-0.56014 1.419468,-1.46707 2.641524,-4.89468 0.535826,-1.52043 0.761435,-2.81414 0.272601,-1.58708 -0.01892,-2.13392 l -0.01892,-0.0257 q -0.300833,-0.20019 -0.60163,-0.20019 -0.3008,0 -0.65803,0.23997 -0.347819,0.22683 -0.667432,0.54684 -0.310232,0.32018 -0.639229,0.77353 -0.329017,0.44013 -0.592226,0.85357 -0.2538,0.41345 -0.488826,0.85357 -0.968243,1.81384 -1.447668,3.65436 -0.216201,0.84023 -0.282,1.50708 z" />
    <path
       inkscape:connector-curvature="0"
       id="path2657"
       style="font-style:italic;font-variant:normal;font-weight:normal;font-stretch:normal;font-size:74.66666412px;line-height:1.25;font-family:'Achilleas Demo';-inkscape-font-specification:'Achilleas Demo, Italic';font-variant-ligatures:normal;font-variant-caps:normal;font-variant-numeric:normal;font-feature-settings:normal;text-align:start;letter-spacing:0px;word-spacing:0px;writing-mode:lr-tb;text-anchor:start;fill:#ffffff;fill-opacity:1;stroke:#ffffff;stroke-width:0.36581564;stroke-opacity:1"
       d="m 56.987769,271.71875 q 0.0564,0.22683 0.0564,0.5068 0.0093,0.28008 -0.01892,0.52014 -0.02824,0.22682 -0.103402,0.57351 -0.0658,0.34676 -0.1222,0.56014 -0.0564,0.2002 -0.1598,0.58685 -0.197401,0.70686 -0.44182,1.46707 -0.235,0.74686 -0.582829,1.77382 -0.338416,1.02693 -0.479423,1.45376 -0.0564,0.18671 -0.2256,0.66682 -0.169201,0.48013 -0.272601,0.80021 -0.103403,0.32018 -0.2162,0.7469 -0.112796,0.42679 -0.150399,0.77352 -0.03761,0.34678 0,0.61351 -0.02824,-0.1466 -0.338417,-0.5868 -0.300801,-0.45348 -0.338417,-0.73356 -0.0658,-0.4401 0.0752,-1.1603 0.140998,-0.73356 0.329015,-1.29372 0.188,-0.56014 0.507624,-1.45372 0.329015,-0.89357 0.423018,-1.17365 0.85544,-2.62742 1.081052,-3.44096 0.2914,-1.10698 0.319601,-1.38706 0.094,-0.81357 -0.141,-1.13364 -0.2914,-0.0257 -0.827236,0.56015 -0.55463,0.6135 -1.372465,1.98723 -0.733236,1.22699 -1.569875,2.92079 -1.720282,3.52099 -2.632121,6.53516 0,0.18671 0.02824,0.36008 -0.01892,-0.1466 -0.329013,-0.5868 -0.310201,-0.45348 -0.347819,-0.73356 -0.0752,-0.49346 0.0564,-1.28036 0.1316,-0.78687 0.300801,-1.36037 0.1598,-0.58682 0.47942,-1.5871 0.319599,-1.00028 0.404218,-1.2937 0.893043,-3.06751 1.052849,-3.68101 0.047,-0.17325 0.094,-0.36008 0.047,-0.2002 0.112796,-0.50684 0.0752,-0.3067 0.122199,-0.57347 0.047,-0.26692 0.0752,-0.52017 0.02824,-0.25345 0,-0.41344 -0.01892,-0.16009 -0.094,-0.18672 0.253799,0.0667 0.488818,0.5735 0.244401,0.49348 0.300801,0.92026 0.047,0.12 0.0093,0.44011 -0.02824,0.3067 -0.047,0.48013 -0.01892,0.16009 -0.103403,0.50681 -0.08461,0.34678 -0.131599,0.52017 -0.047,0.17324 -0.150401,0.5068 -0.094,0.33343 -0.1316,0.4801 -0.122201,0.45348 -0.780236,2.72078 0.667433,-1.54708 1.654475,-3.36094 1.005849,-1.84051 1.786085,-2.82745 0.817839,-1.08029 1.334865,-1.10698 0.0658,0 0.1222,0.23997 0.0564,0.22682 0.103403,0.22682 -0.488826,0.0257 -1.334865,1.10698 -0.799035,1.02696 -1.786081,2.81414 -1.889487,3.4676 -3.073944,7.05527 -0.1222,0.49348 -0.187999,1.06698 0.545226,-1.74715 1.325465,-3.60101 1.569871,-3.74771 3.186746,-6.26843 1.137452,-1.80046 1.701479,-1.89385 h -0.0093 0.0093 0.0658 0.01892 q 0.0564,0 0.112796,0.0401 0.244401,0.12 0.451219,0.54681 0.2068,0.41345 0.310233,0.85357 z" />
    <path
       inkscape:connector-curvature="0"
       id="path2659"
       style="font-style:italic;font-variant:normal;font-weight:normal;font-stretch:normal;font-size:74.66666412px;line-height:1.25;font-family:'Achilleas Demo';-inkscape-font-specification:'Achilleas Demo, Italic';font-variant-ligatures:normal;font-variant-caps:normal;font-variant-numeric:normal;font-feature-settings:normal;text-align:start;letter-spacing:0px;word-spacing:0px;writing-mode:lr-tb;text-anchor:start;fill:#ffffff;fill-opacity:1;stroke:#ffffff;stroke-width:0.36581564;stroke-opacity:1"
       d="m 58.896054,269.67818 q 0.263199,0.0799 0.470026,0.58684 0.2068,0.49346 0.244399,0.90692 0.01892,0.22683 -0.0093,0.50681 -0.02824,0.2666 -0.1316,0.65351 -0.103403,0.37342 -0.159801,0.56015 -0.047,0.17324 -0.2162,0.66685 -0.159799,0.49349 -0.1786,0.5468 -0.282,0.89362 -0.864842,2.57406 -0.573427,1.66715 -0.817833,2.42736 -0.0564,0.18672 -0.235001,0.69351 -0.178599,0.5068 -0.282,0.81357 -0.094,0.3067 -0.216199,0.74687 -0.122201,0.42678 -0.159801,0.77355 -0.047,0.34675 -0.01892,0.62682 -0.01892,-0.1466 -0.3008,-0.5868 -0.282,-0.45348 -0.310199,-0.73356 -0.047,-0.49346 0.1222,-1.26701 0.1598,-0.78688 0.366619,-1.38706 0.2068,-0.60016 0.564027,-1.56041 0.357216,-0.97362 0.470022,-1.30705 1.099848,-3.26758 1.231455,-3.68101 0.0658,-0.22683 0.112796,-0.37344 0.047,-0.14661 0.141001,-0.48014 0.094,-0.34674 0.141,-0.58681 0.0564,-0.25345 0.103403,-0.52017 0.047,-0.26661 0.02824,-0.41344 -0.01892,-0.16009 -0.094,-0.18672 z m 2.011694,-2.80076 q 0.1222,0.0533 0.1786,0.23998 0.0564,0.18671 0.01892,0.40013 -0.0658,0.42679 -0.338417,0.89357 -0.2632,0.45345 -0.582829,0.68021 -0.658029,0.46679 -0.940042,-0.60019 -0.02824,-0.0667 -0.1222,-0.32018 -0.047,-0.16009 -0.03761,-0.29356 0.01892,-0.28006 0.197402,-0.57345 0.178599,-0.29355 0.423023,-0.50684 0.526422,-0.46679 0.752032,-0.23997 0.0093,-0.0129 0.03761,0.0401 l 0.0093,0.0257 q 0.1786,0.28008 0.253799,0.56015 0.02824,0.11999 0.0093,0.30671 -0.02824,0.32016 -0.2162,0.6802 -0.39482,0.7202 -0.817843,0.76021 -0.234999,0.0127 -0.376016,-0.22682 l -0.0564,-0.11999 q 0.112796,0.45348 0.394816,0.52014 0.244401,0.0533 0.535826,-0.21334 0.300801,-0.2666 0.517024,-0.66685 0.225599,-0.41344 0.291433,-0.76021 0.02824,-0.2002 0.01892,-0.32019 0,-0.0127 -0.0093,-0.0401 0,-0.0257 0,-0.0401 h -0.0093 q -0.0658,-0.0533 -0.08461,-0.0667 -0.01892,-0.0129 -0.02824,-0.0667 -0.0093,-0.0533 -0.01892,-0.0533 z m -1.588674,1.37369 q -0.0093,0.0533 -0.0093,0.17357 0.1222,0.0799 0.291399,0.0129 0.38542,-0.13347 0.723837,-0.73353 0.141,-0.26693 0.1974,-0.53349 0.02824,-0.10679 0.02824,-0.21335 h -0.0093 l -0.0093,-0.0127 q -0.094,0 -0.1974,0.0401 -0.188001,0.0667 -0.441819,0.30671 -0.479423,0.45344 -0.57343,0.96024 z" />
    <path
       inkscape:connector-curvature="0"
       id="path2661"
       style="font-style:italic;font-variant:normal;font-weight:normal;font-stretch:normal;font-size:74.66666412px;line-height:1.25;font-family:'Achilleas Demo';-inkscape-font-specification:'Achilleas Demo, Italic';font-variant-ligatures:normal;font-variant-caps:normal;font-variant-numeric:normal;font-feature-settings:normal;text-align:start;letter-spacing:0px;word-spacing:0px;writing-mode:lr-tb;text-anchor:start;fill:#ffffff;fill-opacity:1;stroke:#ffffff;stroke-width:0.36581564;stroke-opacity:1"
       d="m 64.451714,271.61205 q -0.02824,-0.10679 -0.1222,-0.2666 -0.1786,-0.14661 -0.385422,-0.16009 -0.206801,-0.0127 -0.423017,0.10679 -0.2162,0.10679 -0.441823,0.29354 -0.2162,0.17325 -0.451216,0.46679 -0.235,0.28008 -0.451222,0.5735 -0.206801,0.29356 -0.432424,0.66687 -0.2162,0.36008 -0.394819,0.68016 -0.1786,0.30671 -0.366617,0.66685 -0.1786,0.34677 -0.300799,0.58684 -0.112796,0.22683 -0.235001,0.48015 -0.883642,1.86716 -1.316061,3.36093 -0.244401,0.85353 -0.310233,1.26702 -0.01892,0.0934 -0.02824,0.33341 0,0.23998 -0.0093,0.32019 0.02824,0.0798 0.103403,0.4001 0.0846,0.32017 0.150401,0.44012 0.620426,0.21334 1.710877,-0.56015 1.43827,-1.02694 2.274909,-2.72077 l 0.02824,0.0533 q 0.03759,0.0533 0.02824,0.0667 -0.855442,1.7338 -2.36891,2.78744 -0.949446,0.66686 -1.569874,0.49348 0.01892,0.0257 0.03759,0.0257 -0.0093,0 -0.02824,-0.0127 -0.01892,-0.0127 -0.02824,-0.0127 -0.2068,-0.0799 -0.3102,-0.18673 -0.498226,-0.38674 -0.62983,-1.1603 -0.141,-0.78687 0.047,-1.76049 0.188,-0.98694 0.488823,-1.90717 0.291399,-0.92028 0.705035,-1.85386 0.347813,-0.78687 0.620427,-1.36037 0.282,-0.5735 0.723833,-1.38706 0.441822,-0.81357 0.921242,-1.40039 0.488823,-0.60018 0.958845,-0.90692 0.2726,-0.17325 0.507623,-0.2002 0.2444,-0.0401 0.413619,0.0799 0.178601,0.10679 0.319601,0.28007 0.141,0.1601 0.244401,0.42679 0.112795,0.2666 0.178599,0.49348 0.0752,0.22682 0.141,0.5068 z m -1.052849,6.76187 0.02824,0.0533 q 0.02824,0.0401 0.0564,0.0934 0.03759,0.0533 0.03759,0.0667 l 0.03761,0.0667 q 0.03761,0.0667 0.0564,0.11998 0.01892,0.0401 0.0093,0.0667 -0.526429,1.30704 -1.861291,2.57406 -1.400662,1.32037 -2.368911,1.21366 -0.02824,0 -0.0564,-0.0401 -0.01892,-0.0401 -0.03761,-0.0934 -0.01892,-0.0667 -0.02824,-0.0798 -0.0093,-0.0128 -0.03759,-0.0667 -0.01892,-0.0667 -0.0376,-0.12 -0.01892,-0.0667 -0.02824,-0.0667 0.987048,0.10679 2.378314,-1.20031 1.306661,-1.2537 1.851884,-2.58742 z" />
    <path
       inkscape:connector-curvature="0"
       id="path2663"
       style="font-style:italic;font-variant:normal;font-weight:normal;font-stretch:normal;font-size:74.66666412px;line-height:1.25;font-family:'Achilleas Demo';-inkscape-font-specification:'Achilleas Demo, Italic';font-variant-ligatures:normal;font-variant-caps:normal;font-variant-numeric:normal;font-feature-settings:normal;text-align:start;letter-spacing:0px;word-spacing:0px;writing-mode:lr-tb;text-anchor:start;fill:#ffffff;fill-opacity:1;stroke:#ffffff;stroke-width:0.36581564;stroke-opacity:1"
       d="m 73.053116,282.22834 q 0.517024,-1.05363 1.88009,-3.85442 1.363068,-2.80076 2.115105,-4.32117 2.735519,-5.52157 4.606208,-8.84246 1.212657,-2.17393 2.152707,-3.60101 1.062249,-1.62712 1.880083,-2.52071 0.874244,-0.94693 1.428872,-0.97358 0.347817,-0.0257 0.564023,0.2666 0.216197,0.29354 0.394816,0.80022 0.0093,0.0128 0.0093,0.0401 v 0.0127 q -0.0093,-0.0127 -0.02825,-0.0257 -0.06578,-0.0667 -0.159803,-0.33339 -0.0564,-0.0799 -0.08456,-0.10679 -0.789641,-0.81357 -2.773134,1.85386 -1.052854,1.41371 -2.002298,3.01416 -0.949445,1.60044 -2.143297,3.81438 -1.692086,3.12086 -4.446412,8.72239 -0.385413,0.78692 -1.663877,3.42765 -1.278463,2.64072 -1.992895,4.06778 -0.817834,1.64045 -1.203255,2.33397 -0.37601,0.66685 -0.488823,0.77356 0,0.0799 -0.0564,0.0799 -0.0093,0 -0.01895,0 l -0.01895,-0.0127 -0.0093,0.0127 h -0.0093 q -0.02825,0 -0.0564,-0.0401 -0.112807,-0.0798 -0.329016,-0.65351 -0.178599,-0.4668 -0.1974,-1.05363 -0.01892,-0.58682 0.1222,-1.34703 0.1504,-0.74687 0.282,-1.2537 0.131602,-0.50679 0.385421,-1.36037 0.40422,-1.36037 0.987041,-3.02752 0.592232,-1.6671 0.987049,-2.70738 0.394816,-1.04029 1.156255,-3.01419 0.253802,-0.64017 0.83664,-2.14725 0.592224,-1.52044 0.911841,-2.36066 0.329018,-0.84025 0.78964,-2.08057 0.460622,-1.2537 0.817833,-2.30734 0.01895,-0.0533 0.150401,-0.42678 0.131603,-0.38675 0.159803,-0.49345 0.03763,-0.10679 0.140998,-0.4268 0.112807,-0.33341 0.1504,-0.49347 0.04701,-0.16009 0.1222,-0.42678 0.07518,-0.2666 0.112807,-0.48011 0.04702,-0.22682 0.08456,-0.44014 0.08456,-0.53348 0.03763,-1.06694 -0.03763,-0.54684 -0.188005,-0.78692 -0.376018,-0.0799 -0.977646,0.64021 -0.648626,0.80021 -1.475863,2.414 -0.817841,1.5871 -1.645086,3.62766 -1.786076,4.38788 -2.791932,8.52237 0,-0.0127 -0.03763,-0.0533 -0.02825,-0.0401 -0.01895,-0.0667 0.58282,-2.41401 1.447661,-4.93469 1.607475,-4.69465 3.29956,-7.80217 1.334858,-2.46735 2.039894,-2.4807 h -0.0093 0.01895 q 0.04702,0 0.141006,0.0257 0.0093,0 0.01895,0.0129 0.0093,0.0127 0.01895,0.0127 h 0.01895 q 0.535822,0.22684 0.761439,1.18701 0.225601,0.96024 0.07518,1.86716 -0.122207,0.74688 -0.329019,1.53378 -0.1974,0.77353 -0.545233,1.76046 -0.347809,0.98698 -0.545217,1.52043 -0.188004,0.5335 -0.676837,1.77384 -0.479419,1.24032 -0.592223,1.52039 -0.319608,0.82692 -1.240859,3.18757 -0.911849,2.34731 -1.532275,3.98779 -0.611022,1.6271 -1.156256,3.20088 -0.06579,0.17324 -0.366614,1.02694 -0.300836,0.84022 -0.470025,1.33371 -0.159795,0.49348 -0.394816,1.25366 -0.225601,0.77356 -0.347817,1.40041 -0.112796,0.64017 -0.1222,1.14696 0.282004,-0.41344 0.582822,-0.97358 0.310229,-0.56016 0.470024,-0.88024 0.159803,-0.30671 0.535823,-1.08029 0.376026,-0.76021 0.451227,-0.92027 z m 23.642109,-23.0464 q 0.0186,0.0533 0.0186,0.0667 0,0 -0.04708,-0.0401 -0.0658,-0.0667 -0.159807,-0.33342 0,-0.0401 -0.02825,-0.0799 l -0.112762,-0.16008 q -0.103345,-0.10679 -0.263232,-0.2002 -0.244401,-0.13346 -0.611036,-0.0401 -0.611025,0.16009 -1.532258,1.05363 -0.864845,0.86689 -1.66389,1.96054 -0.799035,1.09363 -1.795479,2.62741 -1.522871,2.36065 -3.656772,6.12167 -0.423017,0.74687 -1.438267,2.56071 -1.01525,1.81385 -1.56987,2.78745 -0.639232,1.1203 -0.987048,1.65379 -0.40422,0.62685 -0.535822,0.64016 -0.0093,0 -0.0093,0 0,-0.0127 -0.0093,-0.0127 l -0.0093,0.0127 q -0.855446,0 -0.244407,-2.2006 0.244407,-0.89357 0.714432,-2.05391 0.206802,-0.5068 0.799035,-1.98722 0.592233,-1.48039 0.883648,-2.21394 0.3008,-0.73353 0.742633,-1.90717 0.451218,-1.187 0.799035,-2.16063 0.742693,-2.13392 1.015301,-3.32089 0.188005,-0.81357 0.216207,-1.25371 0.02825,-0.48013 -0.04701,-0.73351 -0.06579,-0.25346 -0.2726,-0.17357 -0.639231,0.37343 -1.513475,1.42707 -0.864841,1.05363 -1.97409,2.86745 -1.598079,2.61407 -3.910582,7.29536 -0.58283,1.17366 -1.203255,2.45402 -0.61103,1.28036 -1.428864,3.00085 -0.817842,1.70711 -1.184466,2.46732 -2.171496,4.49459 -3.224342,6.33509 -0.667434,1.147 -0.911849,1.48043 -0.695629,0.97358 -1.081045,0.80021 -0.01892,-0.0129 -0.03759,-0.0667 -0.0093,-0.0533 -0.01892,-0.0533 0.329013,0.13345 0.940048,-0.64016 0.592223,-0.76022 1.381864,-2.21395 1.015242,-1.84051 3.327753,-6.65517 2.857737,-5.98832 3.854181,-7.96223 2.303108,-4.58793 3.882381,-7.0686 0.573426,-0.89358 0.977646,-1.48043 0.404218,-0.5868 1.062248,-1.26701 0.65803,-0.69352 1.231456,-0.94693 h 0.0093 q 0.150399,0 0.272599,0.17324 0.338413,0.49348 0.470025,1.16034 0.131603,0.66685 -0.01895,1.61378 -0.141005,0.94694 -0.272608,1.6271 -0.131594,0.66686 -0.582829,1.92056 -0.451219,1.24032 -0.639224,1.72046 -0.178602,0.48013 -0.714432,1.78715 -0.103403,0.2666 -0.159803,0.40012 -0.04701,0.10679 -0.150401,0.37344 -0.094,0.26661 -0.159795,0.40013 -1.109257,2.37397 -2.28431,5.61488 0.423025,-0.68019 1.212657,-2.06726 0.253794,-0.45345 1.626272,-2.90745 1.381866,-2.45401 1.92709,-3.40096 0.545234,-0.94692 1.607483,-2.69407 1.071645,-1.76049 2.00229,-3.10752 0.648627,-0.94693 1.052846,-1.50708 0.413614,-0.56015 1.071653,-1.28036 0.667427,-0.73355 1.250249,-1.13364 0.761438,-0.50681 1.250262,-0.30671 0.507622,0.20018 0.864841,1.22701 z m -1.00585,0.40012 q 0.272603,0.0129 0.470016,0.32017 0.197401,0.30671 0.291434,0.85358 0.09404,0.53349 0.07521,1.24035 -0.0092,0.69352 -0.178592,1.57375 -0.1692,0.88026 -0.47942,1.78719 -0.592227,1.72046 -1.955308,5.2681 -1.363054,3.54766 -1.98348,5.37485 -0.06579,0.18672 -0.253802,0.73352 -0.187995,0.5468 -0.319632,0.92027 -0.122199,0.37344 -0.3196,0.98691 -0.197399,0.61354 -0.329018,1.06698 -0.122199,0.44014 -0.253794,1.00028 -0.122207,0.54681 -0.178601,0.96025 -0.04701,0.40012 -0.04701,0.77356 0.0093,0.37343 0.103403,0.60016 0.159795,0.40012 0.07518,0.29354 -0.159803,-0.18671 -0.479428,-0.84023 -0.0186,-0.0401 -0.02825,-0.0667 -0.197399,-0.4801 -0.244406,-1.06695 -0.03763,-0.60015 0.08456,-1.33371 0.131602,-0.73351 0.263204,-1.28036 0.140998,-0.5468 0.385414,-1.41372 0.404218,-1.38706 0.996451,-3.10752 0.592225,-1.7338 0.968243,-2.74744 0.37601,-1.02693 1.165651,-3.10752 0.940041,-2.53402 1.193857,-3.29423 0.780224,-2.32065 1.005839,-3.46764 0.0565,-0.32018 0.09404,-0.70686 0.04697,-0.38678 0.0186,-0.76021 -0.0186,-0.37343 -0.140997,-0.44014 -1.39126,0.65354 -3.34655,3.29427 -0.827237,1.1203 -1.757883,2.58738 -0.930638,1.46707 -1.466459,2.37399 -0.526428,0.90691 -1.635676,2.86746 -1.099854,1.96056 -1.428873,2.53402 -1.635666,2.86748 -2.556919,4.1345 -0.319598,0.42679 -0.545216,0.69352 -0.216206,0.26659 -0.573434,0.52013 -0.347817,0.25345 -0.592225,0.14663 -0.0093,0 -0.02825,-0.0401 -0.01895,-0.0533 -0.02825,-0.0667 0.216197,0.0933 0.479419,-0.0401 0.2726,-0.13346 0.58283,-0.5068 0.319598,-0.37344 0.479419,-0.58685 0.169199,-0.22682 0.451218,-0.62681 0.197401,-0.29356 0.394825,-0.58685 0.1974,-0.29355 0.40422,-0.64016 0.216197,-0.34677 0.366606,-0.58684 0.1504,-0.25345 0.38543,-0.66685 0.244399,-0.41344 0.347809,-0.60017 0.112807,-0.20019 0.385421,-0.66685 0.2726,-0.48014 0.357211,-0.62685 2.538122,-4.45454 3.102145,-5.40146 1.842495,-3.10756 3.214948,-4.86804 1.682685,-2.16061 2.951745,-2.74742 0,-0.0257 -0.0092,-0.0257 h 0.04697 0.0092 z m -24.74195,21.84606 q 0,0 0.01895,0.0401 l 0.01895,0.0933 -0.01895,-0.0257 q -1.09045,-1.69383 -0.705034,-5.16143 0.3196,-2.97417 1.541674,-6.93525 1.146852,-3.73436 2.632119,-6.90859 0.723835,-1.53377 1.37247,-2.66742 0.658029,-1.14697 1.447661,-1.96053 0.648628,-0.68019 1.184458,-0.7202 0.507629,-0.0257 0.883638,0.6802 0.141006,0.23997 0.150401,0.32017 0.0093,0.0533 -0.01895,0.0257 l -0.04701,-0.0799 q -0.235003,-0.44013 -0.639231,-0.45347 -0.40422,-0.0129 -0.827237,0.3067 -0.423026,0.3067 -0.855447,0.84022 -1.250253,1.56043 -2.650916,4.65464 -1.372471,3.01416 -2.43472,6.50846 -1.11865,3.68101 -1.475867,6.54847 -0.197401,1.60044 -0.131599,2.70743 0.0846,1.38706 0.394818,1.88051 0.094,0.14662 0.159802,0.3067 z" />
    <path
       inkscape:connector-curvature="0"
       id="path2665"
       style="font-style:italic;font-variant:normal;font-weight:normal;font-stretch:normal;font-size:74.66666412px;line-height:1.25;font-family:'Achilleas Demo';-inkscape-font-specification:'Achilleas Demo, Italic';font-variant-ligatures:normal;font-variant-caps:normal;font-variant-numeric:normal;font-feature-settings:normal;text-align:start;letter-spacing:0px;word-spacing:0px;writing-mode:lr-tb;text-anchor:start;fill:#ffffff;fill-opacity:1;stroke:#ffffff;stroke-width:0.36581564;stroke-opacity:1"
       d="m 100.51181,271.17194 q 0.047,0.12 0.009,0.44011 -0.0282,0.3067 -0.047,0.48013 -0.019,0.16009 -0.10346,0.50681 -0.0846,0.34678 -0.13159,0.52017 -0.047,0.17324 -0.15041,0.5068 -0.09404,0.33343 -0.131589,0.4801 -0.235008,0.88027 -0.733248,2.56072 -0.498217,1.66714 -0.714427,2.4407 -0.05649,0.18672 -0.178604,0.58682 -0.112761,0.40012 -0.178604,0.64018 -0.0658,0.22682 -0.178592,0.65352 -0.103461,0.41343 -0.131594,0.64015 -0.02825,0.22682 -0.07521,0.60019 -0.03766,0.37343 0.0186,0.53346 -0.0186,-0.1466 -0.329018,-0.5868 -0.310208,-0.45348 -0.347826,-0.73356 -0.07521,-0.49346 0.05638,-1.28036 0.131604,-0.78687 0.300804,-1.37371 0.169211,-0.58682 0.479443,-1.57376 0.31959,-0.98693 0.4136,-1.2937 0.05649,-0.17324 0.159806,-0.53349 0.103346,-0.36009 0.150402,-0.53346 -1.616886,3.38761 -3.214951,5.77491 -0.2914,0.44014 -0.479431,0.70686 -0.187997,0.26661 -0.498229,0.62685 -0.310186,0.34677 -0.582823,0.52015 -0.2162,0.0934 -0.338408,0.13347 -0.122207,0.0257 -0.244406,-0.1068 -0.112796,-0.13346 -0.169199,-0.23997 -0.0564,-0.11999 -0.131602,-0.32018 -0.02825,-0.0798 -0.0093,-0.0798 0.0093,0 0.02825,0.0533 0.1222,0.23997 0.2726,0.23997 0.131594,0 0.291397,-0.0934 0.235001,-0.13347 0.695635,-0.64017 0.62981,-0.7202 1.598066,-2.30729 0.836639,-1.37372 1.748479,-3.12086 0.827234,-1.60045 1.485281,-3.06753 l 0.253794,-0.56018 q 0,-0.0257 0.0092,-0.0667 0.0186,-0.0533 0.02825,-0.0667 0.178592,-0.70686 0.234996,-0.98693 -0.1692,0.42678 -0.573418,1.34705 -1.569876,3.52097 -3.365354,6.50847 -0.987064,1.65379 -1.513483,2.25394 -0.639225,0.72021 -0.893036,0.42679 v -0.0127 q -0.02825,-0.0257 -0.07518,-0.10679 -0.04701,-0.0799 -0.103403,-0.17326 -0.0564,-0.10679 -0.07518,-0.13345 -0.0186,-0.0257 -0.08465,-0.18672 -0.07518,-0.18671 -0.112807,-0.38678 -0.04702,-0.21335 -0.06578,-0.38678 -0.02825,-0.18672 -0.0093,-0.44013 0.0093,-0.2666 0.02825,-0.4268 0.0093,-0.17324 0.06579,-0.46679 0.0564,-0.3067 0.094,-0.45344 0.02825,-0.16008 0.122199,-0.5068 0.094,-0.34677 0.131603,-0.48014 0.03763,-0.13346 0.150401,-0.52015 0.112796,-0.40012 0.150401,-0.52014 0.112795,-0.40012 0.545215,-1.81385 0.441825,-1.41372 0.639238,-2.18727 0.601631,-2.28062 0.517026,-2.7474 -0.0186,-0.13347 -0.09404,-0.1601 0.263198,0.0799 0.498217,0.57351 0.244401,0.48013 0.300804,0.92024 0.04697,0.0933 0.0092,0.40011 -0.03766,0.30671 -0.04697,0.44014 -0.0092,0.11999 -0.09404,0.45345 -0.08463,0.32017 -0.122201,0.46679 -0.03766,0.13346 -0.131593,0.45348 -0.09404,0.32017 -0.1222,0.42679 -0.234996,0.84022 -0.695642,2.3873 -0.460622,1.53378 -0.629821,2.12058 -0.376017,1.32038 -0.554628,2.14728 -0.0093,0.0257 -0.03763,0.14663 -0.0186,0.10679 -0.03763,0.20018 -0.01895,0.0933 -0.04701,0.22682 -0.0186,0.13346 -0.02825,0.25345 -0.0093,0.10679 -0.0093,0.21335 0.0093,0.0933 0.03763,0.16008 0.02825,0.0533 0.08464,0.0667 0.310239,-0.0934 0.874241,-0.81357 0.705046,-0.90692 1.62629,-2.50736 0.752034,-1.30701 1.720278,-3.21422 0.874234,-1.7605 1.475854,-3.13418 0.376028,-0.86692 0.554632,-1.36041 0.159806,-0.97359 -0.03766,-1.02693 0.263233,0.0799 0.498215,0.58683 0.24441,0.49346 0.30084,0.90689 z" />
    <path
       inkscape:connector-curvature="0"
       id="path2667"
       style="font-style:italic;font-variant:normal;font-weight:normal;font-stretch:normal;font-size:74.66666412px;line-height:1.25;font-family:'Achilleas Demo';-inkscape-font-specification:'Achilleas Demo, Italic';font-variant-ligatures:normal;font-variant-caps:normal;font-variant-numeric:normal;font-feature-settings:normal;text-align:start;letter-spacing:0px;word-spacing:0px;writing-mode:lr-tb;text-anchor:start;fill:#ffffff;fill-opacity:1;stroke:#ffffff;stroke-width:0.36581564;stroke-opacity:1"
       d="m 106.17086,270.29168 q 0.1504,0.21334 0.24441,0.37344 0.10335,0.16009 0.235,0.45348 0.14098,0.28007 0.18799,0.53345 0.0565,0.23998 0.0377,0.56018 -0.009,0.32018 -0.141,0.62682 0.047,-0.10645 -0.1598,-0.36008 -0.2068,-0.26661 -0.40421,-0.56016 -0.19741,-0.29355 -0.11277,-0.48013 0.0752,-0.16009 0.10335,-0.23997 -0.0282,0 -0.0658,0 -0.0282,0 -0.0752,0 -0.0377,0 -0.0565,0 -0.22559,0 -0.49821,0.10679 -0.80843,0.29355 -2.0211,1.48043 -1.00585,0.9869 -1.58867,1.94717 -0.31021,0.5335 -0.46062,0.97362 -0.0564,0.17325 -0.0752,0.37343 -0.009,0.18673 0.0186,0.37344 0.0282,0.17324 0.047,0.29355 0.0282,0.1069 0.0752,0.25346 l 0.047,0.14661 q 0.39483,0.23997 1.41007,0.0257 0.1504,-0.0257 0.43242,-0.0934 0.2914,-0.0798 0.44181,-0.10656 0.40422,-0.0667 0.48883,0 0.0186,0.0128 0.0282,0.0667 0.009,0.0401 0.0186,0.0401 -0.1222,-0.0933 -0.68624,0.0533 -0.95884,0.21334 -1.06224,0.22682 -0.68624,0.0934 -1.06226,-0.17325 0,0.0128 -0.0377,-0.0257 -0.009,-0.0129 -0.0377,-0.0401 -0.047,-0.0401 -0.1222,-0.14662 -0.87425,-1.09363 -0.70504,-2.21393 0.2444,-1.64049 2.50992,-3.69437 2.19971,-1.96056 3.04574,-0.77356 z m -0.89304,6.73522 q 0.094,0.17324 0.10346,0.33343 0.0752,0.73352 -0.27261,1.53374 -0.34781,0.78687 -0.94004,1.44041 -0.59223,0.65352 -1.22206,1.16031 -0.62043,0.5068 -1.19385,0.80022 -1.18445,0.6135 -1.974102,0.0667 -0.78964,-0.54682 -0.827223,-2.00055 0.0092,0.25344 0.225603,0.57349 0.216199,0.32019 0.394814,0.34678 0.300805,0.0667 0.761428,-0.0667 0.87424,-0.25345 1.9083,-1.0803 0.90243,-0.72021 1.63567,-1.68045 0.73323,-0.97363 0.82723,-1.92055 -0.0189,0 -0.0658,-0.0127 -0.0377,-0.0127 -0.0565,-0.0257 -0.39481,-0.0798 -1.28787,0.0533 -0.92124,0.16009 -1.18445,0.14663 -0.41362,-0.0127 -0.63923,-0.62682 -0.0186,-0.0401 -0.0186,-0.0667 0,-0.0257 0.047,0.0401 0.10335,0.14661 0.1598,0.33344 l -0.11276,-0.26661 q 0.047,0.0533 0.11276,0.0799 0.11276,0.0257 0.16921,0.0257 0.1504,0.0127 0.47942,-0.0127 0.1692,-0.0127 0.72383,-0.10691 0.55463,-0.0933 0.72385,-0.0933 0.16919,0 0.67682,0.0533 0.63923,0.17356 0.84603,0.97362 z" />
    <path
       inkscape:connector-curvature="0"
       id="path2669"
       style="font-style:italic;font-variant:normal;font-weight:normal;font-stretch:normal;font-size:74.66666412px;line-height:1.25;font-family:'Achilleas Demo';-inkscape-font-specification:'Achilleas Demo, Italic';font-variant-ligatures:normal;font-variant-caps:normal;font-variant-numeric:normal;font-feature-settings:normal;text-align:start;letter-spacing:0px;word-spacing:0px;writing-mode:lr-tb;text-anchor:start;fill:#ffffff;fill-opacity:1;stroke:#ffffff;stroke-width:0.36581564;stroke-opacity:1"
       d="m 108.41758,269.67818 q 0.26318,0.0799 0.47001,0.58684 0.20681,0.49346 0.2444,0.90692 0.0186,0.22683 -0.009,0.50681 -0.0282,0.2666 -0.13161,0.65351 -0.10334,0.37342 -0.15979,0.56015 -0.047,0.17324 -0.2162,0.66685 -0.1598,0.49349 -0.17861,0.5468 -0.28203,0.89362 -0.86484,2.57406 -0.57343,1.66715 -0.81783,2.42736 -0.0564,0.18672 -0.235,0.69351 -0.17861,0.5068 -0.28201,0.81357 -0.094,0.3067 -0.21619,0.74687 -0.1222,0.42678 -0.15979,0.77355 -0.0471,0.34675 -0.0186,0.62682 -0.0186,-0.1466 -0.30083,-0.5868 -0.28201,-0.45348 -0.3102,-0.73356 -0.047,-0.49346 0.1222,-1.26701 0.15979,-0.78688 0.36662,-1.38706 0.2068,-0.60016 0.56403,-1.56041 0.35721,-0.97362 0.47002,-1.30705 1.09985,-3.26758 1.23146,-3.68101 0.0658,-0.22683 0.11276,-0.37344 0.047,-0.14661 0.141,-0.48014 0.094,-0.34674 0.14099,-0.58681 0.0564,-0.25345 0.10335,-0.52017 0.0471,-0.26661 0.0282,-0.41344 -0.0186,-0.16009 -0.094,-0.18672 z m 2.01169,-2.80076 q 0.12221,0.0533 0.1786,0.23998 0.0564,0.18671 0.0186,0.40013 -0.0658,0.42679 -0.33842,0.89357 -0.26322,0.45345 -0.58282,0.68021 -0.65804,0.46679 -0.94004,-0.60019 -0.0282,-0.0667 -0.1222,-0.32018 -0.047,-0.16009 -0.0377,-0.29356 0.0186,-0.28006 0.1974,-0.57345 0.17861,-0.29355 0.42301,-0.50684 0.52643,-0.46679 0.75203,-0.23997 0.009,-0.0129 0.0377,0.0401 l 0.009,0.0257 q 0.17861,0.28008 0.25379,0.56015 0.0282,0.11999 0.009,0.30671 -0.0282,0.32016 -0.21619,0.6802 -0.39482,0.7202 -0.81784,0.76021 -0.23499,0.0127 -0.37603,-0.22682 l -0.0565,-0.11999 q 0.11276,0.45348 0.39481,0.52014 0.24441,0.0533 0.53584,-0.21334 0.30084,-0.2666 0.51702,-0.66685 0.22559,-0.41344 0.2914,-0.76021 0.0282,-0.2002 0.0186,-0.32019 0,-0.0127 -0.009,-0.0401 0,-0.0257 0,-0.0401 h -0.009 q -0.0658,-0.0533 -0.0846,-0.0667 -0.0186,-0.0129 -0.0282,-0.0667 -0.009,-0.0533 -0.0186,-0.0533 z m -1.58868,1.37369 q -0.009,0.0533 -0.009,0.17357 0.1222,0.0799 0.2914,0.0129 0.38542,-0.13347 0.72383,-0.73353 0.14101,-0.26693 0.1974,-0.53349 0.0282,-0.10679 0.0282,-0.21335 h -0.009 l -0.009,-0.0127 q -0.0941,0 -0.19741,0.0401 -0.18799,0.0667 -0.44181,0.30671 -0.47942,0.45344 -0.57343,0.96024 z" />
    <path
       inkscape:connector-curvature="0"
       id="path2671"
       style="font-style:italic;font-variant:normal;font-weight:normal;font-stretch:normal;font-size:74.66666412px;line-height:1.25;font-family:'Achilleas Demo';-inkscape-font-specification:'Achilleas Demo, Italic';font-variant-ligatures:normal;font-variant-caps:normal;font-variant-numeric:normal;font-feature-settings:normal;text-align:start;letter-spacing:0px;word-spacing:0px;writing-mode:lr-tb;text-anchor:start;fill:#ffffff;fill-opacity:1;stroke:#ffffff;stroke-width:0.36581564;stroke-opacity:1"
       d="m 113.97324,271.61205 q -0.0282,-0.10679 -0.12222,-0.2666 -0.17859,-0.14661 -0.38541,-0.16009 -0.20679,-0.0127 -0.42302,0.10679 -0.2162,0.10679 -0.44182,0.29354 -0.2162,0.17325 -0.45122,0.46679 -0.23499,0.28008 -0.45121,0.5735 -0.20681,0.29356 -0.43242,0.66687 -0.21621,0.36008 -0.39483,0.68016 -0.1786,0.30671 -0.36661,0.66685 -0.17861,0.34677 -0.30081,0.58684 -0.11276,0.22683 -0.23503,0.48015 -0.88363,1.86716 -1.31606,3.36093 -0.24441,0.85353 -0.31024,1.26702 -0.0186,0.0934 -0.0282,0.33341 0,0.23998 -0.009,0.32019 0.0282,0.0798 0.10346,0.4001 0.0846,0.32017 0.1504,0.44012 0.62042,0.21334 1.71087,-0.56015 1.43826,-1.02694 2.27491,-2.72077 l 0.0282,0.0533 q 0.0377,0.0533 0.0282,0.0667 -0.85544,1.7338 -2.36892,2.78744 -0.94944,0.66686 -1.56987,0.49348 0.0186,0.0257 0.0377,0.0257 -0.009,0 -0.0282,-0.0127 -0.0186,-0.0127 -0.0282,-0.0127 -0.2068,-0.0799 -0.31021,-0.18673 -0.49822,-0.38674 -0.62983,-1.1603 -0.141,-0.78687 0.0471,-1.76049 0.18803,-0.98694 0.48882,-1.90717 0.2914,-0.92028 0.70504,-1.85386 0.34781,-0.78687 0.62043,-1.36037 0.28199,-0.5735 0.72383,-1.38706 0.44182,-0.81357 0.92124,-1.40039 0.48884,-0.60018 0.95886,-0.90692 0.27259,-0.17325 0.50761,-0.2002 0.2444,-0.0401 0.41362,0.0799 0.1786,0.10679 0.31962,0.28007 0.141,0.1601 0.2444,0.42679 0.11277,0.2666 0.17861,0.49348 0.0752,0.22682 0.141,0.5068 z m -1.05285,6.76187 0.0282,0.0533 q 0.0282,0.0401 0.0564,0.0934 0.0377,0.0533 0.0377,0.0667 l 0.0377,0.0667 q 0.0377,0.0667 0.0564,0.11998 0.0186,0.0401 0.009,0.0667 -0.52643,1.30704 -1.86131,2.57406 -1.40064,1.32037 -2.3689,1.21366 -0.0282,0 -0.0565,-0.0401 -0.0186,-0.0401 -0.0377,-0.0934 -0.0186,-0.0667 -0.0282,-0.0798 -0.009,-0.0128 -0.0377,-0.0667 -0.0186,-0.0667 -0.0377,-0.12 -0.0186,-0.0667 -0.0282,-0.0667 0.98704,0.10679 2.3783,-1.20031 1.30666,-1.2537 1.8519,-2.58742 z" />
  </g>
</svg>
