<svg class="pt-5 animate__animated animate__fadeInDown title" width="360" height="324" version="1.1" viewBox="0 0 95.25 85.725" xmlns="http://www.w3.org/2000/svg" xmlns:cc="http://creativecommons.org/ns#" xmlns:dc="http://purl.org/dc/elements/1.1/" xmlns:rdf="http://www.w3.org/1999/02/22-rdf-syntax-ns#"
                    xmlns:xlink="http://www.w3.org/1999/xlink">
              <defs>
                <!-- Azul cielo -->
              <linearGradient id="linearGradient2610">
                <stop stop-color="var(--azul-cielo-title)" offset="0"/>
                <stop stop-color="var(--azul-cielo-title)" stop-opacity="0" offset="1"/>
              </linearGradient>
              <!-- violeta -->
              <linearGradient id="linearGradient2328">
                <stop stop-color="var(--violeta-title)" offset="0"/>
                <stop stop-color="var(--violeta-title)" stop-opacity="0" offset="1"/>
              </linearGradient>
              <!-- Azul -->
              <linearGradient id="linearGradient2220">
                <stop stop-color="var(--azul-title)" offset="0"/>
                <stop stop-color="var(--azul-title)" stop-opacity="0" offset="1"/>
              </linearGradient>
              <linearGradient id="linearGradient2447" x1="2.731" x2="111.13" y1="168.34" y2="173.15" gradientTransform="translate(289.46,10.339)" gradientUnits="userSpaceOnUse" xlink:href="#linearGradient2220"/>
              <linearGradient id="linearGradient2459" x1="2.731" x2="111.13" y1="168.34" y2="173.15" gradientTransform="matrix(.40296 0 0 .40296 -1.5033 183.75)" gradientUnits="userSpaceOnUse" xlink:href="#linearGradient2220"/>
              <linearGradient id="linearGradient2465" x1="2.731" x2="111.13" y1="168.34" y2="173.15" gradientTransform="matrix(.40296 0 0 .40296 -1.54 179.98)" gradientUnits="userSpaceOnUse" xlink:href="#linearGradient2220"/>
              <linearGradient id="linearGradient2477" x1="2.731" x2="111.13" y1="168.34" y2="173.15" gradientTransform="matrix(.40296 0 0 .40296 -1.54 177.81)" gradientUnits="userSpaceOnUse" xlink:href="#linearGradient2220"/>
              <linearGradient id="linearGradient1003" x1="505.67" x2="582.65" y1="190.09" y2="155.88" gradientTransform="matrix(.40296 0 0 .40296 -126.77 -31.96)" gradientUnits="userSpaceOnUse" xlink:href="#linearGradient2328"/>
              <linearGradient id="linearGradient1009" x1="505.67" x2="582.65" y1="190.09" y2="155.88" gradientTransform="matrix(.40296 0 0 .40296 -126.81 -35.73)" gradientUnits="userSpaceOnUse" xlink:href="#linearGradient2328"/>
              <linearGradient id="linearGradient1021" x1="505.67" x2="582.65" y1="190.09" y2="155.88" gradientTransform="matrix(.40296 0 0 .40296 -126.81 -37.91)" gradientUnits="userSpaceOnUse" xlink:href="#linearGradient2328"/>
              <linearGradient id="linearGradient1035" x1=".32554" x2="202.27" y1="431.7" y2="436.28" gradientTransform="matrix(.40296 0 0 .40296 140 -129.13)" gradientUnits="userSpaceOnUse" xlink:href="#linearGradient2610"/>
              <linearGradient id="linearGradient1041" x1=".32554" x2="202.27" y1="431.7" y2="436.28" gradientTransform="matrix(.40296 0 0 .40296 139.97 -132.9)" gradientUnits="userSpaceOnUse" xlink:href="#linearGradient2610"/>
              <linearGradient id="linearGradient1053" x1=".32554" x2="202.27" y1="431.7" y2="436.28" gradientTransform="matrix(.40296 0 0 .40296 139.97 -135.07)" gradientUnits="userSpaceOnUse" xlink:href="#linearGradient2610"/>
              <linearGradient id="linearGradient1067" x1="505.67" x2="582.65" y1="190.09" y2="155.88" gradientTransform="matrix(.40296 0 0 .40296 -126.01 -29.599)" gradientUnits="userSpaceOnUse" xlink:href="#linearGradient2328"/>
              <linearGradient id="linearGradient1079" x1=".32554" x2="202.27" y1="431.7" y2="436.28" gradientTransform="matrix(.40296 0 0 .40296 140.77 -126.77)" gradientUnits="userSpaceOnUse" xlink:href="#linearGradient2610"/>
              </defs>
            
              <g transform="translate(.016077 -.20285)">
              <g fill="url(#linearGradient1003)">
                <path  d="m15.588 29.16q-0.53816-0.53816-1.3661-1.0763-0.82793-0.53816-1.6973-0.93143-0.84864-0.41397-1.4903-0.51746-0.14489-0.0414-0.28978-0.0414t-0.28978 0q-0.64164 0-1.0556 0.22769-0.41397 0.22768-0.41397 0.57955 0 0.33118 0.41397 0.66235 0.41397 0.31048 1.2419 0.72445 0.84864 0.41396 1.8629 0.93142 1.0142 0.49676 2.0077 1.097 0.99353 0.60025 1.7387 1.2626t0.99352 1.4075q0.18629 0.51746 0.18629 0.97283 0 1.2005-1.2212 1.9042-1.2212 0.68305-3.6222 0.68305-1.8836 0-3.498-1.0349-1.6145-1.0349-2.6701-2.6701l0.16559-0.20698q1.2833 0.99352 2.7322 1.5731 1.4489 0.55886 2.8357 0.55886 0.93143 0 1.4489-0.24839 0.53816-0.24837 0.53816-0.62094 0-0.0828-0.0414-0.20699-0.20699-0.57955-0.99353-1.1177-0.78654-0.55885-1.8628-1.1591-1.0556-0.62095-2.1733-1.3661-1.097-0.76584-1.9663-1.7387-0.47607-0.57955-0.47607-1.1798 0-0.66235 0.47607-1.2626 0.47606-0.60025 1.3454-0.97282 0.86934-0.39327 2.0285-0.39327 1.4075 0 2.6701 0.22768t2.2561 0.60026q1.0142 0.35187 1.5938 0.78653z" style="font-feature-settings:normal;font-variant-caps:normal;font-variant-ligatures:normal;font-variant-numeric:normal"/>
                <path d="m30.908 31.05q0 1.3661-0.55886 2.4838-0.55885 1.097-1.4696 1.8836t-1.9664 1.2212q-1.0556 0.41397-2.0491 0.41397-0.99353 0-2.0491-0.41397-1.0556-0.43467-1.987-1.2212-0.91073-0.78654-1.4903-1.8836-0.55886-1.1177-0.55886-2.4838t0.55886-2.4838q0.57955-1.1177 1.4903-1.9042 0.93143-0.80724 1.987-1.2212 1.0556-0.43466 2.0491-0.43466 0.99352 0 2.0491 0.43466 1.0556 0.41397 1.9664 1.2212 0.91073 0.78654 1.4696 1.9042 0.55886 1.1177 0.55886 2.4838zm-5.423 4.5122q1.097 0 1.6766-0.78653 0.57956-0.80725 0.57956-2.8978 0-1.8629-0.57956-3.0427-0.55886-1.1798-1.3661-1.718-0.80724-0.55885-1.5524-0.55885-0.72445 0-1.2419 0.33118-0.51746 0.33117-0.78653 1.1384-0.26909 0.78654-0.26909 2.194 0 1.2626 0.33118 2.2561 0.35187 0.99352 0.89003 1.6973 0.53816 0.68304 1.1384 1.0349 0.62096 0.35187 1.1798 0.35187z" style="font-feature-settings:normal;font-variant-caps:normal;font-variant-ligatures:normal;font-variant-numeric:normal"/>
                <path d="m34.429 40.05 2.9392-4.7813-5.1125-9.3764 3.6015-0.89003 2.6494 8.4036 5.0711-8.3208h0.28977l-5.9611 16.455z" style="font-feature-settings:normal;font-variant-caps:normal;font-variant-ligatures:normal;font-variant-numeric:normal"/>
              </g>
              <g fill="url(#linearGradient1009)">
                <path d="m5.0614 52.58-0.15158 7.449h-2.7717l-0.80119-16.89h3.941l-0.0433 1.624 7.4056-1.8406v3.5079l-7.4273-0.75789-0.12992 6.0414 6.5828-1.6024v3.443z" style="font-feature-settings:normal;font-variant-caps:normal;font-variant-ligatures:normal;font-variant-numeric:normal"/>
                <path d="m26.814 58.29q-0.99609 0.93112-1.754 1.4725-0.75789 0.54135-1.3642 0.54135-0.47639 0-0.86616-0.36811-0.36812-0.38977-0.69293-1.2343-0.67127 0.58466-1.6457 0.99608-0.97442 0.38977-2.1004 0.51969-0.34647 0.0433-0.67128 0.065-0.32481 0.0216-0.62796 0.0216-3.0532 0-3.0532-2.187 0-0.25985 0.0433-0.54135 0.0433-0.28151 0.12992-0.60631 0.19489-0.71458 0.77955-1.2776 0.60631-0.58466 1.4508-1.0394 0.8445-0.47639 1.7323-0.86616 0.88781-0.41143 1.6457-0.75789 0.77955-0.36811 1.2559-0.71457 0.49804-0.34647 0.49804-0.69293 0-0.95278-0.23819-1.2776-0.2382-0.34646-0.90947-0.34646-0.47638 0-1.4725 0.0866-0.99607 0.0866-2.187 0.25984t-2.2737 0.45473l-0.10827-0.21653q0.58465-0.56301 1.4941-1.0827 0.93112-0.51969 1.9705-0.93111 1.061-0.41143 2.1004-0.64962 1.0394-0.2382 1.8839-0.2382 1.3425 0 1.9922 0.2815 0.67127 0.25985 0.88781 1.061 0.2382 0.77955 0.2382 2.3603v5.4784q0 0.77954 0.12992 1.126 0.15157 0.32481 0.67127 0.32481 0.17323 0 0.41143-0.0433 0.25984-0.0433 0.563-0.10828zm-5.067-4.7855q-0.47638 0.41143-1.2776 0.88781-0.77954 0.45474-1.5158 0.99609-0.73623 0.51969-1.0827 1.1693-0.30315 0.60631-0.30315 1.061 0 0.43308 0.25984 0.71458 0.2815 0.2815 0.77955 0.2815 0.10826 0 0.21653 0 0.12992-0.0216 0.2382-0.0433 0.43308-0.10827 0.99607-0.30315 0.58466-0.19489 1.0827-0.45473 0.5197-0.25985 0.73624-0.5197z" style="font-feature-settings:normal;font-variant-caps:normal;font-variant-ligatures:normal;font-variant-numeric:normal"/>
                <path d="m28.14 43.14h3.7894l-0.25984 6.6044q0.58465-0.54134 1.3425-0.99608 0.75789-0.47639 1.5807-0.75789 0.84451-0.30315 1.6457-0.30315 2.0571 0 3.0532 1.2776 1.0177 1.2559 1.0177 3.5729 0 2.6201-1.4292 4.3524t-4.006 2.5768q-2.5552 0.8445-5.9981 0.8445zm3.1398 16.154q2.2304-0.73624 3.4863-1.754t1.7756-2.252q0.5197-1.2343 0.5197-2.5768 0-1.4725-0.49805-2.1221-0.49804-0.64962-1.4508-0.64962-0.90946 0-1.7323 0.15158-0.8012 0.15158-1.754 0.54135z" style="font-feature-settings:normal;font-variant-caps:normal;font-variant-ligatures:normal;font-variant-numeric:normal"/>
                <path d="m42.344 42.83 5.2619 0.90947-3.5296 3.5512zm0.93112 17.193-0.563-12.061h3.8111l-0.563 12.061z" style="font-feature-settings:normal;font-variant-caps:normal;font-variant-ligatures:normal;font-variant-numeric:normal"/>
                <path d="m61.451 58.29q-0.99608 0.93112-1.754 1.4725t-1.3642 0.54135q-0.47638 0-0.86616-0.36811-0.36811-0.38977-0.69292-1.2343-0.67127 0.58466-1.6457 0.99608-0.97443 0.38977-2.1004 0.51969-0.34646 0.0433-0.67127 0.065-0.32481 0.0216-0.62797 0.0216-3.0532 0-3.0532-2.187 0-0.25985 0.0433-0.54135 0.0433-0.28151 0.12992-0.60631 0.19488-0.71458 0.77954-1.2776 0.60631-0.58466 1.4508-1.0394 0.8445-0.47639 1.7323-0.86616 0.88781-0.41143 1.6457-0.75789 0.77954-0.36811 1.2559-0.71457 0.49803-0.34647 0.49803-0.69293 0-0.95278-0.23819-1.2776-0.23819-0.34646-0.90946-0.34646-0.47639 0-1.4725 0.0866t-2.187 0.25984q-1.191 0.17324-2.2737 0.45473l-0.10827-0.21653q0.58466-0.56301 1.4941-1.0827 0.93112-0.51969 1.9705-0.93111 1.061-0.41143 2.1004-0.64962 1.0394-0.2382 1.8839-0.2382 1.3426 0 1.9922 0.2815 0.67127 0.25985 0.88781 1.061 0.23819 0.77955 0.23819 2.3603v5.4784q0 0.77954 0.12992 1.126 0.15158 0.32481 0.67128 0.32481 0.17323 0 0.41142-0.0433 0.25985-0.0433 0.563-0.10828zm-5.067-4.7855q-0.47639 0.41143-1.2776 0.88781-0.77953 0.45474-1.5158 0.99609-0.73623 0.51969-1.0827 1.1693-0.30315 0.60631-0.30315 1.061 0 0.43308 0.25985 0.71458 0.2815 0.2815 0.77954 0.2815 0.10827 0 0.21654 0 0.12992-0.0216 0.23819-0.0433 0.43308-0.10827 0.99608-0.30315 0.58466-0.19489 1.0827-0.45473 0.51969-0.25985 0.73623-0.5197z" style="font-feature-settings:normal;font-variant-caps:normal;font-variant-ligatures:normal;font-variant-numeric:normal"/>
                <path d="m71.223 60.03-0.34646-7.4273q-0.065-1.4292-0.38977-1.8839-0.30316-0.47639-0.97443-0.47639-0.51969 0-1.4508 0.2815-0.93112 0.25985-1.8189 0.82286l-0.41143 8.6832h-2.6634l-0.563-12.061h3.7894l-0.10826 2.2953q0.67127-0.75788 1.5374-1.3425 0.88781-0.58466 1.8406-0.90946 0.95277-0.32481 1.8189-0.32481 1.624 0 2.2087 0.88781 0.58466 0.86615 0.58466 2.5335 0 0.15158-0.0216 0.30315 0 0.12993 0 0.30316l-0.34647 8.3151z" style="font-feature-settings:normal;font-variant-caps:normal;font-variant-ligatures:normal;font-variant-numeric:normal"/>
              </g>
              <g fill="url(#linearGradient1021)">
                <path d="m8.2662 85.35q-1.2343 0-2.5985-0.6063-1.3425-0.62797-2.5335-1.7973-1.191-1.1693-1.9272-2.815-0.73623-1.6457-0.73623-3.7028 0-1.6024 0.47639-2.9666 0.49803-1.3859 1.3209-2.4686 0.82286-1.0827 1.8406-1.8406 1.0177-0.77954 2.0788-1.1693 1.0827-0.41142 2.0788-0.41142 0.97442 0 2.0355 0.41142 1.0827 0.41142 2.0788 1.191 1.0177 0.75788 1.8406 1.8406 0.82285 1.0827 1.2992 2.4469t0.47639 2.9666q0 2.0571-0.73624 3.7028-0.73623 1.6457-1.9055 2.815-1.1693 1.1693-2.5119 1.7973-1.3425 0.6063-2.5768 0.6063zm0.86615-1.8622q1.0177 0 1.7973-0.67128 0.77954-0.67127 1.2126-1.8622 0.45473-1.2126 0.45473-2.7934 0-2.187-0.49804-3.8111-0.49804-1.6457-1.2992-2.7284-0.8012-1.0827-1.7107-1.624-0.88782-0.54134-1.689-0.54134-0.99608 0-1.7973 0.67127-0.80119 0.64961-1.2776 1.8189-0.45474 1.1693-0.45474 2.75 0 2.317 0.49805 3.9843 0.51969 1.6674 1.3209 2.7284 0.82285 1.061 1.7323 1.5807 0.90947 0.49804 1.7107 0.49804z" style="font-feature-settings:normal;font-variant-caps:normal;font-variant-ligatures:normal;font-variant-numeric:normal"/>
                <path d="m18.54 68.03h3.7894l-0.25985 6.6044q0.58466-0.54135 1.3425-0.99609 0.75789-0.47638 1.5807-0.75788 0.84451-0.30316 1.6457-0.30316 2.0571 0 3.0532 1.2776 1.0177 1.2559 1.0177 3.5729 0 2.6201-1.4292 4.3524t-4.006 2.5768q-2.5552 0.8445-5.9981 0.8445zm3.1398 16.154q2.2304-0.73623 3.4863-1.754 1.2559-1.0177 1.7756-2.252 0.51969-1.2343 0.51969-2.5768 0-1.4725-0.49804-2.1221-0.49804-0.64961-1.4508-0.64961-0.90947 0-1.7323 0.15157-0.8012 0.15158-1.754 0.54135z" style="font-feature-settings:normal;font-variant-caps:normal;font-variant-ligatures:normal;font-variant-numeric:normal"/>
                <path d="m44.999 83.19q-0.99608 0.93112-1.754 1.4725-0.75789 0.54135-1.3642 0.54135-0.47639 0-0.86616-0.36812-0.36812-0.38977-0.69293-1.2343-0.67127 0.58466-1.6457 0.99609-0.97443 0.38977-2.1004 0.51969-0.34647 0.0433-0.67128 0.065-0.32481 0.0216-0.62796 0.0216-3.0532 0-3.0532-2.187 0-0.25985 0.0433-0.54134 0.0433-0.28151 0.12993-0.60632 0.19488-0.71458 0.77954-1.2776 0.60631-0.58465 1.4508-1.0394 0.84451-0.47639 1.7323-0.86616 0.88781-0.41142 1.6457-0.75788 0.77954-0.36812 1.2559-0.71458 0.49804-0.34646 0.49804-0.69293 0-0.95277-0.23819-1.2776-0.23819-0.34646-0.90947-0.34646-0.47638 0-1.4725 0.0866t-2.187 0.25984q-1.191 0.17323-2.2737 0.45473l-0.10827-0.21654q0.58465-0.56299 1.4941-1.0827 0.93112-0.51969 1.9705-0.93112 1.061-0.41143 2.1004-0.64962t1.8839-0.23819q1.3425 0 1.9922 0.28149 0.67127 0.25986 0.88781 1.061 0.23819 0.77954 0.23819 2.3603v5.4784q0 0.77954 0.12993 1.126 0.15158 0.3248 0.67127 0.3248 0.17323 0 0.41143-0.0433 0.25984-0.0433 0.563-0.10827zm-5.067-4.7855q-0.47638 0.41142-1.2776 0.88781-0.77954 0.45474-1.5158 0.99608-0.73624 0.5197-1.0827 1.1693-0.30315 0.60632-0.30315 1.061 0 0.43308 0.25984 0.71458 0.2815 0.2815 0.77954 0.2815 0.10827 0 0.21654 0 0.12993-0.0216 0.2382-0.0433 0.43308-0.10827 0.99608-0.30315 0.58466-0.19489 1.0827-0.45473 0.5197-0.25985 0.73624-0.5197z" style="font-feature-settings:normal;font-variant-caps:normal;font-variant-ligatures:normal;font-variant-numeric:normal"/>
                <path d="m54.771 84.92-0.34647-7.4273q-0.065-1.4292-0.38977-1.8839-0.30315-0.47639-0.97442-0.47639-0.5197 0-1.4508 0.2815-0.93112 0.25985-1.8189 0.82285l-0.41142 8.6832h-2.6634l-0.56301-12.061h3.7894l-0.10827 2.2953q0.67127-0.75788 1.5374-1.3425 0.88781-0.58466 1.8406-0.90946 0.95277-0.32482 1.8189-0.32482 1.624 0 2.2087 0.88782 0.58466 0.86615 0.58466 2.5335 0 0.15158-0.0216 0.30315 0 0.12992 0 0.30315l-0.34646 8.3151z" style="font-feature-settings:normal;font-variant-caps:normal;font-variant-ligatures:normal;font-variant-numeric:normal"/>
                <path d="m74.018 83.19q-0.93112 0.86616-1.7756 1.4508-0.82285 0.56301-1.4725 0.56301-0.51969 0-0.88781-0.45473-0.34646-0.45474-0.49804-1.5591-0.8012 0.86616-2.0571 1.4508-1.2559 0.56301-2.8583 0.56301-2.0571 0-3.0749-1.2776-0.99608-1.2992-0.99608-3.5946 0-5.9548 8.4883-7.5139l-0.21654-4.7855h3.7894l-0.30315 13.144v0.58465q0 0.77954 0.12992 1.126 0.15158 0.32481 0.67127 0.32481 0.17323 0 0.41142-0.0433 0.25985-0.0433 0.56301-0.10827zm-5.0887-9.3545q-2.815 1.191-4.0493 2.7934t-1.2343 3.5296q0 1.4725 0.49804 2.1437 0.49804 0.67127 1.4508 0.67127 0.95278 0 1.8189-0.2382 0.88782-0.25984 1.8839-0.75788z" style="font-feature-settings:normal;font-variant-caps:normal;font-variant-ligatures:normal;font-variant-numeric:normal"/>
                <path d="m87.463 78.9q0 1.4292-0.58466 2.5985-0.58465 1.1476-1.5374 1.9705-0.95277 0.82285-2.0571 1.2776-1.1044 0.43308-2.1437 0.43308t-2.1437-0.43308q-1.1044-0.45474-2.0788-1.2776-0.95278-0.82285-1.5591-1.9705-0.58465-1.1693-0.58465-2.5985t0.58465-2.5985q0.60631-1.1693 1.5591-1.9922 0.97442-0.8445 2.0788-1.2776 1.1044-0.45473 2.1437-0.45473t2.1437 0.45473q1.1044 0.43309 2.0571 1.2776 0.95278 0.82285 1.5374 1.9922 0.58466 1.1693 0.58466 2.5985zm-5.6733 4.7206q1.1477 0 1.754-0.82285 0.60631-0.8445 0.60631-3.0316 0-1.9488-0.60631-3.1831-0.58466-1.2343-1.4292-1.7973-0.8445-0.58465-1.624-0.58465-0.75789 0-1.2992 0.34646-0.54135 0.34647-0.82285 1.191-0.2815 0.82285-0.2815 2.2953 0 1.3209 0.34646 2.3603 0.36812 1.0394 0.93112 1.7756 0.563 0.71458 1.191 1.0827 0.64961 0.36811 1.2343 0.36811z" style="font-feature-settings:normal;font-variant-caps:normal;font-variant-ligatures:normal;font-variant-numeric:normal"/>
                <path d="m91.19 85.42-1.7323-4.4391 5.2619 0.90947z" style="font-feature-settings:normal;font-variant-caps:normal;font-variant-ligatures:normal;font-variant-numeric:normal"/>
              </g>
              <g fill="url(#linearGradient1067)" stroke-width=".40296">
                <path d="m0.14731 8.0486 2.2953-3.6808 2.254 3.2259zm0.47561 12.697 1.2614-12.035 1.1374 0.062036 1.613 12.738z" style="font-feature-settings:normal;font-variant-caps:normal;font-variant-ligatures:normal;font-variant-numeric:normal"/>
                <path d="m18.506 17.228-0.2895-7.8581-6.0384 0.84783-0.24815 7.0103h-2.6676l-0.57901-16.13h3.8256l-0.22747 6.3897 5.9142 1.0546-0.26883-7.4443h3.867l-0.57901 16.13z" style="font-feature-settings:normal;font-variant-caps:normal;font-variant-ligatures:normal;font-variant-numeric:normal"/>
                <path d="m36.531 11.482q0 1.3648-0.55834 2.4815-0.55834 1.096-1.4682 1.8818-0.90984 0.78581-1.9645 1.22-1.0546 0.4136-2.0472 0.4136t-2.0472-0.4136q-1.0546-0.43427-1.9852-1.22-0.90988-0.78581-1.4889-1.8818-0.55834-1.1166-0.55834-2.4815 0-1.3648 0.55834-2.4815 0.57901-1.1167 1.4889-1.9025 0.93056-0.80648 1.9852-1.22 1.0546-0.43427 2.0472-0.43427t2.0472 0.43427q1.0546 0.4136 1.9645 1.22 0.90988 0.78581 1.4682 1.9025 0.55834 1.1166 0.55834 2.4815zm-5.4178 4.5079q1.096 0 1.675-0.78581 0.57901-0.80648 0.57901-2.895 0-1.8611-0.57901-3.0398-0.55834-1.1787-1.3648-1.7164-0.80648-0.55834-1.5509-0.55834-0.72376 0-1.2407 0.33086-0.51696 0.33086-0.78581 1.1374-0.26883 0.78581-0.26883 2.192 0 1.2614 0.33086 2.254 0.35154 0.99257 0.88917 1.6957 0.53763 0.68241 1.1374 1.034 0.62036 0.35154 1.1787 0.35154z" style="font-feature-settings:normal;font-variant-caps:normal;font-variant-ligatures:normal;font-variant-numeric:normal"/>
                <path d="m39.343 17.228-0.55834-16.13h3.7015l-0.55834 16.13z" style="font-feature-settings:normal;font-variant-caps:normal;font-variant-ligatures:normal;font-variant-numeric:normal"/>
                <path d="m56.763 15.576q-0.95123 0.88917-1.675 1.4062-0.72376 0.51696-1.3028 0.51696-0.45494 0-0.82716-0.35154-0.35154-0.37222-0.66174-1.1787-0.64103 0.55834-1.5716 0.95123-0.93056 0.37222-2.0059 0.49628-0.33086 0.04136-0.64103 0.06204-0.31018 0.02067-0.59968 0.02067-2.9157 0-2.9157-2.0886 0-0.24815 0.04136-0.51696 0.04135-0.26882 0.12407-0.57901 0.18611-0.68241 0.74443-1.22 0.57901-0.55834 1.3855-0.99257 0.80648-0.45494 1.6543-0.82716 0.84783-0.39289 1.5716-0.72376 0.74443-0.35154 1.1994-0.68241 0.47561-0.33086 0.47561-0.66174 0-0.90988-0.22747-1.22-0.22747-0.33086-0.8685-0.33086-0.45494 0-1.4062 0.082716t-2.0886 0.24815q-1.1374 0.16543-2.1713 0.43427l-0.1034-0.20679q0.55834-0.53763 1.4268-1.034 0.88917-0.49629 1.8818-0.88917 1.0133-0.3929 2.0059-0.62036 0.99257-0.22747 1.7991-0.22747 1.2821 0 1.9025 0.26882 0.64103 0.24815 0.84783 1.0133 0.22747 0.74443 0.22747 2.254v5.2316q0 0.74443 0.12407 1.0753 0.14476 0.31018 0.64103 0.31018 0.16543 0 0.3929-0.04136 0.24815-0.04136 0.53763-0.10339zm-4.8387-4.57q-0.45494 0.3929-1.22 0.84783-0.74443 0.43427-1.4475 0.95123-0.70308 0.49629-1.034 1.1167-0.28951 0.57901-0.28951 1.0133 0 0.4136 0.24815 0.68241 0.26883 0.26882 0.74443 0.26882 0.1034 0 0.20679 0 0.12407-0.02067 0.22747-0.04136 0.4136-0.1034 0.95123-0.28951 0.55834-0.18611 1.034-0.43427 0.49628-0.24815 0.70308-0.49628z" style="font-feature-settings:normal;font-variant-caps:normal;font-variant-ligatures:normal;font-variant-numeric:normal"/>
                <path d="m59.81 13.259-0.4136-12.138 4.053-0.45494-2.4815 12.593zm-1.4682 0.57901 4.5079 0.78581-2.4815 3.0398z" style="font-feature-settings:normal;font-variant-caps:normal;font-variant-ligatures:normal;font-variant-numeric:normal"/>
              </g>
              </g>
              <g transform="translate(-140.74 -.20285)">
              <g fill="url(#linearGradient1079)" stroke-width=".40296">
                <path d="m140.9 8.0486 2.2953-3.6808 2.254 3.2259zm0.47562 12.697 1.2614-12.035 1.1374 0.06204 1.613 12.738z" style="font-feature-settings:normal;font-variant-caps:normal;font-variant-ligatures:normal;font-variant-numeric:normal"/>
                <path d="m159.26 17.228-0.2895-7.8581-6.0384 0.84783-0.24814 7.0103h-2.6676l-0.57901-16.13h3.8256l-0.22747 6.3897 5.9142 1.0546-0.26883-7.4443h3.867l-0.57902 16.13z" style="font-feature-settings:normal;font-variant-caps:normal;font-variant-ligatures:normal;font-variant-numeric:normal"/>
                <path d="m177.28 11.482q0 1.3648-0.55834 2.4815-0.55834 1.096-1.4682 1.8818-0.90989 0.78577-1.9645 1.22-1.0546 0.4136-2.0472 0.4136t-2.0472-0.4136q-1.0546-0.43427-1.9852-1.22-0.90989-0.78581-1.4889-1.8818-0.55834-1.1166-0.55834-2.4815 0-1.3648 0.55834-2.4815 0.57901-1.1167 1.4889-1.9025 0.93055-0.80648 1.9852-1.22 1.0546-0.43427 2.0472-0.43427t2.0472 0.43427q1.0546 0.4136 1.9645 1.22 0.90988 0.78581 1.4682 1.9025 0.55834 1.1166 0.55834 2.4815zm-5.4178 4.5079q1.096 0 1.675-0.78577 0.57901-0.80648 0.57901-2.895 0-1.8611-0.57901-3.0398-0.55834-1.1787-1.3648-1.7164-0.80648-0.55834-1.5509-0.55834-0.72376 0-1.2407 0.33086-0.51696 0.33086-0.78581 1.1374-0.26883 0.78581-0.26883 2.192 0 1.2614 0.33086 2.254 0.35154 0.99257 0.88917 1.6957 0.53763 0.68241 1.1374 1.034 0.62035 0.35154 1.1787 0.35154z" style="font-feature-settings:normal;font-variant-caps:normal;font-variant-ligatures:normal;font-variant-numeric:normal"/>
                <path d="m180.1 17.228-0.55834-16.13h3.7015l-0.55834 16.13z" style="font-feature-settings:normal;font-variant-caps:normal;font-variant-ligatures:normal;font-variant-numeric:normal"/>
                <path d="m197.52 15.576q-0.95122 0.88917-1.675 1.4062-0.72376 0.517-1.3028 0.51696-0.45494 0-0.82716-0.35154-0.35153-0.37222-0.66174-1.1787-0.64103 0.55834-1.5716 0.95123-0.93056 0.37222-2.0059 0.49628-0.33086 0.04136-0.64102 0.06204-0.31019 0.02067-0.59969 0.02067-2.9157 0-2.9157-2.0886 0-0.24814 0.0414-0.51696 0.0414-0.26882 0.12407-0.57901 0.18611-0.68241 0.74443-1.22 0.57902-0.55834 1.3855-0.99257 0.80648-0.45494 1.6543-0.82716 0.84783-0.39289 1.5716-0.72376 0.74442-0.35154 1.1994-0.68241 0.47561-0.33086 0.47561-0.66174 0-0.90988-0.22747-1.22-0.22746-0.33086-0.8685-0.33086-0.45494 0-1.4062 0.08272-0.95122 0.08272-2.0886 0.24815-1.1374 0.16543-2.1713 0.43427l-0.10339-0.20679q0.55834-0.53763 1.4268-1.034 0.88917-0.49628 1.8818-0.88917 1.0133-0.3929 2.0058-0.62036 0.99258-0.22747 1.7991-0.22747 1.2821 0 1.9025 0.26882 0.64102 0.24815 0.84782 1.0133 0.22747 0.74443 0.22747 2.254v5.2316q0 0.74443 0.12407 1.0753 0.14476 0.31019 0.64103 0.31019 0.16543 0 0.3929-0.04136 0.24814-0.04136 0.53763-0.1034zm-4.8387-4.57q-0.45494 0.3929-1.22 0.84783-0.74443 0.43427-1.4475 0.95123-0.70309 0.49629-1.034 1.1167-0.28951 0.57901-0.28951 1.0133 0 0.41356 0.24815 0.68241 0.26883 0.26882 0.74443 0.26882 0.10339 0 0.20679 0 0.12407-0.02067 0.22747-0.04135 0.41359-0.1034 0.95122-0.28951 0.55835-0.1861 1.034-0.43427 0.49628-0.24814 0.70308-0.49628z" style="font-feature-settings:normal;font-variant-caps:normal;font-variant-ligatures:normal;font-variant-numeric:normal"/>
                <path d="m200.56 13.259-0.4136-12.138 4.053-0.45494-2.4815 12.593zm-1.4682 0.57901 4.5079 0.78581-2.4815 3.0398z" style="font-feature-settings:normal;font-variant-caps:normal;font-variant-ligatures:normal;font-variant-numeric:normal"/>
              </g>
              <g fill="url(#linearGradient1035)">
                <path d="m156.34 29.16q-0.53816-0.53816-1.3661-1.0763-0.82793-0.53816-1.6973-0.93143-0.84864-0.41397-1.4903-0.51746-0.14489-0.0414-0.28978-0.0414t-0.28978 0q-0.64164 0-1.0556 0.22769-0.41397 0.22768-0.41397 0.57955 0 0.33117 0.41397 0.66235 0.41397 0.31047 1.2419 0.72444 0.84864 0.41397 1.8629 0.93143 1.0142 0.49676 2.0077 1.097 0.99353 0.60026 1.7387 1.2626t0.99352 1.4075q0.18629 0.51746 0.18629 0.97282 0 1.2005-1.2212 1.9042-1.2212 0.68305-3.6222 0.68305-1.8836 0-3.498-1.0349-1.6145-1.0349-2.6701-2.6701l0.16559-0.20698q1.2833 0.99352 2.7322 1.5731 1.4489 0.55887 2.8357 0.55887 0.93143 0 1.4489-0.24839 0.53816-0.24838 0.53816-0.62095 0-0.0828-0.0414-0.20698-0.20699-0.57956-0.99353-1.1177-0.78654-0.55886-1.8628-1.1591-1.0556-0.62095-2.1733-1.3661-1.097-0.76584-1.9663-1.7387-0.47607-0.57955-0.47607-1.1798 0-0.66235 0.47607-1.2626 0.47606-0.60026 1.3454-0.97283 0.86934-0.39327 2.0285-0.39327 1.4075 0 2.6701 0.22769 1.2626 0.22768 2.2561 0.60025 1.0142 0.35187 1.5938 0.78654z" style="font-feature-settings:normal;font-variant-caps:normal;font-variant-ligatures:normal;font-variant-numeric:normal"/>
                <path d="m171.66 31.05q0 1.3661-0.55886 2.4838-0.55885 1.097-1.4696 1.8836t-1.9664 1.2212q-1.0556 0.41397-2.0491 0.41397-0.99353 0-2.0491-0.41397-1.0556-0.43466-1.987-1.2212-0.91073-0.78654-1.4903-1.8836-0.55886-1.1177-0.55886-2.4838t0.55886-2.4838q0.57955-1.1177 1.4903-1.9042 0.93143-0.80724 1.987-1.2212 1.0556-0.43467 2.0491-0.43467 0.99352 0 2.0491 0.43467 1.0556 0.41397 1.9664 1.2212 0.91073 0.78653 1.4696 1.9042 0.55886 1.1177 0.55886 2.4838zm-5.423 4.5122q1.097 0 1.6766-0.78654 0.57956-0.80724 0.57956-2.8978 0-1.8628-0.57956-3.0427-0.55886-1.1798-1.3661-1.718-0.80724-0.55886-1.5524-0.55886-0.72445 0-1.2419 0.33118-0.51746 0.33117-0.78653 1.1384-0.26909 0.78654-0.26909 2.194 0 1.2626 0.33118 2.2561 0.35187 0.99352 0.89003 1.6973 0.53816 0.68304 1.1384 1.0349 0.62096 0.35187 1.1798 0.35187z" style="font-feature-settings:normal;font-variant-caps:normal;font-variant-ligatures:normal;font-variant-numeric:normal"/>
                <path d="m175.18 40.05 2.9392-4.7813-5.1125-9.3764 3.6015-0.89003 2.6494 8.4036 5.0711-8.3208h0.28977l-5.9611 16.455z" style="font-feature-settings:normal;font-variant-caps:normal;font-variant-ligatures:normal;font-variant-numeric:normal"/>
              </g>
              <g fill="url(#linearGradient1041)">
                <path d="m145.82 52.58-0.15158 7.449h-2.7717l-0.80119-16.89h3.941l-0.0433 1.624 7.4056-1.8406v3.5079l-7.4273-0.75788-0.12992 6.0414 6.5828-1.6024v3.443z" style="font-feature-settings:normal;font-variant-caps:normal;font-variant-ligatures:normal;font-variant-numeric:normal"/>
                <path d="m167.57 58.29q-0.99609 0.93112-1.754 1.4725-0.75789 0.54135-1.3642 0.54135-0.47639 0-0.86616-0.36812-0.36812-0.38977-0.69293-1.2343-0.67127 0.58466-1.6457 0.99609-0.97442 0.38977-2.1004 0.51969-0.34647 0.0433-0.67128 0.065-0.32481 0.0216-0.62796 0.0216-3.0532 0-3.0532-2.187 0-0.25985 0.0433-0.54135t0.12992-0.60631q0.19489-0.71458 0.77955-1.2776 0.60631-0.58466 1.4508-1.0394 0.8445-0.47638 1.7323-0.86616 0.88781-0.41142 1.6457-0.75788 0.77955-0.36812 1.2559-0.71458 0.49804-0.34646 0.49804-0.69293 0-0.95277-0.23819-1.2776-0.2382-0.34646-0.90947-0.34646-0.47638 0-1.4725 0.0866-0.99607 0.0866-2.187 0.25984-1.191 0.17323-2.2737 0.45473l-0.10827-0.21654q0.58465-0.563 1.4941-1.0827 0.93112-0.5197 1.9705-0.93112 1.061-0.41142 2.1004-0.64962 1.0394-0.23819 1.8839-0.23819 1.3425 0 1.9922 0.2815 0.67127 0.25984 0.88781 1.061 0.2382 0.77954 0.2382 2.3603v5.4784q0 0.77954 0.12992 1.126 0.15157 0.32481 0.67127 0.32481 0.17323 0 0.41143-0.0433 0.25984-0.0433 0.563-0.10827zm-5.067-4.7855q-0.47638 0.41142-1.2776 0.88781-0.77954 0.45474-1.5158 0.99609-0.73623 0.51968-1.0827 1.1693-0.30315 0.60631-0.30315 1.061 0 0.43307 0.25984 0.71458 0.2815 0.2815 0.77955 0.2815 0.10826 0 0.21653 0 0.12992-0.0216 0.2382-0.0433 0.43308-0.10827 0.99607-0.30315 0.58466-0.19489 1.0827-0.45474 0.5197-0.25984 0.73624-0.51969z" style="font-feature-settings:normal;font-variant-caps:normal;font-variant-ligatures:normal;font-variant-numeric:normal"/>
                <path d="m168.89 43.14h3.7894l-0.25984 6.6044q0.58465-0.54135 1.3425-0.99609 0.75789-0.47638 1.5807-0.75788 0.84451-0.30315 1.6457-0.30315 2.0571 0 3.0532 1.2776 1.0177 1.2559 1.0177 3.5729 0 2.6201-1.4292 4.3524t-4.006 2.5768q-2.5552 0.84451-5.9981 0.84451zm3.1398 16.154q2.2304-0.73623 3.4863-1.754 1.2559-1.0177 1.7756-2.252t0.5197-2.5768q0-1.4725-0.49805-2.1221-0.49804-0.64962-1.4508-0.64962-0.90946 0-1.7323 0.15158-0.8012 0.15158-1.754 0.54135z" style="font-feature-settings:normal;font-variant-caps:normal;font-variant-ligatures:normal;font-variant-numeric:normal"/>
                <path d="m183.1 42.83 5.2619 0.90947-3.5296 3.5512zm0.93112 17.193-0.563-12.061h3.8111l-0.563 12.061z" style="font-feature-settings:normal;font-variant-caps:normal;font-variant-ligatures:normal;font-variant-numeric:normal"/>
                <path d="m202.21 58.29q-0.99608 0.93112-1.754 1.4725t-1.3642 0.54135q-0.47638 0-0.86616-0.36812-0.36811-0.38977-0.69292-1.2343-0.67127 0.58466-1.6457 0.99609-0.97443 0.38977-2.1004 0.51969-0.34646 0.0433-0.67127 0.065-0.32481 0.0216-0.62797 0.0216-3.0532 0-3.0532-2.187 0-0.25985 0.0433-0.54135t0.12992-0.60631q0.19488-0.71458 0.77954-1.2776 0.60631-0.58466 1.4508-1.0394 0.8445-0.47638 1.7323-0.86616 0.88781-0.41142 1.6457-0.75788 0.77954-0.36812 1.2559-0.71458 0.49803-0.34646 0.49803-0.69293 0-0.95277-0.23819-1.2776-0.23819-0.34646-0.90946-0.34646-0.47639 0-1.4725 0.0866t-2.187 0.25984q-1.191 0.17323-2.2737 0.45473l-0.10827-0.21654q0.58466-0.563 1.4941-1.0827 0.93112-0.5197 1.9705-0.93112 1.061-0.41142 2.1004-0.64962 1.0394-0.23819 1.8839-0.23819 1.3426 0 1.9922 0.2815 0.67127 0.25984 0.88781 1.061 0.23819 0.77954 0.23819 2.3603v5.4784q0 0.77954 0.12992 1.126 0.15158 0.32481 0.67128 0.32481 0.17323 0 0.41142-0.0433 0.25985-0.0433 0.563-0.10827zm-5.067-4.7855q-0.47639 0.41142-1.2776 0.88781-0.77953 0.45474-1.5158 0.99609-0.73623 0.51968-1.0827 1.1693-0.30315 0.60631-0.30315 1.061 0 0.43307 0.25985 0.71458 0.2815 0.2815 0.77954 0.2815 0.10827 0 0.21654 0 0.12992-0.0216 0.23819-0.0433 0.43308-0.10827 0.99608-0.30315 0.58466-0.19489 1.0827-0.45474 0.51969-0.25984 0.73623-0.51969z" style="font-feature-settings:normal;font-variant-caps:normal;font-variant-ligatures:normal;font-variant-numeric:normal"/>
                <path d="m211.98 60.03-0.34646-7.4273q-0.065-1.4292-0.38977-1.8839-0.30316-0.47639-0.97443-0.47639-0.51969 0-1.4508 0.2815-0.93112 0.25985-1.8189 0.82285l-0.41143 8.6832h-2.6634l-0.563-12.061h3.7894l-0.10826 2.2953q0.67127-0.75789 1.5374-1.3425 0.88781-0.58466 1.8406-0.90947 0.95277-0.3248 1.8189-0.3248 1.624 0 2.2087 0.8878 0.58466 0.86616 0.58466 2.5335 0 0.15157-0.0216 0.30315 0 0.12992 0 0.30315l-0.34647 8.3151z" style="font-feature-settings:normal;font-variant-caps:normal;font-variant-ligatures:normal;font-variant-numeric:normal"/>
              </g>
              <g fill="url(#linearGradient1053)">
                <path d="m149.02 85.35q-1.2343 0-2.5985-0.60631-1.3425-0.62796-2.5335-1.7973-1.191-1.1693-1.9272-2.815-0.73624-1.6457-0.73624-3.7028 0-1.6024 0.47639-2.9666 0.49803-1.3858 1.3209-2.4686 0.82287-1.0827 1.8406-1.8406 1.0177-0.77955 2.0788-1.1693 1.0827-0.41142 2.0788-0.41142 0.97441 0 2.0355 0.41142 1.0827 0.41143 2.0788 1.191 1.0177 0.75788 1.8406 1.8406 0.82285 1.0827 1.2992 2.4469t0.47639 2.9666q0 2.0571-0.73624 3.7028-0.73623 1.6457-1.9055 2.815-1.1693 1.1693-2.5119 1.7973-1.3425 0.60631-2.5768 0.60631zm0.86615-1.8622q1.0177 0 1.7973-0.67127 0.77961-0.67127 1.2126-1.8622 0.45473-1.2126 0.45473-2.7934 0-2.187-0.49804-3.8111-0.49804-1.6457-1.2992-2.7284-0.8012-1.0827-1.7107-1.624-0.88782-0.54135-1.689-0.54135-0.99608 0-1.7973 0.67128-0.8012 0.64961-1.2776 1.8189-0.45475 1.1693-0.45475 2.75 0 2.317 0.49805 3.9843 0.51969 1.6674 1.3209 2.7284 0.82285 1.061 1.7323 1.5807 0.90947 0.49804 1.7107 0.49804z" style="font-feature-settings:normal;font-variant-caps:normal;font-variant-ligatures:normal;font-variant-numeric:normal"/>
                <path d="m159.29 68.03h3.7894l-0.25985 6.6044q0.58467-0.54135 1.3425-0.99608 0.7579-0.47639 1.5807-0.75788 0.84451-0.30316 1.6457-0.30316 2.0571 0 3.0532 1.2776 1.0177 1.2559 1.0177 3.5729 0 2.6201-1.4292 4.3524t-4.006 2.5768q-2.5552 0.8445-5.9981 0.8445zm3.1398 16.154q2.2304-0.73624 3.4863-1.754 1.2559-1.0177 1.7756-2.252 0.51968-1.2343 0.51968-2.5768 0-1.4725-0.49803-2.1221-0.49804-0.64961-1.4508-0.64961-0.90947 0-1.7323 0.15158-0.80119 0.15157-1.754 0.54135z" style="font-feature-settings:normal;font-variant-caps:normal;font-variant-ligatures:normal;font-variant-numeric:normal"/>
                <path d="m185.75 83.19q-0.99607 0.93112-1.754 1.4725-0.75789 0.54135-1.3642 0.54135-0.47639 0-0.86616-0.36811-0.36812-0.38978-0.69294-1.2343-0.67127 0.58466-1.6457 0.99608-0.97443 0.38977-2.1004 0.5197-0.34647 0.0433-0.67128 0.065-0.32481 0.0216-0.62796 0.0216-3.0532 0-3.0532-2.187 0-0.25985 0.0433-0.54135t0.12993-0.60631q0.19488-0.71458 0.77954-1.2776 0.60631-0.58466 1.4508-1.0394 0.84451-0.47639 1.7323-0.86616 0.88781-0.41142 1.6457-0.75788 0.77954-0.36813 1.2559-0.71458 0.49804-0.34647 0.49804-0.69293 0-0.95278-0.2382-1.2776-0.23818-0.34646-0.90946-0.34646-0.47638 0-1.4725 0.0866t-2.187 0.25985q-1.191 0.17323-2.2737 0.45473l-0.10827-0.21654q0.58465-0.563 1.4941-1.0827 0.93112-0.51969 1.9705-0.93111 1.061-0.41143 2.1004-0.64962 1.0394-0.2382 1.8839-0.2382 1.3425 0 1.9922 0.2815 0.67127 0.25985 0.88781 1.061 0.23819 0.77954 0.23819 2.3603v5.4784q0 0.77954 0.12993 1.126 0.15158 0.32481 0.67127 0.32481 0.17323 0 0.41143-0.0433 0.25984-0.0433 0.563-0.10827zm-5.067-4.7855q-0.47638 0.41142-1.2776 0.88781-0.77954 0.45473-1.5158 0.99608-0.73624 0.51969-1.0827 1.1693-0.30316 0.60631-0.30316 1.061 0 0.43308 0.25984 0.71459 0.28151 0.2815 0.77954 0.2815 0.10827 0 0.21654 0 0.12994-0.0216 0.23821-0.0433 0.43307-0.10827 0.99607-0.30316 0.58466-0.19488 1.0827-0.45473 0.5197-0.25985 0.73624-0.5197z" style="font-feature-settings:normal;font-variant-caps:normal;font-variant-ligatures:normal;font-variant-numeric:normal"/>
                <path d="m195.53 84.92-0.34648-7.4273q-0.065-1.4292-0.38977-1.8839-0.30315-0.47639-0.97442-0.47639-0.5197 0-1.4508 0.2815-0.93112 0.25986-1.8189 0.82285l-0.41142 8.6832h-2.6634l-0.56301-12.061h3.7894l-0.10826 2.2953q0.67126-0.75788 1.5374-1.3425 0.88781-0.58465 1.8406-0.90946 0.95278-0.32481 1.8189-0.32481 1.624 0 2.2087 0.88781 0.58467 0.86616 0.58467 2.5335 0 0.15158-0.0216 0.30316 0 0.12992 0 0.30315l-0.34647 8.3151z" style="font-feature-settings:normal;font-variant-caps:normal;font-variant-ligatures:normal;font-variant-numeric:normal"/>
                <path d="m214.77 83.19q-0.93112 0.86616-1.7756 1.4508-0.82284 0.563-1.4725 0.563-0.51968 0-0.88781-0.45473-0.34645-0.45473-0.49804-1.5591-0.8012 0.86616-2.0571 1.4508-1.2559 0.563-2.8583 0.563-2.0571 0-3.0749-1.2776-0.99609-1.2992-0.99609-3.5946 0-5.9548 8.4883-7.5139l-0.21654-4.7855h3.7894l-0.30314 13.144v0.58465q0 0.77955 0.12991 1.126 0.15159 0.32481 0.67127 0.32481 0.17324 0 0.41142-0.0433 0.25986-0.0433 0.56302-0.10827zm-5.0887-9.3545q-2.815 1.191-4.0493 2.7934-1.2343 1.6024-1.2343 3.5296 0 1.4725 0.49804 2.1437 0.49804 0.67127 1.4508 0.67127 0.95279 0 1.8189-0.2382 0.88783-0.25984 1.8839-0.75788z" style="font-feature-settings:normal;font-variant-caps:normal;font-variant-ligatures:normal;font-variant-numeric:normal"/>
                <path d="m228.22 78.9q0 1.4292-0.58466 2.5985-0.58465 1.1477-1.5374 1.9705-0.95277 0.82285-2.0571 1.2776-1.1044 0.43308-2.1437 0.43308t-2.1437-0.43308q-1.1044-0.45473-2.0788-1.2776-0.95278-0.82285-1.5591-1.9705-0.58465-1.1693-0.58465-2.5985t0.58465-2.5985q0.60631-1.1693 1.5591-1.9922 0.97442-0.8445 2.0788-1.2776 1.1044-0.45473 2.1437-0.45473t2.1437 0.45473q1.1044 0.43308 2.0571 1.2776 0.95278 0.82285 1.5374 1.9922 0.58466 1.1693 0.58466 2.5985zm-5.6733 4.7206q1.1477 0 1.754-0.82286 0.60631-0.8445 0.60631-3.0316 0-1.9488-0.60631-3.1831-0.58465-1.2343-1.4292-1.7973-0.8445-0.58466-1.624-0.58466-0.75788 0-1.2992 0.34647-0.54135 0.34646-0.82286 1.191-0.2815 0.82286-0.2815 2.2953 0 1.3209 0.34646 2.3603 0.36813 1.0394 0.93112 1.7756 0.563 0.71458 1.191 1.0827 0.64961 0.36812 1.2343 0.36812z" style="font-feature-settings:normal;font-variant-caps:normal;font-variant-ligatures:normal;font-variant-numeric:normal"/>
                <path d="m231.94 85.42-1.7323-4.4391 5.2619 0.90947z" style="font-feature-settings:normal;font-variant-caps:normal;font-variant-ligatures:normal;font-variant-numeric:normal"/>
              </g>
              </g>
              <g transform="translate(-140.74 -.20285)">
              <g transform="matrix(.40296 0 0 .40296 23.374 -29.33)" fill="url(#linearGradient2447)">
                <path d="m291.66 92.76 5.6962-9.1345 5.5936 8.0055zm1.1803 31.509 3.1304-29.867 2.8225 0.15395 4.0028 31.612z" style="font-feature-settings:normal;font-variant-caps:normal;font-variant-ligatures:normal;font-variant-numeric:normal"/>
                <path d="m337.22 115.54-0.71844-19.501-14.985 2.104-0.61581 17.397h-6.62l-1.4369-40.028h9.4937l-0.56449 15.857 14.677 2.6172-0.66712-18.474h9.5964l-1.4369 40.028z" style="font-feature-settings:normal;font-variant-caps:normal;font-variant-ligatures:normal;font-variant-numeric:normal"/>
                <path d="m381.95 101.28q0 3.387-1.3856 6.1581-1.3856 2.7198-3.6435 4.6699-2.258 1.9501-4.8752 3.0277-2.6172 1.0264-5.0804 1.0264t-5.0804-1.0264q-2.6172-1.0777-4.9265-3.0277-2.258-1.9501-3.6948-4.6699-1.3856-2.7711-1.3856-6.1581t1.3856-6.1581q1.4369-2.7711 3.6948-4.7212 2.3093-2.0014 4.9265-3.0277 2.6172-1.0777 5.0804-1.0777t5.0804 1.0777q2.6172 1.0263 4.8752 3.0277 2.258 1.9501 3.6435 4.7212 1.3856 2.7711 1.3856 6.1581zm-13.445 11.187q2.7198 0 4.1567-1.9501 1.4369-2.0014 1.4369-7.1844 0-4.6186-1.4369-7.5437-1.3856-2.9251-3.387-4.2593-2.0014-1.3856-3.8488-1.3856-1.7961 0-3.079 0.82108t-1.9501 2.8225q-0.66713 1.9501-0.66713 5.4397 0 3.1304 0.82108 5.5936 0.8724 2.4632 2.2066 4.208 1.3343 1.6935 2.8225 2.5659 1.5395 0.8724 2.9251 0.8724z" style="font-feature-settings:normal;font-variant-caps:normal;font-variant-ligatures:normal;font-variant-numeric:normal"/>
                <path d="m388.93 115.54-1.3856-40.028h9.1858l-1.3856 40.028z" style="font-feature-settings:normal;font-variant-caps:normal;font-variant-ligatures:normal;font-variant-numeric:normal"/>
                <path d="m432.16 111.44q-2.3606 2.2066-4.1567 3.4896-1.7961 1.2829-3.233 1.2829-1.129 0-2.0527-0.87239-0.87239-0.92372-1.6422-2.9251-1.5908 1.3856-3.9001 2.3606-2.3093 0.92372-4.9778 1.2316-0.82108 0.10264-1.5908 0.15396-0.76976 0.0513-1.4882 0.0513-7.2358 0-7.2358-5.1831 0-0.61581 0.10264-1.2829 0.10263-0.66712 0.3079-1.4369 0.46186-1.6935 1.8474-3.0277 1.4369-1.3856 3.4383-2.4632 2.0014-1.129 4.1054-2.0527 2.104-0.97502 3.9001-1.7961 1.8474-0.8724 2.9764-1.6935 1.1803-0.82108 1.1803-1.6422 0-2.258-0.56449-3.0277-0.56449-0.82108-2.1553-0.82108-1.129 0-3.4896 0.20527t-5.1831 0.61581-5.3883 1.0777l-0.25659-0.51318q1.3856-1.3343 3.5409-2.5659 2.2066-1.2316 4.6699-2.2066 2.5146-0.97503 4.9778-1.5395 2.4632-0.56449 4.4646-0.56449 3.1817 0 4.7212 0.66713 1.5908 0.61581 2.104 2.5146 0.56449 1.8474 0.56449 5.5936v12.983q0 1.8474 0.3079 2.6685 0.35923 0.76976 1.5908 0.76976 0.41053 0 0.97503-0.10264 0.61581-0.10263 1.3342-0.25658zm-12.008-11.341q-1.129 0.97504-3.0277 2.104-1.8474 1.0777-3.5922 2.3606-1.7448 1.2316-2.5659 2.7711-0.71845 1.4369-0.71845 2.5146 0 1.0264 0.61581 1.6935 0.66713 0.66712 1.8474 0.66712 0.25659 0 0.51318 0 0.3079-0.0513 0.56449-0.10263 1.0264-0.25659 2.3606-0.71845 1.3856-0.46185 2.5659-1.0777 1.2316-0.6158 1.7448-1.2316z" style="font-feature-settings:normal;font-variant-caps:normal;font-variant-ligatures:normal;font-variant-numeric:normal"/>
                <path d="m439.72 105.69-1.0264-30.123 10.058-1.129-6.1581 31.252zm-3.6435 1.4369 11.187 1.9501-6.1581 7.5437z" style="font-feature-settings:normal;font-variant-caps:normal;font-variant-ligatures:normal;font-variant-numeric:normal"/>
              </g>
              <g transform="translate(140.75 -211.28)" fill="url(#linearGradient2459)">
                <path d="m15.588 240.44q-0.53816-0.53816-1.3661-1.0763-0.82793-0.53816-1.6973-0.93143-0.84864-0.41397-1.4903-0.51746-0.14489-0.0414-0.28978-0.0414t-0.28978 0q-0.64164 0-1.0556 0.22769-0.41396 0.22768-0.41396 0.57955 0 0.33118 0.41396 0.66235 0.41398 0.31048 1.2419 0.72445 0.84864 0.41396 1.8629 0.93142 1.0142 0.49676 2.0077 1.097 0.99352 0.60025 1.7387 1.2626 0.74515 0.66235 0.99353 1.4075 0.18628 0.51746 0.18628 0.97283 0 1.2005-1.2212 1.9042-1.2212 0.68305-3.6222 0.68305-1.8836 0-3.498-1.0349-1.6145-1.0349-2.6701-2.6701l0.16558-0.20698q1.2833 0.99352 2.7322 1.5731 1.4489 0.55886 2.8357 0.55886 0.93143 0 1.4489-0.24839 0.53816-0.24838 0.53816-0.62095 0-0.0828-0.0414-0.20698-0.20698-0.57956-0.99352-1.1177-0.78654-0.55885-1.8629-1.1591-1.0556-0.62095-2.1733-1.3661-1.097-0.76584-1.9664-1.7387-0.47606-0.57955-0.47606-1.1798 0-0.66235 0.47606-1.2626 0.47607-0.60025 1.3454-0.97282 0.86933-0.39327 2.0284-0.39327 1.4075 0 2.6701 0.22768t2.2561 0.60026q1.0142 0.35187 1.5938 0.78653z" style="font-feature-settings:normal;font-variant-caps:normal;font-variant-ligatures:normal;font-variant-numeric:normal"/>
                <path d="m30.908 242.33q0 1.3661-0.55886 2.4838-0.55885 1.097-1.4696 1.8836t-1.9664 1.2212q-1.0556 0.41397-2.0491 0.41397-0.99353 0-2.0492-0.41397-1.0556-0.43467-1.987-1.2212-0.91073-0.78654-1.4903-1.8836-0.55885-1.1177-0.55885-2.4838t0.55885-2.4838q0.57956-1.1177 1.4903-1.9042 0.93143-0.80724 1.987-1.2212 1.0556-0.43466 2.0492-0.43466 0.99352 0 2.0491 0.43466 1.0556 0.41397 1.9664 1.2212 0.91073 0.78654 1.4696 1.9042 0.55886 1.1177 0.55886 2.4838zm-5.423 4.5122q1.097 0 1.6766-0.78654 0.57955-0.80724 0.57955-2.8978 0-1.8629-0.57955-3.0427-0.55886-1.1798-1.3661-1.718-0.80724-0.55885-1.5524-0.55885-0.72445 0-1.2419 0.33117-0.51746 0.33118-0.78654 1.1384-0.26908 0.78654-0.26908 2.194 0 1.2626 0.33118 2.2561 0.35187 0.99352 0.89003 1.6973 0.53816 0.68304 1.1384 1.0349 0.62095 0.35187 1.1798 0.35187z" style="font-feature-settings:normal;font-variant-caps:normal;font-variant-ligatures:normal;font-variant-numeric:normal"/>
                <path d="m34.429 251.33 2.9392-4.7813-5.1125-9.3764 3.6015-0.89003 2.6494 8.4036 5.0711-8.3208h0.28977l-5.9611 16.455z" style="font-feature-settings:normal;font-variant-caps:normal;font-variant-ligatures:normal;font-variant-numeric:normal"/>
              </g>
              <g transform="translate(140.75 -211.28)" fill="url(#linearGradient2477)">
                <path d="m8.2662 296.63q-1.2343 0-2.5985-0.60631-1.3425-0.62796-2.5335-1.7973-1.191-1.1693-1.9272-2.815-0.73623-1.6457-0.73623-3.7028 0-1.6024 0.47638-2.9666 0.49804-1.3858 1.3209-2.4686 0.82285-1.0827 1.8406-1.8406 1.0177-0.77954 2.0788-1.1693 1.0827-0.41143 2.0788-0.41143 0.97443 0 2.0355 0.41143 1.0827 0.41142 2.0788 1.191 1.0177 0.75788 1.8406 1.8406 0.82285 1.0827 1.2992 2.4469t0.47639 2.9666q0 2.0571-0.73624 3.7028-0.73623 1.6457-1.9055 2.815-1.1693 1.1693-2.5119 1.7973-1.3425 0.60631-2.5768 0.60631zm0.86616-1.8622q1.0177 0 1.7973-0.67127 0.77955-0.67127 1.2126-1.8622 0.45473-1.2126 0.45473-2.7934 0-2.187-0.49804-3.8111-0.49804-1.6457-1.2992-2.7284-0.80119-1.0827-1.7107-1.624-0.88781-0.54134-1.689-0.54134-0.99609 0-1.7973 0.67127-0.8012 0.64961-1.2776 1.8189-0.45474 1.1693-0.45474 2.75 0 2.317 0.49805 3.9843 0.51969 1.6674 1.3209 2.7284 0.82285 1.061 1.7323 1.5808 0.90946 0.49803 1.7107 0.49803z" style="font-feature-settings:normal;font-variant-caps:normal;font-variant-ligatures:normal;font-variant-numeric:normal"/>
                <path d="m18.54 279.31h3.7894l-0.25985 6.6045q0.58466-0.54136 1.3425-0.99609 0.75789-0.47638 1.5807-0.75788 0.84451-0.30316 1.6457-0.30316 2.0571 0 3.0532 1.2776 1.0177 1.2559 1.0177 3.5729 0 2.6201-1.4292 4.3524t-4.006 2.5768q-2.5552 0.84451-5.9981 0.84451zm3.1398 16.154q2.2304-0.73623 3.4863-1.754t1.7756-2.252q0.51969-1.2343 0.51969-2.5768 0-1.4725-0.49804-2.1221t-1.4508-0.64962q-0.90946 0-1.7323 0.15158-0.8012 0.15157-1.754 0.54135z" style="font-feature-settings:normal;font-variant-caps:normal;font-variant-ligatures:normal;font-variant-numeric:normal"/>
                <path d="m44.999 294.47q-0.99608 0.93112-1.754 1.4725-0.75789 0.54136-1.3642 0.54136-0.47639 0-0.86616-0.36812-0.36812-0.38978-0.69293-1.2343-0.67127 0.58466-1.6457 0.99608-0.97443 0.38978-2.1004 0.5197-0.34646 0.0433-0.67127 0.065-0.32481 0.0216-0.62796 0.0216-3.0532 0-3.0532-2.187 0-0.25985 0.0433-0.54135t0.12993-0.60631q0.19488-0.71458 0.77953-1.2776 0.60632-0.58466 1.4508-1.0394 0.8445-0.47639 1.7323-0.86616 0.88781-0.41142 1.6457-0.75788 0.77954-0.36812 1.2559-0.71458 0.49804-0.34647 0.49804-0.69293 0-0.95277-0.23819-1.2776-0.2382-0.34646-0.90947-0.34646-0.47638 0-1.4725 0.0866t-2.187 0.25985q-1.191 0.17323-2.2737 0.45473l-0.10828-0.21654q0.58466-0.563 1.4941-1.0827 0.93112-0.5197 1.9705-0.93112 1.061-0.41143 2.1004-0.64962 1.0394-0.2382 1.8839-0.2382 1.3425 0 1.9922 0.2815 0.67127 0.25986 0.88781 1.061 0.23819 0.77954 0.23819 2.3603v5.4784q0 0.77954 0.12993 1.126 0.15158 0.3248 0.67127 0.3248 0.17323 0 0.41143-0.0433 0.25984-0.0433 0.563-0.10827zm-5.067-4.7855q-0.47639 0.41142-1.2776 0.88781-0.77954 0.45473-1.5158 0.99608-0.73624 0.5197-1.0827 1.1693-0.30316 0.60631-0.30316 1.061 0 0.43308 0.25985 0.71459 0.2815 0.2815 0.77954 0.2815 0.10827 0 0.21654 0 0.12993-0.0216 0.23819-0.0433 0.43308-0.10827 0.99609-0.30316 0.58465-0.19488 1.0827-0.45473 0.5197-0.25985 0.73624-0.51969z" style="font-feature-settings:normal;font-variant-caps:normal;font-variant-ligatures:normal;font-variant-numeric:normal"/>
                <path d="m54.771 296.2-0.34647-7.4273q-0.065-1.4292-0.38977-1.8839-0.30315-0.47639-0.97442-0.47639-0.5197 0-1.4508 0.28151-0.93112 0.25985-1.8189 0.82284l-0.41142 8.6832h-2.6634l-0.56301-12.061h3.7894l-0.10827 2.2953q0.67127-0.75789 1.5374-1.3425 0.88781-0.58466 1.8406-0.90947 0.95277-0.32481 1.8189-0.32481 1.624 0 2.2087 0.88781 0.58466 0.86616 0.58466 2.5335 0 0.15158-0.0216 0.30316 0 0.12992 0 0.30315l-0.34646 8.3151z" style="font-feature-settings:normal;font-variant-caps:normal;font-variant-ligatures:normal;font-variant-numeric:normal"/>
                <path d="m74.018 294.47q-0.93112 0.86616-1.7756 1.4508-0.82285 0.56301-1.4725 0.56301-0.51969 0-0.88781-0.45474-0.34646-0.45473-0.49804-1.5591-0.8012 0.86616-2.0571 1.4508-1.2559 0.56301-2.8583 0.56301-2.0571 0-3.0749-1.2776-0.99608-1.2992-0.99608-3.5946 0-5.9548 8.4883-7.5139l-0.21654-4.7855h3.7894l-0.30315 13.144v0.58466q0 0.77954 0.12992 1.126 0.15158 0.32481 0.67127 0.32481 0.17323 0 0.41142-0.0433 0.25985-0.0433 0.56301-0.10826zm-5.0887-9.3545q-2.815 1.191-4.0493 2.7934t-1.2343 3.5296q0 1.4725 0.49804 2.1437 0.49804 0.67127 1.4508 0.67127 0.95278 0 1.8189-0.2382 0.88782-0.25984 1.8839-0.75788z" style="font-feature-settings:normal;font-variant-caps:normal;font-variant-ligatures:normal;font-variant-numeric:normal"/>
                <path d="m87.463 290.18q0 1.4292-0.58466 2.5985-0.58465 1.1477-1.5374 1.9705-0.95277 0.82285-2.0571 1.2776-1.1044 0.43308-2.1437 0.43308t-2.1437-0.43308q-1.1044-0.45473-2.0788-1.2776-0.95278-0.82285-1.5591-1.9705-0.58465-1.1693-0.58465-2.5985t0.58465-2.5985q0.60631-1.1693 1.5591-1.9922 0.97442-0.8445 2.0788-1.2776 1.1044-0.45473 2.1437-0.45473t2.1437 0.45473q1.1044 0.43308 2.0571 1.2776 0.95278 0.82285 1.5374 1.9922 0.58466 1.1693 0.58466 2.5985zm-5.6733 4.7206q1.1477 0 1.754-0.82285 0.60631-0.8445 0.60631-3.0316 0-1.9488-0.60631-3.1831-0.58466-1.2343-1.4292-1.7973-0.8445-0.58465-1.624-0.58465-0.75789 0-1.2992 0.34646t-0.82285 1.191q-0.2815 0.82285-0.2815 2.2953 0 1.3209 0.34646 2.3603 0.36812 1.0394 0.93112 1.7756 0.563 0.71458 1.191 1.0827 0.64961 0.36812 1.2343 0.36812z" style="font-feature-settings:normal;font-variant-caps:normal;font-variant-ligatures:normal;font-variant-numeric:normal"/>
                <path d="m91.19 296.7-1.7323-4.439 5.2619 0.90946z" style="font-feature-settings:normal;font-variant-caps:normal;font-variant-ligatures:normal;font-variant-numeric:normal"/>
              </g>
              <g transform="translate(140.76 -211.28)" fill="url(#linearGradient2465)">
                <path d="m5.0614 263.86-0.15158 7.449h-2.7717l-0.8012-16.89h3.941l-0.0433 1.624 7.4056-1.8406v3.5079l-7.4273-0.75789-0.12993 6.0414 6.5828-1.6024v3.443z" style="font-feature-settings:normal;font-variant-caps:normal;font-variant-ligatures:normal;font-variant-numeric:normal"/>
                <path d="m26.813 269.57q-0.99608 0.93112-1.754 1.4725-0.75789 0.54135-1.3642 0.54135-0.47638 0-0.86615-0.36812-0.36812-0.38977-0.69293-1.2343-0.67127 0.58465-1.6457 0.99608-0.97442 0.38977-2.1004 0.51969-0.34646 0.0433-0.67127 0.065-0.32481 0.0216-0.62796 0.0216-3.0532 0-3.0532-2.187 0-0.25984 0.0433-0.54134 0.0433-0.28151 0.12992-0.60631 0.19489-0.71458 0.77954-1.2776 0.60632-0.58466 1.4508-1.0394 0.8445-0.47639 1.7323-0.86616 0.88781-0.41143 1.6457-0.75789 0.77954-0.36811 1.2559-0.71458 0.49804-0.34646 0.49804-0.69292 0-0.95278-0.23819-1.2776-0.2382-0.34646-0.90947-0.34646-0.47638 0-1.4725 0.0866-0.99608 0.0866-2.187 0.25984-1.191 0.17324-2.2737 0.45473l-0.10828-0.21653q0.58466-0.56301 1.4941-1.0827 0.93111-0.51969 1.9705-0.93112 1.061-0.41142 2.1004-0.64962 1.0394-0.23819 1.8839-0.23819 1.3425 0 1.9922 0.2815 0.67127 0.25985 0.88781 1.061 0.23819 0.77955 0.23819 2.3603v5.4784q0 0.77954 0.12993 1.126 0.15157 0.32481 0.67127 0.32481 0.17323 0 0.41143-0.0433 0.25984-0.0433 0.56299-0.10827zm-5.067-4.7855q-0.47639 0.41143-1.2776 0.88781-0.77954 0.45474-1.5158 0.99609-0.73623 0.51969-1.0827 1.1693-0.30316 0.60631-0.30316 1.061 0 0.43308 0.25985 0.71458 0.2815 0.2815 0.77954 0.2815 0.10827 0 0.21654 0 0.12992-0.0216 0.23819-0.0433 0.43308-0.10827 0.99608-0.30315 0.58466-0.19489 1.0827-0.45473 0.5197-0.25985 0.73624-0.5197z" style="font-feature-settings:normal;font-variant-caps:normal;font-variant-ligatures:normal;font-variant-numeric:normal"/>
                <path d="m28.14 254.42h3.7894l-0.25985 6.6044q0.58466-0.54135 1.3426-0.99608 0.75789-0.47639 1.5807-0.75789 0.84451-0.30315 1.6457-0.30315 2.0571 0 3.0532 1.2776 1.0177 1.2559 1.0177 3.5729 0 2.6201-1.4292 4.3524t-4.006 2.5768q-2.5552 0.84451-5.9981 0.84451zm3.1398 16.154q2.2304-0.73623 3.4863-1.754 1.2559-1.0177 1.7756-2.252 0.51969-1.2343 0.51969-2.5768 0-1.4725-0.49804-2.1221t-1.4508-0.64962q-0.90946 0-1.7323 0.15158-0.80119 0.15158-1.754 0.54135z" style="font-feature-settings:normal;font-variant-caps:normal;font-variant-ligatures:normal;font-variant-numeric:normal"/>
                <path d="m42.344 254.11 5.2619 0.90947-3.5296 3.5512zm0.93112 17.193-0.563-12.061h3.8111l-0.563 12.061z" style="font-feature-settings:normal;font-variant-caps:normal;font-variant-ligatures:normal;font-variant-numeric:normal"/>
                <path d="m61.451 269.57q-0.99608 0.93112-1.754 1.4725t-1.3642 0.54135q-0.47638 0-0.86616-0.36812-0.36811-0.38977-0.69292-1.2343-0.67127 0.58465-1.6457 0.99608-0.97443 0.38977-2.1004 0.51969-0.34646 0.0433-0.67127 0.065-0.32481 0.0216-0.62797 0.0216-3.0532 0-3.0532-2.187 0-0.25984 0.0433-0.54134 0.0433-0.28151 0.12992-0.60631 0.19488-0.71458 0.77954-1.2776 0.60631-0.58466 1.4508-1.0394 0.8445-0.47639 1.7323-0.86616 0.88781-0.41143 1.6457-0.75789 0.77954-0.36811 1.2559-0.71458 0.49803-0.34646 0.49803-0.69292 0-0.95278-0.23819-1.2776-0.23819-0.34646-0.90946-0.34646-0.47639 0-1.4725 0.0866t-2.187 0.25984q-1.191 0.17324-2.2737 0.45473l-0.10827-0.21653q0.58466-0.56301 1.4941-1.0827 0.93112-0.51969 1.9705-0.93112 1.061-0.41142 2.1004-0.64962 1.0394-0.23819 1.8839-0.23819 1.3426 0 1.9922 0.2815 0.67127 0.25985 0.88781 1.061 0.23819 0.77955 0.23819 2.3603v5.4784q0 0.77954 0.12992 1.126 0.15158 0.32481 0.67128 0.32481 0.17323 0 0.41142-0.0433 0.25985-0.0433 0.563-0.10827zm-5.067-4.7855q-0.47639 0.41143-1.2776 0.88781-0.77953 0.45474-1.5158 0.99609-0.73623 0.51969-1.0827 1.1693-0.30315 0.60631-0.30315 1.061 0 0.43308 0.25985 0.71458 0.2815 0.2815 0.77954 0.2815 0.10827 0 0.21654 0 0.12992-0.0216 0.23819-0.0433 0.43308-0.10827 0.99608-0.30315 0.58466-0.19489 1.0827-0.45473 0.51969-0.25985 0.73623-0.5197z" style="font-feature-settings:normal;font-variant-caps:normal;font-variant-ligatures:normal;font-variant-numeric:normal"/>
                <path d="m71.223 271.31-0.34646-7.4273q-0.065-1.4292-0.38977-1.8839-0.30316-0.47639-0.97443-0.47639-0.51969 0-1.4508 0.2815-0.93112 0.25985-1.8189 0.82285l-0.41143 8.6832h-2.6634l-0.563-12.061h3.7894l-0.10826 2.2953q0.67127-0.75789 1.5374-1.3425 0.88781-0.58466 1.8406-0.90947 0.95277-0.3248 1.8189-0.3248 1.624 0 2.2087 0.88781 0.58466 0.86615 0.58466 2.5335 0 0.15157-0.0216 0.30315 0 0.12993 0 0.30316l-0.34647 8.3151z" style="font-feature-settings:normal;font-variant-caps:normal;font-variant-ligatures:normal;font-variant-numeric:normal"/>
              </g>
              </g>
                </svg>
