
<svg width="25" height="26" version="1.1" viewBox="0 0 6.6146 6.8792" xmlns="http://www.w3.org/2000/svg" xmlns:cc="http://creativecommons.org/ns#" xmlns:dc="http://purl.org/dc/elements/1.1/" xmlns:rdf="http://www.w3.org/1999/02/22-rdf-syntax-ns#">
 <defs>
  <filter id="filter900" x="-.024055" y="-.023945" width="1.0481" height="1.0479" color-interpolation-filters="sRGB">
   <feGaussianBlur stdDeviation="0.042238433"/>
  </filter>
  <filter id="filter1218" x="-.19244" y="-.19156" width="1.3849" height="1.3831" color-interpolation-filters="sRGB">
   <feGaussianBlur stdDeviation="0.33790746"/>
  </filter>
  <filter id="filter1320" x="-.0060136" y="-.0059864" width="1.012" height="1.012" color-interpolation-filters="sRGB">
   <feGaussianBlur stdDeviation="0.010559458"/>
  </filter>
 </defs>
 <g transform="matrix(1.1166 0 0 1.1166 -.37296 -324.35)">
  <g fill="none">
   <path d="m4.7988 292.06c-0.36999-0.43861-0.92269-0.62122-1.4835-0.61542-1.1554 0-2.0971 0.94138-2.0981 2.0971 0 0.37016 0.0968 0.73025 0.27967 1.0491l-0.2966 1.0872 1.1123-0.29157c0.30771 0.16746 0.65244 0.25523 1.0028 0.25532h1e-3c1.1557 0 2.0971-0.94138 2.0981-2.0981 5.3e-4 -0.55682-0.22118-1.0908-0.61595-1.4835zm-1.4835 3.2266c-0.31247 1.1e-4 -0.6192-0.084-0.88794-0.24341l-0.0635-0.0381-0.65987 0.17303 0.17621-0.64373-0.0413-0.0664c-0.17467-0.27773-0.26705-0.59927-0.26643-0.92736 0-0.95938 0.78237-1.742 1.7439-1.742 0.46265-8.3e-4 0.90649 0.18309 1.233 0.51091 0.3276 0.32655 0.51124 0.7704 0.51011 1.233-1e-3 0.96282-0.78343 1.7441-1.7441 1.7441zm0.95647-1.3054c-0.0521-0.0262-0.30956-0.15293-0.35798-0.17092-0.0482-0.0172-0.0833-0.0262-0.11774 0.0262-0.0352 0.0521-0.13573 0.17092-0.1659 0.20505-0.0302 0.0352-0.0614 0.0392-0.11377 0.0132-0.0521-0.0265-0.22119-0.0815-0.42121-0.26062-0.15611-0.1389-0.26062-0.31088-0.29184-0.363-0.0302-0.0524-3e-3 -0.0804 0.0233-0.10663 0.023-0.0233 0.0521-0.0614 0.0783-0.0916 0.0265-0.0302 0.0352-0.0524 0.0524-0.0873 0.0172-0.0354 9e-3 -0.0656-4e-3 -0.0918-0.0132-0.0262-0.11774-0.28469-0.16193-0.38894-0.0423-0.10292-0.0855-0.0886-0.11774-0.09-0.0302-2e-3 -0.0653-2e-3 -0.10054-2e-3 -0.0537 1e-3 -0.10445 0.025-0.13996 0.0653-0.0482 0.0524-0.18283 0.17912-0.18283 0.43762s0.18786 0.50694 0.21431 0.54213c0.0259 0.0352 0.36883 0.5641 0.89509 0.79164 0.12435 0.0542 0.22225 0.0863 0.29871 0.11059 0.12568 0.0402 0.23919 0.0341 0.32967 0.0212 0.10055-0.0154 0.30983-0.127 0.35402-0.2495 0.0434-0.12277 0.0434-0.22754 0.0302-0.2495-0.013-0.0222-0.0481-0.0352-0.10054-0.0614z" filter="url(#filter1218)" stroke="#0079ff" stroke-width=".3"/>
   <path d="m-129.84 96.447c-0.36999-0.43861-0.92269-0.62122-1.4835-0.61542-1.1554 0-2.0971 0.94139-2.0982 2.0971 0 0.37015 0.0968 0.73025 0.27967 1.0491l-0.2966 1.0872 1.1123-0.29157c0.30771 0.16746 0.65244 0.25523 1.0028 0.25532h1e-3c1.1557 0 2.0971-0.94138 2.0981-2.0981 5.3e-4 -0.55682-0.22118-1.0908-0.61595-1.4835zm-1.4835 3.2266c-0.31247 1.05e-4 -0.6192-0.08398-0.88794-0.24342l-0.0635-0.0381-0.65987 0.17304 0.17621-0.64373-0.0413-0.06641c-0.17467-0.27773-0.26705-0.59928-0.26643-0.92736 0-0.95938 0.78237-1.742 1.7439-1.742 0.46265-8.3e-4 0.90649 0.18309 1.233 0.51091 0.3276 0.32655 0.51124 0.7704 0.51011 1.233-1e-3 0.96282-0.78343 1.7441-1.7441 1.7441zm0.95647-1.3055c-0.0521-0.02619-0.30956-0.15293-0.35798-0.17092-0.0482-0.0172-0.0833-0.02619-0.11774 0.02619-0.0352 0.05212-0.13573 0.17092-0.1659 0.20505-0.0302 0.03519-0.0614 0.03916-0.11377 0.01323-0.0521-0.02646-0.22119-0.08149-0.42121-0.26062-0.15611-0.13891-0.26062-0.31088-0.29184-0.36301-0.0302-0.05239-3e-3 -0.08043 0.0233-0.10663 0.023-0.02328 0.0521-0.06138 0.0783-0.09155 0.0265-0.03016 0.0352-0.05239 0.0524-0.08731 0.0172-0.03545 9e-3 -0.06562-4e-3 -0.09181-0.0132-0.02619-0.11774-0.28469-0.16193-0.38894-0.0423-0.10292-0.0855-0.08863-0.11774-0.08996-0.0302-0.0019-0.0653-0.0019-0.10054-0.0019-0.0537 0.0013-0.10445 0.02502-0.13996 0.06535-0.0482 0.05239-0.18283 0.17912-0.18283 0.43762s0.18786 0.50694 0.21431 0.54213c0.0259 0.03519 0.36883 0.56409 0.89509 0.79163 0.12435 0.05424 0.22225 0.08625 0.29871 0.1106 0.12568 0.04022 0.23919 0.03413 0.32967 0.02117 0.10055-0.01535 0.30983-0.127 0.35402-0.2495 0.0434-0.12277 0.0434-0.22754 0.0302-0.2495-0.013-0.02222-0.0481-0.03519-0.10054-0.06138z" display="none" filter="url(#filter900)" stroke="#00b6ff" stroke-width=".265" onload=""/>
   <path d="m4.8161 292.04c-0.36999-0.4386-0.92269-0.62122-1.4835-0.61542-1.1554 0-2.0971 0.94139-2.0981 2.0971 0 0.37015 0.0968 0.73025 0.27967 1.0491l-0.2966 1.0872 1.1123-0.29157c0.30771 0.16746 0.65244 0.25523 1.0028 0.25532h1e-3c1.1557 0 2.0971-0.94139 2.0981-2.0982 5.3e-4 -0.55682-0.22118-1.0908-0.61595-1.4835zm-1.4835 3.2266c-0.31247 1e-4 -0.6192-0.084-0.88794-0.24342l-0.0635-0.0381-0.65987 0.17304 0.17621-0.64373-0.0413-0.0664c-0.17467-0.27773-0.26705-0.59928-0.26643-0.92737 0-0.95938 0.78237-1.742 1.7439-1.742 0.46265-8.3e-4 0.90649 0.18308 1.233 0.51091 0.3276 0.32654 0.51124 0.7704 0.51011 1.233-1e-3 0.96282-0.78343 1.7441-1.7441 1.7441zm0.95647-1.3055c-0.0521-0.0262-0.30956-0.15293-0.35798-0.17092-0.0482-0.0172-0.0833-0.0262-0.11774 0.0262-0.0352 0.0521-0.13573 0.17092-0.1659 0.20506-0.0302 0.0352-0.0614 0.0392-0.11377 0.0132-0.0521-0.0265-0.22119-0.0815-0.42121-0.26062-0.15611-0.13891-0.26062-0.31088-0.29184-0.36301-0.0302-0.0524-3e-3 -0.0804 0.0233-0.10662 0.023-0.0233 0.0521-0.0614 0.0783-0.0916 0.0265-0.0302 0.0352-0.0524 0.0524-0.0873 0.0172-0.0355 9e-3 -0.0656-4e-3 -0.0918-0.0132-0.0262-0.11774-0.2847-0.16193-0.38894-0.0423-0.10293-0.0855-0.0886-0.11774-0.09-0.0302-2e-3 -0.0653-2e-3 -0.10054-2e-3 -0.0537 1e-3 -0.10445 0.025-0.13996 0.0654-0.0482 0.0524-0.18283 0.17912-0.18283 0.43762s0.18786 0.50694 0.21431 0.54213c0.0259 0.0352 0.36883 0.56409 0.89509 0.79163 0.12435 0.0542 0.22225 0.0863 0.29871 0.1106 0.12568 0.0402 0.23919 0.0341 0.32967 0.0212 0.10055-0.0153 0.30983-0.127 0.35402-0.2495 0.0434-0.12277 0.0434-0.22755 0.0302-0.24951-0.013-0.0222-0.0481-0.0352-0.10054-0.0614z" stroke="#0cf" stroke-width=".165"/>
  </g>
  <path d="m4.7988 292.06a2.078 2.078 0 0 0-1.4835-0.61542c-1.1554 0-2.0971 0.94138-2.0981 2.0971 0 0.37016 0.0968 0.73025 0.27967 1.0491l-0.2966 1.0872 1.1123-0.29157a2.0989 2.0989 0 0 0 1.0028 0.25532h1e-3c1.1557 0 2.0971-0.94138 2.0981-2.0981a2.0897 2.0897 0 0 0-0.61595-1.4835zm-1.4835 3.2266a1.7391 1.7391 0 0 1-0.88794-0.24341l-0.0635-0.0381-0.65987 0.17303 0.17621-0.64373-0.0413-0.0664a1.7357 1.7357 0 0 1-0.26643-0.92736c0-0.95938 0.78237-1.742 1.7439-1.742a1.7357 1.7357 0 0 1 1.233 0.51091 1.7349 1.7349 0 0 1 0.51011 1.233c-1e-3 0.96282-0.78343 1.7441-1.7441 1.7441zm0.95647-1.3054c-0.0521-0.0262-0.30956-0.15293-0.35798-0.17092-0.0482-0.0172-0.0833-0.0262-0.11774 0.0262-0.0352 0.0521-0.13573 0.17092-0.1659 0.20505-0.0302 0.0352-0.0614 0.0392-0.11377 0.0132-0.0521-0.0265-0.22119-0.0815-0.42121-0.26062-0.15611-0.1389-0.26062-0.31088-0.29184-0.363-0.0302-0.0524-3e-3 -0.0804 0.0233-0.10663 0.023-0.0233 0.0521-0.0614 0.0783-0.0916 0.0265-0.0302 0.0352-0.0524 0.0524-0.0873 0.0172-0.0355 9e-3 -0.0656-4e-3 -0.0918-0.0132-0.0262-0.11774-0.28469-0.16193-0.38894-0.0423-0.10292-0.0855-0.0886-0.11774-0.09-0.0302-2e-3 -0.0653-2e-3 -0.10054-2e-3a0.19288 0.19288 0 0 0-0.13996 0.0654c-0.0482 0.0524-0.18283 0.17912-0.18283 0.43762s0.18786 0.50694 0.21431 0.54213c0.0259 0.0352 0.36883 0.5641 0.89509 0.79164 0.12435 0.0542 0.22225 0.0863 0.29871 0.11059 0.12568 0.0402 0.23919 0.0341 0.32967 0.0212 0.10055-0.0153 0.30983-0.127 0.35402-0.2495 0.0434-0.12277 0.0434-0.22754 0.0302-0.2495-0.013-0.0222-0.0481-0.0352-0.10054-0.0614z" fill="#e5ffff" filter="url(#filter1320)" stroke="#3bffff" stroke-linecap="round" stroke-linejoin="round" stroke-width=".07"/>
 </g>
</svg>
