
<svg class="rounded" _ngcontent-kde-c101="" version="1.1" viewBox="0 0 158.57 79.52" xmlns="http://www.w3.org/2000/svg" xmlns:cc="http://creativecommons.org/ns#" xmlns:dc="http://purl.org/dc/elements/1.1/" xmlns:rdf="http://www.w3.org/1999/02/22-rdf-syntax-ns#">

 <g transform="translate(0 -217.48)" _ngcontent-kde-c101="">
  <path d="m84.519 217.31c-0.01525 0.0108 0.09684 0.0343 0.46906 0.44419 2.1161 2.3303 4.0275 5.3101 0.64239 7.4127-0.38682 0.24021-0.36594 0.39062-0.28694 1.2448 0.07907 0.85431 0.21634 2.4125 0.30919 3.4722 0.09305 1.0598 0.14181 1.6212 0.20468 1.9944 0.06297 0.3732 0.14009 0.55845 0.40226 0.49672 0.26229-0.0617 0.70981-0.3704 1.0954-0.84852 1.8331-2.2732 3.1081-3.9516 6.2367-2.4758 0.3433 0.16201 0.40502 0.31629 0.32789 0.63252-0.07709 0.31622-0.29316 0.79457-0.65951 1.2997-0.3664 0.50524-0.88319 1.0375-1.3614 1.4501-0.47824 0.41267-0.91799 0.7059-1.4502 0.84467-1.3376 0.34897-1.8282-0.19185-2.9156-0.30467-0.40879-0.0425-0.86397 0.0579-1.1493 0.2584-0.28538 0.20055-0.40112 0.50145-0.4784 1.1301-0.07724 0.62866-0.11615 1.5853-0.07403 2.1291 0.04226 0.54384 0.16582 0.67502 0.36239 0.71353 0.19668 0.0386 0.46672-0.0154 0.75974-0.19278 0.29314-0.17735 0.60947-0.47825 1.0066-0.77131 1.8111-1.3362 5.875-0.78784 6.4755 0.74023 0.1349 0.34329-0.12734 0.72909-0.55152 1.1995-0.42422 0.47052-1.0106 1.026-1.5581 1.3653-1.1231 0.69607-3.3085 0.82439-4.389 0.0618-0.59234-0.41814-0.46832-1.0756-0.87741-1.3172-0.24494-0.14473-0.67306-0.14072-0.96229-0.10608-0.28925 0.0347-0.43975 0.10035-0.52646 1.3981-0.08676 1.2978-0.11013 3.828-0.04829 5.0466 0.06172 1.2188 0.20829 1.1263 0.45896 0.88331 0.69224-0.67077 1.2685-1.377 2.1367-1.8513 0.37406-0.20446 0.72124-0.30474 1.0336-0.23151 0.3124 0.0733 0.59013 0.32022 0.8948 0.45128 0.30468 0.13112 0.63642 0.14663 1.0105-0.0771 0.37406-0.22362 0.79071-0.68636 1.1994-1.0333 0.40878-0.34712 0.81001-0.57863 1.3268-0.65952 0.96115-0.15074 1.9421 0.10882 2.7706 0.59191 0.38693 0.22573 0.86006 0.52297 1.0066 0.8083 0.14661 0.28551-0.03346 0.55911-0.347 0.96579-0.31367 0.40679-0.76117 0.94687-1.2008 1.3055-0.43962 0.35863-0.87157 0.53609-1.418 0.59214-1.4228 0.14599-1.7064-0.17128-2.5955-1.049-0.24422-0.24106-0.49117-0.35695-0.89608-0.40324-0.40501-0.0464-0.96807-0.0231-1.4347 0.1504-0.46672 0.17361-0.83698 0.49758-1.3654 1.0955-0.52841 0.59791-1.2152 1.4698-1.7011 2.3029-0.48606 0.8332-0.77152 1.6277-0.94123 3.1049-0.16968 1.4772-0.22396 3.6373-0.26638 5.072-0.04253 1.4348-0.07333 2.1446-0.07333 2.7924 0 0.64789 0.03079 1.2342 0.13882 1.5273 0.10803 0.29312 0.29312 0.29312 0.77129 0.10823 0.47824-0.18516 1.2498-0.55552 2.2987-1.0876 1.049-0.53219 2.3758-1.2265 3.1547-1.697 0.77902-0.47051 1.0105-0.71737 1.0721-1.0182 0.19913-0.97048-0.55151-0.81672-1.0798-0.84075-0.33933-0.0154-0.72513-0.1388-1.0336-0.43963-0.30857-0.30082-0.53997-0.77919-0.67107-1.3962-0.13112-0.61701-0.16202-1.373-0.05402-2.0749 0.10803-0.7019 0.35485-1.35 0.57073-1.8667 0.216-0.51673 0.40124-0.90258 0.72513-0.87947 0.32389 0.0233 0.78681 0.4553 1.2882 0.92568 0.67957 0.6378 1.9656 1.7254 2.0518 2.692 0.03844 0.432-0.10033 0.91037-0.24684 1.3808-0.14654 0.47051-0.3009 0.93342-0.3625 1.3113-0.06173 0.37791-0.03091 0.67114 0.17734 0.71746 0.20822 0.0464 0.59402-0.15441 1.0644-0.37029 0.47049-0.216 1.026-0.44741 1.5735-0.74045 0.54764-0.29311 1.0877-0.64803 1.3653-0.97971 0.27769-0.33163 0.29312-0.64018 0.28546-0.9178-0.03874-1.3832-1.8495-1.1128-2.1521-2.746-0.27979-1.5102 1.0466-3.9918 2.2137-3.7102 0.22377 0.054 0.48602 0.25461 0.81768 0.53223 0.83165 0.69635 2.2708 1.8489 1.8127 3.0854-0.15428 0.41644-0.50912 0.89484-0.7714 1.3036-0.26228 0.40876-0.43197 0.74819-0.47825 1.0875-0.0463 0.3394 0.0308 0.67892 0.2545 0.75596 0.48351 0.1667 3.2295-1.6989 3.61-2.044 0.33165-0.30082 0.43963-0.59404 0.40879-0.94879-0.10104-1.1615-0.87919-1.1347-1.5813-1.6506-1.7939-1.3182-0.9689-2.9702-0.0866-4.4209 0.34706-0.57071 0.68355-1.2221 1.0678-1.3471 0.81313-0.2647 3.934 2.5572 2.1969 5.552-0.22373 0.38563-0.4243 0.60169-0.53218 0.8408-0.65324 1.4463 0.63223 1.0462 1.3574 0.65563 0.40112-0.21601 0.77152-0.44741 1.0337-0.76362 0.26224-0.31623 0.41653-0.71747 0.6093-1.1378 0.40862-0.89029 0.83903-1.6368 1.7202-2.1289 1.0475-0.58481 5.2282-1.0993 5.9042-0.28865 0.17506 0.21-0.3033 0.51858-0.58092 0.86179-0.27769 0.34329-0.35484 0.72131-0.44876 1.1052-0.26796 1.0942-0.93972 1.8938-1.9049 2.4715-1.7239 1.0317-3.4812 0.13126-4.8826 0.54767-0.53231 0.15813-1.1728 0.55169-1.7591 0.90653-0.58627 0.35486-1.1185 0.67119-1.4771 0.8833-0.35875 0.21208-0.54386 0.32008-0.56697 0.45508-0.0232 0.1349 0.11573 0.29701 0.55142 0.31629 0.43588 0.0193 1.1686-0.10428 1.9014-0.12342 0.73275-0.0193 1.4655 0.0656 2.0958 0.35535 0.63035 0.28988 1.1581 0.78492 1.5551 1.2001 0.3969 0.41519 0.66318 0.75072 0.84242 1.066 0.17928 0.3154 0.27194 0.61071 0.26618 0.83341-6e-3 0.22281-0.11014 0.3732-0.46296 0.48887-0.35285 0.11574-0.95464 0.19679-1.5504 0.23729-0.94508 0.0643-2.4482 0.0462-3.309-0.35285-0.39923-0.18511-0.63067-0.4514-0.86785-0.79258-0.48464-0.69727-0.8182-2.1088-1.3999-2.3025-0.26027-0.0868-0.60745-0.0868-1.0356 0.0694-0.42807 0.15618-0.9372 0.46874-1.3363 0.76375-0.39924 0.29501-0.68852 0.57272-0.80991 0.78673-0.12159 0.21409-0.0753 0.36446 0.31234 0.47435 1.8165 0.51502 3.091 0.21453 4.1302 2.3898 0.24873 0.52066 0.3876 1.0992 0.39911 1.5562 0.0113 0.45707-0.1041 0.79258-0.4395 0.98352-0.33552 0.1909-0.89104 0.23717-1.5736 0.20256-0.68259-0.0347-1.4925-0.15051-2.1115-0.39924-0.61901-0.24877-1.0472-0.63067-1.3306-1.0471-0.72057-1.0588-0.28347-1.4022-0.28347-2.3834 0-0.32401-0.13895-0.60181-0.49757-0.61913-0.35861-0.0174-0.93718 0.22563-1.6459 0.63629-0.70884 0.4108-1.5481 0.98942-1.9734 1.3365-0.42536 0.34707-0.43698 0.46285-0.31555 0.63631 0.12146 0.17362 0.37611 0.405 0.73474 0.5785 0.35872 0.17357 0.82152 0.28935 1.2901 0.35873 0.46861 0.0694 0.94297 0.0926 1.481 0.38768 0.53796 0.29502 1.1397 0.86197 1.5446 1.452 0.4049 0.59003 0.61324 1.2034 0.72314 1.6834 0.10984 0.48012 0.12146 0.82731-0.18506 1.0586-0.30663 0.2314-0.93153 0.34729-1.7472 0.30101-0.8157-0.0464-1.8224-0.25475-2.4529-0.63645-0.63055-0.3818-0.88516-0.93731-1.0124-1.5042-0.12734-0.56694-0.12734-1.1454-0.12734-1.5214 0-0.37604 0-0.54973-0.19666-0.7868-0.19667-0.2372-0.59012-0.53809-0.9718-0.63067-0.38184-0.0924-0.7522 0.0233-1.3595 0.35859-0.60739 0.33555-1.4521 0.89108-2.6612 1.6777-1.2092 0.78662-2.783 1.8046-3.6392 2.3831-0.85629 0.57835-0.99513 0.71723-1.0819 1.018-0.08676 0.30078-0.1216 0.76374 0.0403 5.9355 0.16195 5.1719 0.52068 15.053 0.69699 20.048 0.17632 4.9955 0.49013 6.1354 0.53634 6.1875 0.04632 0.052 1.1695 0.12497 15.972 0.18874 6.2039 0.0266 95.429-0.6025 95.429-0.6025-9e-3 -0.50686-0.0267-77.913-0.0352-80.387-0.48521-0.0239-113.54-0.2208-113.56-0.2022z" fill="#dd2927" fill-opacity=".92157" fill-rule="evenodd" _ngcontent-kde-c101=""/>
  <path d="m71.564 298.15c0.21092-7e-3 0.55633-1.3916 0.57973-1.5051 0.12692-0.6125 0.37258-1.7974 0.71902-3.4541 0.34655-1.6567 0.79395-3.7858 1.1178-6.1537 0.64116-4.6863 1.4411-7.6603-2.5685-10.915-0.63056-0.51182-1.5652-0.62307-2.3141-0.28544-2.298 1.0368-4.8743 1.4602-6.7935-0.8499-0.23099-0.27803-0.0459-0.40542 0.40479-0.70799 0.45066-0.30271 1.167-0.78074 1.8026-1.0506 1.4555-0.61799 3.6974-0.22966 4.7493 1.0081 0.19486 0.22944 0.29175 0.37961 0.5811 0.44311 1.5117 0.33219 1.7353-0.78302 2.4415-1.109 0.15039-0.0694 0.27382 9e-3 0.69028 0.40879 0.41645 0.40111 1.1262 1.1263 1.4887 1.4889 0.3625 0.3625 0.37795 0.3625 0.39716-0.33168 0.1286-4.6227-1.1705-5.9894-4.5587-8.9053-1.5627-1.345-3.5519-2.6304-5.3884-3.5834-0.60935-0.31622-1.026-0.48604-1.2882-0.42432-0.26229 0.0617-0.37028 0.35494-0.37791 0.79446-0.02364 1.3368 0.35987 2.542-0.24689 3.8799-0.46807 1.0322-1.6045 1.8879-2.6226 2.3448-0.37792 0.16972-0.70192 0.27772-0.90248 0.13111-0.67713-0.4946-0.26698-4.1875 0.03861-4.8594 0.42274-0.92986 1.8255-1.3938 2.638-2.0904 0.16206-0.13882 0.3009-0.26228 0.33944-0.41645 0.03862-0.15427-0.02309-0.33953-0.35476-0.60169-0.33163-0.26228-0.93344-0.60168-1.5272-0.87162-0.59395-0.26991-1.1803-0.47058-1.6354-0.50142-0.45507-0.0309-0.77903 0.10799-1.0027 0.36257-0.22374 0.25451-0.34718 0.6248-0.38569 1.0258-0.03862 0.40112 7e-3 0.8332-0.03093 1.2188-0.03849 0.38569-0.16202 0.72508-0.4263 1.049-0.61983 0.75951-5.6189 3.9791-5.563 1.0491 0.0098-0.50147 0.05584-1.2188 0.21389-1.7934 0.52074-1.8922 2.3696-3.1837 4.3505-2.8077 0.30462 0.0579 0.58235 0.0192 0.87159-0.11952 0.28927-0.13882 0.59013-0.37804 0.39734-0.60935-0.1929-0.23144-0.87936-0.45517-1.6314-0.70191-0.75207-0.24682-1.5698-0.5169-2.0865-0.69424-0.51679-0.17738-0.73287-0.2624-0.9603-0.18526-0.22756 0.0771-0.46685 0.31645-0.63258 0.56706-0.3859 0.58332-0.36617 1.2979-0.71353 1.9476-0.98278 1.8374-2.5292 2.5785-4.5208 2.746-0.73276 0.0617-1.4425 0.0154-1.8127-0.26995-1.1623-0.89583 0.89084-3.7227 1.7818-4.5046 1.0752-0.94352 1.754-0.95779 3.0931-1.1879 0.49368-0.085 0.7868-0.17745 0.46284-0.28934-0.70705-0.24432-2.3757-0.42755-3.0629-0.0469-3.8293 2.121-8.1671-1.9332-7.5781-2.7357 0.09768-0.13309 0.37017-0.24497 0.80202-0.4532 3.1018-1.4951 5.7229-1.5854 7.5929 1.504 0.45802 0.75692 1.4588 0.5955 2.2579 0.66833 0.57273 0.0523 1.1493 0.15713 1.2409 0.0515 0.09165-0.10559-0.30185-0.42199-0.69132-0.7363-2.0369-1.6439-2.5966-3.7833-1.2575-6.1844 0.22366-0.40111 0.45518-0.72508 0.81768-0.67113 1.2126 0.1805 3.2914 3.0188 3.2706 4.628-0.0112 0.9094-0.27371 2.0944-0.20067 2.9234 0.08424 0.95171 3.044 1.448 3.7718 1.2574 0.77426-0.20287-0.29605-1.248-0.53208-1.4656-1.7244-1.5892-2.1765-2.4519-1.0723-4.628 0.26228-0.51678 0.57095-1.0414 0.79458-1.3268 0.22366-0.28534 0.3625-0.33162 0.75584-0.054 0.80333 0.56719 2.203 1.9874 2.6226 2.8772 0.73078 1.5496-0.48265 2.4773-0.8716 3.6253-0.15428 0.45505-0.10803 0.93333 0.05402 1.2496 0.34297 0.66949 2.4357 1.027 3.1202 0.9839 0.42809-0.027 0.2969-0.27391 0.0848-0.59013-0.31022-0.46251-1.0705-1.3669-0.71357-1.9399 0.57536-0.92338 1.2644 0.4559 1.5312 0.60926 0.18123 0.10428 0.26617-0.2199 0.27005-0.7713 0.0112-1.4799-0.2181-2.5443 1.0378-3.6523 0.52456-0.46273 1.2422-0.84842 1.8477-1.0682 0.60558-0.21977 1.0994-0.27379 1.3423-0.0886 0.243 0.18513 0.2351 0.60945 0.23133 1.292-0.0056 0.96766 0.10384 2.8747-0.50524 3.6409-0.62656 0.78808-1.4063 0.78481-2.2525 1.0609-0.37795 0.12329-0.7097 0.32408-0.90636 0.5323-0.19668 0.20823-0.2584 0.42424-0.23134 0.68668 0.02715 0.26261 0.14296 0.5719 0.70614 0.89998 0.56314 0.32806 1.5736 0.67525 2.9041 1.0725 1.3306 0.39734 2.9812 0.84485 4.0611 1.138 1.0799 0.29315 1.5889 0.4321 1.6352-0.0307 0.06941-0.69424-3.0906-9.2901-3.5482-10.668-0.725-2.1829-1.1571-3.6022-1.4964-4.2425-0.33941-0.64018-0.58624-0.50133-0.95643-0.0694-1.2406 1.4474-1.9303 2.4688-4.0265 2.6921-0.94098 0.10036-7.1427-0.054-7.7597-0.26225-0.61708-0.20822-0.83309-0.47051-0.69425-0.93324 1.2846-4.282 12.238-2.4695 12.465-3.1779 0.1913-0.59792-0.57618-3.53-0.97542-4.0657-0.32777-0.43986-0.79838-0.50155-1.1801-0.49777-0.38184 5e-3 -0.67508 0.0734-1.0722 0.32409-1.0887 0.68679-1.589 1.3614-2.9967 1.5157-1.6262 0.17819-3.2944-0.72582-4.5008-1.7432-0.32012-0.26993-0.5824-0.56318-0.40889-1.0181 0.44225-1.1595 2.3366-2.0817 3.4995-2.3181 0.93987-0.19124 1.6702-0.0568 2.5049 0.401 0.84613 0.464 1.0798 0.82303 1.6854 1.5042 0.216 0.24295 0.44742 0.44352 0.79062 0.52066 0.3433 0.0771 0.79847 0.0307 1.0028-0.1696 0.20444-0.20057 0.15817-0.55553-0.0112-1.2844-0.18953-0.81389-0.79269-3.4848-1.4655-3.9147-0.27767-0.17734-0.61723-0.13113-1.0028-0.0307-0.38569 0.10036-0.81768 0.25463-1.1879 0.40502-1.0056 0.40846-1.5642 0.55202-2.6725 0.58235-2.2474 0.0619-3.2238-1.0406-4.6357-2.531-0.34708-0.36639-0.56507-0.57219-0.51605-0.86793 0.04912-0.29574 0.3652-0.68166 0.91277-0.99789 2.0808-1.2016 5.6693-1.1011 7.2005 0.97186 0.25072 0.33942 0.45906 0.72509 0.75596 0.89871 0.2969 0.17356 0.6827 0.1349 0.79836-0.15818 0.11572-0.29312-0.03863-0.8408-0.25061-1.3769-0.21211-0.53607-0.48213-1.0606-0.99504-1.5889-0.91624-0.94405-2.3122-1.5532-2.5568-2.9273-0.15291-0.85916-0.03358-3.8113 0.45799-4.4384 0.28064-0.35789 0.71861-0.0556 1.297 0.35329 3.8413 2.7142 2.3107 3.3723 2.3485 6.3451 0.0083 0.60157 0.25472 1.4346 0.43208 1.9823 0.17738 0.54763 0.28538 0.8099 0.47039 0.82531 0.18512 0.0154 0.44751-0.21596 0.54008-0.62475 0.0925-0.40879 0.01526-0.99515 0.26217-1.6122 0.83732-2.0932 2.9163-2.3314 4.8596-2.4528 0.49356-0.0307 0.84852-0.0464 0.92553 0.37018 0.07711 0.41657-0.12342 1.2651-0.48591 2.0827-1.1953 2.6959-1.7468 2.5731-4.2656 2.8695-0.52441 0.0617-0.84852 0.13881-1.049 0.27756-0.20057 0.13883-0.27769 0.33952-0.1929 0.84079 0.16982 1.0038 1.0949 3.7048 1.6661 4.478 0.31623 0.42823 0.56307 0.31245 0.67107-0.0964 0.10803-0.40878 0.07711-1.1107 0.06941-1.6892-0.04268-3.1755 1.21-3.121 3.7564-3.8338 0.57851-0.16195 1.0027-0.33178 1.2495-0.14663 0.24683 0.18512 0.31641 0.72521 0.22773 1.6161-0.55574 5.5771-2.1797 3.3906-4.8056 5.5152-0.24296 0.19667-0.28925 0.38194-0.2353 0.69814 0.07724 0.45255 0.4366 1.733 0.6169 2.1561 0.10033 0.23521 0.22374 0.35096 0.2585 0.13504 0.10579-0.65776 0.38465-1.9559 1.4076-1.0608 0.52267 0.45736 0.80414 3.0647 1.0299 3.9153 0.16584 0.62489 0.34329 0.99514 0.43968 0.82934 0.09642-0.16582 0.11181-0.86785 0.20056-1.6546 0.21241-1.8848 0.68635-2.7519 2.5701-3.3007 0.58717-0.17108 0.97684-0.21358 1.2863-0.30657 0.3095-0.0931 0.53916-0.23665 0.67692 0.17747 0.30376 0.91202 0.19438 3.3197-0.27087 4.1939-0.92483 1.7377-3.1395 0.91443-3.7874 2.1288-0.12342 0.23139-0.18512 0.49379-0.01553 1.1957 0.16969 0.70203 0.57072 1.8438 1.1028 3.1706 0.53222 1.3268 1.1957 2.8386 1.7819 4.1191 0.58613 1.2804 1.0954 2.3295 1.6892 3.3322 0.59395 1.0027 1.2729 1.9593 1.643 2.2986 0.37024 0.33941 0.43197 0.0617 0.57072-0.84843 0.13882-0.91023 0.35492-2.4529 0.77136-4.7033 0.41657-2.2505 1.0338-5.2086 1.323-6.7686 0.28934-1.5601 0.25071-1.7222 0.07333-1.6375-0.17735 0.085-0.49369 0.41675-0.99114 0.92387-0.49757 0.50714-1.1764 1.1899-1.7337 1.5601-1.1164 0.7417-3.7693 0.43744-4.9512-0.20379-0.3625-0.19671-0.46285-0.41268-0.28545-0.77906 0.17745-0.3664 0.63252-0.88326 1.0915-1.3113 2.9806-2.78 3.1326-1.6417 6.1207-1.3307 0.37028 0.0386 0.73287-0.10024 1.0028-0.40479 0.26995-0.30467 0.44741-0.77526 0.59002-1.454 0.14273-0.67874 0.25074-1.5658 0.27773-2.1982 0.02701-0.63252-0.02701-1.0105-0.18116-1.2573-0.15428-0.24683-0.40891-0.36257-0.72509-0.49757-0.31622-0.13489-0.69428-0.28923-1.1031-0.28545-0.40875 5e-3 -0.84852 0.16593-1.3344 0.27768-0.48591 0.11191-1.0181 0.17362-1.5812 0.0193-1.214-0.33259-2.0284-1.2852-2.7773-2.2255-0.34707-0.43575-0.70202-0.86009-0.95265-1.1802-0.25061-0.32011-0.39723-0.53609-0.297-0.7636 0.10033-0.22756 0.44751-0.46674 0.96042-0.67497 1.2698-0.5155 2.7202-0.57984 3.9878-0.0233 1.5435 0.67818 1.8954 1.5662 2.4953 3.0005 0.17738 0.42423 0.31622 0.59401 0.64788 0.76751 0.33174 0.17349 0.85626 0.35107 1.1802 0.10047 0.58562-0.45317 0.66718-2.7748 0.46295-3.4674-0.13882-0.47051-0.43206-0.71736-0.84852-0.9178-1.1479-0.55278-2.2278-0.41308-3.417-0.6402-1.7912-0.34236-3.0826-1.5398-3.9577-3.0996-0.40164-0.71608-0.52622-1.2845-0.6419-1.6855-0.11573-0.40101-0.2226-0.63508 0.19711-0.79692 2.682-1.0349 5.4658 0.60728 6.755 2.9131 0.36343 0.64996 1.1188 2.5458 2.1521 2.3605 0.30078-0.054 0.31622-0.50146 0.30867-1.8269-0.0042-0.8121 0.24685-5.9205-0.335-6.173-0.30856-0.13392-0.94708-0.24862-1.4384-0.5339-1.1445-0.66466-1.2142-1.9872-0.91464-3.1454 0.39178-1.5149 1.6579-2.7492 2.5631-4.0595 0.19424-0.28116 0.27191-0.35769 0.36681-0.39934 0.09502-0.0418 0.24736-0.0517 0.24736-0.0517 0.04863-0.0193 0.02291-0.0592-0.01879-0.0606-8.2714 0.13811-100.6 0.0923-100.64 0.15279-0.02002 0.0327-0.2872 79.345-0.28644 80.975 1.6907-0.0185 40.638-0.0788 88.041-0.25123z" fill="#008000" fill-opacity=".71373" fill-rule="evenodd" _ngcontent-kde-c101=""/>
  <g stroke="#000" stroke-width="1.3846">
   <g stroke-opacity=".96373">
    <path d="m7.2351 270.77q-0.13664-0.0166-0.25568-0.12106-0.11387-0.09-0.27434-0.31048-0.58702-0.81969-1.5717-2.9352-0.9847-2.1155-1.6547-3.8533-0.68446-1.7326-1.0107-2.6455-0.45046-1.2606-0.76011-2.3102-0.55926-2.0224-0.9322-3.9807-0.39261-1.9676-0.371-2.776 0.04649-0.55584 0.96351-0.91619 0.37675-0.13462 0.57649-0.12437 0.21426 5e-3 0.38818 0.17176 0.11387 0.09 0.18118 0.2784 0.076623 0.16871 0.10251 0.24115 0.10873 0.3043 0.24648 0.82698 0.16986 0.6583 0.434 1.8548 1.1808 5.1338 2.3303 8.8081 0.037288 0.15009 0.078708 0.266 0.058001 0.20806 0.099422 0.32397 0.046599 0.13042 0.061088 0.12523 0.014489-5e-3 0.00932-0.0196 0.012401-0.10247-0.071592-1.0692l-0.03114-0.54444q-0.3672-4.8689 0.20039-9.0424 0.5769-4.1932 1.8435-5.953 0.54951-0.70291 1.245-0.95144 0.71002-0.25371 1.3394 0.0443 1.0258 0.40146 1.6523 2.1548 0.07249 0.20286 0.13566 0.42539 1.2904 4.1142 0.10908 8.9482-0.44067 1.6934-1.2095 3.2917-0.7688 1.5983-1.5822 2.4772l-0.30944 0.323 0.92748 0.35487q1.237 0.48939 2.0713 0.58345 0.83428 0.0941 1.7637-0.14001 0.30018-0.0746 0.4161-0.11594 0.13041-0.0466 0.18837-0.0673l0.13041-0.0466q0.11075-0.0559 0.21115-0.14075 0.24838-0.21947 0.43676-0.28678 0.17388-0.0621 0.29189-6e-3 0.088 0.0176 0.10352 0.0611 0.03003 0.0383-0.01137 0.15113-0.13347 0.35815-0.70686 0.62839-0.55892 0.26502-0.89219 0.3841-0.56512 0.20194-1.1903 0.32729-1.1634 0.21961-2.213 0.0717-1.0548-0.16233-2.5185-0.78315-0.24532-0.0921-0.43165-0.15621-0.17183-0.0693-0.20081-0.059-0.014489 5e-3 -0.057964 0.0208-0.04864 8.5e-4 -0.097315 2e-3 -0.019662-9e-3 -0.034151-4e-3 -0.057964 0.0207-0.034122 0.22462 0.16576 0.92119 0.30771 1.8672 0.15645 0.94087 0.25385 1.625 0.097408 0.68418 0.10054 0.83012 0.011435 0.30637 0.094279 0.53822 0.088019 0.24633 0.2112 0.31669 0.12732 0.0362 0.15321 0.10867 0.04142 0.11592-0.12002 0.30433-0.18524 0.21326-0.51852 0.33235-0.31878 0.11391-0.59723 0.0664zm1.1829-7.9392q1.6495-2.2888 2.3457-5.2337 0.71062-2.9501 0.35717-6.0428-0.11816-0.97088-0.25281-1.5764-0.13466-0.6055-0.37801-1.2865l-0.11391-0.31877q-0.10355-0.28981-0.18018-0.45851-0.12217-0.25047-0.3075-0.49472-0.59011-0.73688-0.92338-0.61779-0.17388 0.0621-0.46052 0.54038-0.28664 0.47825-0.51219 1.0817-1.3543 3.801-1.1959 10.281 0.024956 0.71005 0.091366 1.7648 0.080904 1.0496 0.15868 1.9532 0.087088 0.88393 0.12851 0.99986 0.036243 0.10143 0.2391 0.029 0.10143-0.0362 0.19875-0.0383 0.1066-0.0218 0.16977-0.0279 0.10249 0.0125 0.16045-9e-3 0.072453-0.0259 0.16248-0.13976 0.090059-0.11381 0.28872-0.38095 0.014489-5e-3 0.023806-0.0249z" style="font-feature-settings:normal;font-variant-caps:normal;font-variant-ligatures:normal;font-variant-numeric:normal" _ngcontent-kde-c101=""/>
    <path d="m17.098 264.53q-1.323-1.3247-1.9858-3.1794-0.33137-0.92738-0.49508-1.98-0.39689-2.8484 0.71144-4.2739 0.68924-0.76916 1.5442-1.0746 0.13041-0.0466 0.28049-0.0839 1.0309-0.27032 1.6406 0.2471 0.36751 0.34257 0.56944 0.90768 0.10355 0.2898 0.16467 0.64379 0.22484 1.4066-0.15794 2.6219-0.38796 1.2008-1.2791 1.8623l-0.31152 0.22569 0.34378 0.82491q0.57986 1.3942 1.2538 2.1828 0.7102 0.89006 0.93895 0.89001 0.24324-5e-3 0.3012-0.0259 0.33328-0.11909 0.70991-0.93996 0.77294-1.6324 1.0562-4.0866 0.14368-1.2442 0.17977-2.0578 0.05058-0.81876-0.0219-1.0216l-0.02589-0.0724q-0.01554-0.0435 0.0124-0.10247 0.04242-0.0642 0.10972-0.1045 0.07657-0.0601 0.13453-0.0808l0.07245-0.0259q0.04864-8.6e-4 0.07762-0.0115 0.21841-0.029 0.3157-0.0311 0.09732-2e-3 0.10763 0.0268 0.02487 0.0238 0.03004 0.0383 0.01554 0.0435 0.02693 0.1211l0.01554 0.0435q0.04351 0.21321 0.06325 0.68002 0.02905 0.44715-0.0029 1.4553-0.08125 3.2481-0.74341 5.0533-0.49353 1.2712-1.1362 1.7132-0.62822 0.43691-0.99047 0.56635-0.63757 0.22782-1.3497 0.15547-1.122-0.12196-2.1604-1.1072zm0.99175-5.5016q0.25144-0.53103 0.38278-1.2152 0.12617-0.6987 0.0795-1.2866-0.03628-0.33019-0.15537-0.66346-0.05178-0.1449-0.11805-0.28462-0.21951-0.47715-0.49281-0.73897l-0.13872-0.11384-0.16971 0.25673q-0.53707 0.82918-0.26969 2.8579 0.04145 0.34467 0.09845 0.73282 0.07147 0.38296 0.14501 0.63447l0.13878 0.57134 0.14695-0.18323q0.0569-0.0694 0.1604-0.23706 0.10348-0.1677 0.19247-0.33022z" style="font-feature-settings:normal;font-variant-caps:normal;font-variant-ligatures:normal;font-variant-numeric:normal" _ngcontent-kde-c101=""/>
    <path d="m29.861 270.25q-0.24744-0.41811-0.42867-0.92529-0.33137-0.92736-0.4506-2.1756-0.17317-1.948-0.01616-3.9322 0.15701-1.9843 0.47044-3.2564l0.21929-0.89538-1.2416-3.6578q-0.51986-1.5463-0.87298-2.5803t-0.36866-1.0774q-0.0238 0.0249-4e-3 0.94915 0.01981 0.92431 0.0397 2.3061 0.04279 2.2233 0.03575 3.484-7e-3 1.2607-0.08147 1.8756-0.07443 0.61484-0.2286 0.91504-0.3332 0.57659-1.0432 0.83029-0.71002 0.25371-1.2369-0.0319-0.53312-0.34873-0.9245-1.124-0.40588-0.77003-0.62334-1.3786-0.19675-0.55062-0.34589-1.1509-0.77788-3.3659 0.30978-4.6206 0.35704-0.37269 0.87869-0.55909 0.17388-0.0622 0.37263-0.10041 0.77524-0.16263 1.4046 0.13537 0.14285 0.0797 0.22153 0.11694 0.088 0.0176 0.11698 8e-3 0.01449-5e-3 0.0093-0.0196 0.04425-1.5681 0.07413-2.4448 0.02987-0.87672 0.05569-1.2618t0.05788-0.47821q0.14278-0.37782 0.35495-0.46998 0.21218-0.0922 0.22667-0.0973 0.39124-0.1398 0.7111 0.0237 0.19668 0.0931 0.42342 0.45329 0.22674 0.36017 0.58501 1.1799 0.37276 0.81453 0.97851 2.2811 0.37484 0.91183 0.68342 1.684 0.31788 0.75245 0.43076 1.0226l0.25575 0.57857 0.42528-0.82192q0.90644-1.7618 1.3131-2.3157 0.42118-0.55901 0.66752-0.64704 0.10143-0.0362 0.19457-4e-3 0.05385 0.0135 0.06416 0.0424l0.01038 0.029q1e-3 0.0487-0.07346 0.20599-0.0745 0.15733-0.26697 0.48756-0.45944 0.81778-0.9168 1.7329-0.44286 0.9099-0.71084 1.5776l-0.30005 0.76082 0.92785 2.6424q1.2489 3.5408 1.7047 5.7309 0.47545 2.1994 0.30592 3.5999-0.18405 1.1769-0.77707 1.6666-0.59302 0.48968-1.0132 0.63983-0.4492 0.16051-0.95121 0.12746-0.97505-0.0764-1.6532-1.0596zm-4.0303-10.913q0.04545-0.60449 0.09913-1.506 0.0485-0.91604 0.06802-1.8217l0.03297-0.95951-0.17597-0.0352q-0.07351-0.0228-0.25568-0.12106-0.1677-0.10348-0.36024-0.23076l-0.43478-0.30218-0.04653 0.32709q-0.05584 0.34676-0.0371 0.99368 0.03322 0.64174 0.11301 1.1851 0.08497 0.55789 0.26104 1.2793 0.19056 0.71624 0.37283 1.272 0.19157 0.53614 0.26402 0.51025 0.01449-5e-3 0.03516-0.17597 0.03517-0.17596 0.06411-0.41508zm6.2472 9.8922q0.13217-2.0081-1.5973-7.7628-0.04764-0.17906-0.08388-0.28048-0.05695-0.1594-0.08593-0.14904-0.01449 5e-3 -0.0238 0.0249-0.06519 0.13768-0.1354 1.1759-0.1683 2.5929 0.10622 4.0471 0.27971 1.4687 0.5127 2.1208 0.35208 0.98533 0.87074 1.568l0.2495 0.28667 0.09208-0.24532q0.0269-0.10765 0.04653-0.32709 0.03412-0.22462 0.04858-0.45854z" style="font-feature-settings:normal;font-variant-caps:normal;font-variant-ligatures:normal;font-variant-numeric:normal" _ngcontent-kde-c101=""/>
    <path d="m40.062 266.6q-0.24744-0.41811-0.42867-0.92528-0.33137-0.92737-0.4506-2.1756-0.17317-1.948-0.01616-3.9322 0.15701-1.9843 0.47044-3.2564l0.21929-0.89537-1.2416-3.6578q-0.51986-1.5463-0.87298-2.5803-0.35312-1.034-0.36866-1.0774-0.0238 0.0248-4e-3 0.94916 0.01981 0.92432 0.0397 2.3061 0.04279 2.2233 0.03575 3.4841-7e-3 1.2607-0.08147 1.8756-0.07443 0.61484-0.2286 0.91503-0.3332 0.5766-1.0432 0.8303-0.71002 0.25371-1.2369-0.0319-0.53312-0.34873-0.9245-1.1239-0.40587-0.77004-0.62334-1.3786-0.19675-0.55064-0.34589-1.151-0.77788-3.3659 0.30978-4.6206 0.35704-0.37268 0.87869-0.55908 0.17388-0.0622 0.37263-0.10041 0.77524-0.16263 1.4046 0.13537 0.14285 0.0797 0.22153 0.11694 0.088 0.0176 0.11698 8e-3 0.01449-5e-3 0.0093-0.0196 0.04425-1.5681 0.07413-2.4449 0.02987-0.87671 0.05569-1.2618t0.05788-0.47821q0.14278-0.37783 0.35495-0.46999 0.21218-0.0921 0.22667-0.0973 0.39124-0.1398 0.7111 0.0237 0.19668 0.0931 0.42342 0.45329 0.22674 0.36016 0.58501 1.1799 0.37276 0.81454 0.97851 2.2812 0.37484 0.91183 0.68342 1.684 0.31789 0.75245 0.43076 1.0226l0.25575 0.57855 0.42528-0.8219q0.90644-1.7618 1.3131-2.3157 0.42118-0.55901 0.66752-0.64702 0.10143-0.0362 0.19457-4e-3 0.05385 0.0135 0.06416 0.0424l0.01038 0.029q1e-3 0.0487-0.07346 0.20599-0.0745 0.15734-0.26697 0.48756-0.45944 0.81779-0.9168 1.7329-0.44286 0.9099-0.71084 1.5776l-0.30005 0.76082 0.92785 2.6424q1.2489 3.5408 1.7047 5.7309 0.47545 2.1995 0.30592 3.5999-0.18405 1.1769-0.77707 1.6666-0.59302 0.48969-1.0132 0.63984-0.4492 0.16051-0.95121 0.12747-0.97505-0.0764-1.6532-1.0597zm-4.0303-10.913q0.04545-0.60448 0.09913-1.506 0.0485-0.91605 0.06802-1.8217l0.03296-0.95952-0.17597-0.0352q-0.07351-0.0228-0.25568-0.12106-0.1677-0.10348-0.36024-0.23076l-0.43478-0.30218-0.04653 0.32709q-0.05584 0.34676-0.0371 0.99368 0.03322 0.64174 0.11301 1.1851 0.08497 0.5579 0.26104 1.2793 0.19056 0.71624 0.37283 1.272 0.19157 0.53614 0.26402 0.51025 0.01449-5e-3 0.03516-0.17597 0.03517-0.17596 0.06411-0.41507zm6.2472 9.8922q0.13217-2.0081-1.5973-7.7628-0.04764-0.17905-0.08388-0.28048-0.05695-0.15939-0.08593-0.14904-0.01449 5e-3 -0.0238 0.0249-0.06519 0.13768-0.1354 1.1759-0.1683 2.5929 0.10622 4.0471 0.27971 1.4687 0.5127 2.1208 0.35208 0.98533 0.87074 1.568l0.2495 0.28668 0.09208-0.24533q0.0269-0.10764 0.04653-0.32709 0.03412-0.22462 0.04858-0.45854z" style="font-feature-settings:normal;font-variant-caps:normal;font-variant-ligatures:normal;font-variant-numeric:normal" _ngcontent-kde-c101=""/>
    <path d="m50.539 253.12q-0.49073-0.64167-1.1875-1.8143-0.69679-1.1726-1.1151-2.0689l-0.1988-0.41918 0.01787 1.742q0.03028 1.6395 0.0045 2.4821-0.02574 0.84255-0.13436 1.2245-0.09931 0.36229-0.30422 0.56622-0.31461 0.30852-0.73483 0.45867-0.13041 0.0466-0.266 0.0787-0.57132 0.13884-1.0434-0.0847-0.68011-0.39425-1.2454-1.3361-0.57048-0.95632-0.89667-1.8692-0.14498-0.40573-0.26616-0.8363-0.68152-2.7304-0.01518-4.3411 0.50287-1.0621 1.0959-1.323 0.60753-0.26615 0.75243-0.31792 0.98533-0.35208 2.1674-0.15355 0.01449-5e-3 0.02068-0.1708 0.0061-0.16562 9.39e-4 -0.40886-0.01147-0.53513 0.07539-1.0237 0.09618-0.50824 0.22864-0.68629 0.0569-0.0694 0.18217-0.13039 0.12004-0.0757 0.25045-0.12223 0.17388-0.0621 0.29086-0.0548 0.1263-0.0124 0.29811 0.0569 0.11801 0.0558 0.25155 0.15521 0.12836 0.0849 0.19358 0.17593 0.14081 0.21113 0.32203 0.71828 0.36762 1.0288 0.92174 3.2655 0.0549 0.29085 0.34798 1.2482 0.28791 0.94291 0.61928 1.8703l0.22782 0.63756q0.47531 1.2844 0.98987 2.13 0.51457 0.84557 0.96376 0.68506l0.02898-0.0103q0.06728-0.0404 0.13973-0.0663 0.1449-0.0517 0.26188-0.0445 0.19457-4e-3 0.23602 0.11176 0.05178 0.1449-0.10758 0.43061-0.16453 0.27122-0.40878 0.45653-0.23493 0.16566-0.46678 0.2485-0.34776 0.12426-0.68521 0.0488-0.53826-0.13447-0.98548-0.56292-0.4524-0.44293-0.82821-0.94592zm-3.3828-1.1442q0.02582-0.38505 0.0878-1.1262t0.11879-1.4967q0.04027-0.61897 0.06195-0.96987 0.01651-0.36538 0.01751-0.54549-0.0042-0.19459-0.03523-0.28153-0.01658-0.0921-0.07662-0.16871-0.10042-0.14385-0.32299-0.30943-0.21326-0.18525-0.42029-0.30735-0.20704-0.12211-0.265-0.10139-0.04242 0.0642-0.10344 0.39644-0.04653 0.3271-0.08579 0.76597-0.03926 0.43888-0.02574 0.84256 0.02603 0.98744 0.23221 2.2047 0.21549 1.1975 0.49508 1.98 0.0932 0.26082 0.11287 0.27013 0.01967 9e-3 0.03415 4e-3 0.01449-5e-3 0.0321-0.0931 0.03208-0.0932 0.05997-0.38093 0.03722-0.30741 0.08269-0.68315z" style="font-feature-settings:normal;font-variant-caps:normal;font-variant-ligatures:normal;font-variant-numeric:normal" _ngcontent-kde-c101=""/>
    <path d="m54.135 251.3q-1.323-1.3247-1.9858-3.1794-0.33137-0.92738-0.49508-1.98-0.39689-2.8485 0.71145-4.2739 0.68924-0.76917 1.5442-1.0746 0.13041-0.0466 0.28049-0.0839 1.0309-0.27032 1.6406 0.24711 0.36751 0.34256 0.56944 0.90768 0.10355 0.2898 0.16467 0.64378 0.22484 1.4066-0.15795 2.6219-0.38796 1.2007-1.2791 1.8623l-0.31152 0.22569 0.34378 0.82491q0.57986 1.3942 1.2538 2.1828 0.7102 0.89005 0.93895 0.89001 0.24324-5e-3 0.3012-0.0259 0.33328-0.11908 0.70991-0.93995 0.77294-1.6324 1.0562-4.0866 0.14368-1.2442 0.17978-2.0578 0.05059-0.81875-0.0219-1.0216l-0.02589-0.0724q-0.01554-0.0435 0.01241-0.10246 0.04239-0.0642 0.10972-0.1045 0.07657-0.0601 0.13453-0.0808l0.07248-0.0259q0.04864-8.5e-4 0.07766-0.0114 0.21841-0.029 0.3157-0.0311 0.09731-2e-3 0.10763 0.0268 0.02484 0.0238 0.03001 0.0383 0.01554 0.0436 0.02695 0.12109l0.01554 0.0435q0.04348 0.21323 0.06325 0.68003 0.02905 0.44715-0.0029 1.4553-0.08123 3.2481-0.74339 5.0534-0.49353 1.2711-1.1362 1.7132-0.62822 0.4369-0.99047 0.56634-0.63757 0.22782-1.3497 0.15548-1.122-0.12196-2.1604-1.1072zm0.99175-5.5016q0.25144-0.53103 0.38278-1.2152 0.12616-0.69869 0.0795-1.2866-0.03628-0.33018-0.15537-0.66345-0.05178-0.14491-0.11805-0.28463-0.21951-0.47714-0.49281-0.73896l-0.13872-0.11384-0.16971 0.25672q-0.53707 0.82919-0.26969 2.8579 0.04145 0.34467 0.09845 0.73281 0.07147 0.38296 0.14501 0.63448l0.13878 0.57134 0.14695-0.18323q0.0569-0.0694 0.1604-0.23707 0.10348-0.1677 0.19247-0.33022z" style="font-feature-settings:normal;font-variant-caps:normal;font-variant-ligatures:normal;font-variant-numeric:normal" _ngcontent-kde-c101=""/>
   </g>
   <g fill-opacity=".90196">
    <path d="m19.169 293.34q-0.26187 0.0446-0.48857-0.0869-0.21222-0.1366-0.52798-0.56299-0.30128-0.43158-0.80135-1.2823-1.6969-2.8741-2.9809-5.7814-1.3036-2.9166-1.9923-4.8438-0.39868-1.1158-0.6928-2.1218-0.42565-1.4656-0.51065-2.2522-0.085-0.78664 0.14472-1.1955l0.1728-0.33954 0.53202-0.15736q0.4109-0.1305 0.75662-0.1233 0.34572 7e-3 0.47512 0.1407 0.01966 9e-3 0.05591 0.11074 0.03624 0.10143 0.08389 0.2805 0.11908 0.33326 0.25579 0.8073 0.32001 1.0785 0.80153 2.4261 0.48153 1.3476 1.1246 2.9643 0.77662 1.9448 1.0997 2.7117 0.32306 0.76692 0.35205 0.75656 0.01343-0.0539-0.03423-0.46162-0.03319-0.41298-0.09435-0.99573-0.5505-5.4734-0.10711-9.5371 0.10751-0.88811 0.21613-1.2701 0.12311-0.38714 0.34769-0.58177 0.2815-0.26399 0.68722-0.40897 0.40572-0.14497 0.68934-0.0829 0.52273 0.091 1.0114 0.86412 0.4835 0.75864 1.3057 2.7852 0.26197 0.64171 0.5136 1.2544 0.25162 0.61273 0.38934 0.90666l0.26715 0.65619-0.06123-1.0402q-0.09446-1.682-0.10407-3.4923-0.01478-1.8248 0.04404-2.9406 0.22418-2.7109 1.0014-3.6912 0.16144-0.18841 0.31048-0.27434 0.14385-0.10047 0.40467-0.19367l0.08694-0.0311q0.36226-0.12945 0.60654-0.086 0.29294 0.0424 0.60039 0.30837 0.80538 0.56191 1.7736 3.2716 0.15533 0.43471 0.31688 0.93256 0.58717 1.7347 1.0636 3.5253 0.48573 1.7709 1.3744 5.5384 0.57901 2.4893 0.91354 3.7913 0.34386 1.2824 0.66695 2.2781 0.13048 0.4109 0.19261 0.58477 0.06214 0.1739 0.0932 0.26083l0.0466 0.13041q0.04142 0.11592 0.08593 0.14904 0.03935 0.0187 0.10763 0.0268 0.13661 0.0165 0.16252 0.089 0.02589 0.0725 0.03107 0.0869 0.04142 0.11593 0.01765 0.36952-0.03722 0.30742-0.23281 0.4917-0.18111 0.1791-0.39846 0.25677-0.08694 0.0311-0.17905 0.0476-0.29086 0.0548-0.47199 5e-3 -0.16148-0.0404-0.32608-0.22664-0.29297-0.27114-0.62534-1.0184-0.31788-0.75245-0.84601-2.2304l-0.44528-1.2462q-0.80254-2.246-1.3297-4.1328-0.5748-2.0659-1.3703-5.5726-0.76547-3.4684-1.304-4.9754-0.07766-0.21734-0.15946-0.40054-0.31998-0.84975-0.41418-0.93047-0.07971-0.0859-0.10869-0.0756-0.08694 0.0311-0.149 0.31469-0.80486 2.6406-0.36816 8.4814 0.1763 2.0939 0.50271 4.3793 0.33573 2.2657 0.6392 3.4809 0.1253 0.3964 0.08082 0.59203-0.03516 0.17598-0.30839 0.37165-0.22976 0.18014-0.50507 0.27852-0.11592 0.0414-0.25151 0.0735-0.41192 0.0819-0.70178-0.0434-0.69147-0.24312-2.4622-5.1988-0.4867-1.3621-1.0594-3.1019-0.42148-1.271-0.73215-2.1404-0.29617-0.87458-0.33655-0.94186-0.07245 0.0259-0.14788 0.82084-0.0599 0.83842-0.09801 2.0122-0.03979 3.5928 0.60674 7.6429 0.65585 4.0305 1.6603 6.8416l0.21746 0.60858q0.08802 0.24634 0.12013 0.38192 0.058 0.20804-0.03204 0.32192-0.07036 0.12318-0.2815 0.26398-0.25874 0.1905-0.53405 0.28888-0.21735 0.0776-0.43576 0.10664z" style="font-feature-settings:normal;font-variant-caps:normal;font-variant-ligatures:normal;font-variant-numeric:normal" _ngcontent-kde-c101=""/>
    <path d="m34.799 285.91q-1.0516-0.0164-2.3127-2.311-0.17705-0.31256-0.31476-0.6065-0.14289-0.30844-0.31375-0.78661-0.19053-0.48748-0.50637-1.3714-0.73005-2.0431-0.94863-3.1579-0.22376-1.1292 0.0101-1.5723 0.05587-0.11801 0.11797-0.17288 0.0569-0.0694 0.18217-0.13039 0.13973-0.0663 0.41504-0.16463 1.0682-0.34893 1.4067 4e-3 0.04967 0.0476 0.13253 0.27946 0.1398 0.39123 0.36765 1.2576 0.36352 1.2917 0.65969 2.1663 0.31066 0.86942 0.40904 1.1447 0.3935 1.1012 0.75799 1.9841 0.44215 1.1002 0.66576 1.3144l0.01449-5e-3q0.24633-0.088 0.12763-4.4902-0.05621-1.9408-0.06361-2.9676 0.0019-1.0465 0.06601-1.4615 0.05894-0.42956 0.19244-0.55897 0.0714-0.0746 0.22564-0.14592 0.14902-0.086 0.3229-0.14811 0.23184-0.0828 0.34365-0.0901 0.1263-0.0124 0.27844 0.0476 0.16666 0.0548 0.30538 0.16867 0.13872 0.11384 0.2961 0.41709 0.1522 0.28875 0.37898 0.87767 0.23608 0.56926 0.61716 1.5442 0.75799 1.9841 1.1421 2.8763 0.39347 0.87251 0.74548 1.4003l0.0052 0.0145q0.26712 0.42744 0.33957 0.40155l0.01449-5e-3q0.08177-0.0455 0.14997-0.72354-0.0052-0.0145 0.0041-0.0342 0.04444-0.42439 0.02981-1.3342-0.01981-0.92431-0.09863-1.8766-0.06951-0.97192-0.19381-1.5484-0.05282-0.19355-0.05699-0.38815-0.0042-0.19459 0.08173-0.27431 0.08588-0.0798 0.14384-0.10046 0.1449-0.0518 0.40368-0.0135 0.14178 0.0309 0.18737 0.11278 0.04556 0.0818 0.0818 0.1832 0.03107 0.087 0.058 0.20805l0.08802 0.24633q0.55096 1.862 0.68997 3.8058 0.2892 2.5928-1.3275 3.2358-0.11075 0.0559-0.21218 0.0921-1.4925 0.53331-2.6697-1.252-0.14599-0.22562-0.25262-0.43262-0.11182-0.22149-0.26093-0.59306-0.13462-0.37674-0.39351-1.1013-0.23817-0.66654-0.41317-1.1106-0.16051-0.44919-0.175-0.44401 0.01554 0.0436 0.06634 0.59722 0.05081 0.55375 0.112 1.3652 0.26022 2.6032 0.15585 3.6372-0.10438 1.0341-0.66532 1.4306-0.31566 0.25985-0.70689 0.39965l-0.08694 0.0311q-0.43471 0.15534-0.81976 0.12953z" style="font-feature-settings:normal;font-variant-caps:normal;font-variant-ligatures:normal;font-variant-numeric:normal" _ngcontent-kde-c101=""/>
    <path d="m43.46 286.5q-0.16908-2.2109 1.238-6.0471 0.1614-0.41716 0.18312-0.5393 0.01654-0.13665 1e-3 -0.18011-0.01038-0.029-0.03004-0.0383-0.05901-0.028-0.33849-0.12415-0.28466-0.11071-0.66662-0.21934-1.5289-0.48313-2.1769-0.97054-0.6677-0.49674-0.89034-1.1198-0.04142-0.11593-0.06835-0.23702-0.24343-1.1386 0.12692-2.4801 0.36516-1.356 1.1496-2.2246 0.23803-0.24845 0.39638-0.35405 0.17283-0.11082 0.39018-0.18848 0.79696-0.28478 0.99468-0.143 0.20703 0.1221 0.23292 0.19456 0.09837 0.2753-0.33626 0.88814-0.26388 0.40476-0.47386 1.2805-0.19548 0.87054-0.19329 1.6541 0.02284 0.38401 0.08601 0.60653 0.07249 0.20287 0.08803 0.24635 0.10873 0.30429 0.25884 0.49574 0.06005 0.0766 0.18428 0.1956 0.13354 0.0994 0.26708 0.1987 0.12836 0.0849 0.38922 0.22041 0.25568 0.12107 0.54552 0.24626 0.30433 0.12002 0.51032 0.19347 0.20599 0.0734 0.24946 0.0579l0.01449-5e-3q0.0238-0.0249 0.17694-0.37369 0.16762-0.35402 0.38077-0.85503 0.1997-0.44718 0.73364-1.4223t1.1673-1.855q0.62815-0.8944 1.1156-1.0849 0.12109-0.027 0.20392-0.0238 0.09732-2e-3 0.12212 0.0217l0.0052 0.0145q0.01038 0.029-0.0269 0.10766-0.04656 0.0983-0.13659 0.21221-0.38807 0.51449-0.98306 1.5931-0.59499 1.0786-1.131 2.1852-0.53599 1.1066-0.74705 1.7049-0.0186 0.0394-0.0083 0.0682l0.01038 0.029q0.02069 0.0579 0.12423 0.11903 0.10352 0.0611 0.31986 0.16349 0.90472 0.42836 1.5031 1.0969 0.32404 0.35809 0.4483 0.70585 0.13358 0.3281 0.16982 0.42954 0.17086 0.47817 0.22994 0.96362 0.10995 1.4967-0.48392 3.0815-0.59388 1.5848-1.5967 2.4824-0.49263 0.40479-1.0722 0.6119-0.20286 0.0725-0.43059 0.12112-0.83838 0.16885-1.3611-0.15091-0.53208-0.30008-0.72365-0.83622-0.10873-0.30429-0.14192-0.71728zm2.5039 0.33082q0.34047-0.46481 0.66432-1.2505 0.32903-0.77118 0.45728-1.3726 0.28336-1.5392-0.08425-2.568-0.1398-0.39124-0.38516-0.71207-0.1201-0.15317-0.27434-0.31047-0.15425-0.15731-0.26295-0.23286l-0.25259-0.20387-0.09726 0.23084q-0.16449 0.49997-0.4055 1.5175-0.2317 0.99785-0.32475 1.652-0.22742 1.8787 0.15574 2.951 0.13462 0.37674 0.34996 0.65928 0.03519 0.0527 0.06416 0.0424l0.02898-0.0103q0.05797-0.0207 0.12936-0.0953 0.08074-0.0942 0.23698-0.2971z" style="font-feature-settings:normal;font-variant-caps:normal;font-variant-ligatures:normal;font-variant-numeric:normal" _ngcontent-kde-c101=""/>
    <path d="m53.339 280.31q-2.3092 0.12251-4.375-4.7441-0.12322-0.29912-0.23713-0.61789-0.31584-0.88391-0.58825-2.0121-0.37804-1.5153-0.39473-2.2937 0.02064-0.39954 0.15515-0.70905 0.14382-0.32918 0.38394-0.48033 0.12004-0.0757 0.26494-0.12741 0.21735-0.0776 0.49887-0.11296 0.46057-0.0829 0.85082-0.0425 0.39023 0.0403 0.51032 0.19347 0.02487 0.0238 0.06109 0.12524 0.05177 0.14489 0.12118 0.43055 0.13153 0.45956 0.27654 1.094 0.37704 1.6954 0.59763 2.4499 0.22059 0.75453 0.41735 1.3052 0.15015 0.42022 0.3148 0.83525 0.78906 2.0711 1.5872 2.9787 0.07971 0.0859 0.15425 0.15732 0.06936 0.0569 0.09834 0.0465 0.10555-0.0704 0.25658-0.7453 0.16032-0.69456 0.27301-1.5682 0.10542-0.98541 0.11354-1.9687 0.02261-0.9885-0.06041-2.3641-0.01661-0.32086-0.0084-0.61792 0.0082-0.52582-0.06429-0.72868-0.05695-0.15939 0.04448-0.19564 0.09626-0.0507 0.12524-0.0611 0.17388-0.0621 0.38401-0.0228 0.23911 0.029 0.30642 0.21732 0.05695 0.15939 0.08806 0.47508 0.04559 0.31051 0.07256 0.66037 0.01763 0.14076 0.03005 0.26704 0.34109 3.424 0.19749 5.1256-0.14878 1.6872-0.84114 2.3104-0.3053 0.28884-0.61373 0.43172-0.29392 0.13776-0.42433 0.18437-0.2898 0.10354-0.57652 0.12429zm-4.9208-13.405q-0.09732 2e-3 -0.22462-0.0341-0.12732-0.0362-0.21117-0.088-0.06936-0.057-0.10457-0.10969-0.03518-0.0527-0.06109-0.12524l-0.02589-0.0725q-0.0466-0.13041-0.11082-0.40159-0.10359-0.51855-0.19999-1.3828-0.08709-0.88394-0.10064-1.5164-0.02905-0.44713 0.10754-0.65935 0.15109-0.2174 0.62304-0.45139 0.30324-0.15742 0.45331-0.19472 0.1449-0.0518 0.296-0.0405 0.29706 9e-3 0.37577 0.27423 0.08802 0.24633 0.04675 1.0454-0.04131 0.57032-0.04638 1.2421 0.0043 0.65209 0.01054 1.1727 0.02079 0.51547 0.04358 0.67073 0.0673 0.18836-0.07137 0.30329-0.23389 0.21429-0.48023 0.30231-0.15939 0.057-0.31984 0.0652z" style="font-feature-settings:normal;font-variant-caps:normal;font-variant-ligatures:normal;font-variant-numeric:normal" _ngcontent-kde-c101=""/>
    <path d="m58.799 277.98q-1.8787-0.22742-3.4701-3.172-0.37585-0.73173-0.63991-1.4707-0.7663-2.1446-0.55341-4.2468 0.3401-2.7523 2.0934-3.3788 0.15939-0.057 0.33845-0.10461 1.5546-0.35942 2.5641 1.3224 0.15116 0.2401 0.22883 0.45746 0.08698 0.19769 0.13358 0.3281 0.0932 0.26082 0.21332 0.64274 0.13566 0.4254 0.2413 0.81249 0.12013 0.38193 0.1626 0.5465 0.04869 0.22771 0.03628 0.33019-0.0176 0.0879-0.14177 0.19772-0.15731 0.15424-0.28772 0.20084-0.15939 0.057-0.25464-0.0724-0.05484-0.062-0.18741-0.34153-0.11805-0.28463-0.28682-0.66552-0.7911-1.9396-1.7073-2.6744-0.23292-0.19455-0.29606-0.18833-0.04864 8.5e-4 -0.06314 6e-3 -0.07245 0.0259-0.10657 0.2505-0.03308 0.27326-0.03815 0.94503-0.05659 2.1281 0.2759 3.5616 0.34698 1.4283 0.53338 1.95 0.56955 1.5939 1.6379 2.8462 0.60356 0.68305 0.90785 0.57431l0.04347-0.0155q0.30738-0.19155 0.64364-1.0797 0.48734-1.1055 0.84513-3.2596 0.3671-2.1737 0.24672-4.1569-0.0114-0.0776 0.05069-0.13251 0.06208-0.0549 0.2598-0.1418 0.06728-0.0404 0.13973-0.0663 0.34776-0.12427 0.4306 0.10757 0.02069 0.0579 0.02694 0.12111 0.01658 0.0921 0.02798 0.16975 0.02175 0.10661 0.03419 0.23288 0.01244 0.12628 0.01765 0.36952 0.01452 0.22357 0.02391 0.66141 0.0097 2.4966-0.17844 3.9364-0.17366 1.4346-0.62997 2.3984-0.45527 1.0124-1.0638 1.4586-0.60855 0.44621-0.9853 0.58082-0.5941 0.21229-1.2669 0.15858z" style="font-feature-settings:normal;font-variant-caps:normal;font-variant-ligatures:normal;font-variant-numeric:normal" _ngcontent-kde-c101=""/>
   </g>
  </g>
  <g fill="#dd2927">
   <path d="m7.2351 270.77q-0.13664-0.0166-0.25568-0.12106-0.11387-0.09-0.27434-0.31048-0.58702-0.81969-1.5717-2.9352-0.9847-2.1155-1.6547-3.8533-0.68446-1.7326-1.0107-2.6455-0.45046-1.2606-0.76011-2.3102-0.55926-2.0224-0.9322-3.9807-0.39261-1.9676-0.371-2.776 0.04649-0.55584 0.96351-0.91619 0.37675-0.13462 0.57649-0.12437 0.21426 5e-3 0.38818 0.17176 0.11387 0.09 0.18118 0.2784 0.076623 0.16871 0.10251 0.24115 0.10873 0.3043 0.24648 0.82698 0.16986 0.6583 0.434 1.8548 1.1808 5.1338 2.3303 8.8081 0.037288 0.15009 0.078708 0.266 0.058001 0.20806 0.099422 0.32397 0.046599 0.13042 0.061088 0.12523 0.014489-5e-3 0.00932-0.0196 0.012401-0.10247-0.071592-1.0692l-0.03114-0.54444q-0.3672-4.8689 0.20039-9.0424 0.5769-4.1932 1.8435-5.953 0.54951-0.70291 1.245-0.95144 0.71002-0.25371 1.3394 0.0443 1.0258 0.40146 1.6523 2.1548 0.07249 0.20286 0.13566 0.42539 1.2904 4.1142 0.10908 8.9482-0.44067 1.6934-1.2095 3.2917-0.7688 1.5983-1.5822 2.4772l-0.30944 0.323 0.92748 0.35487q1.237 0.48939 2.0713 0.58345 0.83428 0.0941 1.7637-0.14001 0.30018-0.0746 0.4161-0.11594 0.13041-0.0466 0.18837-0.0673l0.13041-0.0466q0.11075-0.0559 0.21115-0.14075 0.24838-0.21947 0.43676-0.28678 0.17388-0.0621 0.29189-6e-3 0.088 0.0176 0.10352 0.0611 0.03003 0.0383-0.01137 0.15113-0.13347 0.35815-0.70686 0.62839-0.55892 0.26502-0.89219 0.3841-0.56512 0.20194-1.1903 0.32729-1.1634 0.21961-2.213 0.0717-1.0548-0.16233-2.5185-0.78315-0.24532-0.0921-0.43165-0.15621-0.17183-0.0693-0.20081-0.059-0.014489 5e-3 -0.057964 0.0208-0.04864 8.5e-4 -0.097315 2e-3 -0.019662-9e-3 -0.034151-4e-3 -0.057964 0.0207-0.034122 0.22462 0.16576 0.92119 0.30771 1.8672 0.15645 0.94087 0.25385 1.625 0.097408 0.68418 0.10054 0.83012 0.011435 0.30637 0.094279 0.53822 0.088019 0.24633 0.2112 0.31669 0.12732 0.0362 0.15321 0.10867 0.04142 0.11592-0.12002 0.30433-0.18524 0.21326-0.51852 0.33235-0.31878 0.11391-0.59723 0.0664zm1.1829-7.9392q1.6495-2.2888 2.3457-5.2337 0.71062-2.9501 0.35717-6.0428-0.11816-0.97088-0.25281-1.5764-0.13466-0.6055-0.37801-1.2865l-0.11391-0.31877q-0.10355-0.28981-0.18018-0.45851-0.12217-0.25047-0.3075-0.49472-0.59011-0.73688-0.92338-0.61779-0.17388 0.0621-0.46052 0.54038-0.28664 0.47825-0.51219 1.0817-1.3543 3.801-1.1959 10.281 0.024956 0.71005 0.091366 1.7648 0.080904 1.0496 0.15868 1.9532 0.087088 0.88393 0.12851 0.99986 0.036243 0.10143 0.2391 0.029 0.10143-0.0362 0.19875-0.0383 0.1066-0.0218 0.16977-0.0279 0.10249 0.0125 0.16045-9e-3 0.072453-0.0259 0.16248-0.13976 0.090059-0.11381 0.28872-0.38095 0.014489-5e-3 0.023806-0.0249z" style="font-feature-settings:normal;font-variant-caps:normal;font-variant-ligatures:normal;font-variant-numeric:normal" _ngcontent-kde-c101=""/>
   <path d="m17.098 264.53q-1.323-1.3247-1.9858-3.1794-0.33137-0.92738-0.49508-1.98-0.39689-2.8484 0.71144-4.2739 0.68924-0.76916 1.5442-1.0746 0.13041-0.0466 0.28049-0.0839 1.0309-0.27032 1.6406 0.2471 0.36751 0.34257 0.56944 0.90768 0.10355 0.2898 0.16467 0.64379 0.22484 1.4066-0.15794 2.6219-0.38796 1.2008-1.2791 1.8623l-0.31152 0.22569 0.34378 0.82491q0.57986 1.3942 1.2538 2.1828 0.7102 0.89006 0.93895 0.89001 0.24324-5e-3 0.3012-0.0259 0.33328-0.11909 0.70991-0.93996 0.77294-1.6324 1.0562-4.0866 0.14368-1.2442 0.17977-2.0578 0.05058-0.81876-0.0219-1.0216l-0.02589-0.0724q-0.01554-0.0435 0.0124-0.10247 0.04242-0.0642 0.10972-0.1045 0.07657-0.0601 0.13453-0.0808l0.07245-0.0259q0.04864-8.6e-4 0.07762-0.0115 0.21841-0.029 0.3157-0.0311 0.09732-2e-3 0.10763 0.0268 0.02487 0.0238 0.03004 0.0383 0.01554 0.0435 0.02693 0.1211l0.01554 0.0435q0.04351 0.21321 0.06325 0.68002 0.02905 0.44715-0.0029 1.4553-0.08125 3.2481-0.74341 5.0533-0.49353 1.2712-1.1362 1.7132-0.62822 0.43691-0.99047 0.56635-0.63757 0.22782-1.3497 0.15547-1.122-0.12196-2.1604-1.1072zm0.99175-5.5016q0.25144-0.53103 0.38278-1.2152 0.12617-0.6987 0.0795-1.2866-0.03628-0.33019-0.15537-0.66346-0.05178-0.1449-0.11805-0.28462-0.21951-0.47715-0.49281-0.73897l-0.13872-0.11384-0.16971 0.25673q-0.53707 0.82918-0.26969 2.8579 0.04145 0.34467 0.09845 0.73282 0.07147 0.38296 0.14501 0.63447l0.13878 0.57134 0.14695-0.18323q0.0569-0.0694 0.1604-0.23706 0.10348-0.1677 0.19247-0.33022z" style="font-feature-settings:normal;font-variant-caps:normal;font-variant-ligatures:normal;font-variant-numeric:normal" _ngcontent-kde-c101=""/>
   <path d="m29.861 270.25q-0.24744-0.41811-0.42867-0.92529-0.33137-0.92736-0.4506-2.1756-0.17317-1.948-0.01616-3.9322 0.15701-1.9843 0.47044-3.2564l0.21929-0.89538-1.2416-3.6578q-0.51986-1.5463-0.87298-2.5803t-0.36866-1.0774q-0.0238 0.0249-4e-3 0.94915 0.01981 0.92431 0.0397 2.3061 0.04279 2.2233 0.03575 3.484-7e-3 1.2607-0.08147 1.8756-0.07443 0.61484-0.2286 0.91504-0.3332 0.57659-1.0432 0.83029-0.71002 0.25371-1.2369-0.0319-0.53312-0.34873-0.9245-1.124-0.40588-0.77003-0.62334-1.3786-0.19675-0.55062-0.34589-1.1509-0.77788-3.3659 0.30978-4.6206 0.35704-0.37269 0.87869-0.55909 0.17388-0.0622 0.37263-0.10041 0.77524-0.16263 1.4046 0.13537 0.14285 0.0797 0.22153 0.11694 0.088 0.0176 0.11698 8e-3 0.01449-5e-3 0.0093-0.0196 0.04425-1.5681 0.07413-2.4448 0.02987-0.87672 0.05569-1.2618t0.05788-0.47821q0.14278-0.37782 0.35495-0.46998 0.21218-0.0922 0.22667-0.0973 0.39124-0.1398 0.7111 0.0237 0.19667 0.0931 0.42342 0.45329 0.22674 0.36017 0.585 1.1799 0.37279 0.81452 0.97851 2.2811 0.37485 0.91183 0.68345 1.6839 0.31789 0.75244 0.43074 1.0226l0.25576 0.57856 0.42529-0.82192q0.90644-1.7618 1.3131-2.3157 0.42119-0.55901 0.66752-0.64703 0.10143-0.0362 0.19458-4e-3 0.05385 0.0135 0.06416 0.0424l0.01038 0.029q0.0011 0.0487-0.07346 0.20599-0.0745 0.15733-0.26698 0.48756-0.45944 0.81778-0.9168 1.7329-0.44286 0.9099-0.71084 1.5776l-0.30006 0.76082 0.92787 2.6424q1.2489 3.5408 1.7047 5.7309 0.47544 2.1995 0.30592 3.5999-0.18405 1.1769-0.77707 1.6666-0.59302 0.48968-1.0132 0.63984-0.4492 0.16051-0.95121 0.12746-0.97505-0.0764-1.6532-1.0597zm-4.0303-10.913q0.04545-0.60449 0.09913-1.506 0.0485-0.91604 0.06802-1.8217l0.03297-0.95951-0.17597-0.0352q-0.07351-0.0228-0.25568-0.12106-0.1677-0.10348-0.36024-0.23076l-0.43478-0.30218-0.04653 0.32709q-0.05584 0.34676-0.0371 0.99368 0.03322 0.64174 0.11301 1.1851 0.08497 0.55789 0.26104 1.2793 0.19056 0.71624 0.37283 1.272 0.19157 0.53614 0.26402 0.51025 0.01449-5e-3 0.03516-0.17597 0.03517-0.17596 0.06411-0.41508zm6.2472 9.8922q0.13217-2.0081-1.5973-7.7628-0.04764-0.17906-0.08388-0.28048-0.05695-0.1594-0.08593-0.14904-0.01449 5e-3 -0.0238 0.0249-0.06519 0.13768-0.1354 1.1759-0.1683 2.5929 0.10622 4.0471 0.27971 1.4687 0.5127 2.1208 0.35208 0.98533 0.87074 1.568l0.2495 0.28667 0.09208-0.24532q0.0269-0.10765 0.04653-0.32709 0.03412-0.22462 0.04858-0.45854z" style="font-feature-settings:normal;font-variant-caps:normal;font-variant-ligatures:normal;font-variant-numeric:normal" _ngcontent-kde-c101=""/>
   <path d="m40.062 266.6q-0.24745-0.41811-0.42867-0.92528-0.33137-0.92737-0.4506-2.1756-0.17317-1.948-0.01616-3.9322 0.15701-1.9843 0.47044-3.2564l0.21929-0.89537-1.2417-3.6578q-0.51983-1.5463-0.87297-2.5803-0.35315-1.034-0.36868-1.0774-0.02384 0.0249-4e-3 0.94915 0.01982 0.92432 0.0397 2.3061 0.0428 2.2233 0.03576 3.484-7e-3 1.2607-0.08147 1.8756-0.07443 0.61485-0.2286 0.91504-0.3332 0.57659-1.0432 0.8303-0.71002 0.25371-1.2369-0.0319-0.53312-0.34873-0.9245-1.1239-0.40587-0.77004-0.62334-1.3786-0.19675-0.55062-0.34592-1.1509-0.77788-3.3659 0.30978-4.6206 0.35703-0.37268 0.87868-0.55909 0.17388-0.0622 0.37263-0.10041 0.77524-0.16263 1.4046 0.13537 0.14285 0.0797 0.22153 0.11694 0.08803 0.0176 0.11698 8e-3 0.01447-5e-3 0.0093-0.0196 0.04425-1.5681 0.07413-2.4448 0.02987-0.87671 0.05569-1.2618 0.02582-0.38505 0.05788-0.47821 0.14279-0.37782 0.35495-0.46998 0.21218-0.0921 0.22667-0.0973 0.39124-0.1398 0.7111 0.0237 0.19667 0.0931 0.42342 0.45329 0.22674 0.36017 0.585 1.1799 0.37279 0.81452 0.97851 2.2811 0.37485 0.91183 0.68345 1.6839 0.31789 0.75245 0.43074 1.0226l0.25576 0.57856 0.42529-0.82191q0.90644-1.7618 1.3131-2.3157 0.42119-0.55901 0.66752-0.64703 0.10143-0.0362 0.19458-4e-3 0.05384 0.0135 0.06417 0.0424l0.01038 0.029q0.0011 0.0487-0.07346 0.20599-0.0745 0.15734-0.26698 0.48756-0.45944 0.81778-0.9168 1.7329-0.44286 0.9099-0.71084 1.5776l-0.30006 0.76082 0.92787 2.6424q1.2489 3.5408 1.7047 5.7309 0.47545 2.1994 0.30592 3.5999-0.18405 1.1769-0.77707 1.6666-0.59302 0.48968-1.0132 0.63983-0.4492 0.16052-0.95121 0.12747-0.97506-0.0764-1.6532-1.0596zm-4.0303-10.913q0.04545-0.60448 0.09913-1.506 0.0485-0.91605 0.06802-1.8217l0.03296-0.95951-0.17597-0.0352q-0.07349-0.0228-0.25568-0.12106-0.1677-0.10348-0.36024-0.23076l-0.43478-0.30218-0.04653 0.32709q-0.05584 0.34676-0.0371 0.99368 0.03322 0.64174 0.11301 1.1851 0.08497 0.5579 0.26105 1.2793 0.19059 0.71624 0.3728 1.2721 0.19158 0.53614 0.26406 0.51024 0.01447-5e-3 0.03516-0.17597 0.03517-0.17596 0.06411-0.41507zm6.2472 9.8922q0.13216-2.0081-1.5973-7.7628-0.04766-0.17904-0.08391-0.28047-0.05695-0.15939-0.08596-0.14902-0.01447 5e-3 -0.02384 0.0249-0.06519 0.13768-0.1354 1.1759-0.16831 2.5929 0.10622 4.0471 0.2797 1.4687 0.5127 2.1208 0.35208 0.98532 0.87075 1.568l0.2495 0.28667 0.09208-0.24532q0.02688-0.10765 0.04654-0.3271 0.03411-0.22462 0.04857-0.45854z" style="font-feature-settings:normal;font-variant-caps:normal;font-variant-ligatures:normal;font-variant-numeric:normal" _ngcontent-kde-c101=""/>
   <path d="m50.539 253.12q-0.49073-0.64167-1.1875-1.8143-0.69679-1.1726-1.1151-2.0689l-0.19881-0.41917 0.01787 1.742q0.03028 1.6395 0.0045 2.4821-0.02575 0.84255-0.13437 1.2245-0.0993 0.36229-0.30422 0.56623-0.31461 0.30851-0.73482 0.45866-0.13042 0.0466-0.266 0.0787-0.57131 0.13885-1.0434-0.0847-0.68011-0.39425-1.2454-1.3361-0.57048-0.95633-0.89667-1.8692-0.14498-0.40573-0.26612-0.83631-0.68152-2.7304-0.01518-4.3411 0.50287-1.0621 1.0959-1.323 0.60753-0.26615 0.75243-0.31792 0.98534-0.35209 2.1674-0.15355 0.01447-5e-3 0.02071-0.1708 0.0061-0.16563 9.39e-4 -0.40888-0.01148-0.53512 0.07539-1.0237 0.09619-0.50824 0.22864-0.68629 0.05694-0.0694 0.18218-0.13039 0.12004-0.0757 0.25045-0.12223 0.17388-0.0622 0.29086-0.0549 0.1263-0.0124 0.29812 0.0569 0.118 0.0558 0.25154 0.15522 0.12836 0.0849 0.19358 0.17593 0.14078 0.21113 0.322 0.71829 0.36762 1.0288 0.92174 3.2655 0.05489 0.29085 0.34798 1.2482 0.2879 0.94291 0.61927 1.8703l0.22782 0.63756q0.47528 1.2845 0.98987 2.13 0.51457 0.84557 0.96377 0.68506l0.02901-0.0103q0.06731-0.0404 0.13973-0.0663 0.1449-0.0517 0.26188-0.0445 0.19458-4e-3 0.23602 0.11175 0.05178 0.1449-0.10758 0.43061-0.16453 0.27122-0.40878 0.45653-0.23493 0.16565-0.46677 0.2485-0.34776 0.12426-0.68521 0.0488-0.53826-0.13448-0.98548-0.56292-0.4524-0.44295-0.82821-0.94593zm-3.3828-1.1442q0.02583-0.38505 0.08781-1.1262t0.11879-1.4967q0.04027-0.61897 0.06195-0.96987 0.0165-0.36538 0.01752-0.54549-0.0042-0.19458-0.03525-0.28152-0.0166-0.0921-0.07661-0.16872-0.10043-0.14385-0.32299-0.30943-0.21325-0.18525-0.42028-0.30735-0.20703-0.12211-0.265-0.10139-0.04239 0.0642-0.10344 0.39644-0.04653 0.3271-0.08578 0.76597-0.03927 0.43888-0.02574 0.84256 0.02604 0.98744 0.23221 2.2047 0.21548 1.1975 0.49508 1.98 0.0932 0.26082 0.11284 0.27014 0.01964 9e-3 0.03418 4e-3 0.01447-5e-3 0.03208-0.0931 0.03205-0.0932 0.05998-0.38092 0.03722-0.30741 0.08269-0.68316z" style="font-feature-settings:normal;font-variant-caps:normal;font-variant-ligatures:normal;font-variant-numeric:normal" _ngcontent-kde-c101=""/>
   <path d="m54.135 251.3q-1.323-1.3247-1.9858-3.1794-0.33137-0.92738-0.49508-1.98-0.39689-2.8485 0.71145-4.2739 0.68923-0.76917 1.5442-1.0746 0.13041-0.0466 0.28048-0.0839 1.0309-0.27032 1.6406 0.24711 0.36751 0.34256 0.56944 0.90768 0.10355 0.2898 0.16469 0.64378 0.22484 1.4066-0.15795 2.6219-0.38796 1.2008-1.2791 1.8623l-0.31152 0.22568 0.34378 0.82491q0.5799 1.3941 1.2538 2.1828 0.7102 0.89006 0.93896 0.89001 0.24324-5e-3 0.3012-0.0259 0.33328-0.11909 0.70991-0.93996 0.77294-1.6324 1.0562-4.0866 0.14368-1.2442 0.17977-2.0578 0.05059-0.81875-0.0219-1.0216l-0.02589-0.0724q-0.01554-0.0436 0.01241-0.10248 0.0424-0.0642 0.10972-0.10449 0.07657-0.0601 0.13453-0.0808l0.07248-0.0259q0.04864-8.5e-4 0.07766-0.0114 0.21841-0.029 0.3157-0.0311 0.09731-2e-3 0.10763 0.0268 0.02484 0.0238 0.03001 0.0383 0.01554 0.0435 0.02695 0.12109l0.01554 0.0435q0.04348 0.21323 0.06325 0.68002 0.02905 0.44716-0.0029 1.4553-0.08123 3.2481-0.7434 5.0534-0.49353 1.2711-1.1362 1.7132-0.62822 0.43689-0.99047 0.56634-0.63757 0.22782-1.3497 0.15548-1.122-0.12196-2.1604-1.1072zm0.99175-5.5016q0.25144-0.53103 0.38278-1.2152 0.12617-0.69869 0.0795-1.2866-0.03625-0.33019-0.15534-0.66347-0.05178-0.1449-0.11802-0.28463-0.21952-0.47714-0.49281-0.73897l-0.13872-0.11383-0.16971 0.25673q-0.53707 0.82917-0.2697 2.8579 0.04143 0.34468 0.09845 0.73281 0.0715 0.38296 0.14498 0.63449l0.13881 0.57133 0.14696-0.18323q0.05694-0.0694 0.16039-0.23706 0.10349-0.1677 0.19248-0.33022z" style="font-feature-settings:normal;font-variant-caps:normal;font-variant-ligatures:normal;font-variant-numeric:normal" _ngcontent-kde-c101=""/>
  </g>
  <g fill="#fcd60c">
   <path d="m19.169 293.34q-0.26188 0.0445-0.48857-0.0869-0.21221-0.1366-0.52798-0.56299-0.30128-0.43158-0.80135-1.2823-1.6969-2.8741-2.9809-5.7814-1.3036-2.9166-1.9923-4.8438-0.39868-1.1158-0.6928-2.1218-0.42565-1.4656-0.51065-2.2522-0.085-0.78664 0.14472-1.1955l0.1728-0.33954 0.53202-0.15736q0.4109-0.13051 0.75662-0.1233 0.34572 7e-3 0.47512 0.14069 0.01966 9e-3 0.05591 0.11075 0.03624 0.10143 0.08389 0.2805 0.11908 0.33326 0.25579 0.8073 0.32001 1.0785 0.80153 2.4261 0.48153 1.3476 1.1246 2.9643 0.77662 1.9448 1.0997 2.7117 0.32306 0.76694 0.35205 0.75658 0.01343-0.0539-0.03423-0.46163-0.03319-0.41299-0.09435-0.99573-0.5505-5.4734-0.10711-9.5371 0.10751-0.88811 0.21613-1.2701 0.12311-0.38714 0.34769-0.58177 0.2815-0.26399 0.68722-0.40896 0.40573-0.14498 0.68935-0.0829 0.52272 0.091 1.0114 0.86412 0.4835 0.75865 1.3057 2.7852 0.26197 0.6417 0.5136 1.2544 0.25162 0.61274 0.38934 0.90667l0.26715 0.65619-0.06123-1.0402q-0.09446-1.682-0.10407-3.4923-0.01478-1.8248 0.04404-2.9406 0.22417-2.7109 1.0014-3.6912 0.16144-0.18841 0.31048-0.27434 0.14385-0.10047 0.40467-0.19367l0.08694-0.0311q0.36226-0.12944 0.60654-0.086 0.29294 0.0424 0.60039 0.30836 0.80538 0.56192 1.7736 3.2716 0.15533 0.4347 0.31688 0.93255 0.58717 1.7347 1.0636 3.5253 0.48573 1.7709 1.3744 5.5384 0.57901 2.4893 0.91354 3.7913 0.34385 1.2824 0.66695 2.2781 0.13048 0.41091 0.19261 0.58478 0.06214 0.17389 0.0932 0.26083l0.04659 0.1304q0.04142 0.11593 0.08593 0.14904 0.03935 0.0187 0.10763 0.0268 0.13661 0.0165 0.16252 0.089 0.02589 0.0724 0.03107 0.0869 0.04142 0.11593 0.01765 0.36952-0.03722 0.30742-0.23281 0.49169-0.18111 0.17911-0.39846 0.25677-0.08694 0.0311-0.17906 0.0477-0.29086 0.0548-0.47199 5e-3 -0.16148-0.0403-0.32609-0.22663-0.29297-0.27114-0.62534-1.0184-0.31789-0.75245-0.84601-2.2304l-0.44528-1.2462q-0.80254-2.246-1.3297-4.1328-0.5748-2.0659-1.3703-5.5726-0.76547-3.4684-1.304-4.9754-0.07766-0.21734-0.15946-0.40054-0.31998-0.84975-0.41418-0.93047-0.07971-0.0859-0.1087-0.0756-0.08694 0.0311-0.149 0.3147-0.80486 2.6406-0.36817 8.4814 0.1763 2.0939 0.50271 4.3793 0.33573 2.2657 0.6392 3.4808 0.1253 0.39641 0.08082 0.59204-0.03516 0.17598-0.30839 0.37165-0.22976 0.18014-0.50507 0.27852-0.11592 0.0414-0.25151 0.0735-0.41193 0.0819-0.70178-0.0434-0.69147-0.24313-2.4622-5.1988-0.4867-1.3621-1.0594-3.1019-0.42148-1.271-0.73215-2.1404-0.29617-0.87459-0.33655-0.94186-0.07245 0.0259-0.14788 0.82083-0.0599 0.83842-0.09801 2.0122-0.03979 3.5927 0.60674 7.6429 0.65585 4.0305 1.6603 6.8416l0.21746 0.60859q0.08802 0.24633 0.12013 0.38192 0.058 0.20803-0.03204 0.32191-0.07036 0.12319-0.2815 0.26399-0.25874 0.19049-0.53405 0.28888-0.21735 0.0776-0.43576 0.10664z" style="font-feature-settings:normal;font-variant-caps:normal;font-variant-ligatures:normal;font-variant-numeric:normal" _ngcontent-kde-c101=""/>
   <path d="m34.799 285.91q-1.0516-0.0164-2.3127-2.311-0.17706-0.31256-0.31476-0.6065-0.14289-0.30845-0.31375-0.78661-0.19053-0.48749-0.50637-1.3714-0.73005-2.0431-0.94863-3.1579-0.22375-1.1292 0.0101-1.5723 0.05587-0.118 0.11797-0.17288 0.05694-0.0694 0.18218-0.13039 0.13973-0.0663 0.41504-0.16463 1.0682-0.34894 1.4067 4e-3 0.04969 0.0476 0.13256 0.27944 0.1398 0.39123 0.36762 1.2576 0.36352 1.2917 0.65968 2.1663 0.31066 0.86941 0.40904 1.1447 0.3935 1.1012 0.758 1.9841 0.44216 1.1002 0.66577 1.3144l0.01447-5e-3q0.24633-0.088 0.12763-4.4902-0.0562-1.9408-0.06361-2.9676 0.0019-1.0465 0.06601-1.4615 0.05894-0.42956 0.19244-0.55896 0.0714-0.0745 0.22564-0.14592 0.14902-0.086 0.3229-0.14812 0.23184-0.0828 0.34365-0.0901 0.1263-0.0124 0.27844 0.0476 0.16666 0.0548 0.30538 0.16867 0.13872 0.11384 0.2961 0.41709 0.15221 0.28876 0.37896 0.87768 0.23612 0.56925 0.61714 1.5442 0.75799 1.9841 1.1421 2.8763 0.3935 0.87249 0.74548 1.4003l0.0052 0.0145q0.26712 0.42744 0.33956 0.40154l0.01447-5e-3q0.08177-0.0455 0.14997-0.72353-0.0052-0.0145 0.0041-0.0342 0.04444-0.42439 0.0298-1.3342-0.01981-0.92432-0.09863-1.8766-0.06951-0.97191-0.19381-1.5484-0.05284-0.19355-0.05696-0.38816-0.0042-0.19458 0.08173-0.27431 0.08588-0.0798 0.14384-0.10046 0.1449-0.0518 0.40367-0.0135 0.14178 0.0309 0.18737 0.11278 0.04554 0.0818 0.08178 0.18321 0.03107 0.0869 0.05802 0.20804l0.08802 0.24633q0.55095 1.862 0.68997 3.8058 0.2892 2.5928-1.3275 3.2358-0.11075 0.0559-0.21218 0.0921-1.4925 0.53331-2.6697-1.252-0.14596-0.22563-0.25262-0.43263-0.11185-0.22148-0.26094-0.59305-0.13462-0.37674-0.39351-1.1013-0.23817-0.66654-0.41315-1.1106-0.16051-0.4492-0.17497-0.44403 0.01554 0.0435 0.06633 0.59723 0.05081 0.55375 0.11201 1.3652 0.26021 2.6032 0.15584 3.6372-0.10438 1.034-0.66532 1.4306-0.31565 0.25984-0.70689 0.39965l-0.08694 0.0311q-0.43471 0.15534-0.81976 0.12953z" style="font-feature-settings:normal;font-variant-caps:normal;font-variant-ligatures:normal;font-variant-numeric:normal" _ngcontent-kde-c101=""/>
   <path d="m43.46 286.5q-0.16908-2.2109 1.238-6.0471 0.1614-0.41716 0.18311-0.5393 0.01652-0.13664 1e-3 -0.18011-0.01038-0.029-0.03001-0.0383-0.05902-0.028-0.33849-0.12416-0.28467-0.11071-0.66662-0.21933-1.5289-0.48314-2.1769-0.97055-0.6677-0.49673-0.89034-1.1198-0.04142-0.11593-0.06837-0.23702-0.24343-1.1386 0.12692-2.48 0.36516-1.356 1.1496-2.2246 0.23802-0.24845 0.39638-0.35405 0.17282-0.11082 0.39018-0.18849 0.79696-0.28477 0.99468-0.14299 0.20703 0.12209 0.23292 0.19456 0.09837 0.2753-0.33626 0.88814-0.26388 0.40476-0.47386 1.2804-0.19549 0.87055-0.19329 1.6541 0.02284 0.38402 0.08601 0.60654 0.07249 0.20287 0.08803 0.24635 0.10873 0.30428 0.25888 0.49573 0.06007 0.0766 0.18428 0.19561 0.13354 0.0993 0.26708 0.19868 0.12836 0.0849 0.38922 0.22041 0.25568 0.12107 0.54552 0.24627 0.30433 0.12002 0.51032 0.19347 0.20599 0.0735 0.24946 0.0579l0.01447-5e-3q0.02384-0.0248 0.17694-0.37369 0.16762-0.35402 0.38077-0.85503 0.1997-0.44718 0.73364-1.4223 0.53394-0.97512 1.1673-1.855 0.62814-0.89439 1.1156-1.0849 0.1211-0.0269 0.20392-0.0238 0.09732-2e-3 0.12212 0.0217l0.0052 0.0144q0.01038 0.029-0.02688 0.10764-0.0466 0.0984-0.1366 0.21222-0.38807 0.51449-0.98306 1.5931-0.59499 1.0786-1.131 2.1852-0.536 1.1066-0.74705 1.7049-0.01863 0.0394-0.0083 0.0682l0.01038 0.029q0.02069 0.0579 0.12426 0.11901 0.10355 0.0611 0.31986 0.16349 0.90472 0.42836 1.5031 1.0969 0.32403 0.35809 0.4483 0.70585 0.13356 0.32812 0.1698 0.42954 0.17086 0.47818 0.22994 0.96363 0.10996 1.4967-0.48392 3.0815-0.59388 1.5848-1.5967 2.4824-0.49263 0.40479-1.0722 0.6119-0.20286 0.0725-0.43058 0.12112-0.83838 0.16885-1.3611-0.15091-0.53208-0.30008-0.72366-0.83622-0.10873-0.30429-0.14192-0.71728zm2.5039 0.33081q0.34047-0.4648 0.66431-1.2505 0.32903-0.77117 0.45729-1.3726 0.28336-1.5392-0.08426-2.568-0.1398-0.39123-0.38516-0.71207-0.12008-0.15318-0.27434-0.31047-0.15426-0.15731-0.26295-0.23286l-0.25259-0.20387-0.09726 0.23083q-0.1645 0.49997-0.40551 1.5175-0.23169 0.99785-0.32475 1.652-0.22742 1.8787 0.15574 2.951 0.13462 0.37674 0.34996 0.65927 0.03516 0.0528 0.06417 0.0424l0.02901-0.0103q0.05794-0.0207 0.12936-0.0953 0.08074-0.0941 0.23698-0.29709z" style="font-feature-settings:normal;font-variant-caps:normal;font-variant-ligatures:normal;font-variant-numeric:normal" _ngcontent-kde-c101=""/>
   <path d="m53.339 280.31q-2.3092 0.12251-4.375-4.7441-0.1232-0.29912-0.2371-0.61791-0.31584-0.88391-0.58825-2.0121-0.37805-1.5153-0.39473-2.2936 0.02063-0.39954 0.15515-0.70906 0.14382-0.32917 0.38394-0.48033 0.12004-0.0757 0.26494-0.12741 0.21735-0.0776 0.49886-0.11296 0.46056-0.0829 0.85082-0.0425 0.39023 0.0403 0.51032 0.19347 0.02484 0.0239 0.06107 0.12525 0.05177 0.14489 0.12114 0.43057 0.1315 0.45956 0.27654 1.094 0.37704 1.6954 0.59763 2.4499 0.22059 0.75454 0.41734 1.3052 0.15015 0.42021 0.31477 0.83526 0.78906 2.071 1.5872 2.9787 0.07972 0.0859 0.15425 0.15732 0.06936 0.0569 0.09838 0.0465 0.10555-0.0704 0.25658-0.74529 0.16033-0.69457 0.27301-1.5682 0.10542-0.98541 0.11354-1.9687 0.02261-0.98851-0.06041-2.3641-0.01661-0.32086-0.0084-0.61792 0.0082-0.52582-0.0643-0.72868-0.05695-0.1594 0.04448-0.19565 0.09626-0.0507 0.12524-0.0611 0.17389-0.0622 0.38401-0.0228 0.23911 0.029 0.30642 0.21731 0.05695 0.1594 0.08803 0.4751 0.04561 0.31051 0.07257 0.66037 0.01759 0.14077 0.03008 0.26703 0.34109 3.424 0.19748 5.1256-0.14878 1.6872-0.84114 2.3104-0.3053 0.28884-0.61372 0.43172-0.29392 0.13776-0.42433 0.18437-0.28981 0.10355-0.57652 0.12429zm-4.9208-13.405q-0.09732 2e-3 -0.22462-0.0341-0.12732-0.0362-0.21117-0.088-0.06937-0.0569-0.10454-0.10971-0.03516-0.0528-0.06107-0.12524l-0.02589-0.0724q-0.04659-0.13042-0.11079-0.4016-0.10356-0.51856-0.19999-1.3828-0.08709-0.88394-0.10064-1.5164-0.02905-0.44714 0.10754-0.65936 0.15109-0.21739 0.62304-0.45139 0.30324-0.15741 0.45331-0.19471 0.14491-0.0518 0.29601-0.0405 0.29706 9e-3 0.37577 0.27422 0.08802 0.24633 0.04674 1.0454-0.04131 0.57034-0.04637 1.2421 0.0043 0.6521 0.01053 1.1727 0.02079 0.51546 0.04359 0.67073 0.06731 0.18836-0.07137 0.30328-0.2339 0.2143-0.48023 0.30232-0.15939 0.057-0.31984 0.0652z" style="font-feature-settings:normal;font-variant-caps:normal;font-variant-ligatures:normal;font-variant-numeric:normal" _ngcontent-kde-c101=""/>
   <path d="m58.799 277.98q-1.8787-0.2274-3.4701-3.1719-0.37585-0.73174-0.63991-1.4707-0.7663-2.1446-0.55341-4.2468 0.3401-2.7523 2.0934-3.3788 0.15939-0.057 0.33845-0.10461 1.5546-0.35943 2.5641 1.3224 0.15114 0.24012 0.22881 0.45748 0.08696 0.19769 0.13356 0.32811 0.0932 0.26082 0.21335 0.64273 0.13568 0.42539 0.2413 0.81249 0.12016 0.38192 0.16257 0.54651 0.04866 0.22772 0.03625 0.33019-0.01761 0.0879-0.14178 0.19772-0.1573 0.15426-0.28772 0.20085-0.15939 0.057-0.25464-0.0724-0.05487-0.062-0.18738-0.34154-0.11802-0.28465-0.28683-0.66552-0.79111-1.9396-1.7073-2.6744-0.23292-0.19455-0.29606-0.18833-0.04864 8.5e-4 -0.06312 6e-3 -0.07248 0.0259-0.10657 0.2505-0.03308 0.27326-0.03815 0.94503-0.05659 2.1281 0.2759 3.5616 0.34698 1.4283 0.53338 1.95 0.56955 1.5939 1.6379 2.8462 0.60355 0.68305 0.90785 0.57432l0.04348-0.0155q0.30738-0.19155 0.64364-1.0797 0.48734-1.1056 0.84513-3.2596 0.3671-2.1737 0.24672-4.1569-0.01143-0.0776 0.05069-0.1325 0.06211-0.0549 0.2598-0.14181 0.06731-0.0404 0.13973-0.0663 0.34776-0.12427 0.4306 0.10757 0.02069 0.0579 0.02695 0.1211 0.0166 0.0921 0.02794 0.16976 0.02178 0.1066 0.03419 0.23289 0.01241 0.12628 0.01765 0.36951 0.01454 0.22357 0.02392 0.66141 0.0097 2.4966-0.17844 3.9364-0.17366 1.4346-0.62997 2.3984-0.45527 1.0124-1.0638 1.4586-0.60855 0.44621-0.9853 0.58082-0.5941 0.21229-1.2669 0.15858z" style="font-feature-settings:normal;font-variant-caps:normal;font-variant-ligatures:normal;font-variant-numeric:normal" _ngcontent-kde-c101=""/>
  </g>
  <text transform="rotate(-29.623)" x="-105.18481" y="229.41074" fill="#dd2927" font-family="Varela Round" font-size="21.524px" letter-spacing="0px" stroke="#000400" stroke-linecap="round" stroke-linejoin="round" stroke-opacity=".99608" stroke-width=".75591" word-spacing="0px" style="line-height:1.25" _ngcontent-kde-c101="" xml:space="preserve"><tspan x="-105.18481" y="229.41074" fill="#dd2927" stroke="#000400" stroke-linecap="round" stroke-linejoin="round" stroke-opacity=".99608" stroke-width=".75591" _ngcontent-kde-c101=""></tspan></text>
 </g>
</svg>

