
<svg width="34" height="34" version="1.1" viewBox="0 0 6.6146 6.8792" xmlns="http://www.w3.org/2000/svg" xmlns:cc="http://creativecommons.org/ns#" xmlns:dc="http://purl.org/dc/elements/1.1/" xmlns:osb="http://www.openswatchbook.org/uri/2009/osb" xmlns:rdf="http://www.w3.org/1999/02/22-rdf-syntax-ns#" xmlns:xlink="http://www.w3.org/1999/xlink">

 <defs>
  <linearGradient id="linearGradient3658" osb:paint="solid">
   <stop stop-color="#006bff" offset="0"/>
  </linearGradient>
  <filter id="filter900" x="-.024055" y="-.023945" width="1.0481" height="1.0479" color-interpolation-filters="sRGB">
   <feGaussianBlur stdDeviation="0.042238433"/>
  </filter>
  <filter id="filter1780" x="-.03" y="-.03" width="1.06" height="1.06" color-interpolation-filters="sRGB">
   <feGaussianBlur stdDeviation="0.2"/>
  </filter>
  <linearGradient id="linearGradient3660" x1="-3.264" x2="19.264" y1="8" y2="8" gradientUnits="userSpaceOnUse" xlink:href="#linearGradient3658"/>
  <filter id="filter1678" x="-.216" y="-.216" width="1.432" height="1.432" color-interpolation-filters="sRGB">
   <feGaussianBlur stdDeviation="1.44"/>
  </filter>
 </defs>
 <g transform="matrix(.28588 0 0 .28588 1.0393 1.16)" fill="#002cff" filter="url(#filter1678)" opacity=".658" stroke="url(#linearGradient3660)" stroke-dashoffset="25.134" stroke-linecap="round" stroke-linejoin="round" stroke-width="2.1354">
  <path d="m8 0c-2.171 0-2.444 0.01-3.297 0.048-0.853 0.04-1.434 0.174-1.943 0.372a3.917 3.917 0 0 0-1.417 0.923 3.927 3.927 0 0 0-0.923 1.417c-0.198 0.508-0.333 1.09-0.372 1.94-0.038 0.855-0.048 1.127-0.048 3.301 0 2.172 0.01 2.444 0.048 3.297 0.04 0.852 0.174 1.433 0.372 1.942 0.205 0.526 0.478 0.972 0.923 1.417 0.444 0.445 0.89 0.719 1.416 0.923 0.51 0.198 1.09 0.333 1.942 0.372 0.854 0.038 1.126 0.048 3.299 0.048s2.444-0.01 3.298-0.048c0.851-0.04 1.434-0.174 1.943-0.372a3.916 3.916 0 0 0 1.416-0.923c0.445-0.445 0.718-0.891 0.923-1.417 0.197-0.509 0.332-1.09 0.372-1.942 0.038-0.853 0.048-1.125 0.048-3.298s-0.01-2.445-0.048-3.299c-0.04-0.851-0.175-1.433-0.372-1.941a3.926 3.926 0 0 0-0.923-1.417 3.911 3.911 0 0 0-1.417-0.923c-0.51-0.198-1.092-0.333-1.943-0.372-0.854-0.038-1.125-0.048-3.299-0.048h3e-3zm-0.717 1.442h0.718c2.136 0 2.389 7e-3 3.232 0.046 0.78 0.035 1.204 0.166 1.486 0.275 0.373 0.145 0.64 0.319 0.92 0.599s0.453 0.546 0.598 0.92c0.11 0.281 0.24 0.705 0.275 1.485 0.039 0.843 0.047 1.096 0.047 3.231s-8e-3 2.389-0.047 3.232c-0.035 0.78-0.166 1.203-0.275 1.485a2.47 2.47 0 0 1-0.599 0.919c-0.28 0.28-0.546 0.453-0.92 0.598-0.28 0.11-0.704 0.24-1.485 0.276-0.843 0.038-1.096 0.047-3.232 0.047s-2.39-9e-3 -3.233-0.047c-0.78-0.036-1.203-0.166-1.485-0.276a2.478 2.478 0 0 1-0.92-0.598 2.48 2.48 0 0 1-0.6-0.92c-0.109-0.281-0.24-0.705-0.275-1.485-0.038-0.843-0.046-1.096-0.046-3.233 0-2.136 8e-3 -2.388 0.046-3.231 0.036-0.78 0.166-1.204 0.276-1.486 0.145-0.373 0.319-0.64 0.599-0.92s0.546-0.453 0.92-0.598c0.282-0.11 0.705-0.24 1.485-0.276 0.738-0.034 1.024-0.044 2.515-0.045zm4.988 1.328a0.96 0.96 0 1 0 0 1.92 0.96 0.96 0 0 0 0-1.92zm-4.27 1.122a4.109 4.109 0 1 0 0 8.217 4.109 4.109 0 0 0 0-8.217zm0 1.441a2.667 2.667 0 1 1 0 5.334 2.667 2.667 0 0 1 0-5.334z"/>
  <path d="m8 0c-2.171 0-2.444 0.01-3.297 0.048-0.853 0.04-1.434 0.174-1.943 0.372a3.917 3.917 0 0 0-1.417 0.923 3.927 3.927 0 0 0-0.923 1.417c-0.198 0.508-0.333 1.09-0.372 1.94-0.038 0.855-0.048 1.127-0.048 3.301 0 2.172 0.01 2.444 0.048 3.297 0.04 0.852 0.174 1.433 0.372 1.942 0.205 0.526 0.478 0.972 0.923 1.417 0.444 0.445 0.89 0.719 1.416 0.923 0.51 0.198 1.09 0.333 1.942 0.372 0.854 0.038 1.126 0.048 3.299 0.048s2.444-0.01 3.298-0.048c0.851-0.04 1.434-0.174 1.943-0.372a3.916 3.916 0 0 0 1.416-0.923c0.445-0.445 0.718-0.891 0.923-1.417 0.197-0.509 0.332-1.09 0.372-1.942 0.038-0.853 0.048-1.125 0.048-3.298s-0.01-2.445-0.048-3.299c-0.04-0.851-0.175-1.433-0.372-1.941a3.926 3.926 0 0 0-0.923-1.417 3.911 3.911 0 0 0-1.417-0.923c-0.51-0.198-1.092-0.333-1.943-0.372-0.854-0.038-1.125-0.048-3.299-0.048h3e-3zm-0.717 1.442h0.718c2.136 0 2.389 7e-3 3.232 0.046 0.78 0.035 1.204 0.166 1.486 0.275 0.373 0.145 0.64 0.319 0.92 0.599s0.453 0.546 0.598 0.92c0.11 0.281 0.24 0.705 0.275 1.485 0.039 0.843 0.047 1.096 0.047 3.231s-8e-3 2.389-0.047 3.232c-0.035 0.78-0.166 1.203-0.275 1.485a2.47 2.47 0 0 1-0.599 0.919c-0.28 0.28-0.546 0.453-0.92 0.598-0.28 0.11-0.704 0.24-1.485 0.276-0.843 0.038-1.096 0.047-3.232 0.047s-2.39-9e-3 -3.233-0.047c-0.78-0.036-1.203-0.166-1.485-0.276a2.478 2.478 0 0 1-0.92-0.598 2.48 2.48 0 0 1-0.6-0.92c-0.109-0.281-0.24-0.705-0.275-1.485-0.038-0.843-0.046-1.096-0.046-3.233 0-2.136 8e-3 -2.388 0.046-3.231 0.036-0.78 0.166-1.204 0.276-1.486 0.145-0.373 0.319-0.64 0.599-0.92s0.546-0.453 0.92-0.598c0.282-0.11 0.705-0.24 1.485-0.276 0.738-0.034 1.024-0.044 2.515-0.045zm4.988 1.328a0.96 0.96 0 1 0 0 1.92 0.96 0.96 0 0 0 0-1.92zm-4.27 1.122a4.109 4.109 0 1 0 0 8.217 4.109 4.109 0 0 0 0-8.217zm0 1.441a2.667 2.667 0 1 1 0 5.334 2.667 2.667 0 0 1 0-5.334z"/>
 </g>
 <g transform="matrix(.28588 0 0 .28588 1.0393 1.16)" fill="#0ff" stroke="#0cf" stroke-width=".57681">
  <path d="m8 0c-2.171 0-2.444 0.01-3.297 0.048-0.853 0.04-1.434 0.174-1.943 0.372a3.917 3.917 0 0 0-1.417 0.923 3.927 3.927 0 0 0-0.923 1.417c-0.198 0.508-0.333 1.09-0.372 1.94-0.038 0.855-0.048 1.127-0.048 3.301 0 2.172 0.01 2.444 0.048 3.297 0.04 0.852 0.174 1.433 0.372 1.942 0.205 0.526 0.478 0.972 0.923 1.417 0.444 0.445 0.89 0.719 1.416 0.923 0.51 0.198 1.09 0.333 1.942 0.372 0.854 0.038 1.126 0.048 3.299 0.048s2.444-0.01 3.298-0.048c0.851-0.04 1.434-0.174 1.943-0.372a3.916 3.916 0 0 0 1.416-0.923c0.445-0.445 0.718-0.891 0.923-1.417 0.197-0.509 0.332-1.09 0.372-1.942 0.038-0.853 0.048-1.125 0.048-3.298s-0.01-2.445-0.048-3.299c-0.04-0.851-0.175-1.433-0.372-1.941a3.926 3.926 0 0 0-0.923-1.417 3.911 3.911 0 0 0-1.417-0.923c-0.51-0.198-1.092-0.333-1.943-0.372-0.854-0.038-1.125-0.048-3.299-0.048h3e-3zm-0.717 1.442h0.718c2.136 0 2.389 7e-3 3.232 0.046 0.78 0.035 1.204 0.166 1.486 0.275 0.373 0.145 0.64 0.319 0.92 0.599s0.453 0.546 0.598 0.92c0.11 0.281 0.24 0.705 0.275 1.485 0.039 0.843 0.047 1.096 0.047 3.231s-8e-3 2.389-0.047 3.232c-0.035 0.78-0.166 1.203-0.275 1.485a2.47 2.47 0 0 1-0.599 0.919c-0.28 0.28-0.546 0.453-0.92 0.598-0.28 0.11-0.704 0.24-1.485 0.276-0.843 0.038-1.096 0.047-3.232 0.047s-2.39-9e-3 -3.233-0.047c-0.78-0.036-1.203-0.166-1.485-0.276a2.478 2.478 0 0 1-0.92-0.598 2.48 2.48 0 0 1-0.6-0.92c-0.109-0.281-0.24-0.705-0.275-1.485-0.038-0.843-0.046-1.096-0.046-3.233 0-2.136 8e-3 -2.388 0.046-3.231 0.036-0.78 0.166-1.204 0.276-1.486 0.145-0.373 0.319-0.64 0.599-0.92s0.546-0.453 0.92-0.598c0.282-0.11 0.705-0.24 1.485-0.276 0.738-0.034 1.024-0.044 2.515-0.045zm4.988 1.328a0.96 0.96 0 1 0 0 1.92 0.96 0.96 0 0 0 0-1.92zm-4.27 1.122a4.109 4.109 0 1 0 0 8.217 4.109 4.109 0 0 0 0-8.217zm0 1.441a2.667 2.667 0 1 1 0 5.334 2.667 2.667 0 0 1 0-5.334z"/>
  <path d="m8 0c-2.171 0-2.444 0.01-3.297 0.048-0.853 0.04-1.434 0.174-1.943 0.372a3.917 3.917 0 0 0-1.417 0.923 3.927 3.927 0 0 0-0.923 1.417c-0.198 0.508-0.333 1.09-0.372 1.94-0.038 0.855-0.048 1.127-0.048 3.301 0 2.172 0.01 2.444 0.048 3.297 0.04 0.852 0.174 1.433 0.372 1.942 0.205 0.526 0.478 0.972 0.923 1.417 0.444 0.445 0.89 0.719 1.416 0.923 0.51 0.198 1.09 0.333 1.942 0.372 0.854 0.038 1.126 0.048 3.299 0.048s2.444-0.01 3.298-0.048c0.851-0.04 1.434-0.174 1.943-0.372a3.916 3.916 0 0 0 1.416-0.923c0.445-0.445 0.718-0.891 0.923-1.417 0.197-0.509 0.332-1.09 0.372-1.942 0.038-0.853 0.048-1.125 0.048-3.298s-0.01-2.445-0.048-3.299c-0.04-0.851-0.175-1.433-0.372-1.941a3.926 3.926 0 0 0-0.923-1.417 3.911 3.911 0 0 0-1.417-0.923c-0.51-0.198-1.092-0.333-1.943-0.372-0.854-0.038-1.125-0.048-3.299-0.048h3e-3zm-0.717 1.442h0.718c2.136 0 2.389 7e-3 3.232 0.046 0.78 0.035 1.204 0.166 1.486 0.275 0.373 0.145 0.64 0.319 0.92 0.599s0.453 0.546 0.598 0.92c0.11 0.281 0.24 0.705 0.275 1.485 0.039 0.843 0.047 1.096 0.047 3.231s-8e-3 2.389-0.047 3.232c-0.035 0.78-0.166 1.203-0.275 1.485a2.47 2.47 0 0 1-0.599 0.919c-0.28 0.28-0.546 0.453-0.92 0.598-0.28 0.11-0.704 0.24-1.485 0.276-0.843 0.038-1.096 0.047-3.232 0.047s-2.39-9e-3 -3.233-0.047c-0.78-0.036-1.203-0.166-1.485-0.276a2.478 2.478 0 0 1-0.92-0.598 2.48 2.48 0 0 1-0.6-0.92c-0.109-0.281-0.24-0.705-0.275-1.485-0.038-0.843-0.046-1.096-0.046-3.233 0-2.136 8e-3 -2.388 0.046-3.231 0.036-0.78 0.166-1.204 0.276-1.486 0.145-0.373 0.319-0.64 0.599-0.92s0.546-0.453 0.92-0.598c0.282-0.11 0.705-0.24 1.485-0.276 0.738-0.034 1.024-0.044 2.515-0.045zm4.988 1.328a0.96 0.96 0 1 0 0 1.92 0.96 0.96 0 0 0 0-1.92zm-4.27 1.122a4.109 4.109 0 1 0 0 8.217 4.109 4.109 0 0 0 0-8.217zm0 1.441a2.667 2.667 0 1 1 0 5.334 2.667 2.667 0 0 1 0-5.334z"/>
 </g>
 <path d="m-129.84-193.67c-0.36999-0.43861-0.92269-0.62122-1.4835-0.61542-1.1554 0-2.0971 0.94139-2.0982 2.0971 0 0.37015 0.0968 0.73025 0.27967 1.0491l-0.2966 1.0872 1.1123-0.29157c0.30771 0.16746 0.65244 0.25523 1.0028 0.25532h1e-3c1.1557 0 2.0971-0.94138 2.0981-2.0981 5.3e-4 -0.55682-0.22118-1.0908-0.61595-1.4835zm-1.4835 3.2266c-0.31247 1.1e-4 -0.6192-0.084-0.88794-0.24342l-0.0635-0.0381-0.65987 0.17304 0.17621-0.64373-0.0413-0.0664c-0.17467-0.27773-0.26705-0.59928-0.26643-0.92736 0-0.95938 0.78237-1.742 1.7439-1.742 0.46265-8.3e-4 0.90649 0.18309 1.233 0.51091 0.3276 0.32655 0.51124 0.7704 0.51011 1.233-1e-3 0.96282-0.78343 1.7441-1.7441 1.7441zm0.95647-1.3055c-0.0521-0.0262-0.30956-0.15293-0.35798-0.17092-0.0482-0.0172-0.0833-0.0262-0.11774 0.0262-0.0352 0.0521-0.13573 0.17092-0.1659 0.20505-0.0302 0.0352-0.0614 0.0392-0.11377 0.0132-0.0521-0.0265-0.22119-0.0815-0.42121-0.26062-0.15611-0.13891-0.26062-0.31088-0.29184-0.36301-0.0302-0.0524-3e-3 -0.0804 0.0233-0.10663 0.023-0.0233 0.0521-0.0614 0.0783-0.0915 0.0265-0.0302 0.0352-0.0524 0.0524-0.0873 0.0172-0.0354 9e-3 -0.0656-4e-3 -0.0918-0.0132-0.0262-0.11774-0.28469-0.16193-0.38894-0.0423-0.10292-0.0855-0.0886-0.11774-0.09-0.0302-2e-3 -0.0653-2e-3 -0.10054-2e-3 -0.0537 1e-3 -0.10445 0.025-0.13996 0.0653-0.0482 0.0524-0.18283 0.17912-0.18283 0.43762s0.18786 0.50694 0.21431 0.54213c0.0259 0.0352 0.36883 0.56409 0.89509 0.79163 0.12435 0.0542 0.22225 0.0863 0.29871 0.1106 0.12568 0.0402 0.23919 0.0341 0.32967 0.0212 0.10055-0.0154 0.30983-0.127 0.35402-0.2495 0.0434-0.12277 0.0434-0.22754 0.0302-0.2495-0.013-0.0222-0.0481-0.0352-0.10054-0.0614z" display="none" fill="none" filter="url(#filter900)" stroke="#00b6ff" stroke-width=".265" onload=""/>
 <g transform="matrix(.28588 0 0 .28588 1.0393 1.16)" fill="#fff" filter="url(#filter1780)" stroke="#3bffff" stroke-width=".4112">
  <path d="m8 0c-2.171 0-2.444 0.01-3.297 0.048-0.853 0.04-1.434 0.174-1.943 0.372a3.917 3.917 0 0 0-1.417 0.923 3.927 3.927 0 0 0-0.923 1.417c-0.198 0.508-0.333 1.09-0.372 1.94-0.038 0.855-0.048 1.127-0.048 3.301 0 2.172 0.01 2.444 0.048 3.297 0.04 0.852 0.174 1.433 0.372 1.942 0.205 0.526 0.478 0.972 0.923 1.417 0.444 0.445 0.89 0.719 1.416 0.923 0.51 0.198 1.09 0.333 1.942 0.372 0.854 0.038 1.126 0.048 3.299 0.048s2.444-0.01 3.298-0.048c0.851-0.04 1.434-0.174 1.943-0.372a3.916 3.916 0 0 0 1.416-0.923c0.445-0.445 0.718-0.891 0.923-1.417 0.197-0.509 0.332-1.09 0.372-1.942 0.038-0.853 0.048-1.125 0.048-3.298s-0.01-2.445-0.048-3.299c-0.04-0.851-0.175-1.433-0.372-1.941a3.926 3.926 0 0 0-0.923-1.417 3.911 3.911 0 0 0-1.417-0.923c-0.51-0.198-1.092-0.333-1.943-0.372-0.854-0.038-1.125-0.048-3.299-0.048h3e-3zm-0.717 1.442h0.718c2.136 0 2.389 7e-3 3.232 0.046 0.78 0.035 1.204 0.166 1.486 0.275 0.373 0.145 0.64 0.319 0.92 0.599s0.453 0.546 0.598 0.92c0.11 0.281 0.24 0.705 0.275 1.485 0.039 0.843 0.047 1.096 0.047 3.231s-8e-3 2.389-0.047 3.232c-0.035 0.78-0.166 1.203-0.275 1.485a2.47 2.47 0 0 1-0.599 0.919c-0.28 0.28-0.546 0.453-0.92 0.598-0.28 0.11-0.704 0.24-1.485 0.276-0.843 0.038-1.096 0.047-3.232 0.047s-2.39-9e-3 -3.233-0.047c-0.78-0.036-1.203-0.166-1.485-0.276a2.478 2.478 0 0 1-0.92-0.598 2.48 2.48 0 0 1-0.6-0.92c-0.109-0.281-0.24-0.705-0.275-1.485-0.038-0.843-0.046-1.096-0.046-3.233 0-2.136 8e-3 -2.388 0.046-3.231 0.036-0.78 0.166-1.204 0.276-1.486 0.145-0.373 0.319-0.64 0.599-0.92s0.546-0.453 0.92-0.598c0.282-0.11 0.705-0.24 1.485-0.276 0.738-0.034 1.024-0.044 2.515-0.045zm4.988 1.328a0.96 0.96 0 1 0 0 1.92 0.96 0.96 0 0 0 0-1.92zm-4.27 1.122a4.109 4.109 0 1 0 0 8.217 4.109 4.109 0 0 0 0-8.217zm0 1.441a2.667 2.667 0 1 1 0 5.334 2.667 2.667 0 0 1 0-5.334z"/>
  <path d="m8 0c-2.171 0-2.444 0.01-3.297 0.048-0.853 0.04-1.434 0.174-1.943 0.372a3.917 3.917 0 0 0-1.417 0.923 3.927 3.927 0 0 0-0.923 1.417c-0.198 0.508-0.333 1.09-0.372 1.94-0.038 0.855-0.048 1.127-0.048 3.301 0 2.172 0.01 2.444 0.048 3.297 0.04 0.852 0.174 1.433 0.372 1.942 0.205 0.526 0.478 0.972 0.923 1.417 0.444 0.445 0.89 0.719 1.416 0.923 0.51 0.198 1.09 0.333 1.942 0.372 0.854 0.038 1.126 0.048 3.299 0.048s2.444-0.01 3.298-0.048c0.851-0.04 1.434-0.174 1.943-0.372a3.916 3.916 0 0 0 1.416-0.923c0.445-0.445 0.718-0.891 0.923-1.417 0.197-0.509 0.332-1.09 0.372-1.942 0.038-0.853 0.048-1.125 0.048-3.298s-0.01-2.445-0.048-3.299c-0.04-0.851-0.175-1.433-0.372-1.941a3.926 3.926 0 0 0-0.923-1.417 3.911 3.911 0 0 0-1.417-0.923c-0.51-0.198-1.092-0.333-1.943-0.372-0.854-0.038-1.125-0.048-3.299-0.048h3e-3zm-0.717 1.442h0.718c2.136 0 2.389 7e-3 3.232 0.046 0.78 0.035 1.204 0.166 1.486 0.275 0.373 0.145 0.64 0.319 0.92 0.599s0.453 0.546 0.598 0.92c0.11 0.281 0.24 0.705 0.275 1.485 0.039 0.843 0.047 1.096 0.047 3.231s-8e-3 2.389-0.047 3.232c-0.035 0.78-0.166 1.203-0.275 1.485a2.47 2.47 0 0 1-0.599 0.919c-0.28 0.28-0.546 0.453-0.92 0.598-0.28 0.11-0.704 0.24-1.485 0.276-0.843 0.038-1.096 0.047-3.232 0.047s-2.39-9e-3 -3.233-0.047c-0.78-0.036-1.203-0.166-1.485-0.276a2.478 2.478 0 0 1-0.92-0.598 2.48 2.48 0 0 1-0.6-0.92c-0.109-0.281-0.24-0.705-0.275-1.485-0.038-0.843-0.046-1.096-0.046-3.233 0-2.136 8e-3 -2.388 0.046-3.231 0.036-0.78 0.166-1.204 0.276-1.486 0.145-0.373 0.319-0.64 0.599-0.92s0.546-0.453 0.92-0.598c0.282-0.11 0.705-0.24 1.485-0.276 0.738-0.034 1.024-0.044 2.515-0.045zm4.988 1.328a0.96 0.96 0 1 0 0 1.92 0.96 0.96 0 0 0 0-1.92zm-4.27 1.122a4.109 4.109 0 1 0 0 8.217 4.109 4.109 0 0 0 0-8.217zm0 1.441a2.667 2.667 0 1 1 0 5.334 2.667 2.667 0 0 1 0-5.334z"/>
 </g>
 <g transform="matrix(.28588 0 0 .28588 1.0393 1.16)" fill="#e5ffff">
  <path d="m8 0c-2.171 0-2.444 0.01-3.297 0.048-0.853 0.04-1.434 0.174-1.943 0.372a3.917 3.917 0 0 0-1.417 0.923 3.927 3.927 0 0 0-0.923 1.417c-0.198 0.508-0.333 1.09-0.372 1.94-0.038 0.855-0.048 1.127-0.048 3.301 0 2.172 0.01 2.444 0.048 3.297 0.04 0.852 0.174 1.433 0.372 1.942 0.205 0.526 0.478 0.972 0.923 1.417 0.444 0.445 0.89 0.719 1.416 0.923 0.51 0.198 1.09 0.333 1.942 0.372 0.854 0.038 1.126 0.048 3.299 0.048s2.444-0.01 3.298-0.048c0.851-0.04 1.434-0.174 1.943-0.372a3.916 3.916 0 0 0 1.416-0.923c0.445-0.445 0.718-0.891 0.923-1.417 0.197-0.509 0.332-1.09 0.372-1.942 0.038-0.853 0.048-1.125 0.048-3.298s-0.01-2.445-0.048-3.299c-0.04-0.851-0.175-1.433-0.372-1.941a3.926 3.926 0 0 0-0.923-1.417 3.911 3.911 0 0 0-1.417-0.923c-0.51-0.198-1.092-0.333-1.943-0.372-0.854-0.038-1.125-0.048-3.299-0.048h3e-3zm-0.717 1.442h0.718c2.136 0 2.389 7e-3 3.232 0.046 0.78 0.035 1.204 0.166 1.486 0.275 0.373 0.145 0.64 0.319 0.92 0.599s0.453 0.546 0.598 0.92c0.11 0.281 0.24 0.705 0.275 1.485 0.039 0.843 0.047 1.096 0.047 3.231s-8e-3 2.389-0.047 3.232c-0.035 0.78-0.166 1.203-0.275 1.485a2.47 2.47 0 0 1-0.599 0.919c-0.28 0.28-0.546 0.453-0.92 0.598-0.28 0.11-0.704 0.24-1.485 0.276-0.843 0.038-1.096 0.047-3.232 0.047s-2.39-9e-3 -3.233-0.047c-0.78-0.036-1.203-0.166-1.485-0.276a2.478 2.478 0 0 1-0.92-0.598 2.48 2.48 0 0 1-0.6-0.92c-0.109-0.281-0.24-0.705-0.275-1.485-0.038-0.843-0.046-1.096-0.046-3.233 0-2.136 8e-3 -2.388 0.046-3.231 0.036-0.78 0.166-1.204 0.276-1.486 0.145-0.373 0.319-0.64 0.599-0.92s0.546-0.453 0.92-0.598c0.282-0.11 0.705-0.24 1.485-0.276 0.738-0.034 1.024-0.044 2.515-0.045zm4.988 1.328a0.96 0.96 0 1 0 0 1.92 0.96 0.96 0 0 0 0-1.92zm-4.27 1.122a4.109 4.109 0 1 0 0 8.217 4.109 4.109 0 0 0 0-8.217zm0 1.441a2.667 2.667 0 1 1 0 5.334 2.667 2.667 0 0 1 0-5.334z"/>
  <path d="m8 0c-2.171 0-2.444 0.01-3.297 0.048-0.853 0.04-1.434 0.174-1.943 0.372a3.917 3.917 0 0 0-1.417 0.923 3.927 3.927 0 0 0-0.923 1.417c-0.198 0.508-0.333 1.09-0.372 1.94-0.038 0.855-0.048 1.127-0.048 3.301 0 2.172 0.01 2.444 0.048 3.297 0.04 0.852 0.174 1.433 0.372 1.942 0.205 0.526 0.478 0.972 0.923 1.417 0.444 0.445 0.89 0.719 1.416 0.923 0.51 0.198 1.09 0.333 1.942 0.372 0.854 0.038 1.126 0.048 3.299 0.048s2.444-0.01 3.298-0.048c0.851-0.04 1.434-0.174 1.943-0.372a3.916 3.916 0 0 0 1.416-0.923c0.445-0.445 0.718-0.891 0.923-1.417 0.197-0.509 0.332-1.09 0.372-1.942 0.038-0.853 0.048-1.125 0.048-3.298s-0.01-2.445-0.048-3.299c-0.04-0.851-0.175-1.433-0.372-1.941a3.926 3.926 0 0 0-0.923-1.417 3.911 3.911 0 0 0-1.417-0.923c-0.51-0.198-1.092-0.333-1.943-0.372-0.854-0.038-1.125-0.048-3.299-0.048h3e-3zm-0.717 1.442h0.718c2.136 0 2.389 7e-3 3.232 0.046 0.78 0.035 1.204 0.166 1.486 0.275 0.373 0.145 0.64 0.319 0.92 0.599s0.453 0.546 0.598 0.92c0.11 0.281 0.24 0.705 0.275 1.485 0.039 0.843 0.047 1.096 0.047 3.231s-8e-3 2.389-0.047 3.232c-0.035 0.78-0.166 1.203-0.275 1.485a2.47 2.47 0 0 1-0.599 0.919c-0.28 0.28-0.546 0.453-0.92 0.598-0.28 0.11-0.704 0.24-1.485 0.276-0.843 0.038-1.096 0.047-3.232 0.047s-2.39-9e-3 -3.233-0.047c-0.78-0.036-1.203-0.166-1.485-0.276a2.478 2.478 0 0 1-0.92-0.598 2.48 2.48 0 0 1-0.6-0.92c-0.109-0.281-0.24-0.705-0.275-1.485-0.038-0.843-0.046-1.096-0.046-3.233 0-2.136 8e-3 -2.388 0.046-3.231 0.036-0.78 0.166-1.204 0.276-1.486 0.145-0.373 0.319-0.64 0.599-0.92s0.546-0.453 0.92-0.598c0.282-0.11 0.705-0.24 1.485-0.276 0.738-0.034 1.024-0.044 2.515-0.045zm4.988 1.328a0.96 0.96 0 1 0 0 1.92 0.96 0.96 0 0 0 0-1.92zm-4.27 1.122a4.109 4.109 0 1 0 0 8.217 4.109 4.109 0 0 0 0-8.217zm0 1.441a2.667 2.667 0 1 1 0 5.334 2.667 2.667 0 0 1 0-5.334z"/>
 </g>
</svg>
