<?xml version="1.0" encoding="UTF-8"?>
<!-- Created with Inkscape (http://www.inkscape.org/) -->
<svg width="1622.5" height="793.7" version="1.1" viewBox="0 0 429.29 210" xmlns="http://www.w3.org/2000/svg" xmlns:cc="http://creativecommons.org/ns#" xmlns:dc="http://purl.org/dc/elements/1.1/" xmlns:rdf="http://www.w3.org/1999/02/22-rdf-syntax-ns#">
 <defs>
  <filter id="filter2138" x="-.028183" y="-.16211" width="1.0564" height="1.3242" color-interpolation-filters="sRGB">
   <feGaussianBlur stdDeviation="1.8055857"/>
  </filter>
 </defs>
 <metadata>
  <rdf:RDF>
   <cc:Work rdf:about="">
    <dc:format>image/svg+xml</dc:format>
    <dc:type rdf:resource="http://purl.org/dc/dcmitype/StillImage"/>
    <dc:title/>
   </cc:Work>
  </rdf:RDF>
 </metadata>
 <rect x="-.030419" y=".105" width="429.35" height="209.79" stroke-width="1.2023" style="paint-order:markers fill stroke"/>
 <g transform="matrix(.96241 -.1047 .12955 1.1909 18.627 -79.69)" fill="none" stroke="#000fff" stroke-linecap="round" stroke-linejoin="round" stroke-width=".43341" aria-label="FABIAN OBANDO">
  <path d="m304.78 171.43c-1.7736 0.9674-3.6868 1.4511-5.7399 1.4511-2.225 0-4.2135-0.53744-5.9656-1.6123-1.7521-1.0749-3.0795-2.5421-3.9824-4.4016-0.9029-1.8596-1.3544-3.8266-1.3544-5.9011 0-3.9233 1.0534-6.9921 3.1602-9.2064m8.1584-3.3375c2.182 0 4.149 0.52132 5.9011 1.564 1.7521 1.0426 3.0849 2.4991 3.9986 4.3694 0.9244 1.8596 1.3866 3.9717 1.3866 6.3364m-3.2246-0.0161c0-1.924-0.32784-3.6009-0.98352-5.0305-0.64493-1.4403-1.5962-2.5528-2.8538-3.3375-1.2469-0.79541-2.6496-1.1931-4.2082-1.1931-2.2142 0-4.1222 0.76317-5.7238 2.2895-1.5908 1.5156-2.3862 4.0523-2.3862 7.6102 0 2.8484 0.76317 5.0949 2.2895 6.7395 1.5371 1.6338 3.4611 2.4507 5.7721 2.4507 2.354 0 4.2888-0.82766 5.8044-2.483m-36.874 1.967h5.0466c1.5586 0 2.7786-0.14511 3.66-0.43532 0.89215-0.29022 1.6016-0.69868 2.1283-1.2254 0.74167-0.74167 1.3167-1.7359 1.7252-2.9828m-15.688-16.204h8.1422c1.838 0 3.2408 0.11286 4.2082 0.33859 1.3544 0.31172 2.5098 0.87603 3.4665 1.6929 1.2469 1.0534 2.1766 2.4024 2.7893 4.0469 0.62343 1.6338 0.93515 3.5041 0.93515 5.6109 0 1.795-0.2096 3.3859-0.62881 4.7725-0.4192 1.3866-0.95664 2.5367-1.6123 3.4504-0.65568 0.90291-1.3758 1.6177-2.1605 2.1444-0.77391 0.51594-1.7144 0.90827-2.8216 1.177-1.0964 0.26872-2.3594 0.40308-3.789 0.40308h-8.5292v-19.617m-20.686-4.0196 9.6142 14.371m2.8008 4.1866v-18.558m2.9989 0v23.637m-3.2085 0-12.415-18.574v18.574m-2.9989 0v-23.637m-12.173 0 9.674 23.637m-3.5632 0-2.7571-7.1587h-9.8836m-0.73504 2.0271-1.8608 5.1316m-3.3214 0 9.0774-23.637m5.756 13.93-2.4669-6.546c-0.75241-1.9885-1.3114-3.6224-1.6768-4.9015-0.30097 1.5156-0.72555 3.0204-1.2737 4.5145l-2.5958 6.933h5.1763m-28.458-11.141v7.1426h5.1111c1.3866 0 2.3809-0.0914 2.9828-0.27409 0.79541-0.23647 1.392-0.62881 1.7897-1.177 0.40845-0.54819 0.61268-1.2361 0.61268-2.0638 0-0.78467-0.1881-1.4726-0.56431-2.0638-0.37621-0.60193-0.91365-1.0104-1.6123-1.2254-0.69868-0.22573-1.8972-0.33859-3.5955-0.33859m-7.852-2.7893h8.8678m6.546 22.073c-0.68792 0.51595-1.5532 0.90828-2.5958 1.177-1.0319 0.25797-2.3002 0.38695-3.8051 0.38695h-9.0129v-21.6m13.205-1.311c1.0964 0.47295 1.9509 1.2092 2.5636 2.2089 0.62343 0.98889 0.93514 2.0262 0.93514 3.1118 0 1.0104-0.27409 1.9617-0.82228 2.8538s-1.3758 1.6123-2.483 2.1605c1.4296 0.41921 2.526 1.134 3.2891 2.1444 0.77392 1.0104 1.1609 2.2035 1.1609 3.5794m-27.119-15.64c1.7521 1.0426 3.0849 2.4991 3.9986 4.3694 0.92439 1.8596 1.3866 3.9717 1.3866 6.3364 0 2.397-0.4837 4.5414-1.4511 6.4332-0.96739 1.8918-2.3379 3.3268-4.1114 4.3049-1.7736 0.9674-3.6868 1.4511-5.7399 1.4511-2.225 0-4.2135-0.53744-5.9656-1.6123-1.7521-1.0749-3.0795-2.5421-3.9824-4.4016-0.9029-1.8596-1.3544-3.8266-1.3544-5.9011 0-3.9233 1.0534-6.9921 3.1602-9.2064 2.1068-2.225 4.8262-3.3375 8.1584-3.3375m-0.0322 21.783c2.354 0 4.2888-0.82766 5.8044-2.483 1.5263-1.6553 2.2895-4.0039 2.2895-7.0459 0-1.924-0.32784-3.6009-0.98352-5.0305-0.64493-1.4403-1.5962-2.5528-2.8538-3.3375-1.2469-0.79541-2.6496-1.1931-4.2082-1.1931-2.2142 0-4.1222 0.76317-5.7238 2.2895-1.5908 1.5156-2.3862 4.0523-2.3862 7.6102 0 2.8484 0.76317 5.0949 2.2895 6.7395m-34.407-18.913 12.415 18.558v-18.558m2.9989 0v23.637m-3.2085 0-12.415-18.574v18.574m-2.9989 0v-23.637m-24.62 23.637 9.0774-23.637m10.041 16.3 3.0028 7.3367m-9.6739-23.637 4.7579 11.625m-20.107-11.625v23.637m-3.1279 0v-23.637m-22.718 23.637v-23.637h8.8678c1.8058 0 3.2515 0.24185 4.3372 0.72555 1.0964 0.47295 1.9509 1.2092 2.5636 2.2089m0.93515 3.1118c0 1.0104-0.2741 1.9617-0.82229 2.8538s-1.3758 1.6123-2.483 2.1605c1.4296 0.41921 2.526 1.134 3.2891 2.1444 0.77391 1.0104 1.1609 2.2035 1.1609 3.5794 0 1.1071-0.23647 2.139-0.70942 3.0957-0.4622 0.94589-1.0373 1.6768-1.7252 2.1928-0.68792 0.51595-1.5532 0.90828-2.5958 1.177-1.0319 0.25797-2.3002 0.38695-3.8051 0.38695m-5.885-20.847v7.1426h5.1111c1.3866 0 2.3809-0.0914 2.9828-0.27409 0.79541-0.23647 1.392-0.62881 1.7897-1.177 0.40846-0.54819 0.61268-1.2361 0.61268-2.0638 0-0.78467-0.1881-1.4726-0.56431-2.0638-0.37621-0.60193-0.91365-1.0104-1.6123-1.2254-0.69867-0.22573-1.8972-0.33859-3.5955-0.33859m-4.7241 9.9319v8.1261h5.885c1.0104 0 1.7198-0.0376 2.1283-0.11286 0.72017-0.12899 1.3221-0.34396 1.8058-0.64493s0.8814-0.73629 1.1931-1.306c0.31172-0.58044 0.46757-1.2469 0.46757-1.9993 0-0.8814-0.22572-1.6446-0.67718-2.2895-0.45145-0.65568-1.0803-1.1125-1.8864-1.3705-0.79541-0.26872-1.9455-0.40308-3.4504-0.40308m-20.67-12.721 9.6739 23.637m-3.5632 0-2.7571-7.1587h-9.8836l-2.5958 7.1587m-3.3214 0 2.4789-6.4547m1.0767-2.8038 5.5218-14.378m-2.2573 13.93h8.0133l-2.4669-6.546c-0.75242-1.9885-1.3114-3.6224-1.6768-4.9015-0.30097 1.5156-0.72555 3.0204-1.2737 4.5145zm-6.4977-11.141h-12.818v7.32h11.093m0 2.7893h-11.093v10.738m-3.1279 0v-19.695m0-3.9413h15.946" 
  fill="none" filter="url(#filter2138)" stroke="#00f1ff" stroke-linecap="round" stroke-linejoin="round" stroke-width="2.3228">
  <animate
  id="light_1"
  attributeName="stroke-opacity"
  values="1;0"
  dur="1s"
  begin="0s;light_2.end+0.5s"/>
<animate
  id="light_2"
  attributeName="stroke-opacity"
  values="0;1"
  dur="1s"
  begin="light_1.end"/>
</path>
  
  <g shape-rendering="auto" stroke="none">
   <path d="m124.19 150.14a1.18 1.18 0 0 0-1.1484 0.94922c-0.28874 1.454-0.6968 2.8994-1.2246 4.3379l4e-3 -6e-3 -2.5957 6.9316a1.18 1.18 0 0 0 1.1035 1.5938h8.0137a1.18 1.18 0 0 0 1.1035-1.5957l-2.4668-6.5449a1.18 1.18 0 0 0 0-2e-3c-0.74516-1.9694-1.2954-3.5798-1.6465-4.8086a1.18 1.18 0 0 0-1.1426-0.85547zm143.76 0.30665a1.18 1.18 0 0 0-1.1797 1.1797v14.85a1.18 1.18 0 1 0 2.3594 0v-13.67h3.7871c1.7894 0 3.0526 0.18704 3.6191 0.4043 0.88129 0.34272 1.6603 1.0168 2.3672 2.1855a1.18 1.18 0 0 0 6e-3 0.01c0.64405 1.0424 1.0508 2.73 1.0508 5.0723a1.18 1.18 0 1 0 2.3594 0c0-2.6003-0.41219-4.7072-1.4004-6.3086-0.90494-1.4938-2.0889-2.5988-3.5273-3.1582a1.18 1.18 0 0 0-4e-3 -2e-3c-1.1112-0.42739-2.543-0.5625-4.4707-0.5625zm-143.65 4.8281c0.17894 0.49642 0.25939 0.81512 0.4668 1.3633l1.8652 4.9492h-4.6074l2-5.3398a1.18 1.18 0 0 0 4e-3 -6e-3c0.11714-0.31927 0.16514-0.64631 0.27148-0.9668zm75.545 5.1035a1.18 1.18 0 0 0-1.1816 1.1797v8.127a1.18 1.18 0 0 0 1.1816 1.1797h5.8848c1.0371 0 1.7576-0.0268 2.3359-0.13281 0.83179-0.14898 1.5782-0.40489 2.2207-0.80469 0.67066-0.41731 1.2124-1.0218 1.6055-1.7402a1.18 1.18 0 0 0 4e-3 -8e-3c0.41224-0.76765 0.60742-1.6432 0.60742-2.5586 0-1.0828-0.29437-2.113-0.89063-2.9648-0.59426-0.85968-1.4682-1.4854-2.4824-1.8125-1.0081-0.33938-2.2484-0.46484-3.8203-0.46484zm1.1797 2.3594h4.2852c1.4346 0 2.4906 0.14529 3.0723 0.3418a1.18 1.18 0 0 0 0.0176 6e-3c0.5907 0.18902 0.96899 0.47099 1.2754 0.91601a1.18 1.18 0 0 0 6e-3 6e-3c0.30665 0.43806 0.46289 0.93332 0.46289 1.6133 0 0.5878-0.11419 1.045-0.32422 1.4375-0.2297 0.41837-0.48364 0.68323-0.77929 0.86719-0.32488 0.20215-0.78208 0.37538-1.3906 0.48438a1.18 1.18 0 0 0-6e-3 2e-3c-0.23789 0.0438-0.93294 0.0918-1.9141 0.0918h-4.7051zm-81.604 1.3965a1.18 1.18 0 0 0-1.1094 0.77929l-2.5957 7.1582a1.1801 1.1801 0 1 0 2.2188 0.80468l2.3144-6.3809h8.2461l2.4648 6.4024a1.1803 1.1803 0 1 0 2.2031-0.84766l-2.7578-7.1602a1.18 1.18 0 0 0-1.1016-0.75585z" color="#000000" color-rendering="auto" dominant-baseline="auto" fill="#003984" image-rendering="auto" solid-color="#000000" style="font-feature-settings:normal;font-variant-alternates:normal;font-variant-caps:normal;font-variant-ligatures:normal;font-variant-numeric:normal;font-variant-position:normal;isolation:auto;mix-blend-mode:normal;shape-padding:0;text-decoration-color:#000000;text-decoration-line:none;text-decoration-style:solid;text-indent:0;text-orientation:mixed;text-transform:none;white-space:normal"/>
   
   <path d="m180.95 147.65c-3.5947 0-6.6953 1.2565-9.0156 3.707-2.3454 2.4662-3.4824 5.8842-3.4824 10.018 0 2.2457 0.49446 4.4014 1.4726 6.416 0.99487 2.0489 2.4922 3.7044 4.4258 4.8906 1.9418 1.1913 4.169 1.7871 6.584 1.7871 2.2384 0 4.3631-0.53666 6.3047-1.5957a1.18 1.18 0 0 0 4e-3 -2e-3c1.9758-1.0897 3.5289-2.7222 4.5918-4.8008 1.0594-2.0716 1.582-4.415 1.582-6.9707 0-2.5155-0.49706-4.8172-1.5078-6.8535-1.0062-2.0598-2.514-3.7101-4.4551-4.8652a1.18 1.18 0 1 0-1.207 2.0273c1.5631 0.93019 2.7219 2.1923 3.543 3.873a1.18 1.18 0 0 0 4e-3 8e-3c0.83566 1.681 1.2617 3.5996 1.2617 5.8106 0 2.2383-0.44488 4.1845-1.3203 5.8965-0.87185 1.705-2.0595 2.942-3.6309 3.8086-1.6044 0.87432-3.3037 1.3047-5.1699 1.3047-2.035 0-3.7873-0.47903-5.3496-1.4375-1.5706-0.96354-2.7262-2.242-3.5371-3.9121-0.8276-1.7045-1.2363-3.4814-1.2363-5.3848 0-3.7121 0.96904-6.4324 2.8359-8.3945a1.18 1.18 0 0 0 2e-3 -2e-3c1.8932-1.9995 4.2312-2.9688 7.3008-2.9688a1.18 1.18 0 1 0 0-2.3594zm117.51 0a1.18 1.18 0 1 0 0 2.3594c1.9941 0 3.7317 0.46588 5.2988 1.3984 1.5631 0.93019 2.72 2.1923 3.541 3.873a1.18 1.18 0 0 0 4e-3 8e-3c0.83566 1.681 1.2637 3.5996 1.2637 5.8106a1.18 1.18 0 1 0 2.3594 0c0-2.5153-0.49529-4.8174-1.5059-6.8535l-2e-3 -4e-3c-1.0062-2.058-2.5153-3.707-4.4551-4.8613-1.937-1.1527-4.134-1.7305-6.5039-1.7305zm-191.59 0.40234a1.18 1.18 0 0 0-1.1621 1.1973v23.637a1.18 1.18 0 1 0 2.3594 0v-23.637a1.18 1.18 0 0 0-1.1973-1.1973zm3.127 0a1.18 1.18 0 0 0-1.1621 1.1973v23.637a1.1807 1.1807 0 1 0 2.3613 0v-23.637a1.18 1.18 0 0 0-1.1992-1.1973zm27.523 0a1.18 1.18 0 0 0-1.1621 1.1973v23.637a1.18 1.18 0 1 0 2.3594 0v-23.637a1.18 1.18 0 0 0-1.1973-1.1973zm15.623 0a1.18 1.18 0 0 0-1.1621 1.1973v14.672l-10.254-15.328a1.18 1.18 0 1 0-1.9609 1.3125l12.414 18.557a1.18 1.18 0 0 0 2.1602-0.65625v-18.557a1.18 1.18 0 0 0-1.1973-1.1973zm3 0a1.18 1.18 0 0 0-1.1621 1.1973v23.637a1.18 1.18 0 1 0 2.3594 0v-23.637a1.18 1.18 0 0 0-1.1973-1.1973zm84.178 0a1.18 1.18 0 0 0-1.1621 1.1973v23.637a1.1807 1.1807 0 1 0 2.3613 0v-23.637a1.18 1.18 0 0 0-1.1992-1.1973zm15.625 0a1.18 1.18 0 0 0-1.1621 1.1973v18.557a1.18 1.18 0 1 0 2.3594 0v-18.557a1.18 1.18 0 0 0-1.1973-1.1973zm2.998 0a1.18 1.18 0 0 0-1.1621 1.1973v23.637a1.18 1.18 0 1 0 2.3594 0v-23.637a1.18 1.18 0 0 0-1.1973-1.1973zm-190.27 2e-3a1.18 1.18 0 0 0-1.0508 0.77148l-5.5215 14.379a1.18 1.18 0 1 0 2.2031 0.8457l5.5215-14.379a1.18 1.18 0 0 0-1.1523-1.6172zm3.4102 0a1.18 1.18 0 0 0-1.082 1.6426l9.6758 23.637a1.18 1.18 0 1 0 2.1836-0.89454l-9.6738-23.637a1.18 1.18 0 0 0-1.1035-0.74804zm49.861 0a1.18 1.18 0 0 0-1.0508 0.77148l-9.0762 23.637a1.18 1.18 0 1 0 2.2012 0.8457l9.0781-23.637a1.18 1.18 0 0 0-1.1524-1.6172zm3.4102 0a1.18 1.18 0 0 0-1.082 1.6426l4.7578 11.625a1.1808 1.1808 0 1 0 2.1856-0.89454l-4.7598-11.625a1.18 1.18 0 0 0-1.1016-0.74804zm99.391 0a1.18 1.18 0 0 0-1.0488 0.77148l-9.0781 23.637a1.18 1.18 0 1 0 2.2031 0.8457l9.0781-23.637a1.18 1.18 0 0 0-1.1543-1.6172zm3.4121 0a1.18 1.18 0 0 0-1.082 1.6426l9.6738 23.637a1.18 1.18 0 1 0 2.1836-0.89454l-9.6738-23.637a1.18 1.18 0 0 0-1.1016-0.74804zm15.377 0a1.18 1.18 0 0 0-0.9668 1.8516l9.6152 14.371a1.18 1.18 0 1 0 1.9609-1.3125l-9.6152-14.371a1.18 1.18 0 0 0-0.99414-0.53906zm-199.51 0.0156a1.18 1.18 0 1 0 0 2.3594h15.947a1.18 1.18 0 1 0 0-2.3594zm40.148 0a1.18 1.18 0 0 0-1.1797 1.1797v23.637a1.18 1.18 0 1 0 2.3594 0v-22.457h7.6875c1.7005 0 2.9939 0.23832 3.8574 0.62304a1.18 1.18 0 0 0 0.01172 6e-3c0.89218 0.38487 1.5332 0.93921 2.0254 1.7422a1.1801 1.1801 0 1 0 2.0117-1.2344c-0.73292-1.1958-1.7997-2.1127-3.0996-2.6738h-2e-3c-1.3058-0.57926-2.8987-0.82227-4.8047-0.82227zm111.96 0a1.18 1.18 0 0 0-0.61719 2.1934 1.18 1.18 0 0 0-0.5625 1.0215v21.602a1.18 1.18 0 0 0 1.1797 1.1797h9.0137c1.5723 0 2.927-0.13118 4.0898-0.42188a1.18 1.18 0 0 0 0.01-2e-3c1.1586-0.29861 2.1696-0.74832 3.0078-1.377a1.18 1.18 0 1 0-1.416-1.8867c-0.5367 0.40253-1.2535 0.73781-2.1777 0.97656-0.90059 0.22477-2.0778 0.35156-3.5137 0.35156h-7.834v-20.422a1.18 1.18 0 0 0-0.34961-0.85547h8.0371a1.18 1.18 0 1 0 0-2.3594zm68.105 0a1.18 1.18 0 1 0 0 2.3594h8.1406c1.7898 0 3.1351 0.11848 3.9414 0.30664a1.18 1.18 0 0 0 4e-3 2e-3c1.194 0.27481 2.1609 0.75297 2.9648 1.4394a1.18 1.18 0 0 0 4e-3 4e-3c1.0884 0.91953 1.8953 2.0822 2.4453 3.5586a1.18 1.18 0 0 0 4e-3 8e-3c0.56322 1.476 0.85743 3.201 0.85743 5.1914 0 1.7032-0.19973 3.1781-0.57813 4.4297-0.39016 1.2906-0.88006 2.3212-1.4394 3.1016-0.58774 0.80884-1.2121 1.4184-1.8633 1.8555-0.63603 0.42338-1.4429 0.76741-2.4414 1.0098a1.18 1.18 0 0 0-2e-3 2e-3c-0.98123 0.2405-2.1522 0.36914-3.5078 0.36914h-7.3496v-18.438a1.18 1.18 0 1 0-2.3594 0v19.617a1.18 1.18 0 0 0 1.1797 1.1797h8.5293c1.5028 0 2.8553-0.14085 4.0664-0.4375 1.2141-0.29468 2.286-0.73426 3.1973-1.3418a1.18 1.18 0 0 0 4e-3 -2e-3c0.91745-0.61582 1.734-1.434 2.457-2.4297a1.18 1.18 0 0 0 4e-3 -6e-3c0.75108-1.0466 1.3355-2.3159 1.7832-3.7969 0.46003-1.5216 0.67969-3.2264 0.67969-5.1133 0-2.2232-0.33002-4.2396-1.0137-6.0312-0.67477-1.8072-1.724-3.3405-3.125-4.5254-1.1083-0.94643-2.4519-1.5945-3.9648-1.9434-1.1284-0.2633-2.5902-0.36914-4.4766-0.36914zm-54.891 0.71875a1.18 1.18 0 0 0-0.47656 2.2695c0.89218 0.38487 1.5313 0.9392 2.0234 1.7422a1.18 1.18 0 0 0 0.01 0.0117c0.51956 0.82412 0.75196 1.6226 0.75196 2.4824 0 0.79702-0.20231 1.5135-0.64649 2.2363-0.18274 0.29741-0.60042 0.49444-0.87304 0.75 0.51369-0.7531 0.80078-1.6504 0.80078-2.6152 0-0.97257-0.24754-1.905-0.75-2.6953-0.51584-0.82142-1.3215-1.4303-2.2539-1.7188-0.96378-0.3098-2.203-0.39257-3.9492-0.39257a1.18 1.18 0 1 0 0 2.3594c1.646 0 2.7999 0.1415 3.2324 0.28125a1.18 1.18 0 0 0 0.0176 6e-3c0.45973 0.14146 0.72134 0.34555 0.95703 0.72266a1.18 1.18 0 0 0 6e-3 8e-3c0.24928 0.39172 0.38086 0.83357 0.38086 1.4297 0 0.63357-0.14042 1.0393-0.3789 1.3594a1.18 1.18 0 0 0-0.01 0.0117c-0.22552 0.31085-0.5637 0.55943-1.1719 0.74023a1.18 1.18 0 0 0-6e-3 0c-0.36108 0.10959-1.3059 0.22461-2.6406 0.22461h-3.9297v-5.9629a1.1807 1.1807 0 1 0-2.3613 0v7.1426a1.18 1.18 0 0 0 1.1816 1.1797h5.1094c1.4376 0 2.4817-0.0688 3.3242-0.32422h2e-3c0.31138-0.0929 0.58057-0.25414 0.86133-0.39648a1.18 1.18 0 0 0 0.64063 1.8008c1.2384 0.36314 2.0828 0.93432 2.6797 1.7246a1.18 1.18 0 0 0 6e-3 6e-3c0.61672 0.80515 0.91602 1.7067 0.91602 2.8613a1.1807 1.1807 0 1 0 2.3613 0c0-1.594-0.47283-3.0748-1.4004-4.2891-0.50375-0.66692-1.1484-1.2035-1.875-1.6504 0.43345-0.40031 0.82896-0.83167 1.1328-1.3262 0.6522-1.0614 0.99609-2.2489 0.99609-3.4727 0-1.3094-0.38813-2.5821-1.1133-3.7344-0.73309-1.1928-1.7997-2.1081-3.0977-2.668a1.18 1.18 0 0 0-0.45703-0.10352zm-28.371 1.5547c-2.4854 0-4.739 0.90156-6.5371 2.6152-1.9247 1.8336-2.752 4.7292-2.752 8.4629 0 3.0592 0.84614 5.6494 2.6035 7.543a1.1803 1.1803 0 1 0 1.7305-1.6055c-1.2953-1.3956-1.9746-3.2998-1.9746-5.9375 0-3.382 0.76253-5.5583 2.0195-6.7559 1.405-1.339 2.967-1.9629 4.9102-1.9629 1.3579 0 2.5153 0.33227 3.5742 1.0078a1.18 1.18 0 0 0 0.01 6e-3c1.0594 0.661 1.8417 1.5662 2.4024 2.8184a1.18 1.18 0 0 0 4e-3 0.01c0.57207 1.2473 0.875 2.749 0.875 4.5391 0 2.8446-0.69437 4.8556-1.9766 6.2461a1.18 1.18 0 0 0-2e-3 4e-3c-1.3101 1.4309-2.8562 2.0996-4.9336 2.0996a1.18 1.18 0 1 0 0 2.3594c2.6286 0 4.9493-0.98628 6.6699-2.8633l2e-3 -2e-3c1.7693-1.92 2.6016-4.6056 2.6016-7.8437 0-2.0541-0.35151-3.902-1.0879-5.5117l-2e-3 -2e-3c-0.72841-1.6255-1.8461-2.9438-3.2988-3.8516-1.4336-0.91307-3.0807-1.375-4.8379-1.375zm117.51 0c-2.4854 0-4.739 0.90156-6.5371 2.6152-1.9247 1.8336-2.752 4.7292-2.752 8.4629 0 3.0592 0.84809 5.6494 2.6055 7.543a1.18 1.18 0 0 0 4e-3 6e-3c1.7393 1.8488 4.0438 2.8223 6.6328 2.8223 2.6306 0 4.9528-0.98748 6.6738-2.8672a1.18 1.18 0 1 0-1.7402-1.5918c-1.3101 1.4309-2.8562 2.0996-4.9336 2.0996-2.0299 0-3.5747-0.65976-4.9082-2.0742l-2e-3 -2e-3c-1.2941-1.3954-1.9727-3.2991-1.9727-5.9355 0-3.382 0.76448-5.5583 2.0215-6.7559 1.405-1.339 2.965-1.9629 4.9082-1.9629 1.3579 0 2.5153 0.33227 3.5742 1.0078a1.18 1.18 0 0 0 0.01 6e-3c1.0594 0.661 1.8417 1.5662 2.4024 2.8184a1.18 1.18 0 0 0 4e-3 0.01c0.57207 1.2473 0.87696 2.749 0.87696 4.5391a1.18 1.18 0 1 0 2.3594 0c0-2.0581-0.3525-3.9096-1.0918-5.5215-0.72849-1.6218-1.8465-2.9375-3.2969-3.8438-1.4336-0.91307-3.0807-1.375-4.8379-1.375zm-228.15 0.20898a1.18 1.18 0 0 0-1.1484 0.94922c-0.28874 1.454-0.6968 2.8994-1.2246 4.3379l0.0039-6e-3 -2.5957 6.9316a1.18 1.18 0 0 0 1.1055 1.5938h8.0117a1.18 1.18 0 0 0 1.1055-1.5957l-2.4668-6.5449a1.18 1.18 0 0 0-2e-3 -2e-3c-0.74516-1.9694-1.2935-3.5798-1.6445-4.8086a1.18 1.18 0 0 0-1.1445-0.85547zm156.07 0a1.18 1.18 0 0 0-1.1465 0.94922c-0.28874 1.454-0.69681 2.8994-1.2246 4.3379l-2.5938 6.9258a1.18 1.18 0 0 0 1.1055 1.5938h5.1758a1.18 1.18 0 1 0 0-2.3594h-3.4746l2-5.3398a1.18 1.18 0 0 0 2e-3 -6e-3c0.11741-0.32 0.16687-0.64753 0.27344-0.96875 0.17911 0.49693 0.25914 0.81644 0.46679 1.3652h-2e-3l2.4668 6.5449a1.1802 1.1802 0 1 0 2.209-0.83203l-2.4668-6.5449a1.18 1.18 0 0 0 0-2e-3c-0.74516-1.9694-1.2954-3.5798-1.6465-4.8086a1.18 1.18 0 0 0-1.1445-0.85547zm-139.12 0.28905a1.18 1.18 0 0 0-1.1621 1.1973v7.1426a1.18 1.18 0 0 0 1.1797 1.1797h5.1113c1.4368 0 2.48-0.0692 3.3223-0.32422 0.31318-0.0934 0.58498-0.25315 0.86719-0.39648a1.18 1.18 0 0 0 0.63867 1.8008c1.2384 0.36314 2.0828 0.93432 2.6797 1.7246a1.18 1.18 0 0 0 4e-3 6e-3c0.61672 0.80515 0.91797 1.7067 0.91797 2.8613 0 0.93913-0.19507 1.7797-0.58789 2.5742a1.18 1.18 0 0 0-2e-3 4e-3c-0.39798 0.81447-0.86051 1.3832-1.373 1.7676-0.53671 0.40253-1.2535 0.73781-2.1777 0.97656-0.90059 0.22477-2.0798 0.35156-3.5156 0.35156a1.18 1.18 0 1 0 0 2.3594c1.5723 0 2.929-0.13118 4.0918-0.42188a1.18 1.18 0 0 0 0.0078-2e-3c1.1586-0.29861 2.1716-0.74832 3.0098-1.377 0.86152-0.64615 1.5482-1.539 2.0742-2.6133v-2e-3c0.55252-1.1183 0.83203-2.3427 0.83203-3.6172 0-1.5955-0.47302-3.078-1.4024-4.293-0.50286-0.66455-1.1467-1.2007-1.8711-1.6465 0.43345-0.40031 0.82896-0.83167 1.1328-1.3262 0.6522-1.0614 0.9961-2.2489 0.9961-3.4727a1.18 1.18 0 1 0-2.3594 0c0 0.79701-0.20426 1.5134-0.64843 2.2363-0.18241 0.29687-0.59915 0.49288-0.87109 0.74805 0.51297-0.75281 0.79883-1.6491 0.79883-2.6133 0-0.97109-0.2452-1.9019-0.74609-2.6914-0.51571-0.82382-1.3236-1.4337-2.2578-1.7227-0.96378-0.3098-2.201-0.39257-3.9473-0.39257a1.18 1.18 0 1 0 0 2.3594c1.646 0 2.7999 0.1415 3.2324 0.28125a1.18 1.18 0 0 0 0.01563 6e-3c0.45973 0.14146 0.72329 0.34555 0.95898 0.72266a1.18 1.18 0 0 0 0.0059 8e-3c0.24928 0.39173 0.37891 0.83357 0.37891 1.4297 0 0.63357-0.14042 1.0393-0.37891 1.3594a1.18 1.18 0 0 0-0.0078 0.0117c-0.22552 0.31085-0.56369 0.55943-1.1719 0.74023a1.18 1.18 0 0 0-0.0059 0c-0.36108 0.10959-1.3059 0.22461-2.6406 0.22461h-3.9316v-5.9629a1.18 1.18 0 0 0-1.1973-1.1977zm-40.129 0.0176a1.18 1.18 0 0 0-1.1797 1.1797v7.3203a1.18 1.18 0 0 0 1.1797 1.1797h11.092a1.18 1.18 0 1 0 0-2.3594h-9.9121v-4.9609h11.639a1.18 1.18 0 1 0 0-2.3594zm243.1 0.11718a1.18 1.18 0 0 0-0.80274 0.37891c-2.3466 2.4664-3.4844 5.885-3.4844 10.02 0 2.2457 0.49446 4.4014 1.4726 6.416 0.99487 2.0489 2.4942 3.7044 4.4277 4.8906 1.9418 1.1913 4.167 1.7871 6.582 1.7871 2.2383 0 4.3631-0.53666 6.3047-1.5957a1.18 1.18 0 1 0-1.1309-2.0703c-1.6055 0.87576-3.3061 1.3066-5.1738 1.3066-2.035 0-3.7873-0.47903-5.3496-1.4375-1.5706-0.96354-2.7262-2.242-3.5371-3.9121-0.8276-1.7045-1.2363-3.4814-1.2363-5.3848 0-3.7121 0.96904-6.4324 2.8359-8.3945a1.18 1.18 0 0 0-0.9082-2.0039zm-246.25 1.0176a1.18 1.18 0 0 0-1.1621 1.1973v19.695a1.18 1.18 0 1 0 2.3594 0v-19.695a1.18 1.18 0 0 0-1.1973-1.1973zm96.51 1.1387a1.18 1.18 0 0 0-1.1582 1.1797v18.574a1.1807 1.1807 0 1 0 2.3613 0v-14.684l10.254 15.338a1.18 1.18 0 1 0 1.9609-1.3106l-12.414-18.574a1.18 1.18 0 0 0-1.0039-0.52344zm102.8 0a1.18 1.18 0 0 0-1.1582 1.1797v18.574a1.18 1.18 0 1 0 2.3594 0v-14.686l10.254 15.34a1.1801 1.1801 0 1 0 1.9629-1.3106l-12.416-18.574a1.18 1.18 0 0 0-1.002-0.52344zm-172.87 2.5547c0.17893 0.49642 0.25939 0.81512 0.4668 1.3633l1.8652 4.9492h-4.6074l2-5.3398a1.18 1.18 0 0 0 0.0039-6e-3c0.11714-0.31927 0.16514-0.64631 0.27148-0.9668zm27.693 2.7363-0.0078 0.0117c0.0012-2e-3 7.23e-4 -4e-3 2e-3 -6e-3 0.0016-2e-3 0.0042-4e-3 0.0059-6e-3zm-10.855 2.3496a1.18 1.18 0 0 0-1.1621 1.1973v8.127a1.18 1.18 0 0 0 1.1797 1.1797h5.8848c1.0371 0 1.7577-0.0268 2.3359-0.13281 0.83179-0.14898 1.5801-0.40489 2.2227-0.80469 0.67068-0.41731 1.2104-1.0218 1.6035-1.7402a1.18 1.18 0 0 0 0.0059-8e-3c0.41225-0.76765 0.60741-1.6432 0.60741-2.5586 0-1.0828-0.29436-2.113-0.89061-2.9648-0.59443-0.85992-1.4698-1.4875-2.4844-1.8144-1.0078-0.33894-2.2473-0.46289-3.8184-0.46289a1.18 1.18 0 1 0 0 2.3594c1.4346 0 2.4906 0.14529 3.0723 0.3418a1.18 1.18 0 0 0 0.01758 6e-3c0.5907 0.18902 0.96703 0.47099 1.2734 0.91601a1.18 1.18 0 0 0 0.0059 6e-3c0.30664 0.43807 0.46484 0.93332 0.46484 1.6133 0 0.5878-0.11614 1.045-0.32617 1.4375-0.2297 0.41837-0.48364 0.68323-0.7793 0.86719-0.32487 0.20215-0.78208 0.37538-1.3906 0.48438a1.18 1.18 0 0 0-0.0059 2e-3c-0.2379 0.0438-0.93294 0.0918-1.9141 0.0918h-4.7051v-6.9453a1.18 1.18 0 0 0-1.1973-1.1974zm-40.129 0.19531a1.18 1.18 0 0 0-1.1797 1.1797v10.738a1.18 1.18 0 1 0 2.3594 0v-9.5586h9.9121a1.18 1.18 0 1 0 0-2.3594zm232.78 3.2891a1.18 1.18 0 0 0-1.127 0.82813c-0.36422 1.1118-0.85496 1.9311-1.4394 2.5156-0.36778 0.36779-0.90077 0.69111-1.6582 0.9375a1.18 1.18 0 0 0-4e-3 2e-3c-0.6852 0.2256-1.8057 0.375-3.291 0.375h-5.0469a1.1807 1.1807 0 1 0 0 2.3613h5.0469c1.6318 0 2.9517-0.14128 4.0293-0.49609 1.025-0.33402 1.9092-0.82712 2.5938-1.5117 0.89885-0.89885 1.559-2.0674 2.0117-3.4492a1.18 1.18 0 0 0-1.1152-1.5625zm-147.9 0.0957a1.18 1.18 0 0 0-1.082 1.6426l3.002 7.3379a1.1808 1.1808 0 1 0 2.1855-0.89454l-3.0039-7.3379a1.18 1.18 0 0 0-1.1016-0.74804zm-66.463 0.19336a1.18 1.18 0 0 0-1.1094 0.77929l-2.5957 7.1582a1.1801 1.1801 0 1 0 2.2188 0.80468l2.3145-6.3809h8.2461l2.4668 6.4024a1.18 1.18 0 1 0 2.2012-0.84766l-2.7578-7.1602a1.18 1.18 0 0 0-1.0996-0.75585zm156.07 0a1.18 1.18 0 0 0-0.8457 2.0195 1.18 1.18 0 0 0-1 0.78515l-1.8594 5.1328a1.18 1.18 0 1 0 2.2168 0.80468l1.8613-5.1328a1.18 1.18 0 0 0-0.26758-1.248h8.9668l2.4668 6.4024a1.18 1.18 0 1 0 2.2012-0.84766l-2.7559-7.1602a1.18 1.18 0 0 0-1.1016-0.75585zm-159.56 0.68945a1.18 1.18 0 0 0-1.0508 0.77148l-2.4785 6.4551a1.18 1.18 0 1 0 2.2031 0.8457l2.4785-6.4551a1.18 1.18 0 0 0-1.1523-1.6172z" color="#000000" color-rendering="auto" dominant-baseline="auto" fill="#fafdff" image-rendering="auto" solid-color="#000000" style="font-feature-settings:normal;font-variant-alternates:normal;font-variant-caps:normal;font-variant-ligatures:normal;font-variant-numeric:normal;font-variant-position:normal;isolation:auto;mix-blend-mode:normal;shape-padding:0;text-decoration-color:#000000;text-decoration-line:none;text-decoration-style:solid;text-indent:0;text-orientation:mixed;text-transform:none;white-space:normal">
  	<animate
  		id="light_1"
  		attributeName="fill-opacity"
  		values="1;0"
  		dur="1s"
  		begin="0s;light_2.end+0.5s"/>
  	<animate
  		id="light_2"
  		attributeName="fill-opacity"
  		values="0;1"
  		dur="1s"
  		begin="light_1.end"/>
  </path>
   
   <path d="m181.43 147.53c-3.5947 0-6.6953 1.2565-9.0156 3.707-2.3454 2.4662-3.4824 5.8842-3.4824 10.018 0 2.2457 0.49446 4.4014 1.4726 6.416 0.99487 2.0489 2.4922 3.7044 4.4258 4.8906 1.9418 1.1913 4.169 1.7871 6.584 1.7871 2.2384 0 4.3631-0.53666 6.3047-1.5957a1.18 1.18 0 0 0 4e-3 -2e-3c1.9758-1.0897 3.5289-2.7222 4.5918-4.8008 1.0594-2.0716 1.582-4.415 1.582-6.9707 0-2.5155-0.49706-4.8172-1.5078-6.8535-1.0062-2.0598-2.514-3.7101-4.4551-4.8652a1.18 1.18 0 1 0-1.207 2.0273c1.5631 0.93019 2.7219 2.1923 3.543 3.873a1.18 1.18 0 0 0 4e-3 8e-3c0.83566 1.681 1.2617 3.5996 1.2617 5.8106 0 2.2383-0.44488 4.1845-1.3203 5.8965-0.87185 1.705-2.0595 2.942-3.6309 3.8086-1.6044 0.87432-3.3037 1.3047-5.1699 1.3047-2.035 0-3.7873-0.47903-5.3496-1.4375-1.5706-0.96354-2.7262-2.242-3.5371-3.9121-0.8276-1.7045-1.2363-3.4814-1.2363-5.3848 0-3.7121 0.96904-6.4324 2.8359-8.3945a1.18 1.18 0 0 0 2e-3 -2e-3c1.8932-1.9995 4.2312-2.9688 7.3008-2.9688a1.18 1.18 0 1 0 0-2.3594zm117.51 0a1.18 1.18 0 1 0 0 2.3594c1.9941 0 3.7317 0.46588 5.2988 1.3984 1.5631 0.93019 2.72 2.1923 3.541 3.873a1.18 1.18 0 0 0 4e-3 8e-3c0.83566 1.681 1.2637 3.5996 1.2637 5.8106a1.18 1.18 0 1 0 2.3594 0c0-2.5153-0.49529-4.8174-1.5059-6.8535l-2e-3 -4e-3c-1.0062-2.058-2.5153-3.707-4.4551-4.8613-1.937-1.1527-4.134-1.7305-6.5039-1.7305zm-191.59 0.40234a1.18 1.18 0 0 0-1.1621 1.1973v23.637a1.18 1.18 0 1 0 2.3594 0v-23.637a1.18 1.18 0 0 0-1.1973-1.1973zm3.127 0a1.18 1.18 0 0 0-1.1621 1.1973v23.637a1.1807 1.1807 0 1 0 2.3613 0v-23.637a1.18 1.18 0 0 0-1.1992-1.1973zm27.523 0a1.18 1.18 0 0 0-1.1621 1.1973v23.637a1.18 1.18 0 1 0 2.3594 0v-23.637a1.18 1.18 0 0 0-1.1973-1.1973zm15.623 0a1.18 1.18 0 0 0-1.1621 1.1973v14.672l-10.254-15.328a1.18 1.18 0 1 0-1.9609 1.3125l12.414 18.557a1.18 1.18 0 0 0 2.1602-0.65625v-18.557a1.18 1.18 0 0 0-1.1973-1.1973zm3 0a1.18 1.18 0 0 0-1.1621 1.1973v23.637a1.18 1.18 0 1 0 2.3594 0v-23.637a1.18 1.18 0 0 0-1.1973-1.1973zm84.178 0a1.18 1.18 0 0 0-1.1621 1.1973v23.637a1.1807 1.1807 0 1 0 2.3613 0v-23.637a1.18 1.18 0 0 0-1.1992-1.1973zm15.625 0a1.18 1.18 0 0 0-1.1621 1.1973v18.557a1.18 1.18 0 1 0 2.3594 0v-18.557a1.18 1.18 0 0 0-1.1973-1.1973zm2.998 0a1.18 1.18 0 0 0-1.1621 1.1973v23.637a1.18 1.18 0 1 0 2.3594 0v-23.637a1.18 1.18 0 0 0-1.1973-1.1973zm-190.27 2e-3a1.18 1.18 0 0 0-1.0508 0.77148l-5.5215 14.379a1.18 1.18 0 1 0 2.2031 0.8457l5.5215-14.379a1.18 1.18 0 0 0-1.1523-1.6172zm3.4102 0a1.18 1.18 0 0 0-1.082 1.6426l9.6758 23.637a1.18 1.18 0 1 0 2.1836-0.89454l-9.6738-23.637a1.18 1.18 0 0 0-1.1035-0.74804zm49.861 0a1.18 1.18 0 0 0-1.0508 0.77148l-9.0762 23.637a1.18 1.18 0 1 0 2.2012 0.8457l9.0781-23.637a1.18 1.18 0 0 0-1.1524-1.6172zm3.4102 0a1.18 1.18 0 0 0-1.082 1.6426l4.7578 11.625a1.1808 1.1808 0 1 0 2.1856-0.89454l-4.7598-11.625a1.18 1.18 0 0 0-1.1016-0.74804zm99.391 0a1.18 1.18 0 0 0-1.0488 0.77148l-9.0781 23.637a1.18 1.18 0 1 0 2.2031 0.8457l9.0781-23.637a1.18 1.18 0 0 0-1.1543-1.6172zm3.4121 0a1.18 1.18 0 0 0-1.082 1.6426l9.6738 23.637a1.18 1.18 0 1 0 2.1836-0.89454l-9.6738-23.637a1.18 1.18 0 0 0-1.1016-0.74804zm15.377 0a1.18 1.18 0 0 0-0.9668 1.8516l9.6152 14.371a1.18 1.18 0 1 0 1.9609-1.3125l-9.6152-14.371a1.18 1.18 0 0 0-0.99414-0.53906zm-199.51 0.0156a1.18 1.18 0 1 0 0 2.3594h15.947a1.18 1.18 0 1 0 0-2.3594zm40.148 0a1.18 1.18 0 0 0-1.1797 1.1797v23.637a1.18 1.18 0 1 0 2.3594 0v-22.457h7.6875c1.7005 0 2.9939 0.23832 3.8574 0.62304a1.18 1.18 0 0 0 0.01172 6e-3c0.89218 0.38487 1.5332 0.93921 2.0254 1.7422a1.1801 1.1801 0 1 0 2.0117-1.2344c-0.73292-1.1958-1.7997-2.1127-3.0996-2.6738h-2e-3c-1.3058-0.57926-2.8987-0.82227-4.8047-0.82227zm111.96 0a1.18 1.18 0 0 0-0.61719 2.1934 1.18 1.18 0 0 0-0.5625 1.0215v21.602a1.18 1.18 0 0 0 1.1797 1.1797h9.0137c1.5723 0 2.927-0.13118 4.0898-0.42188a1.18 1.18 0 0 0 0.01-2e-3c1.1586-0.29861 2.1696-0.74832 3.0078-1.377a1.18 1.18 0 1 0-1.416-1.8867c-0.5367 0.40253-1.2535 0.73781-2.1777 0.97656-0.90059 0.22477-2.0778 0.35156-3.5137 0.35156h-7.834v-20.422a1.18 1.18 0 0 0-0.34961-0.85547h8.0371a1.18 1.18 0 1 0 0-2.3594zm68.105 0a1.18 1.18 0 1 0 0 2.3594h8.1406c1.7898 0 3.1351 0.11848 3.9414 0.30664a1.18 1.18 0 0 0 4e-3 2e-3c1.194 0.27481 2.1609 0.75297 2.9648 1.4394a1.18 1.18 0 0 0 4e-3 4e-3c1.0884 0.91953 1.8953 2.0822 2.4453 3.5586a1.18 1.18 0 0 0 4e-3 8e-3c0.56322 1.476 0.85743 3.201 0.85743 5.1914 0 1.7032-0.19973 3.1781-0.57813 4.4297-0.39016 1.2906-0.88006 2.3212-1.4394 3.1016-0.58774 0.80884-1.2121 1.4184-1.8633 1.8555-0.63603 0.42338-1.4429 0.76741-2.4414 1.0098a1.18 1.18 0 0 0-2e-3 2e-3c-0.98123 0.2405-2.1522 0.36914-3.5078 0.36914h-7.3496v-18.438a1.18 1.18 0 1 0-2.3594 0v19.617a1.18 1.18 0 0 0 1.1797 1.1797h8.5293c1.5028 0 2.8553-0.14085 4.0664-0.4375 1.2141-0.29468 2.286-0.73426 3.1973-1.3418a1.18 1.18 0 0 0 4e-3 -2e-3c0.91745-0.61582 1.734-1.434 2.457-2.4297a1.18 1.18 0 0 0 4e-3 -6e-3c0.75108-1.0466 1.3355-2.3159 1.7832-3.7969 0.46003-1.5216 0.67969-3.2264 0.67969-5.1133 0-2.2232-0.33002-4.2396-1.0137-6.0312-0.67477-1.8072-1.724-3.3405-3.125-4.5254-1.1083-0.94643-2.4519-1.5945-3.9648-1.9434-1.1284-0.2633-2.5902-0.36914-4.4766-0.36914zm-54.891 0.71875a1.18 1.18 0 0 0-0.47656 2.2695c0.89218 0.38487 1.5313 0.9392 2.0234 1.7422a1.18 1.18 0 0 0 0.01 0.0117c0.51956 0.82412 0.75196 1.6226 0.75196 2.4824 0 0.79702-0.20231 1.5135-0.64649 2.2363-0.18274 0.29741-0.60042 0.49444-0.87304 0.75 0.51369-0.7531 0.80078-1.6504 0.80078-2.6152 0-0.97257-0.24754-1.905-0.75-2.6953-0.51584-0.82142-1.3215-1.4303-2.2539-1.7188-0.96378-0.3098-2.203-0.39257-3.9492-0.39257a1.18 1.18 0 1 0 0 2.3594c1.646 0 2.7999 0.1415 3.2324 0.28125a1.18 1.18 0 0 0 0.0176 6e-3c0.45973 0.14146 0.72134 0.34555 0.95703 0.72266a1.18 1.18 0 0 0 6e-3 8e-3c0.24928 0.39172 0.38086 0.83357 0.38086 1.4297 0 0.63357-0.14042 1.0393-0.3789 1.3594a1.18 1.18 0 0 0-0.01 0.0117c-0.22552 0.31085-0.5637 0.55943-1.1719 0.74023a1.18 1.18 0 0 0-6e-3 0c-0.36108 0.10959-1.3059 0.22461-2.6406 0.22461h-3.9297v-5.9629a1.1807 1.1807 0 1 0-2.3613 0v7.1426a1.18 1.18 0 0 0 1.1816 1.1797h5.1094c1.4376 0 2.4817-0.0688 3.3242-0.32422h2e-3c0.31138-0.0929 0.58057-0.25414 0.86133-0.39648a1.18 1.18 0 0 0 0.64063 1.8008c1.2384 0.36314 2.0828 0.93432 2.6797 1.7246a1.18 1.18 0 0 0 6e-3 6e-3c0.61672 0.80515 0.91602 1.7067 0.91602 2.8613a1.1807 1.1807 0 1 0 2.3613 0c0-1.594-0.47283-3.0748-1.4004-4.2891-0.50375-0.66692-1.1484-1.2035-1.875-1.6504 0.43345-0.40031 0.82896-0.83167 1.1328-1.3262 0.6522-1.0614 0.99609-2.2489 0.99609-3.4727 0-1.3094-0.38813-2.5821-1.1133-3.7344-0.73309-1.1928-1.7997-2.1081-3.0977-2.668a1.18 1.18 0 0 0-0.45703-0.10352zm-28.371 1.5547c-2.4854 0-4.739 0.90156-6.5371 2.6152-1.9247 1.8336-2.752 4.7292-2.752 8.4629 0 3.0592 0.84614 5.6494 2.6035 7.543a1.1803 1.1803 0 1 0 1.7305-1.6055c-1.2953-1.3956-1.9746-3.2998-1.9746-5.9375 0-3.382 0.76253-5.5583 2.0195-6.7559 1.405-1.339 2.967-1.9629 4.9102-1.9629 1.3579 0 2.5153 0.33227 3.5742 1.0078a1.18 1.18 0 0 0 0.01 6e-3c1.0594 0.661 1.8417 1.5662 2.4024 2.8184a1.18 1.18 0 0 0 4e-3 0.01c0.57207 1.2473 0.875 2.749 0.875 4.5391 0 2.8446-0.69437 4.8556-1.9766 6.2461a1.18 1.18 0 0 0-2e-3 4e-3c-1.3101 1.4309-2.8562 2.0996-4.9336 2.0996a1.18 1.18 0 1 0 0 2.3594c2.6286 0 4.9493-0.98628 6.6699-2.8633l2e-3 -2e-3c1.7693-1.92 2.6016-4.6056 2.6016-7.8437 0-2.0541-0.35151-3.902-1.0879-5.5117l-2e-3 -2e-3c-0.72841-1.6255-1.8461-2.9438-3.2988-3.8516-1.4336-0.91307-3.0807-1.375-4.8379-1.375zm117.51 0c-2.4854 0-4.739 0.90156-6.5371 2.6152-1.9247 1.8336-2.752 4.7292-2.752 8.4629 0 3.0592 0.84809 5.6494 2.6055 7.543a1.18 1.18 0 0 0 4e-3 6e-3c1.7393 1.8488 4.0438 2.8223 6.6328 2.8223 2.6306 0 4.9528-0.98748 6.6738-2.8672a1.18 1.18 0 1 0-1.7402-1.5918c-1.3101 1.4309-2.8562 2.0996-4.9336 2.0996-2.0299 0-3.5747-0.65976-4.9082-2.0742l-2e-3 -2e-3c-1.2941-1.3954-1.9727-3.2991-1.9727-5.9355 0-3.382 0.76448-5.5583 2.0215-6.7559 1.405-1.339 2.965-1.9629 4.9082-1.9629 1.3579 0 2.5153 0.33227 3.5742 1.0078a1.18 1.18 0 0 0 0.01 6e-3c1.0594 0.661 1.8417 1.5662 2.4024 2.8184a1.18 1.18 0 0 0 4e-3 0.01c0.57207 1.2473 0.87696 2.749 0.87696 4.5391a1.18 1.18 0 1 0 2.3594 0c0-2.0581-0.3525-3.9096-1.0918-5.5215-0.72849-1.6218-1.8465-2.9375-3.2969-3.8438-1.4336-0.91307-3.0807-1.375-4.8379-1.375zm-228.15 0.20898a1.18 1.18 0 0 0-1.1484 0.94922c-0.28874 1.454-0.6968 2.8994-1.2246 4.3379l0.0039-6e-3 -2.5957 6.9316a1.18 1.18 0 0 0 1.1055 1.5938h8.0117a1.18 1.18 0 0 0 1.1055-1.5957l-2.4668-6.5449a1.18 1.18 0 0 0-2e-3 -2e-3c-0.74516-1.9694-1.2935-3.5798-1.6445-4.8086a1.18 1.18 0 0 0-1.1445-0.85547zm156.07 0a1.18 1.18 0 0 0-1.1465 0.94922c-0.28874 1.454-0.69681 2.8994-1.2246 4.3379l-2.5938 6.9258a1.18 1.18 0 0 0 1.1055 1.5938h5.1758a1.18 1.18 0 1 0 0-2.3594h-3.4746l2-5.3398a1.18 1.18 0 0 0 2e-3 -6e-3c0.11741-0.32 0.16687-0.64753 0.27344-0.96875 0.17911 0.49693 0.25914 0.81644 0.46679 1.3652h-2e-3l2.4668 6.5449a1.1802 1.1802 0 1 0 2.209-0.83203l-2.4668-6.5449a1.18 1.18 0 0 0 0-2e-3c-0.74516-1.9694-1.2954-3.5798-1.6465-4.8086a1.18 1.18 0 0 0-1.1445-0.85547zm-139.12 0.28905a1.18 1.18 0 0 0-1.1621 1.1973v7.1426a1.18 1.18 0 0 0 1.1797 1.1797h5.1113c1.4368 0 2.48-0.0692 3.3223-0.32422 0.31318-0.0934 0.58498-0.25315 0.86719-0.39648a1.18 1.18 0 0 0 0.63867 1.8008c1.2384 0.36314 2.0828 0.93432 2.6797 1.7246a1.18 1.18 0 0 0 4e-3 6e-3c0.61672 0.80515 0.91797 1.7067 0.91797 2.8613 0 0.93913-0.19507 1.7797-0.58789 2.5742a1.18 1.18 0 0 0-2e-3 4e-3c-0.39798 0.81447-0.86051 1.3832-1.373 1.7676-0.53671 0.40253-1.2535 0.73781-2.1777 0.97656-0.90059 0.22477-2.0798 0.35156-3.5156 0.35156a1.18 1.18 0 1 0 0 2.3594c1.5723 0 2.929-0.13118 4.0918-0.42188a1.18 1.18 0 0 0 0.0078-2e-3c1.1586-0.29861 2.1716-0.74832 3.0098-1.377 0.86152-0.64615 1.5482-1.539 2.0742-2.6133v-2e-3c0.55252-1.1183 0.83203-2.3427 0.83203-3.6172 0-1.5955-0.47302-3.078-1.4024-4.293-0.50286-0.66455-1.1467-1.2007-1.8711-1.6465 0.43345-0.40031 0.82896-0.83167 1.1328-1.3262 0.6522-1.0614 0.9961-2.2489 0.9961-3.4727a1.18 1.18 0 1 0-2.3594 0c0 0.79701-0.20426 1.5134-0.64843 2.2363-0.18241 0.29687-0.59915 0.49288-0.87109 0.74805 0.51297-0.75281 0.79883-1.6491 0.79883-2.6133 0-0.97109-0.2452-1.9019-0.74609-2.6914-0.51571-0.82382-1.3236-1.4337-2.2578-1.7227-0.96378-0.3098-2.201-0.39257-3.9473-0.39257a1.18 1.18 0 1 0 0 2.3594c1.646 0 2.7999 0.1415 3.2324 0.28125a1.18 1.18 0 0 0 0.01563 6e-3c0.45973 0.14146 0.72329 0.34555 0.95898 0.72266a1.18 1.18 0 0 0 0.0059 8e-3c0.24928 0.39173 0.37891 0.83357 0.37891 1.4297 0 0.63357-0.14042 1.0393-0.37891 1.3594a1.18 1.18 0 0 0-0.0078 0.0117c-0.22552 0.31085-0.56369 0.55943-1.1719 0.74023a1.18 1.18 0 0 0-0.0059 0c-0.36108 0.10959-1.3059 0.22461-2.6406 0.22461h-3.9316v-5.9629a1.18 1.18 0 0 0-1.1973-1.1977zm-40.129 0.0176a1.18 1.18 0 0 0-1.1797 1.1797v7.3203a1.18 1.18 0 0 0 1.1797 1.1797h11.092a1.18 1.18 0 1 0 0-2.3594h-9.9121v-4.9609h11.639a1.18 1.18 0 1 0 0-2.3594zm243.1 0.11718a1.18 1.18 0 0 0-0.80274 0.37891c-2.3466 2.4664-3.4844 5.885-3.4844 10.02 0 2.2457 0.49446 4.4014 1.4726 6.416 0.99487 2.0489 2.4942 3.7044 4.4277 4.8906 1.9418 1.1913 4.167 1.7871 6.582 1.7871 2.2383 0 4.3631-0.53666 6.3047-1.5957a1.18 1.18 0 1 0-1.1309-2.0703c-1.6055 0.87576-3.3061 1.3066-5.1738 1.3066-2.035 0-3.7873-0.47903-5.3496-1.4375-1.5706-0.96354-2.7262-2.242-3.5371-3.9121-0.8276-1.7045-1.2363-3.4814-1.2363-5.3848 0-3.7121 0.96904-6.4324 2.8359-8.3945a1.18 1.18 0 0 0-0.9082-2.0039zm-246.25 1.0176a1.18 1.18 0 0 0-1.1621 1.1973v19.695a1.18 1.18 0 1 0 2.3594 0v-19.695a1.18 1.18 0 0 0-1.1973-1.1973zm96.51 1.1387a1.18 1.18 0 0 0-1.1582 1.1797v18.574a1.1807 1.1807 0 1 0 2.3613 0v-14.684l10.254 15.338a1.18 1.18 0 1 0 1.9609-1.3106l-12.414-18.574a1.18 1.18 0 0 0-1.0039-0.52344zm102.8 0a1.18 1.18 0 0 0-1.1582 1.1797v18.574a1.18 1.18 0 1 0 2.3594 0v-14.686l10.254 15.34a1.1801 1.1801 0 1 0 1.9629-1.3106l-12.416-18.574a1.18 1.18 0 0 0-1.002-0.52344zm-172.87 2.5547c0.17893 0.49642 0.25939 0.81512 0.4668 1.3633l1.8652 4.9492h-4.6074l2-5.3398a1.18 1.18 0 0 0 0.0039-6e-3c0.11714-0.31927 0.16514-0.64631 0.27148-0.9668zm27.693 2.7363-0.0078 0.0117c0.0012-2e-3 7.23e-4 -4e-3 2e-3 -6e-3 0.0016-2e-3 0.0042-4e-3 0.0059-6e-3zm-10.855 2.3496a1.18 1.18 0 0 0-1.1621 1.1973v8.127a1.18 1.18 0 0 0 1.1797 1.1797h5.8848c1.0371 0 1.7577-0.0268 2.3359-0.13281 0.83179-0.14898 1.5801-0.40489 2.2227-0.80469 0.67068-0.41731 1.2104-1.0218 1.6035-1.7402a1.18 1.18 0 0 0 0.0059-8e-3c0.41225-0.76765 0.60741-1.6432 0.60741-2.5586 0-1.0828-0.29436-2.113-0.89061-2.9648-0.59443-0.85992-1.4698-1.4875-2.4844-1.8144-1.0078-0.33894-2.2473-0.46289-3.8184-0.46289a1.18 1.18 0 1 0 0 2.3594c1.4346 0 2.4906 0.14529 3.0723 0.3418a1.18 1.18 0 0 0 0.01758 6e-3c0.5907 0.18902 0.96703 0.47099 1.2734 0.91601a1.18 1.18 0 0 0 0.0059 6e-3c0.30664 0.43807 0.46484 0.93332 0.46484 1.6133 0 0.5878-0.11614 1.045-0.32617 1.4375-0.2297 0.41837-0.48364 0.68323-0.7793 0.86719-0.32487 0.20215-0.78208 0.37538-1.3906 0.48438a1.18 1.18 0 0 0-0.0059 2e-3c-0.2379 0.0438-0.93294 0.0918-1.9141 0.0918h-4.7051v-6.9453a1.18 1.18 0 0 0-1.1973-1.1974zm-40.129 0.19531a1.18 1.18 0 0 0-1.1797 1.1797v10.738a1.18 1.18 0 1 0 2.3594 0v-9.5586h9.9121a1.18 1.18 0 1 0 0-2.3594zm232.78 3.2891a1.18 1.18 0 0 0-1.127 0.82813c-0.36422 1.1118-0.85496 1.9311-1.4394 2.5156-0.36778 0.36779-0.90077 0.69111-1.6582 0.9375a1.18 1.18 0 0 0-4e-3 2e-3c-0.6852 0.2256-1.8057 0.375-3.291 0.375h-5.0469a1.1807 1.1807 0 1 0 0 2.3613h5.0469c1.6318 0 2.9517-0.14128 4.0293-0.49609 1.025-0.33402 1.9092-0.82712 2.5938-1.5117 0.89885-0.89885 1.559-2.0674 2.0117-3.4492a1.18 1.18 0 0 0-1.1152-1.5625zm-147.9 0.0957a1.18 1.18 0 0 0-1.082 1.6426l3.002 7.3379a1.1808 1.1808 0 1 0 2.1855-0.89454l-3.0039-7.3379a1.18 1.18 0 0 0-1.1016-0.74804zm-66.463 0.19336a1.18 1.18 0 0 0-1.1094 0.77929l-2.5957 7.1582a1.1801 1.1801 0 1 0 2.2188 0.80468l2.3145-6.3809h8.2461l2.4668 6.4024a1.18 1.18 0 1 0 2.2012-0.84766l-2.7578-7.1602a1.18 1.18 0 0 0-1.0996-0.75585zm156.07 0a1.18 1.18 0 0 0-0.8457 2.0195 1.18 1.18 0 0 0-1 0.78515l-1.8594 5.1328a1.18 1.18 0 1 0 2.2168 0.80468l1.8613-5.1328a1.18 1.18 0 0 0-0.26758-1.248h8.9668l2.4668 6.4024a1.18 1.18 0 1 0 2.2012-0.84766l-2.7559-7.1602a1.18 1.18 0 0 0-1.1016-0.75585zm-159.56 0.68945a1.18 1.18 0 0 0-1.0508 0.77148l-2.4785 6.4551a1.18 1.18 0 1 0 2.2031 0.8457l2.4785-6.4551a1.18 1.18 0 0 0-1.1523-1.6172z" color="#000000" color-rendering="auto" dominant-baseline="auto" fill="#00ceff" image-rendering="auto" solid-color="#000000" style="font-feature-settings:normal;font-variant-alternates:normal;font-variant-caps:normal;font-variant-ligatures:normal;font-variant-numeric:normal;font-variant-position:normal;isolation:auto;mix-blend-mode:normal;shape-padding:0;text-decoration-color:#000000;text-decoration-line:none;text-decoration-style:solid;text-indent:0;text-orientation:mixed;text-transform:none;white-space:normal"/>
  </g>
  <g fill="none" stroke-linecap="round" stroke-linejoin="round">
   <path transform="matrix(.35433 0 0 .28636 -31.167 27.366)" d="m438.48 432.87c-0.8494 5.2927-2.0486 10.548-3.5957 15.766l-7.3262 24.211h22.615l-6.9609-22.859c-2.1235-6.9442-3.701-12.65-4.7324-17.117zm442.93 31.982c0-8.6334-1.1535-15.26-3.459-19.877-2.2751-4.6545-5.05-7.7692-8.3262-9.3457-2.3662-1.1261-6.1739-1.6894-11.422-1.6894h-14.014v51.855m-192.21-17.172v28.377h16.607c2.8515 0 4.8551-0.12976 6.0078-0.39258 2.0325-0.45045 3.7306-1.2029 5.0957-2.2539s2.4874-2.5711 3.3672-4.5605c0.87971-2.027 1.3203-4.3529 1.3203-6.9805 0-3.078-0.63803-5.7439-1.9121-7.9961-1.2741-2.2897-3.0491-3.8843-5.3242-4.7852-2.2448-0.93841-5.4894-1.4082-9.7363-1.4082zm-191.29 38.119-7.7812-25h-27.893l-7.3262 25" stroke="#3255e0" stroke-width="2.4945">
    <animate
        id="light_1"
        attributeName="fill-opacity"
        values="1;0"
        dur="1s"
        begin="0s;light_2.end+0.5s"/>
    <animate
        id="light_2"
        attributeName="fill-opacity"
        values="0;1"
        dur="1s"
        begin="light_1.end"/>
</path>
   
   <path d="m304.69 171.69c-1.7736 0.9674-3.6868 1.4511-5.7399 1.4511-2.225 0-4.2135-0.53744-5.9656-1.6123-1.752-1.0749-3.0795-2.5421-3.9824-4.4016-0.90289-1.8596-1.3544-3.8266-1.3544-5.9011 0-3.9233 1.0534-6.9921 3.1602-9.2064m8.1584-3.3375c2.182 0 4.149 0.52132 5.9011 1.564 1.7521 1.0426 3.0849 2.4991 3.9986 4.3694 0.92439 1.8596 1.3866 3.9717 1.3866 6.3364m-3.2246-0.0161c0-1.924-0.32783-3.6009-0.98352-5.0305-0.64492-1.4403-1.5962-2.5528-2.8538-3.3375-1.2469-0.79541-2.6496-1.1931-4.2082-1.1931-2.2142 0-4.1222 0.76317-5.7238 2.2895-1.5908 1.5156-2.3862 4.0523-2.3862 7.6102 0 2.8484 0.76317 5.0949 2.2895 6.7395 1.5371 1.6338 3.4611 2.4507 5.7721 2.4507 2.354 0 4.2888-0.82766 5.8044-2.483m-36.874 1.967h5.0466c1.5586 0 2.7786-0.14511 3.66-0.43532 0.89216-0.29022 1.6016-0.69868 2.1283-1.2254 0.74167-0.74167 1.3167-1.7359 1.7252-2.9828m-15.688-16.204h8.1422c1.838 0 3.2408 0.11286 4.2082 0.33859 1.3544 0.31172 2.5098 0.87603 3.4665 1.6929 1.2469 1.0534 2.1766 2.4024 2.7893 4.0469 0.62342 1.6338 0.93515 3.5041 0.93515 5.6109 0 1.795-0.2096 3.3859-0.6288 4.7725s-0.95664 2.5367-1.6123 3.4504c-0.65568 0.90291-1.3758 1.6177-2.1605 2.1444-0.77391 0.51594-1.7144 0.90827-2.8216 1.177-1.0964 0.26872-2.3594 0.40308-3.789 0.40308h-8.5292v-19.617m-20.686-4.0196 9.6141 14.371m2.8008 4.1866v-18.558m2.9989 0v23.637m-3.2085 0-12.415-18.574v18.574m-2.9989 0v-23.637m-12.173 0 9.674 23.637m-3.5632 0-2.7571-7.1587h-9.8836m-0.73504 2.0271-1.8608 5.1316m-3.3214 0 9.0774-23.637m5.756 13.93-2.4669-6.546c-0.75241-1.9885-1.3114-3.6224-1.6768-4.9015-0.30097 1.5156-0.72555 3.0204-1.2737 4.5145l-2.5958 6.933h5.1763m-28.458-11.141v7.1426h5.1111c1.3866 0 2.3809-0.0914 2.9828-0.27409 0.79541-0.23647 1.392-0.62881 1.7897-1.177 0.40844-0.54819 0.61268-1.2361 0.61268-2.0638 0-0.78467-0.18809-1.4726-0.56431-2.0638-0.3762-0.60193-0.91364-1.0104-1.6123-1.2254-0.69868-0.22573-1.8972-0.33859-3.5955-0.33859m-7.852-2.7893h8.8678m6.546 22.073c-0.68791 0.51595-1.5532 0.90828-2.5958 1.177-1.0319 0.25797-2.3002 0.38695-3.8051 0.38695h-9.0129v-21.6m13.205-1.311c1.0964 0.47295 1.9509 1.2092 2.5636 2.2089 0.62343 0.98889 0.93514 2.0262 0.93514 3.1118 0 1.0104-0.27409 1.9617-0.82228 2.8538s-1.3758 1.6123-2.483 2.1605c1.4296 0.41921 2.526 1.134 3.2891 2.1444 0.77392 1.0104 1.1609 2.2035 1.1609 3.5794m-27.119-15.64c1.7521 1.0426 3.0849 2.4991 3.9986 4.3694 0.92439 1.8596 1.3866 3.9717 1.3866 6.3364 0 2.397-0.4837 4.5414-1.4511 6.4332-0.96738 1.8918-2.3379 3.3268-4.1114 4.3049-1.7736 0.9674-3.6868 1.4511-5.7399 1.4511-2.225 0-4.2135-0.53744-5.9656-1.6123-1.7521-1.0749-3.0795-2.5421-3.9824-4.4016-0.90289-1.8596-1.3544-3.8266-1.3544-5.9011 0-3.9233 1.0534-6.9921 3.1602-9.2064 2.1068-2.225 4.8262-3.3375 8.1584-3.3375m-0.0322 21.783c2.354 0 4.2888-0.82766 5.8044-2.483 1.5263-1.6553 2.2895-4.0039 2.2895-7.0459 0-1.924-0.32784-3.6009-0.98352-5.0305-0.64493-1.4403-1.5962-2.5528-2.8538-3.3375-1.2469-0.79541-2.6496-1.1931-4.2082-1.1931-2.2142 0-4.1222 0.76317-5.7238 2.2895-1.5908 1.5156-2.3862 4.0523-2.3862 7.6102 0 2.8484 0.76317 5.0949 2.2895 6.7395m-34.407-18.913 12.415 18.558v-18.558m2.9989 0v23.637m-3.2085 0-12.415-18.574v18.574m-2.9989 0v-23.637m-24.62 23.637 9.0774-23.637m10.041 16.3 3.0028 7.3367m-9.6739-23.637 4.7579 11.625m-20.107-11.625v23.637m-3.1279 0v-23.637m-22.718 23.637v-23.637h8.8678c1.8058 0 3.2515 0.24185 4.3372 0.72555 1.0964 0.47295 1.9509 1.2092 2.5636 2.2089m0.93515 3.1118c0 1.0104-0.2741 1.9617-0.82229 2.8538s-1.3758 1.6123-2.483 2.1605c1.4296 0.41921 2.526 1.134 3.2891 2.1444 0.77391 1.0104 1.1609 2.2035 1.1609 3.5794 0 1.1071-0.23647 2.139-0.70942 3.0957-0.4622 0.94589-1.0373 1.6768-1.7252 2.1928-0.68792 0.51595-1.5532 0.90828-2.5958 1.177-1.0319 0.25797-2.3002 0.38695-3.8051 0.38695m-5.885-20.847v7.1426h5.1111c1.3866 0 2.3809-0.0914 2.9828-0.27409 0.79541-0.23647 1.392-0.62881 1.7897-1.177 0.40846-0.54819 0.61268-1.2361 0.61268-2.0638 0-0.78467-0.1881-1.4726-0.56431-2.0638-0.37621-0.60193-0.91365-1.0104-1.6123-1.2254-0.69867-0.22573-1.8972-0.33859-3.5955-0.33859m-4.7241 9.9319v8.1261h5.885c1.0104 0 1.7198-0.0376 2.1283-0.11286 0.72017-0.12899 1.3221-0.34396 1.8058-0.64493s0.8814-0.73629 1.1931-1.306c0.31171-0.58044 0.46757-1.2469 0.46757-1.9993 0-0.8814-0.22572-1.6446-0.67717-2.2895-0.45145-0.65568-1.0803-1.1125-1.8864-1.3705-0.79541-0.26872-1.9455-0.40308-3.4504-0.40308m-20.67-12.721 9.6739 23.637m-3.5632 0-2.7571-7.1587h-9.8836l-2.5958 7.1587m-3.3214 0 2.4789-6.4547m1.0767-2.8038 5.5218-14.378m-2.2573 13.93h8.0133l-2.4669-6.546c-0.75242-1.9885-1.3114-3.6224-1.6768-4.9015-0.30097 1.5156-0.72555 3.0204-1.2737 4.5145zm-6.4977-11.141h-12.818v7.32h11.093m0 2.7893h-11.093v10.738m-3.1279 0v-19.695m0-3.9413h15.946" stroke="#00f5ff" stroke-width="1.2762">
  	<animate
  		attributeName="fill-opacity"
  		values="1;0.5"
  		dur="1s"
  		begin="light_1.begin"/>
  	<animate
  		attributeName="fill-opacity"
  		values="0.5;1"
  		dur="1s"
  		begin="light_1.end"/>
  </path>

   <path d="m304.69 171.69c-1.7736 0.9674-3.6868 1.4511-5.7399 1.4511-2.225 0-4.2135-0.53744-5.9656-1.6123-1.7521-1.0749-3.0795-2.5421-3.9824-4.4016-0.9029-1.8596-1.3544-3.8266-1.3544-5.9011 0-3.9233 1.0534-6.9921 3.1602-9.2064m8.1584-3.3375c2.182 0 4.149 0.52132 5.9011 1.564 1.7521 1.0426 3.0849 2.4991 3.9986 4.3694 0.9244 1.8596 1.3866 3.9717 1.3866 6.3364m-3.2246-0.0161c0-1.924-0.32784-3.6009-0.98352-5.0305-0.64493-1.4403-1.5962-2.5528-2.8538-3.3375-1.2469-0.79541-2.6496-1.1931-4.2082-1.1931-2.2142 0-4.1222 0.76317-5.7238 2.2895-1.5908 1.5156-2.3862 4.0523-2.3862 7.6102 0 2.8484 0.76317 5.0949 2.2895 6.7395 1.5371 1.6338 3.4611 2.4507 5.7721 2.4507 2.354 0 4.2888-0.82766 5.8044-2.483m-36.874 1.967h5.0466c1.5586 0 2.7786-0.14511 3.66-0.43532 0.89215-0.29022 1.6016-0.69868 2.1283-1.2254 0.74167-0.74167 1.3167-1.7359 1.7252-2.9828m-15.688-16.204h8.1422c1.838 0 3.2408 0.11286 4.2082 0.33859 1.3544 0.31172 2.5098 0.87603 3.4665 1.6929 1.2469 1.0534 2.1766 2.4024 2.7893 4.0469 0.62343 1.6338 0.93515 3.5041 0.93515 5.6109 0 1.795-0.2096 3.3859-0.62881 4.7725-0.4192 1.3866-0.95664 2.5367-1.6123 3.4504-0.65568 0.90291-1.3758 1.6177-2.1605 2.1444-0.77391 0.51594-1.7144 0.90827-2.8216 1.177-1.0964 0.26872-2.3594 0.40308-3.789 0.40308h-8.5292v-19.617m-20.686-4.0196 9.6142 14.371m2.8008 4.1866v-18.558m2.9989 0v23.637m-3.2085 0-12.415-18.574v18.574m-2.9989 0v-23.637m-12.173 0 9.674 23.637m-3.5632 0-2.7571-7.1587h-9.8836m-0.73504 2.0271-1.8608 5.1316m-3.3214 0 9.0774-23.637m5.756 13.93-2.4669-6.546c-0.75241-1.9885-1.3114-3.6224-1.6768-4.9015-0.30097 1.5156-0.72555 3.0204-1.2737 4.5145l-2.5958 6.933h5.1763m-28.458-11.141v7.1426h5.1111c1.3866 0 2.3809-0.0914 2.9828-0.27409 0.79541-0.23647 1.392-0.62881 1.7897-1.177 0.40845-0.54819 0.61268-1.2361 0.61268-2.0638 0-0.78467-0.1881-1.4726-0.56431-2.0638-0.37621-0.60193-0.91365-1.0104-1.6123-1.2254-0.69868-0.22573-1.8972-0.33859-3.5955-0.33859m-7.852-2.7893h8.8678m6.546 22.073c-0.68792 0.51595-1.5532 0.90828-2.5958 1.177-1.0319 0.25797-2.3002 0.38695-3.8051 0.38695h-9.0129v-21.6m13.205-1.311c1.0964 0.47295 1.9509 1.2092 2.5636 2.2089 0.62343 0.98889 0.93514 2.0262 0.93514 3.1118 0 1.0104-0.27409 1.9617-0.82228 2.8538s-1.3758 1.6123-2.483 2.1605c1.4296 0.41921 2.526 1.134 3.2891 2.1444 0.77392 1.0104 1.1609 2.2035 1.1609 3.5794m-27.119-15.64c1.7521 1.0426 3.0849 2.4991 3.9986 4.3694 0.92439 1.8596 1.3866 3.9717 1.3866 6.3364 0 2.397-0.4837 4.5414-1.4511 6.4332-0.96739 1.8918-2.3379 3.3268-4.1114 4.3049-1.7736 0.9674-3.6868 1.4511-5.7399 1.4511-2.225 0-4.2135-0.53744-5.9656-1.6123-1.7521-1.0749-3.0795-2.5421-3.9824-4.4016-0.9029-1.8596-1.3544-3.8266-1.3544-5.9011 0-3.9233 1.0534-6.9921 3.1602-9.2064 2.1068-2.225 4.8262-3.3375 8.1584-3.3375m-0.0322 21.783c2.354 0 4.2888-0.82766 5.8044-2.483 1.5263-1.6553 2.2895-4.0039 2.2895-7.0459 0-1.924-0.32784-3.6009-0.98352-5.0305-0.64493-1.4403-1.5962-2.5528-2.8538-3.3375-1.2469-0.79541-2.6496-1.1931-4.2082-1.1931-2.2142 0-4.1222 0.76317-5.7238 2.2895-1.5908 1.5156-2.3862 4.0523-2.3862 7.6102 0 2.8484 0.76317 5.0949 2.2895 6.7395m-34.407-18.913 12.415 18.558v-18.558m2.9989 0v23.637m-3.2085 0-12.415-18.574v18.574m-2.9989 0v-23.637m-24.62 23.637 9.0774-23.637m10.041 16.3 3.0028 7.3367m-9.6739-23.637 4.7579 11.625m-20.107-11.625v23.637m-3.1279 0v-23.637m-22.718 23.637v-23.637h8.8678c1.8058 0 3.2515 0.24185 4.3372 0.72555 1.0964 0.47295 1.9509 1.2092 2.5636 2.2089m0.93515 3.1118c0 1.0104-0.2741 1.9617-0.82229 2.8538s-1.3758 1.6123-2.483 2.1605c1.4296 0.41921 2.526 1.134 3.2891 2.1444 0.77391 1.0104 1.1609 2.2035 1.1609 3.5794 0 1.1071-0.23647 2.139-0.70942 3.0957-0.4622 0.94589-1.0373 1.6768-1.7252 2.1928-0.68793 0.51595-1.5532 0.90828-2.5958 1.177-1.0319 0.25797-2.3002 0.38695-3.8051 0.38695m-5.885-20.847v7.1426h5.1111c1.3866 0 2.3809-0.0914 2.9828-0.27409 0.79541-0.23647 1.392-0.62881 1.7897-1.177 0.40846-0.54819 0.61268-1.2361 0.61268-2.0638 0-0.78467-0.1881-1.4726-0.56431-2.0638-0.37621-0.60193-0.91365-1.0104-1.6123-1.2254-0.69867-0.22573-1.8972-0.33859-3.5955-0.33859m-4.7241 9.9319v8.1261h5.885c1.0104 0 1.7198-0.0376 2.1283-0.11286 0.72017-0.12899 1.3221-0.34396 1.8058-0.64493s0.8814-0.73629 1.1931-1.306c0.31172-0.58044 0.46758-1.2469 0.46758-1.9993 0-0.8814-0.22573-1.6446-0.67718-2.2895-0.45145-0.65568-1.0803-1.1125-1.8864-1.3705-0.79541-0.26872-1.9455-0.40308-3.4504-0.40308m-20.67-12.721 9.6739 23.637m-3.5632 0-2.7571-7.1587h-9.8836l-2.5958 7.1587m-3.3214 0 2.4789-6.4547m1.0767-2.8038 5.5218-14.378m-2.2573 13.93h8.0133l-2.4669-6.546c-0.75242-1.9885-1.3114-3.6224-1.6768-4.9015-0.30097 1.5156-0.72555 3.0204-1.2737 4.5145zm-6.4977-11.141h-12.818v7.32h11.093m0 2.7893h-11.093v10.738m-3.1279 0v-19.695m0-3.9413h15.946" stroke="#f7f9ff" stroke-width=".79459"/>
  </g>
 </g>
</svg>
